<?xml version="1.0" encoding="UTF-8" standalone="no"?>
<!DOCTYPE svg PUBLIC "-//W3C//DTD SVG 1.1//EN"
 "http://www.w3.org/Graphics/SVG/1.1/DTD/svg11.dtd">
<!-- Generated by graphviz version 2.36.0 (20140111.2315)
 -->
<!-- Title: G Pages: 1 -->
<svg width="1365pt" height="4915pt"
 viewBox="0.00 0.00 1365.00 4915.00" xmlns="http://www.w3.org/2000/svg" xmlns:xlink="http://www.w3.org/1999/xlink">
<g id="graph0" class="graph" transform="scale(1 1) rotate(0) translate(4 4911)">
<title>G</title>
<polygon fill="white" stroke="none" points="-4,4 -4,-4911 1361,-4911 1361,4 -4,4"/>
<text text-anchor="middle" x="678.5" y="-4891.8" font-family="Times,serif" font-size="14.00">nngraph_1in_1out_lua_cEX4o6</text>
<!-- n1 -->
<g id="node1" class="node"><title>n1</title>
<g id="a_node1"><a xlink:title="[[string &quot;dimension = 2...&quot;]]:24_">
<ellipse fill="none" stroke="purple" cx="415" cy="-202" rx="152.042" ry="69.0935"/>
<text text-anchor="middle" x="415" y="-235.8" font-family="Times,serif" font-size="14.00">Final Layer (1)</text>
<text text-anchor="middle" x="415" y="-220.8" font-family="Times,serif" font-size="14.00">desc = Final output. Using Sigmoid</text>
<text text-anchor="start" x="315.5" y="-205.8" font-family="Times,serif" font-size="14.00">input = {Tensor[2x2x56x56]}</text>
<text text-anchor="start" x="315.5" y="-190.8" font-family="Times,serif" font-size="14.00">module = nn.Sigmoid</text>
<text text-anchor="start" x="315.5" y="-175.8" font-family="Times,serif" font-size="14.00">reverseMap = {}</text>
<text text-anchor="middle" x="415" y="-160.8" font-family="Times,serif" font-size="14.00">gradOutput = {Tensor[2x2x56x56]}</text>
</a>
</g>
</g>
<!-- n2 -->
<g id="node2" class="node"><title>n2</title>
<g id="a_node2"><a xlink:title="[[C]]:&#45;1_">
<ellipse fill="none" stroke="black" cx="415" cy="-48" rx="152.042" ry="48.1667"/>
<text text-anchor="middle" x="415" y="-66.8" font-family="Times,serif" font-size="14.00">Node2</text>
<text text-anchor="start" x="315.5" y="-51.8" font-family="Times,serif" font-size="14.00">input = {Tensor[2x2x56x56]}</text>
<text text-anchor="start" x="315.5" y="-36.8" font-family="Times,serif" font-size="14.00">reverseMap = {}</text>
<text text-anchor="middle" x="415" y="-21.8" font-family="Times,serif" font-size="14.00">gradOutput = {Tensor[2x2x56x56]}</text>
</a>
</g>
</g>
<!-- n1&#45;&gt;n2 -->
<g id="edge1" class="edge"><title>n1&#45;&gt;n2</title>
<path fill="none" stroke="black" d="M415,-132.559C415,-123.82 415,-114.946 415,-106.406"/>
<polygon fill="black" stroke="black" points="418.5,-106.186 415,-96.1859 411.5,-106.186 418.5,-106.186"/>
</g>
<!-- n3 -->
<g id="node3" class="node"><title>n3</title>
<g id="a_node3"><a xlink:title="[[string &quot;dimension = 2...&quot;]]:24_">
<ellipse fill="none" stroke="black" cx="415" cy="-367" rx="228.093" ry="58.8803"/>
<text text-anchor="middle" x="415" y="-393.3" font-family="Times,serif" font-size="14.00">Node3</text>
<text text-anchor="start" x="261.5" y="-378.3" font-family="Times,serif" font-size="14.00">input = {Tensor[2x64x56x56]}</text>
<text text-anchor="start" x="261.5" y="-363.3" font-family="Times,serif" font-size="14.00">module = nn.SpatialConvolution(64 &#45;&gt; 2, 3x3, 1,1, 1,1)</text>
<text text-anchor="start" x="261.5" y="-348.3" font-family="Times,serif" font-size="14.00">reverseMap = {}</text>
<text text-anchor="middle" x="415" y="-333.3" font-family="Times,serif" font-size="14.00">gradOutput = {Tensor[2x2x56x56]}</text>
</a>
</g>
</g>
<!-- n3&#45;&gt;n1 -->
<g id="edge2" class="edge"><title>n3&#45;&gt;n1</title>
<path fill="none" stroke="black" d="M415,-308.073C415,-299.43 415,-290.4 415,-281.42"/>
<polygon fill="black" stroke="black" points="418.5,-281.326 415,-271.326 411.5,-281.326 418.5,-281.326"/>
</g>
<!-- n4 -->
<g id="node4" class="node"><title>n4</title>
<g id="a_node4"><a xlink:title="[[string &quot;dimension = 2...&quot;]]:22_">
<ellipse fill="none" stroke="black" cx="415" cy="-521" rx="171.241" ry="58.8803"/>
<text text-anchor="middle" x="415" y="-547.3" font-family="Times,serif" font-size="14.00">Node4</text>
<text text-anchor="start" x="301.5" y="-532.3" font-family="Times,serif" font-size="14.00">input = {Tensor[2x64x112x112]}</text>
<text text-anchor="start" x="301.5" y="-517.3" font-family="Times,serif" font-size="14.00">module = nn.SpatialMaxPooling(2,2,2,2)</text>
<text text-anchor="start" x="301.5" y="-502.3" font-family="Times,serif" font-size="14.00">reverseMap = {}</text>
<text text-anchor="middle" x="415" y="-487.3" font-family="Times,serif" font-size="14.00">gradOutput = {Tensor[2x64x56x56]}</text>
</a>
</g>
</g>
<!-- n4&#45;&gt;n3 -->
<g id="edge3" class="edge"><title>n4&#45;&gt;n3</title>
<path fill="none" stroke="black" d="M415,-462.102C415,-453.539 415,-444.651 415,-435.907"/>
<polygon fill="black" stroke="black" points="418.5,-435.737 415,-425.737 411.5,-435.737 418.5,-435.737"/>
</g>
<!-- n5 -->
<g id="node5" class="node"><title>n5</title>
<g id="a_node5"><a xlink:title="[[string &quot;dimension = 2...&quot;]]:22_">
<ellipse fill="none" stroke="black" cx="415" cy="-675" rx="166.255" ry="58.8803"/>
<text text-anchor="middle" x="415" y="-701.3" font-family="Times,serif" font-size="14.00">Node5</text>
<text text-anchor="start" x="305.5" y="-686.3" font-family="Times,serif" font-size="14.00">input = {Tensor[2x64x112x112]}</text>
<text text-anchor="start" x="305.5" y="-671.3" font-family="Times,serif" font-size="14.00">module = nn.ReLU</text>
<text text-anchor="start" x="305.5" y="-656.3" font-family="Times,serif" font-size="14.00">reverseMap = {}</text>
<text text-anchor="middle" x="415" y="-641.3" font-family="Times,serif" font-size="14.00">gradOutput = {Tensor[2x64x112x112]}</text>
</a>
</g>
</g>
<!-- n5&#45;&gt;n4 -->
<g id="edge4" class="edge"><title>n5&#45;&gt;n4</title>
<path fill="none" stroke="black" d="M415,-616.102C415,-607.539 415,-598.651 415,-589.907"/>
<polygon fill="black" stroke="black" points="418.5,-589.737 415,-579.737 411.5,-589.737 418.5,-589.737"/>
</g>
<!-- n6 -->
<g id="node6" class="node"><title>n6</title>
<g id="a_node6"><a xlink:title="[[string &quot;dimension = 2...&quot;]]:21_">
<ellipse fill="none" stroke="black" cx="415" cy="-829" rx="168.498" ry="58.8803"/>
<text text-anchor="middle" x="415" y="-855.3" font-family="Times,serif" font-size="14.00">Node6</text>
<text text-anchor="start" x="303.5" y="-840.3" font-family="Times,serif" font-size="14.00">input = {Tensor[2x64x112x112]}</text>
<text text-anchor="start" x="303.5" y="-825.3" font-family="Times,serif" font-size="14.00">module = nn.SpatialBatchNormalization</text>
<text text-anchor="start" x="303.5" y="-810.3" font-family="Times,serif" font-size="14.00">reverseMap = {}</text>
<text text-anchor="middle" x="415" y="-795.3" font-family="Times,serif" font-size="14.00">gradOutput = {Tensor[2x64x112x112]}</text>
</a>
</g>
</g>
<!-- n6&#45;&gt;n5 -->
<g id="edge5" class="edge"><title>n6&#45;&gt;n5</title>
<path fill="none" stroke="black" d="M415,-770.102C415,-761.539 415,-752.651 415,-743.907"/>
<polygon fill="black" stroke="black" points="418.5,-743.737 415,-733.737 411.5,-743.737 418.5,-743.737"/>
</g>
<!-- n7 -->
<g id="node7" class="node"><title>n7</title>
<g id="a_node7"><a xlink:title="[[string &quot;dimension = 2...&quot;]]:21_">
<ellipse fill="none" stroke="black" cx="415" cy="-983" rx="232.457" ry="58.8803"/>
<text text-anchor="middle" x="415" y="-1009.3" font-family="Times,serif" font-size="14.00">Node7</text>
<text text-anchor="start" x="258.5" y="-994.3" font-family="Times,serif" font-size="14.00">input = {Tensor[2x32x112x112]}</text>
<text text-anchor="start" x="258.5" y="-979.3" font-family="Times,serif" font-size="14.00">module = nn.SpatialConvolution(32 &#45;&gt; 64, 3x3, 1,1, 1,1)</text>
<text text-anchor="start" x="258.5" y="-964.3" font-family="Times,serif" font-size="14.00">reverseMap = {}</text>
<text text-anchor="middle" x="415" y="-949.3" font-family="Times,serif" font-size="14.00">gradOutput = {Tensor[2x64x112x112]}</text>
</a>
</g>
</g>
<!-- n7&#45;&gt;n6 -->
<g id="edge6" class="edge"><title>n7&#45;&gt;n6</title>
<path fill="none" stroke="black" d="M415,-924.102C415,-915.539 415,-906.651 415,-897.907"/>
<polygon fill="black" stroke="black" points="418.5,-897.737 415,-887.737 411.5,-897.737 418.5,-897.737"/>
</g>
<!-- n8 -->
<g id="node8" class="node"><title>n8</title>
<g id="a_node8"><a xlink:title="[[string &quot;dimension = 2...&quot;]]:19_">
<ellipse fill="none" stroke="black" cx="415" cy="-1137" rx="171.241" ry="58.8803"/>
<text text-anchor="middle" x="415" y="-1163.3" font-family="Times,serif" font-size="14.00">Node8</text>
<text text-anchor="start" x="301.5" y="-1148.3" font-family="Times,serif" font-size="14.00">input = {Tensor[2x32x224x224]}</text>
<text text-anchor="start" x="301.5" y="-1133.3" font-family="Times,serif" font-size="14.00">module = nn.SpatialMaxPooling(2,2,2,2)</text>
<text text-anchor="start" x="301.5" y="-1118.3" font-family="Times,serif" font-size="14.00">reverseMap = {}</text>
<text text-anchor="middle" x="415" y="-1103.3" font-family="Times,serif" font-size="14.00">gradOutput = {Tensor[2x32x112x112]}</text>
</a>
</g>
</g>
<!-- n8&#45;&gt;n7 -->
<g id="edge7" class="edge"><title>n8&#45;&gt;n7</title>
<path fill="none" stroke="black" d="M415,-1078.1C415,-1069.54 415,-1060.65 415,-1051.91"/>
<polygon fill="black" stroke="black" points="418.5,-1051.74 415,-1041.74 411.5,-1051.74 418.5,-1051.74"/>
</g>
<!-- n9 -->
<g id="node9" class="node"><title>n9</title>
<g id="a_node9"><a xlink:title="[[string &quot;dimension = 2...&quot;]]:19_">
<ellipse fill="none" stroke="black" cx="415" cy="-1291" rx="166.255" ry="58.8803"/>
<text text-anchor="middle" x="415" y="-1317.3" font-family="Times,serif" font-size="14.00">Node9</text>
<text text-anchor="start" x="305.5" y="-1302.3" font-family="Times,serif" font-size="14.00">input = {Tensor[2x32x224x224]}</text>
<text text-anchor="start" x="305.5" y="-1287.3" font-family="Times,serif" font-size="14.00">module = nn.ReLU</text>
<text text-anchor="start" x="305.5" y="-1272.3" font-family="Times,serif" font-size="14.00">reverseMap = {}</text>
<text text-anchor="middle" x="415" y="-1257.3" font-family="Times,serif" font-size="14.00">gradOutput = {Tensor[2x32x224x224]}</text>
</a>
</g>
</g>
<!-- n9&#45;&gt;n8 -->
<g id="edge8" class="edge"><title>n9&#45;&gt;n8</title>
<path fill="none" stroke="black" d="M415,-1232.1C415,-1223.54 415,-1214.65 415,-1205.91"/>
<polygon fill="black" stroke="black" points="418.5,-1205.74 415,-1195.74 411.5,-1205.74 418.5,-1205.74"/>
</g>
<!-- n10 -->
<g id="node10" class="node"><title>n10</title>
<g id="a_node10"><a xlink:title="[[string &quot;dimension = 2...&quot;]]:18_">
<ellipse fill="none" stroke="black" cx="415" cy="-1445" rx="168.498" ry="58.8803"/>
<text text-anchor="middle" x="415" y="-1471.3" font-family="Times,serif" font-size="14.00">Node10</text>
<text text-anchor="start" x="303.5" y="-1456.3" font-family="Times,serif" font-size="14.00">input = {Tensor[2x32x224x224]}</text>
<text text-anchor="start" x="303.5" y="-1441.3" font-family="Times,serif" font-size="14.00">module = nn.SpatialBatchNormalization</text>
<text text-anchor="start" x="303.5" y="-1426.3" font-family="Times,serif" font-size="14.00">reverseMap = {}</text>
<text text-anchor="middle" x="415" y="-1411.3" font-family="Times,serif" font-size="14.00">gradOutput = {Tensor[2x32x224x224]}</text>
</a>
</g>
</g>
<!-- n10&#45;&gt;n9 -->
<g id="edge9" class="edge"><title>n10&#45;&gt;n9</title>
<path fill="none" stroke="black" d="M415,-1386.1C415,-1377.54 415,-1368.65 415,-1359.91"/>
<polygon fill="black" stroke="black" points="418.5,-1359.74 415,-1349.74 411.5,-1359.74 418.5,-1359.74"/>
</g>
<!-- n11 -->
<g id="node11" class="node"><title>n11</title>
<g id="a_node11"><a xlink:title="[[string &quot;dimension = 2...&quot;]]:18_">
<ellipse fill="none" stroke="black" cx="415" cy="-1599" rx="232.457" ry="58.8803"/>
<text text-anchor="middle" x="415" y="-1625.3" font-family="Times,serif" font-size="14.00">Node11</text>
<text text-anchor="start" x="258.5" y="-1610.3" font-family="Times,serif" font-size="14.00">input = {Tensor[2x99x224x224]}</text>
<text text-anchor="start" x="258.5" y="-1595.3" font-family="Times,serif" font-size="14.00">module = nn.SpatialConvolution(99 &#45;&gt; 32, 3x3, 1,1, 1,1)</text>
<text text-anchor="start" x="258.5" y="-1580.3" font-family="Times,serif" font-size="14.00">reverseMap = {}</text>
<text text-anchor="middle" x="415" y="-1565.3" font-family="Times,serif" font-size="14.00">gradOutput = {Tensor[2x32x224x224]}</text>
</a>
</g>
</g>
<!-- n11&#45;&gt;n10 -->
<g id="edge10" class="edge"><title>n11&#45;&gt;n10</title>
<path fill="none" stroke="black" d="M415,-1540.1C415,-1531.54 415,-1522.65 415,-1513.91"/>
<polygon fill="black" stroke="black" points="418.5,-1513.74 415,-1503.74 411.5,-1513.74 418.5,-1513.74"/>
</g>
<!-- n12 -->
<g id="node12" class="node"><title>n12</title>
<g id="a_node12"><a xlink:title="[[string &quot;dimension = 2...&quot;]]:11_">
<ellipse fill="none" stroke="grey" cx="415" cy="-1774" rx="415.169" ry="79.8063"/>
<text text-anchor="middle" x="415" y="-1815.3" font-family="Times,serif" font-size="14.00">Joining layer (12)</text>
<text text-anchor="middle" x="415" y="-1800.3" font-family="Times,serif" font-size="14.00">desc = Joining input, level1, deconved_level3, deconved_level6</text>
<text text-anchor="start" x="129" y="-1785.3" font-family="Times,serif" font-size="14.00">input = {Tensor[2x3x224x224],Tensor[2x64x224x224],Tensor[2x16x224x224],Tensor[2x16x224x224]}</text>
<text text-anchor="start" x="129" y="-1770.3" font-family="Times,serif" font-size="14.00">mapindex = {Node13,Node14,Node15,Node16}</text>
<text text-anchor="start" x="129" y="-1755.3" font-family="Times,serif" font-size="14.00">module = nn.JoinTable</text>
<text text-anchor="start" x="129" y="-1740.3" font-family="Times,serif" font-size="14.00">reverseMap = {}</text>
<text text-anchor="middle" x="415" y="-1725.3" font-family="Times,serif" font-size="14.00">gradOutput = {Tensor[2x99x224x224]}</text>
</a>
</g>
</g>
<!-- n12&#45;&gt;n11 -->
<g id="edge11" class="edge"><title>n12&#45;&gt;n11</title>
<path fill="none" stroke="black" d="M415,-1694.09C415,-1685.41 415,-1676.63 415,-1668.1"/>
<polygon fill="black" stroke="black" points="418.5,-1667.84 415,-1657.84 411.5,-1667.84 418.5,-1667.84"/>
</g>
<!-- n13 -->
<g id="node13" class="node"><title>n13</title>
<g id="a_node13"><a xlink:title="[[string &quot;input = nn.Identity()():annotate{...&quot;]]:1_">
<ellipse fill="none" stroke="green" cx="485" cy="-4672" rx="176.166" ry="79.8062"/>
<text text-anchor="middle" x="485" y="-4713.3" font-family="Times,serif" font-size="14.00">Conv Layer 1 (13)</text>
<text text-anchor="middle" x="485" y="-4698.3" font-family="Times,serif" font-size="14.00">desc = Image Features</text>
<text text-anchor="start" x="368" y="-4683.3" font-family="Times,serif" font-size="14.00">gradOutputBuffer = Tensor[2x3x224x224]</text>
<text text-anchor="start" x="368" y="-4668.3" font-family="Times,serif" font-size="14.00">input = {Tensor[2x3x224x224]}</text>
<text text-anchor="start" x="368" y="-4653.3" font-family="Times,serif" font-size="14.00">module = nn.Identity</text>
<text text-anchor="start" x="368" y="-4638.3" font-family="Times,serif" font-size="14.00">reverseMap = {}</text>
<text text-anchor="middle" x="485" y="-4623.3" font-family="Times,serif" font-size="14.00">gradOutput = {Tensor[2x3x224x224]}</text>
</a>
</g>
</g>
<!-- n13&#45;&gt;n12 -->
<g id="edge12" class="edge"><title>n13&#45;&gt;n12</title>
<path fill="none" stroke="black" d="M415.97,-4598.18C406.278,-4584.92 397.443,-4570.63 391,-4556 348.65,-4459.82 357,-4427.09 357,-4322 357,-4322 357,-4322 357,-2135 357,-2041.74 376.208,-1936.59 392.516,-1864.13"/>
<polygon fill="black" stroke="black" points="395.986,-1864.65 394.796,-1854.13 389.161,-1863.1 395.986,-1864.65"/>
</g>
<!-- n21 -->
<g id="node21" class="node"><title>n21</title>
<g id="a_node21"><a xlink:title="[[string &quot;input = nn.Identity()():annotate{...&quot;]]:22_">
<ellipse fill="none" stroke="red" cx="628" cy="-4486" rx="228.093" ry="69.0935"/>
<text text-anchor="middle" x="628" y="-4519.8" font-family="Times,serif" font-size="14.00">Conv Layer 1 (21)</text>
<text text-anchor="middle" x="628" y="-4504.8" font-family="Times,serif" font-size="14.00">desc = Image Features</text>
<text text-anchor="start" x="474.5" y="-4489.8" font-family="Times,serif" font-size="14.00">input = {Tensor[2x3x224x224]}</text>
<text text-anchor="start" x="474.5" y="-4474.8" font-family="Times,serif" font-size="14.00">module = nn.SpatialConvolution(3 &#45;&gt; 64, 3x3, 1,1, 1,1)</text>
<text text-anchor="start" x="474.5" y="-4459.8" font-family="Times,serif" font-size="14.00">reverseMap = {}</text>
<text text-anchor="middle" x="628" y="-4444.8" font-family="Times,serif" font-size="14.00">gradOutput = {}</text>
</a>
</g>
</g>
<!-- n13&#45;&gt;n21 -->
<g id="edge23" class="edge"><title>n13&#45;&gt;n21</title>
<path fill="none" stroke="black" d="M542.957,-4596.43C551.804,-4585.04 560.937,-4573.29 569.789,-4561.9"/>
<polygon fill="black" stroke="black" points="572.804,-4563.72 576.177,-4553.68 567.277,-4559.43 572.804,-4563.72"/>
</g>
<!-- n14 -->
<g id="node14" class="node"><title>n14</title>
<g id="a_node14"><a xlink:title="[[string &quot;input = nn.Identity()():annotate{...&quot;]]:26_">
<ellipse fill="red" stroke="blue" cx="644" cy="-4146" rx="258.202" ry="79.8062"/>
<text text-anchor="middle" x="644" y="-4187.3" font-family="Times,serif" font-size="14.00">Conv Layer 2 (14)</text>
<text text-anchor="middle" x="644" y="-4172.3" font-family="Times,serif" font-size="14.00">desc = Image Features</text>
<text text-anchor="start" x="469" y="-4157.3" font-family="Times,serif" font-size="14.00">gradOutputBuffer = Tensor[2x64x224x224]</text>
<text text-anchor="start" x="469" y="-4142.3" font-family="Times,serif" font-size="14.00">input = {Tensor[2x64x224x224]}</text>
<text text-anchor="start" x="469" y="-4127.3" font-family="Times,serif" font-size="14.00">module = nn.SpatialConvolution(64 &#45;&gt; 64, 3x3, 1,1, 1,1)</text>
<text text-anchor="start" x="469" y="-4112.3" font-family="Times,serif" font-size="14.00">reverseMap = {}</text>
<text text-anchor="middle" x="644" y="-4097.3" font-family="Times,serif" font-size="14.00">gradOutput = {Tensor[2x64x224x224],Tensor[2x64x224x224]}</text>
</a>
</g>
</g>
<!-- n14&#45;&gt;n12 -->
<g id="edge13" class="edge"><title>n14&#45;&gt;n12</title>
<path fill="none" stroke="black" d="M520.089,-4075.68C502.693,-4062.17 486.257,-4046.88 473,-4030 410.997,-3951.04 395,-3918.4 395,-3818 395,-3818 395,-3818 395,-2135 395,-2042.48 401.666,-1936.8 407.302,-1863.99"/>
<polygon fill="black" stroke="black" points="410.797,-1864.18 408.089,-1853.94 403.819,-1863.63 410.797,-1864.18"/>
</g>
<!-- n28 -->
<g id="node28" class="node"><title>n28</title>
<g id="a_node28"><a xlink:title="[[string &quot;input = nn.Identity()():annotate{...&quot;]]:30_">
<ellipse fill="none" stroke="black" cx="648" cy="-3971" rx="166.255" ry="58.8803"/>
<text text-anchor="middle" x="648" y="-3997.3" font-family="Times,serif" font-size="14.00">Node28</text>
<text text-anchor="start" x="538.5" y="-3982.3" font-family="Times,serif" font-size="14.00">input = {Tensor[2x64x224x224]}</text>
<text text-anchor="start" x="538.5" y="-3967.3" font-family="Times,serif" font-size="14.00">module = nn.ReLU</text>
<text text-anchor="start" x="538.5" y="-3952.3" font-family="Times,serif" font-size="14.00">reverseMap = {}</text>
<text text-anchor="middle" x="648" y="-3937.3" font-family="Times,serif" font-size="14.00">gradOutput = {Tensor[2x64x224x224]}</text>
</a>
</g>
</g>
<!-- n14&#45;&gt;n28 -->
<g id="edge30" class="edge"><title>n14&#45;&gt;n28</title>
<path fill="none" stroke="black" d="M645.824,-4066.09C646.025,-4057.41 646.228,-4048.63 646.425,-4040.1"/>
<polygon fill="black" stroke="black" points="649.93,-4039.92 646.663,-4029.84 642.932,-4039.76 649.93,-4039.92"/>
</g>
<!-- n15 -->
<g id="node15" class="node"><title>n15</title>
<g id="a_node15"><a xlink:title="[[string &quot;dimension = 2...&quot;]]:3_">
<ellipse fill="none" stroke="yellow" cx="676" cy="-2972" rx="253.216" ry="69.0935"/>
<text text-anchor="middle" x="676" y="-3005.8" font-family="Times,serif" font-size="14.00">Deconving level 3 (15)</text>
<text text-anchor="middle" x="676" y="-2990.8" font-family="Times,serif" font-size="14.00">desc = To increase the dimension</text>
<text text-anchor="start" x="505" y="-2975.8" font-family="Times,serif" font-size="14.00">input = {Tensor[2x128x112x112]}</text>
<text text-anchor="start" x="505" y="-2960.8" font-family="Times,serif" font-size="14.00">module = nn.SpatialFullConvolution(128 &#45;&gt; 16, 1x1, 2,2, 1,1)</text>
<text text-anchor="start" x="505" y="-2945.8" font-family="Times,serif" font-size="14.00">reverseMap = {}</text>
<text text-anchor="middle" x="676" y="-2930.8" font-family="Times,serif" font-size="14.00">gradOutput = {Tensor[2x16x224x224]}</text>
</a>
</g>
</g>
<!-- n15&#45;&gt;n12 -->
<g id="edge14" class="edge"><title>n15&#45;&gt;n12</title>
<path fill="none" stroke="black" d="M593.07,-2906.23C523.699,-2844.14 436,-2743.59 436,-2632 436,-2632 436,-2632 436,-2135 436,-2042.47 429,-1936.79 423.083,-1863.98"/>
<polygon fill="black" stroke="black" points="426.565,-1863.61 422.256,-1853.93 419.588,-1864.18 426.565,-1863.61"/>
</g>
<!-- n16 -->
<g id="node16" class="node"><title>n16</title>
<g id="a_node16"><a xlink:title="[[string &quot;dimension = 2...&quot;]]:7_">
<ellipse fill="none" stroke="yellow" cx="723" cy="-1960" rx="253.216" ry="69.0935"/>
<text text-anchor="middle" x="723" y="-1993.8" font-family="Times,serif" font-size="14.00">Deconving level 6 (16)</text>
<text text-anchor="middle" x="723" y="-1978.8" font-family="Times,serif" font-size="14.00">desc = To increase the dimension</text>
<text text-anchor="start" x="552" y="-1963.8" font-family="Times,serif" font-size="14.00">input = {Tensor[2x256x56x56]}</text>
<text text-anchor="start" x="552" y="-1948.8" font-family="Times,serif" font-size="14.00">module = nn.SpatialFullConvolution(256 &#45;&gt; 16, 2x2, 4,4, 2,2)</text>
<text text-anchor="start" x="552" y="-1933.8" font-family="Times,serif" font-size="14.00">reverseMap = {}</text>
<text text-anchor="middle" x="723" y="-1918.8" font-family="Times,serif" font-size="14.00">gradOutput = {Tensor[2x16x224x224]}</text>
</a>
</g>
</g>
<!-- n16&#45;&gt;n12 -->
<g id="edge15" class="edge"><title>n16&#45;&gt;n12</title>
<path fill="none" stroke="black" d="M618.725,-1896.71C596.596,-1883.49 572.933,-1869.35 549.852,-1855.56"/>
<polygon fill="black" stroke="black" points="551.419,-1852.42 541.039,-1850.3 547.829,-1858.43 551.419,-1852.42"/>
</g>
<!-- n17 -->
<g id="node17" class="node"><title>n17</title>
<g id="a_node17"><a xlink:title="[[C]]:&#45;1_">
<ellipse fill="none" stroke="black" cx="485" cy="-4836" rx="137.268" ry="48.1667"/>
<text text-anchor="middle" x="485" y="-4854.8" font-family="Times,serif" font-size="14.00">Node17</text>
<text text-anchor="start" x="396" y="-4839.8" font-family="Times,serif" font-size="14.00">input = {Tensor[2x3x224x224]}</text>
<text text-anchor="start" x="396" y="-4824.8" font-family="Times,serif" font-size="14.00">reverseMap = {}</text>
<text text-anchor="middle" x="485" y="-4809.8" font-family="Times,serif" font-size="14.00">gradOutput = {}</text>
</a>
</g>
</g>
<!-- n17&#45;&gt;n13 -->
<g id="edge16" class="edge"><title>n17&#45;&gt;n13</title>
<path fill="none" stroke="black" d="M485,-4787.71C485,-4779.65 485,-4771.06 485,-4762.33"/>
<polygon fill="black" stroke="black" points="488.5,-4762.05 485,-4752.05 481.5,-4762.05 488.5,-4762.05"/>
</g>
<!-- n18 -->
<g id="node18" class="node"><title>n18</title>
<g id="a_node18"><a xlink:title="[[string &quot;input = nn.Identity()():annotate{...&quot;]]:26_">
<ellipse fill="none" stroke="black" cx="636" cy="-4321" rx="142.193" ry="58.8803"/>
<text text-anchor="middle" x="636" y="-4347.3" font-family="Times,serif" font-size="14.00">Node18</text>
<text text-anchor="start" x="543.5" y="-4332.3" font-family="Times,serif" font-size="14.00">input = {Tensor[2x64x224x224]}</text>
<text text-anchor="start" x="543.5" y="-4317.3" font-family="Times,serif" font-size="14.00">module = nn.ReLU</text>
<text text-anchor="start" x="543.5" y="-4302.3" font-family="Times,serif" font-size="14.00">reverseMap = {}</text>
<text text-anchor="middle" x="636" y="-4287.3" font-family="Times,serif" font-size="14.00">gradOutput = {}</text>
</a>
</g>
</g>
<!-- n18&#45;&gt;n14 -->
<g id="edge17" class="edge"><title>n18&#45;&gt;n14</title>
<path fill="none" stroke="black" d="M638.686,-4261.91C639.068,-4253.66 639.468,-4245.01 639.869,-4236.33"/>
<polygon fill="black" stroke="black" points="643.374,-4236.3 640.34,-4226.15 636.382,-4235.97 643.374,-4236.3"/>
</g>
<!-- n19 -->
<g id="node19" class="node"><title>n19</title>
<g id="a_node19"><a xlink:title="[[string &quot;input = nn.Identity()():annotate{...&quot;]]:34_">
<ellipse fill="none" stroke="blue" cx="692" cy="-3312" rx="268.551" ry="79.8063"/>
<text text-anchor="middle" x="692" y="-3353.3" font-family="Times,serif" font-size="14.00">Conv Layer 3 (19)</text>
<text text-anchor="middle" x="692" y="-3338.3" font-family="Times,serif" font-size="14.00">desc = Image Features</text>
<text text-anchor="start" x="510" y="-3323.3" font-family="Times,serif" font-size="14.00">gradOutputBuffer = Tensor[2x128x112x112]</text>
<text text-anchor="start" x="510" y="-3308.3" font-family="Times,serif" font-size="14.00">input = {Tensor[2x128x112x112]}</text>
<text text-anchor="start" x="510" y="-3293.3" font-family="Times,serif" font-size="14.00">module = nn.SpatialConvolution(128 &#45;&gt; 128, 3x3, 1,1, 1,1)</text>
<text text-anchor="start" x="510" y="-3278.3" font-family="Times,serif" font-size="14.00">reverseMap = {}</text>
<text text-anchor="middle" x="692" y="-3263.3" font-family="Times,serif" font-size="14.00">gradOutput = {Tensor[2x128x112x112],Tensor[2x128x112x112]}</text>
</a>
</g>
</g>
<!-- n19&#45;&gt;n15 -->
<g id="edge18" class="edge"><title>n19&#45;&gt;n15</title>
<path fill="none" stroke="black" d="M688.249,-3231.75C685.68,-3177.49 682.289,-3105.85 679.726,-3051.7"/>
<polygon fill="black" stroke="black" points="683.21,-3051.29 679.241,-3041.46 676.218,-3051.62 683.21,-3051.29"/>
</g>
<!-- n31 -->
<g id="node31" class="node"><title>n31</title>
<g id="a_node31"><a xlink:title="[[string &quot;input = nn.Identity()():annotate{...&quot;]]:38_">
<ellipse fill="none" stroke="black" cx="1005" cy="-3137" rx="171.18" ry="58.8803"/>
<text text-anchor="middle" x="1005" y="-3163.3" font-family="Times,serif" font-size="14.00">Node31</text>
<text text-anchor="start" x="892" y="-3148.3" font-family="Times,serif" font-size="14.00">input = {Tensor[2x128x112x112]}</text>
<text text-anchor="start" x="892" y="-3133.3" font-family="Times,serif" font-size="14.00">module = nn.ReLU</text>
<text text-anchor="start" x="892" y="-3118.3" font-family="Times,serif" font-size="14.00">reverseMap = {}</text>
<text text-anchor="middle" x="1005" y="-3103.3" font-family="Times,serif" font-size="14.00">gradOutput = {Tensor[2x128x112x112]}</text>
</a>
</g>
</g>
<!-- n19&#45;&gt;n31 -->
<g id="edge33" class="edge"><title>n19&#45;&gt;n31</title>
<path fill="none" stroke="black" d="M817.956,-3241.38C847.54,-3225.03 878.638,-3207.84 906.799,-3192.28"/>
<polygon fill="black" stroke="black" points="908.774,-3195.18 915.833,-3187.28 905.388,-3189.06 908.774,-3195.18"/>
</g>
<!-- n20 -->
<g id="node20" class="node"><title>n20</title>
<g id="a_node20"><a xlink:title="[[string &quot;input = nn.Identity()():annotate{...&quot;]]:46_">
<ellipse fill="none" stroke="blue" cx="736" cy="-2136" rx="242.306" ry="69.0935"/>
<text text-anchor="middle" x="736" y="-2169.8" font-family="Times,serif" font-size="14.00">Conv Layer 3 (20)</text>
<text text-anchor="middle" x="736" y="-2154.8" font-family="Times,serif" font-size="14.00">desc = Image Features</text>
<text text-anchor="start" x="572.5" y="-2139.8" font-family="Times,serif" font-size="14.00">input = {Tensor[2x256x56x56]}</text>
<text text-anchor="start" x="572.5" y="-2124.8" font-family="Times,serif" font-size="14.00">module = nn.SpatialConvolution(256 &#45;&gt; 256, 3x3, 1,1, 1,1)</text>
<text text-anchor="start" x="572.5" y="-2109.8" font-family="Times,serif" font-size="14.00">reverseMap = {}</text>
<text text-anchor="middle" x="736" y="-2094.8" font-family="Times,serif" font-size="14.00">gradOutput = {Tensor[2x256x56x56]}</text>
</a>
</g>
</g>
<!-- n20&#45;&gt;n16 -->
<g id="edge19" class="edge"><title>n20&#45;&gt;n16</title>
<path fill="none" stroke="black" d="M730.862,-2066.23C730.207,-2057.47 729.533,-2048.44 728.868,-2039.54"/>
<polygon fill="black" stroke="black" points="732.357,-2039.27 728.122,-2029.55 725.377,-2039.79 732.357,-2039.27"/>
</g>
<!-- n21&#45;&gt;n18 -->
<g id="edge20" class="edge"><title>n21&#45;&gt;n18</title>
<path fill="none" stroke="black" d="M631.37,-4416.35C631.799,-4407.59 632.239,-4398.63 632.668,-4389.89"/>
<polygon fill="black" stroke="black" points="636.171,-4389.91 633.166,-4379.75 629.18,-4389.57 636.171,-4389.91"/>
</g>
<!-- n22 -->
<g id="node22" class="node"><title>n22</title>
<g id="a_node22"><a xlink:title="[[string &quot;input = nn.Identity()():annotate{...&quot;]]:34_">
<ellipse fill="none" stroke="black" cx="684" cy="-3487" rx="171.18" ry="58.8803"/>
<text text-anchor="middle" x="684" y="-3513.3" font-family="Times,serif" font-size="14.00">Node22</text>
<text text-anchor="start" x="571" y="-3498.3" font-family="Times,serif" font-size="14.00">input = {Tensor[2x128x112x112]}</text>
<text text-anchor="start" x="571" y="-3483.3" font-family="Times,serif" font-size="14.00">module = nn.ReLU</text>
<text text-anchor="start" x="571" y="-3468.3" font-family="Times,serif" font-size="14.00">reverseMap = {}</text>
<text text-anchor="middle" x="684" y="-3453.3" font-family="Times,serif" font-size="14.00">gradOutput = {Tensor[2x128x112x112]}</text>
</a>
</g>
</g>
<!-- n22&#45;&gt;n19 -->
<g id="edge21" class="edge"><title>n22&#45;&gt;n19</title>
<path fill="none" stroke="black" d="M686.686,-3427.91C687.068,-3419.66 687.468,-3411.01 687.869,-3402.33"/>
<polygon fill="black" stroke="black" points="691.374,-3402.3 688.34,-3392.15 684.382,-3401.97 691.374,-3402.3"/>
</g>
<!-- n23 -->
<g id="node23" class="node"><title>n23</title>
<g id="a_node23"><a xlink:title="[[string &quot;input = nn.Identity()():annotate{...&quot;]]:46_">
<ellipse fill="none" stroke="black" cx="761" cy="-2301" rx="161.331" ry="58.8803"/>
<text text-anchor="middle" x="761" y="-2327.3" font-family="Times,serif" font-size="14.00">Node23</text>
<text text-anchor="start" x="655" y="-2312.3" font-family="Times,serif" font-size="14.00">input = {Tensor[2x256x56x56]}</text>
<text text-anchor="start" x="655" y="-2297.3" font-family="Times,serif" font-size="14.00">module = nn.ReLU</text>
<text text-anchor="start" x="655" y="-2282.3" font-family="Times,serif" font-size="14.00">reverseMap = {}</text>
<text text-anchor="middle" x="761" y="-2267.3" font-family="Times,serif" font-size="14.00">gradOutput = {Tensor[2x256x56x56]}</text>
</a>
</g>
</g>
<!-- n23&#45;&gt;n20 -->
<g id="edge22" class="edge"><title>n23&#45;&gt;n20</title>
<path fill="none" stroke="black" d="M752.116,-2242.07C750.79,-2233.43 749.405,-2224.4 748.028,-2215.42"/>
<polygon fill="black" stroke="black" points="751.455,-2214.68 746.479,-2205.33 744.536,-2215.74 751.455,-2214.68"/>
</g>
<!-- n24 -->
<g id="node24" class="node"><title>n24</title>
<g id="a_node24"><a xlink:title="[[string &quot;input = nn.Identity()():annotate{...&quot;]]:30_">
<ellipse fill="none" stroke="red" cx="676" cy="-3652" rx="237.382" ry="69.0935"/>
<text text-anchor="middle" x="676" y="-3685.8" font-family="Times,serif" font-size="14.00">Conv Layer 3 (24)</text>
<text text-anchor="middle" x="676" y="-3670.8" font-family="Times,serif" font-size="14.00">desc = Image Features</text>
<text text-anchor="start" x="516" y="-3655.8" font-family="Times,serif" font-size="14.00">input = {Tensor[2x64x112x112]}</text>
<text text-anchor="start" x="516" y="-3640.8" font-family="Times,serif" font-size="14.00">module = nn.SpatialConvolution(64 &#45;&gt; 128, 3x3, 1,1, 1,1)</text>
<text text-anchor="start" x="516" y="-3625.8" font-family="Times,serif" font-size="14.00">reverseMap = {}</text>
<text text-anchor="middle" x="676" y="-3610.8" font-family="Times,serif" font-size="14.00">gradOutput = {Tensor[2x128x112x112]}</text>
</a>
</g>
</g>
<!-- n24&#45;&gt;n22 -->
<g id="edge24" class="edge"><title>n24&#45;&gt;n22</title>
<path fill="none" stroke="black" d="M679.37,-3582.35C679.799,-3573.59 680.239,-3564.63 680.668,-3555.89"/>
<polygon fill="black" stroke="black" points="684.171,-3555.91 681.166,-3545.75 677.18,-3555.57 684.171,-3555.91"/>
</g>
<!-- n25 -->
<g id="node25" class="node"><title>n25</title>
<g id="a_node25"><a xlink:title="[[string &quot;input = nn.Identity()():annotate{...&quot;]]:42_">
<ellipse fill="none" stroke="red" cx="812" cy="-2466" rx="242.306" ry="69.0935"/>
<text text-anchor="middle" x="812" y="-2499.8" font-family="Times,serif" font-size="14.00">Conv Layer 3 (25)</text>
<text text-anchor="middle" x="812" y="-2484.8" font-family="Times,serif" font-size="14.00">desc = Image Features</text>
<text text-anchor="start" x="648.5" y="-2469.8" font-family="Times,serif" font-size="14.00">input = {Tensor[2x256x56x56]}</text>
<text text-anchor="start" x="648.5" y="-2454.8" font-family="Times,serif" font-size="14.00">module = nn.SpatialConvolution(256 &#45;&gt; 256, 3x3, 1,1, 1,1)</text>
<text text-anchor="start" x="648.5" y="-2439.8" font-family="Times,serif" font-size="14.00">reverseMap = {}</text>
<text text-anchor="middle" x="812" y="-2424.8" font-family="Times,serif" font-size="14.00">gradOutput = {Tensor[2x256x56x56]}</text>
</a>
</g>
</g>
<!-- n25&#45;&gt;n23 -->
<g id="edge25" class="edge"><title>n25&#45;&gt;n23</title>
<path fill="none" stroke="black" d="M790.667,-2396.82C787.82,-2387.72 784.903,-2378.4 782.061,-2369.31"/>
<polygon fill="black" stroke="black" points="785.341,-2368.07 779.014,-2359.58 778.66,-2370.16 785.341,-2368.07"/>
</g>
<!-- n26 -->
<g id="node26" class="node"><title>n26</title>
<g id="a_node26"><a xlink:title="[[string &quot;input = nn.Identity()():annotate{...&quot;]]:30_">
<ellipse fill="none" stroke="black" cx="656" cy="-3817" rx="171.241" ry="58.8803"/>
<text text-anchor="middle" x="656" y="-3843.3" font-family="Times,serif" font-size="14.00">Node26</text>
<text text-anchor="start" x="542.5" y="-3828.3" font-family="Times,serif" font-size="14.00">input = {Tensor[2x64x224x224]}</text>
<text text-anchor="start" x="542.5" y="-3813.3" font-family="Times,serif" font-size="14.00">module = nn.SpatialMaxPooling(2,2,2,2)</text>
<text text-anchor="start" x="542.5" y="-3798.3" font-family="Times,serif" font-size="14.00">reverseMap = {}</text>
<text text-anchor="middle" x="656" y="-3783.3" font-family="Times,serif" font-size="14.00">gradOutput = {Tensor[2x64x112x112]}</text>
</a>
</g>
</g>
<!-- n26&#45;&gt;n24 -->
<g id="edge26" class="edge"><title>n26&#45;&gt;n24</title>
<path fill="none" stroke="black" d="M663.108,-3758.07C664.168,-3749.43 665.276,-3740.4 666.378,-3731.42"/>
<polygon fill="black" stroke="black" points="669.872,-3731.68 667.616,-3721.33 662.925,-3730.83 669.872,-3731.68"/>
</g>
<!-- n27 -->
<g id="node27" class="node"><title>n27</title>
<g id="a_node27"><a xlink:title="[[string &quot;input = nn.Identity()():annotate{...&quot;]]:42_">
<ellipse fill="none" stroke="black" cx="913" cy="-2631" rx="161.331" ry="58.8803"/>
<text text-anchor="middle" x="913" y="-2657.3" font-family="Times,serif" font-size="14.00">Node27</text>
<text text-anchor="start" x="807" y="-2642.3" font-family="Times,serif" font-size="14.00">input = {Tensor[2x256x56x56]}</text>
<text text-anchor="start" x="807" y="-2627.3" font-family="Times,serif" font-size="14.00">module = nn.ReLU</text>
<text text-anchor="start" x="807" y="-2612.3" font-family="Times,serif" font-size="14.00">reverseMap = {}</text>
<text text-anchor="middle" x="913" y="-2597.3" font-family="Times,serif" font-size="14.00">gradOutput = {Tensor[2x256x56x56]}</text>
</a>
</g>
</g>
<!-- n27&#45;&gt;n25 -->
<g id="edge27" class="edge"><title>n27&#45;&gt;n25</title>
<path fill="none" stroke="black" d="M877.959,-2573.45C871.86,-2563.61 865.43,-2553.23 859.071,-2542.97"/>
<polygon fill="black" stroke="black" points="861.999,-2541.05 853.757,-2534.39 856.049,-2544.73 861.999,-2541.05"/>
</g>
<!-- n28&#45;&gt;n26 -->
<g id="edge28" class="edge"><title>n28&#45;&gt;n26</title>
<path fill="none" stroke="black" d="M651.047,-3912.1C651.498,-3903.54 651.966,-3894.65 652.426,-3885.91"/>
<polygon fill="black" stroke="black" points="655.931,-3885.91 652.961,-3875.74 648.94,-3885.54 655.931,-3885.91"/>
</g>
<!-- n29 -->
<g id="node29" class="node"><title>n29</title>
<g id="a_node29"><a xlink:title="[[string &quot;input = nn.Identity()():annotate{...&quot;]]:38_">
<ellipse fill="none" stroke="red" cx="1115" cy="-2796" rx="242.306" ry="69.0935"/>
<text text-anchor="middle" x="1115" y="-2829.8" font-family="Times,serif" font-size="14.00">Conv Layer 3 (29)</text>
<text text-anchor="middle" x="1115" y="-2814.8" font-family="Times,serif" font-size="14.00">desc = Image Features</text>
<text text-anchor="start" x="951.5" y="-2799.8" font-family="Times,serif" font-size="14.00">input = {Tensor[2x128x56x56]}</text>
<text text-anchor="start" x="951.5" y="-2784.8" font-family="Times,serif" font-size="14.00">module = nn.SpatialConvolution(128 &#45;&gt; 256, 3x3, 1,1, 1,1)</text>
<text text-anchor="start" x="951.5" y="-2769.8" font-family="Times,serif" font-size="14.00">reverseMap = {}</text>
<text text-anchor="middle" x="1115" y="-2754.8" font-family="Times,serif" font-size="14.00">gradOutput = {Tensor[2x256x56x56]}</text>
</a>
</g>
</g>
<!-- n29&#45;&gt;n27 -->
<g id="edge29" class="edge"><title>n29&#45;&gt;n27</title>
<path fill="none" stroke="black" d="M1034.87,-2730.34C1018.93,-2717.48 1002.26,-2704.02 986.544,-2691.34"/>
<polygon fill="black" stroke="black" points="988.404,-2688.35 978.423,-2684.79 984.008,-2693.8 988.404,-2688.35"/>
</g>
<!-- n30 -->
<g id="node30" class="node"><title>n30</title>
<g id="a_node30"><a xlink:title="[[string &quot;input = nn.Identity()():annotate{...&quot;]]:38_">
<ellipse fill="none" stroke="black" cx="1119" cy="-2972" rx="171.241" ry="58.8803"/>
<text text-anchor="middle" x="1119" y="-2998.3" font-family="Times,serif" font-size="14.00">Node30</text>
<text text-anchor="start" x="1005.5" y="-2983.3" font-family="Times,serif" font-size="14.00">input = {Tensor[2x128x112x112]}</text>
<text text-anchor="start" x="1005.5" y="-2968.3" font-family="Times,serif" font-size="14.00">module = nn.SpatialMaxPooling(2,2,2,2)</text>
<text text-anchor="start" x="1005.5" y="-2953.3" font-family="Times,serif" font-size="14.00">reverseMap = {}</text>
<text text-anchor="middle" x="1119" y="-2938.3" font-family="Times,serif" font-size="14.00">gradOutput = {Tensor[2x128x56x56]}</text>
</a>
</g>
</g>
<!-- n30&#45;&gt;n29 -->
<g id="edge31" class="edge"><title>n30&#45;&gt;n29</title>
<path fill="none" stroke="black" d="M1117.67,-2913.06C1117.39,-2901.05 1117.1,-2888.2 1116.81,-2875.59"/>
<polygon fill="black" stroke="black" points="1120.3,-2875.46 1116.58,-2865.55 1113.31,-2875.62 1120.3,-2875.46"/>
</g>
<!-- n31&#45;&gt;n30 -->
<g id="edge32" class="edge"><title>n31&#45;&gt;n30</title>
<path fill="none" stroke="black" d="M1044.55,-3079.45C1053.98,-3065.97 1064.11,-3051.48 1073.77,-3037.67"/>
<polygon fill="black" stroke="black" points="1076.85,-3039.38 1079.71,-3029.18 1071.11,-3035.37 1076.85,-3039.38"/>
</g>
</g>
</svg>
