<?xml version="1.0" encoding="UTF-8" standalone="no"?>
<!DOCTYPE svg PUBLIC "-//W3C//DTD SVG 1.1//EN"
 "http://www.w3.org/Graphics/SVG/1.1/DTD/svg11.dtd">
<!-- Generated by graphviz version 2.36.0 (20140111.2315)
 -->
<!-- Title: G Pages: 1 -->
<svg width="1327pt" height="4019pt"
 viewBox="0.00 0.00 1327.00 4019.00" xmlns="http://www.w3.org/2000/svg" xmlns:xlink="http://www.w3.org/1999/xlink">
<g id="graph0" class="graph" transform="scale(1 1) rotate(0) translate(4 4015)">
<title>G</title>
<polygon fill="white" stroke="none" points="-4,4 -4,-4015 1323,-4015 1323,4 -4,4"/>
<text text-anchor="middle" x="659.5" y="-3995.8" font-family="Times,serif" font-size="14.00">nngraph_1in_1out_lua_bVHw2U</text>
<!-- n1 -->
<g id="node1" class="node"><title>n1</title>
<g id="a_node1"><a xlink:title="[[string &quot;dimension = 2...&quot;]]:24_">
<ellipse fill="none" stroke="purple" cx="377" cy="-160" rx="149.36" ry="48.1667"/>
<text text-anchor="middle" x="377" y="-178.8" font-family="Times,serif" font-size="14.00">Final Layer (1)</text>
<text text-anchor="middle" x="377" y="-163.8" font-family="Times,serif" font-size="14.00">desc = Final output. Using Sigmoid</text>
<text text-anchor="start" x="279" y="-148.8" font-family="Times,serif" font-size="14.00">module = nn.Sigmoid</text>
<text text-anchor="middle" x="377" y="-133.8" font-family="Times,serif" font-size="14.00">reverseMap = {}</text>
</a>
</g>
</g>
<!-- n2 -->
<g id="node2" class="node"><title>n2</title>
<g id="a_node2"><a xlink:title="[[C]]:&#45;1_">
<ellipse fill="none" stroke="black" cx="377" cy="-38" rx="77.1743" ry="37.4533"/>
<text text-anchor="middle" x="377" y="-49.3" font-family="Times,serif" font-size="14.00">Node2</text>
<text text-anchor="start" x="330" y="-34.3" font-family="Times,serif" font-size="14.00">input = {}</text>
<text text-anchor="middle" x="377" y="-19.3" font-family="Times,serif" font-size="14.00">reverseMap = {}</text>
</a>
</g>
</g>
<!-- n1&#45;&gt;n2 -->
<g id="edge1" class="edge"><title>n1&#45;&gt;n2</title>
<path fill="none" stroke="black" d="M377,-111.573C377,-103.096 377,-94.269 377,-85.8099"/>
<polygon fill="black" stroke="black" points="380.5,-85.7224 377,-75.7224 373.5,-85.7224 380.5,-85.7224"/>
</g>
<!-- n3 -->
<g id="node3" class="node"><title>n3</title>
<g id="a_node3"><a xlink:title="[[string &quot;dimension = 2...&quot;]]:24_">
<ellipse fill="none" stroke="black" cx="377" cy="-282" rx="228.093" ry="37.4533"/>
<text text-anchor="middle" x="377" y="-293.3" font-family="Times,serif" font-size="14.00">Node3</text>
<text text-anchor="start" x="223.5" y="-278.3" font-family="Times,serif" font-size="14.00">module = nn.SpatialConvolution(64 &#45;&gt; 2, 3x3, 1,1, 1,1)</text>
<text text-anchor="middle" x="377" y="-263.3" font-family="Times,serif" font-size="14.00">reverseMap = {}</text>
</a>
</g>
</g>
<!-- n3&#45;&gt;n1 -->
<g id="edge2" class="edge"><title>n3&#45;&gt;n1</title>
<path fill="none" stroke="black" d="M377,-244.344C377,-236.219 377,-227.418 377,-218.683"/>
<polygon fill="black" stroke="black" points="380.5,-218.503 377,-208.503 373.5,-218.503 380.5,-218.503"/>
</g>
<!-- n4 -->
<g id="node4" class="node"><title>n4</title>
<g id="a_node4"><a xlink:title="[[string &quot;dimension = 2...&quot;]]:22_">
<ellipse fill="none" stroke="black" cx="377" cy="-394" rx="171.241" ry="37.4533"/>
<text text-anchor="middle" x="377" y="-405.3" font-family="Times,serif" font-size="14.00">Node4</text>
<text text-anchor="start" x="263.5" y="-390.3" font-family="Times,serif" font-size="14.00">module = nn.SpatialMaxPooling(2,2,2,2)</text>
<text text-anchor="middle" x="377" y="-375.3" font-family="Times,serif" font-size="14.00">reverseMap = {}</text>
</a>
</g>
</g>
<!-- n4&#45;&gt;n3 -->
<g id="edge3" class="edge"><title>n4&#45;&gt;n3</title>
<path fill="none" stroke="black" d="M377,-356.372C377,-347.927 377,-338.829 377,-330.011"/>
<polygon fill="black" stroke="black" points="380.5,-329.843 377,-319.844 373.5,-329.844 380.5,-329.843"/>
</g>
<!-- n5 -->
<g id="node5" class="node"><title>n5</title>
<g id="a_node5"><a xlink:title="[[string &quot;dimension = 2...&quot;]]:22_">
<ellipse fill="none" stroke="black" cx="377" cy="-506" rx="87.5215" ry="37.4533"/>
<text text-anchor="middle" x="377" y="-517.3" font-family="Times,serif" font-size="14.00">Node5</text>
<text text-anchor="start" x="323" y="-502.3" font-family="Times,serif" font-size="14.00">module = nn.ReLU</text>
<text text-anchor="middle" x="377" y="-487.3" font-family="Times,serif" font-size="14.00">reverseMap = {}</text>
</a>
</g>
</g>
<!-- n5&#45;&gt;n4 -->
<g id="edge4" class="edge"><title>n5&#45;&gt;n4</title>
<path fill="none" stroke="black" d="M377,-468.372C377,-459.927 377,-450.829 377,-442.011"/>
<polygon fill="black" stroke="black" points="380.5,-441.843 377,-431.844 373.5,-441.844 380.5,-441.843"/>
</g>
<!-- n6 -->
<g id="node6" class="node"><title>n6</title>
<g id="a_node6"><a xlink:title="[[string &quot;dimension = 2...&quot;]]:21_">
<ellipse fill="none" stroke="black" cx="377" cy="-618" rx="168.498" ry="37.4533"/>
<text text-anchor="middle" x="377" y="-629.3" font-family="Times,serif" font-size="14.00">Node6</text>
<text text-anchor="start" x="265.5" y="-614.3" font-family="Times,serif" font-size="14.00">module = nn.SpatialBatchNormalization</text>
<text text-anchor="middle" x="377" y="-599.3" font-family="Times,serif" font-size="14.00">reverseMap = {}</text>
</a>
</g>
</g>
<!-- n6&#45;&gt;n5 -->
<g id="edge5" class="edge"><title>n6&#45;&gt;n5</title>
<path fill="none" stroke="black" d="M377,-580.372C377,-571.927 377,-562.829 377,-554.011"/>
<polygon fill="black" stroke="black" points="380.5,-553.843 377,-543.844 373.5,-553.844 380.5,-553.843"/>
</g>
<!-- n7 -->
<g id="node7" class="node"><title>n7</title>
<g id="a_node7"><a xlink:title="[[string &quot;dimension = 2...&quot;]]:21_">
<ellipse fill="none" stroke="black" cx="377" cy="-730" rx="232.457" ry="37.4533"/>
<text text-anchor="middle" x="377" y="-741.3" font-family="Times,serif" font-size="14.00">Node7</text>
<text text-anchor="start" x="220.5" y="-726.3" font-family="Times,serif" font-size="14.00">module = nn.SpatialConvolution(32 &#45;&gt; 64, 3x3, 1,1, 1,1)</text>
<text text-anchor="middle" x="377" y="-711.3" font-family="Times,serif" font-size="14.00">reverseMap = {}</text>
</a>
</g>
</g>
<!-- n7&#45;&gt;n6 -->
<g id="edge6" class="edge"><title>n7&#45;&gt;n6</title>
<path fill="none" stroke="black" d="M377,-692.372C377,-683.927 377,-674.829 377,-666.011"/>
<polygon fill="black" stroke="black" points="380.5,-665.843 377,-655.844 373.5,-665.844 380.5,-665.843"/>
</g>
<!-- n8 -->
<g id="node8" class="node"><title>n8</title>
<g id="a_node8"><a xlink:title="[[string &quot;dimension = 2...&quot;]]:19_">
<ellipse fill="none" stroke="black" cx="377" cy="-842" rx="171.241" ry="37.4533"/>
<text text-anchor="middle" x="377" y="-853.3" font-family="Times,serif" font-size="14.00">Node8</text>
<text text-anchor="start" x="263.5" y="-838.3" font-family="Times,serif" font-size="14.00">module = nn.SpatialMaxPooling(2,2,2,2)</text>
<text text-anchor="middle" x="377" y="-823.3" font-family="Times,serif" font-size="14.00">reverseMap = {}</text>
</a>
</g>
</g>
<!-- n8&#45;&gt;n7 -->
<g id="edge7" class="edge"><title>n8&#45;&gt;n7</title>
<path fill="none" stroke="black" d="M377,-804.372C377,-795.927 377,-786.829 377,-778.011"/>
<polygon fill="black" stroke="black" points="380.5,-777.843 377,-767.844 373.5,-777.844 380.5,-777.843"/>
</g>
<!-- n9 -->
<g id="node9" class="node"><title>n9</title>
<g id="a_node9"><a xlink:title="[[string &quot;dimension = 2...&quot;]]:19_">
<ellipse fill="none" stroke="black" cx="377" cy="-954" rx="87.5215" ry="37.4533"/>
<text text-anchor="middle" x="377" y="-965.3" font-family="Times,serif" font-size="14.00">Node9</text>
<text text-anchor="start" x="323" y="-950.3" font-family="Times,serif" font-size="14.00">module = nn.ReLU</text>
<text text-anchor="middle" x="377" y="-935.3" font-family="Times,serif" font-size="14.00">reverseMap = {}</text>
</a>
</g>
</g>
<!-- n9&#45;&gt;n8 -->
<g id="edge8" class="edge"><title>n9&#45;&gt;n8</title>
<path fill="none" stroke="black" d="M377,-916.372C377,-907.927 377,-898.829 377,-890.011"/>
<polygon fill="black" stroke="black" points="380.5,-889.843 377,-879.844 373.5,-889.844 380.5,-889.843"/>
</g>
<!-- n10 -->
<g id="node10" class="node"><title>n10</title>
<g id="a_node10"><a xlink:title="[[string &quot;dimension = 2...&quot;]]:18_">
<ellipse fill="none" stroke="black" cx="377" cy="-1066" rx="168.498" ry="37.4533"/>
<text text-anchor="middle" x="377" y="-1077.3" font-family="Times,serif" font-size="14.00">Node10</text>
<text text-anchor="start" x="265.5" y="-1062.3" font-family="Times,serif" font-size="14.00">module = nn.SpatialBatchNormalization</text>
<text text-anchor="middle" x="377" y="-1047.3" font-family="Times,serif" font-size="14.00">reverseMap = {}</text>
</a>
</g>
</g>
<!-- n10&#45;&gt;n9 -->
<g id="edge9" class="edge"><title>n10&#45;&gt;n9</title>
<path fill="none" stroke="black" d="M377,-1028.37C377,-1019.93 377,-1010.83 377,-1002.01"/>
<polygon fill="black" stroke="black" points="380.5,-1001.84 377,-991.844 373.5,-1001.84 380.5,-1001.84"/>
</g>
<!-- n11 -->
<g id="node11" class="node"><title>n11</title>
<g id="a_node11"><a xlink:title="[[string &quot;dimension = 2...&quot;]]:18_">
<ellipse fill="red" stroke="black" cx="377" cy="-1188" rx="232.457" ry="48.1667"/>
<text text-anchor="middle" x="377" y="-1206.8" font-family="Times,serif" font-size="14.00">Node11</text>
<text text-anchor="start" x="220.5" y="-1191.8" font-family="Times,serif" font-size="14.00">input = {Tensor[5x99x64x64]}</text>
<text text-anchor="start" x="220.5" y="-1176.8" font-family="Times,serif" font-size="14.00">module = nn.SpatialConvolution(49 &#45;&gt; 32, 3x3, 1,1, 1,1)</text>
<text text-anchor="middle" x="377" y="-1161.8" font-family="Times,serif" font-size="14.00">reverseMap = {}</text>
</a>
</g>
</g>
<!-- n11&#45;&gt;n10 -->
<g id="edge10" class="edge"><title>n11&#45;&gt;n10</title>
<path fill="none" stroke="black" d="M377,-1139.57C377,-1131.1 377,-1122.27 377,-1113.81"/>
<polygon fill="black" stroke="black" points="380.5,-1113.72 377,-1103.72 373.5,-1113.72 380.5,-1113.72"/>
</g>
<!-- n12 -->
<g id="node12" class="node"><title>n12</title>
<g id="a_node12"><a xlink:title="[[string &quot;dimension = 2...&quot;]]:11_">
<ellipse fill="none" stroke="grey" cx="377" cy="-1342" rx="377.392" ry="69.0935"/>
<text text-anchor="middle" x="377" y="-1375.8" font-family="Times,serif" font-size="14.00">Joining layer (12)</text>
<text text-anchor="middle" x="377" y="-1360.8" font-family="Times,serif" font-size="14.00">desc = Joining input, level1, deconved_level3, deconved_level6</text>
<text text-anchor="start" x="118" y="-1345.8" font-family="Times,serif" font-size="14.00">input = {Tensor[5x3x64x64],Tensor[5x64x64x64],Tensor[5x16x64x64],Tensor[5x16x64x64]}</text>
<text text-anchor="start" x="118" y="-1330.8" font-family="Times,serif" font-size="14.00">module = nn.JoinTable</text>
<text text-anchor="start" x="118" y="-1315.8" font-family="Times,serif" font-size="14.00">reverseMap = {}</text>
<text text-anchor="middle" x="377" y="-1300.8" font-family="Times,serif" font-size="14.00">mapindex = {Node13,Node14,Node15,Node16}</text>
</a>
</g>
</g>
<!-- n12&#45;&gt;n11 -->
<g id="edge11" class="edge"><title>n12&#45;&gt;n11</title>
<path fill="none" stroke="black" d="M377,-1272.56C377,-1263.82 377,-1254.95 377,-1246.41"/>
<polygon fill="black" stroke="black" points="380.5,-1246.19 377,-1236.19 373.5,-1246.19 380.5,-1246.19"/>
</g>
<!-- n13 -->
<g id="node13" class="node"><title>n13</title>
<g id="a_node13"><a xlink:title="[[string &quot;input = nn.Identity()():annotate{...&quot;]]:1_">
<ellipse fill="none" stroke="green" cx="447" cy="-3817" rx="127.48" ry="58.8803"/>
<text text-anchor="middle" x="447" y="-3843.3" font-family="Times,serif" font-size="14.00">Conv Layer 1 (13)</text>
<text text-anchor="middle" x="447" y="-3828.3" font-family="Times,serif" font-size="14.00">desc = Image Features</text>
<text text-anchor="start" x="364.5" y="-3813.3" font-family="Times,serif" font-size="14.00">input = {Tensor[5x3x64x64]}</text>
<text text-anchor="start" x="364.5" y="-3798.3" font-family="Times,serif" font-size="14.00">module = nn.Identity</text>
<text text-anchor="middle" x="447" y="-3783.3" font-family="Times,serif" font-size="14.00">reverseMap = {}</text>
</a>
</g>
</g>
<!-- n13&#45;&gt;n12 -->
<g id="edge12" class="edge"><title>n13&#45;&gt;n12</title>
<path fill="none" stroke="black" d="M376.867,-3767.96C362.42,-3754.75 348.912,-3739.24 340,-3722 298.759,-3642.21 319,-3610.82 319,-3521 319,-3521 319,-3521 319,-1660 319,-1577.55 338.22,-1484.98 354.531,-1421.26"/>
<polygon fill="black" stroke="black" points="357.995,-1421.85 357.121,-1411.29 351.22,-1420.09 357.995,-1421.85"/>
</g>
<!-- n21 -->
<g id="node21" class="node"><title>n21</title>
<g id="a_node21"><a xlink:title="[[string &quot;input = nn.Identity()():annotate{...&quot;]]:22_">
<ellipse fill="none" stroke="red" cx="577" cy="-3663" rx="228.093" ry="58.8803"/>
<text text-anchor="middle" x="577" y="-3689.3" font-family="Times,serif" font-size="14.00">Conv Layer 1 (21)</text>
<text text-anchor="middle" x="577" y="-3674.3" font-family="Times,serif" font-size="14.00">desc = Image Features</text>
<text text-anchor="start" x="423.5" y="-3659.3" font-family="Times,serif" font-size="14.00">input = {Tensor[5x3x64x64]}</text>
<text text-anchor="start" x="423.5" y="-3644.3" font-family="Times,serif" font-size="14.00">module = nn.SpatialConvolution(3 &#45;&gt; 64, 3x3, 1,1, 1,1)</text>
<text text-anchor="middle" x="577" y="-3629.3" font-family="Times,serif" font-size="14.00">reverseMap = {}</text>
</a>
</g>
</g>
<!-- n13&#45;&gt;n21 -->
<g id="edge23" class="edge"><title>n13&#45;&gt;n21</title>
<path fill="none" stroke="black" d="M493.199,-3761.98C502.568,-3751.03 512.507,-3739.41 522.141,-3728.14"/>
<polygon fill="black" stroke="black" points="524.912,-3730.29 528.752,-3720.41 519.592,-3725.74 524.912,-3730.29"/>
</g>
<!-- n14 -->
<g id="node14" class="node"><title>n14</title>
<g id="a_node14"><a xlink:title="[[string &quot;input = nn.Identity()():annotate{...&quot;]]:26_">
<ellipse fill="none" stroke="blue" cx="580" cy="-3377" rx="232.457" ry="58.8803"/>
<text text-anchor="middle" x="580" y="-3403.3" font-family="Times,serif" font-size="14.00">Conv Layer 2 (14)</text>
<text text-anchor="middle" x="580" y="-3388.3" font-family="Times,serif" font-size="14.00">desc = Image Features</text>
<text text-anchor="start" x="423.5" y="-3373.3" font-family="Times,serif" font-size="14.00">input = {Tensor[5x64x64x64]}</text>
<text text-anchor="start" x="423.5" y="-3358.3" font-family="Times,serif" font-size="14.00">module = nn.SpatialConvolution(64 &#45;&gt; 64, 3x3, 1,1, 1,1)</text>
<text text-anchor="middle" x="580" y="-3343.3" font-family="Times,serif" font-size="14.00">reverseMap = {}</text>
</a>
</g>
</g>
<!-- n14&#45;&gt;n12 -->
<g id="edge13" class="edge"><title>n14&#45;&gt;n12</title>
<path fill="none" stroke="black" d="M492.951,-3322.48C477.166,-3310.4 461.704,-3296.73 449,-3282 390.588,-3214.26 357,-3192.45 357,-3103 357,-3103 357,-3103 357,-1660 357,-1578.61 363.649,-1485.69 369.279,-1421.59"/>
<polygon fill="black" stroke="black" points="372.772,-1421.83 370.173,-1411.56 365.799,-1421.21 372.772,-1421.83"/>
</g>
<!-- n28 -->
<g id="node28" class="node"><title>n28</title>
<g id="a_node28"><a xlink:title="[[string &quot;input = nn.Identity()():annotate{...&quot;]]:30_">
<ellipse fill="none" stroke="black" cx="591" cy="-3234" rx="132.404" ry="48.1667"/>
<text text-anchor="middle" x="591" y="-3252.8" font-family="Times,serif" font-size="14.00">Node28</text>
<text text-anchor="start" x="505" y="-3237.8" font-family="Times,serif" font-size="14.00">input = {Tensor[5x64x64x64]}</text>
<text text-anchor="start" x="505" y="-3222.8" font-family="Times,serif" font-size="14.00">module = nn.ReLU</text>
<text text-anchor="middle" x="591" y="-3207.8" font-family="Times,serif" font-size="14.00">reverseMap = {}</text>
</a>
</g>
</g>
<!-- n14&#45;&gt;n28 -->
<g id="edge30" class="edge"><title>n14&#45;&gt;n28</title>
<path fill="none" stroke="black" d="M584.506,-3318.24C585.172,-3309.7 585.859,-3300.9 586.525,-3292.36"/>
<polygon fill="black" stroke="black" points="590.035,-3292.36 587.324,-3282.12 583.057,-3291.82 590.035,-3292.36"/>
</g>
<!-- n15 -->
<g id="node15" class="node"><title>n15</title>
<g id="a_node15"><a xlink:title="[[string &quot;dimension = 2...&quot;]]:3_">
<ellipse fill="none" stroke="yellow" cx="638" cy="-2387" rx="253.216" ry="58.8803"/>
<text text-anchor="middle" x="638" y="-2413.3" font-family="Times,serif" font-size="14.00">Deconving level 3 (15)</text>
<text text-anchor="middle" x="638" y="-2398.3" font-family="Times,serif" font-size="14.00">desc = To increase the dimension</text>
<text text-anchor="start" x="467" y="-2383.3" font-family="Times,serif" font-size="14.00">input = {Tensor[5x128x32x32]}</text>
<text text-anchor="start" x="467" y="-2368.3" font-family="Times,serif" font-size="14.00">module = nn.SpatialFullConvolution(128 &#45;&gt; 16, 1x1, 2,2, 1,1)</text>
<text text-anchor="middle" x="638" y="-2353.3" font-family="Times,serif" font-size="14.00">reverseMap = {}</text>
</a>
</g>
</g>
<!-- n15&#45;&gt;n12 -->
<g id="edge14" class="edge"><title>n15&#45;&gt;n12</title>
<path fill="none" stroke="black" d="M554.397,-2331.5C485.133,-2279.06 398,-2192.84 398,-2091 398,-2091 398,-2091 398,-1660 398,-1578.59 391.019,-1485.67 385.107,-1421.58"/>
<polygon fill="black" stroke="black" points="388.585,-1421.18 384.168,-1411.55 381.615,-1421.83 388.585,-1421.18"/>
</g>
<!-- n16 -->
<g id="node16" class="node"><title>n16</title>
<g id="a_node16"><a xlink:title="[[string &quot;dimension = 2...&quot;]]:7_">
<ellipse fill="none" stroke="yellow" cx="685" cy="-1507" rx="253.216" ry="58.8803"/>
<text text-anchor="middle" x="685" y="-1533.3" font-family="Times,serif" font-size="14.00">Deconving level 6 (16)</text>
<text text-anchor="middle" x="685" y="-1518.3" font-family="Times,serif" font-size="14.00">desc = To increase the dimension</text>
<text text-anchor="start" x="514" y="-1503.3" font-family="Times,serif" font-size="14.00">input = {Tensor[5x256x16x16]}</text>
<text text-anchor="start" x="514" y="-1488.3" font-family="Times,serif" font-size="14.00">module = nn.SpatialFullConvolution(256 &#45;&gt; 16, 2x2, 4,4, 2,2)</text>
<text text-anchor="middle" x="685" y="-1473.3" font-family="Times,serif" font-size="14.00">reverseMap = {}</text>
</a>
</g>
</g>
<!-- n16&#45;&gt;n12 -->
<g id="edge15" class="edge"><title>n16&#45;&gt;n12</title>
<path fill="none" stroke="black" d="M585.001,-1453.08C560.489,-1440.11 533.888,-1426.03 508.156,-1412.41"/>
<polygon fill="black" stroke="black" points="509.572,-1409.2 499.096,-1407.62 506.298,-1415.39 509.572,-1409.2"/>
</g>
<!-- n17 -->
<g id="node17" class="node"><title>n17</title>
<g id="a_node17"><a xlink:title="[[C]]:&#45;1_">
<ellipse fill="none" stroke="black" cx="447" cy="-3950" rx="127.48" ry="37.4533"/>
<text text-anchor="middle" x="447" y="-3961.3" font-family="Times,serif" font-size="14.00">Node17</text>
<text text-anchor="start" x="364.5" y="-3946.3" font-family="Times,serif" font-size="14.00">input = {Tensor[5x3x64x64]}</text>
<text text-anchor="middle" x="447" y="-3931.3" font-family="Times,serif" font-size="14.00">reverseMap = {}</text>
</a>
</g>
</g>
<!-- n17&#45;&gt;n13 -->
<g id="edge16" class="edge"><title>n17&#45;&gt;n13</title>
<path fill="none" stroke="black" d="M447,-3912.51C447,-3904.26 447,-3895.24 447,-3886.15"/>
<polygon fill="black" stroke="black" points="450.5,-3885.9 447,-3875.9 443.5,-3885.9 450.5,-3885.9"/>
</g>
<!-- n18 -->
<g id="node18" class="node"><title>n18</title>
<g id="a_node18"><a xlink:title="[[string &quot;input = nn.Identity()():annotate{...&quot;]]:26_">
<ellipse fill="none" stroke="black" cx="578" cy="-3520" rx="132.404" ry="48.1667"/>
<text text-anchor="middle" x="578" y="-3538.8" font-family="Times,serif" font-size="14.00">Node18</text>
<text text-anchor="start" x="492" y="-3523.8" font-family="Times,serif" font-size="14.00">input = {Tensor[5x64x64x64]}</text>
<text text-anchor="start" x="492" y="-3508.8" font-family="Times,serif" font-size="14.00">module = nn.ReLU</text>
<text text-anchor="middle" x="578" y="-3493.8" font-family="Times,serif" font-size="14.00">reverseMap = {}</text>
</a>
</g>
</g>
<!-- n18&#45;&gt;n14 -->
<g id="edge17" class="edge"><title>n18&#45;&gt;n14</title>
<path fill="none" stroke="black" d="M578.672,-3471.66C578.789,-3463.38 578.913,-3454.62 579.037,-3445.91"/>
<polygon fill="black" stroke="black" points="582.539,-3445.79 579.181,-3435.74 575.539,-3445.69 582.539,-3445.79"/>
</g>
<!-- n19 -->
<g id="node19" class="node"><title>n19</title>
<g id="a_node19"><a xlink:title="[[string &quot;input = nn.Identity()():annotate{...&quot;]]:34_">
<ellipse fill="none" stroke="blue" cx="638" cy="-2673" rx="242.306" ry="58.8803"/>
<text text-anchor="middle" x="638" y="-2699.3" font-family="Times,serif" font-size="14.00">Conv Layer 3 (19)</text>
<text text-anchor="middle" x="638" y="-2684.3" font-family="Times,serif" font-size="14.00">desc = Image Features</text>
<text text-anchor="start" x="474.5" y="-2669.3" font-family="Times,serif" font-size="14.00">input = {Tensor[5x128x32x32]}</text>
<text text-anchor="start" x="474.5" y="-2654.3" font-family="Times,serif" font-size="14.00">module = nn.SpatialConvolution(128 &#45;&gt; 128, 3x3, 1,1, 1,1)</text>
<text text-anchor="middle" x="638" y="-2639.3" font-family="Times,serif" font-size="14.00">reverseMap = {}</text>
</a>
</g>
</g>
<!-- n19&#45;&gt;n15 -->
<g id="edge18" class="edge"><title>n19&#45;&gt;n15</title>
<path fill="none" stroke="black" d="M638,-2614.19C638,-2568.31 638,-2504.08 638,-2455.78"/>
<polygon fill="black" stroke="black" points="641.5,-2455.73 638,-2445.73 634.5,-2455.73 641.5,-2455.73"/>
</g>
<!-- n31 -->
<g id="node31" class="node"><title>n31</title>
<g id="a_node31"><a xlink:title="[[string &quot;input = nn.Identity()():annotate{...&quot;]]:38_">
<ellipse fill="none" stroke="black" cx="942" cy="-2530" rx="137.268" ry="48.1667"/>
<text text-anchor="middle" x="942" y="-2548.8" font-family="Times,serif" font-size="14.00">Node31</text>
<text text-anchor="start" x="853" y="-2533.8" font-family="Times,serif" font-size="14.00">input = {Tensor[5x128x32x32]}</text>
<text text-anchor="start" x="853" y="-2518.8" font-family="Times,serif" font-size="14.00">module = nn.ReLU</text>
<text text-anchor="middle" x="942" y="-2503.8" font-family="Times,serif" font-size="14.00">reverseMap = {}</text>
</a>
</g>
</g>
<!-- n19&#45;&gt;n31 -->
<g id="edge33" class="edge"><title>n19&#45;&gt;n31</title>
<path fill="none" stroke="black" d="M748.611,-2620.7C782.295,-2605.07 818.915,-2588.09 851.137,-2573.14"/>
<polygon fill="black" stroke="black" points="852.944,-2576.16 860.543,-2568.78 849.999,-2569.81 852.944,-2576.16"/>
</g>
<!-- n20 -->
<g id="node20" class="node"><title>n20</title>
<g id="a_node20"><a xlink:title="[[string &quot;input = nn.Identity()():annotate{...&quot;]]:46_">
<ellipse fill="none" stroke="blue" cx="698" cy="-1661" rx="242.306" ry="58.8803"/>
<text text-anchor="middle" x="698" y="-1687.3" font-family="Times,serif" font-size="14.00">Conv Layer 3 (20)</text>
<text text-anchor="middle" x="698" y="-1672.3" font-family="Times,serif" font-size="14.00">desc = Image Features</text>
<text text-anchor="start" x="534.5" y="-1657.3" font-family="Times,serif" font-size="14.00">input = {Tensor[5x256x16x16]}</text>
<text text-anchor="start" x="534.5" y="-1642.3" font-family="Times,serif" font-size="14.00">module = nn.SpatialConvolution(256 &#45;&gt; 256, 3x3, 1,1, 1,1)</text>
<text text-anchor="middle" x="698" y="-1627.3" font-family="Times,serif" font-size="14.00">reverseMap = {}</text>
</a>
</g>
</g>
<!-- n20&#45;&gt;n16 -->
<g id="edge19" class="edge"><title>n20&#45;&gt;n16</title>
<path fill="none" stroke="black" d="M693.048,-1602.1C692.316,-1593.54 691.556,-1584.65 690.808,-1575.91"/>
<polygon fill="black" stroke="black" points="694.278,-1575.4 689.938,-1565.74 687.303,-1576 694.278,-1575.4"/>
</g>
<!-- n21&#45;&gt;n18 -->
<g id="edge20" class="edge"><title>n21&#45;&gt;n18</title>
<path fill="none" stroke="black" d="M577.41,-3604.24C577.47,-3595.7 577.533,-3586.9 577.593,-3578.36"/>
<polygon fill="black" stroke="black" points="581.095,-3578.15 577.666,-3568.12 574.095,-3578.1 581.095,-3578.15"/>
</g>
<!-- n22 -->
<g id="node22" class="node"><title>n22</title>
<g id="a_node22"><a xlink:title="[[string &quot;input = nn.Identity()():annotate{...&quot;]]:34_">
<ellipse fill="none" stroke="black" cx="634" cy="-2816" rx="137.268" ry="48.1667"/>
<text text-anchor="middle" x="634" y="-2834.8" font-family="Times,serif" font-size="14.00">Node22</text>
<text text-anchor="start" x="545" y="-2819.8" font-family="Times,serif" font-size="14.00">input = {Tensor[5x128x32x32]}</text>
<text text-anchor="start" x="545" y="-2804.8" font-family="Times,serif" font-size="14.00">module = nn.ReLU</text>
<text text-anchor="middle" x="634" y="-2789.8" font-family="Times,serif" font-size="14.00">reverseMap = {}</text>
</a>
</g>
</g>
<!-- n22&#45;&gt;n19 -->
<g id="edge21" class="edge"><title>n22&#45;&gt;n19</title>
<path fill="none" stroke="black" d="M635.343,-2767.66C635.578,-2759.38 635.826,-2750.62 636.073,-2741.91"/>
<polygon fill="black" stroke="black" points="639.577,-2741.84 636.362,-2731.74 632.58,-2741.64 639.577,-2741.84"/>
</g>
<!-- n23 -->
<g id="node23" class="node"><title>n23</title>
<g id="a_node23"><a xlink:title="[[string &quot;input = nn.Identity()():annotate{...&quot;]]:46_">
<ellipse fill="none" stroke="black" cx="723" cy="-1804" rx="137.268" ry="48.1667"/>
<text text-anchor="middle" x="723" y="-1822.8" font-family="Times,serif" font-size="14.00">Node23</text>
<text text-anchor="start" x="634" y="-1807.8" font-family="Times,serif" font-size="14.00">input = {Tensor[5x256x16x16]}</text>
<text text-anchor="start" x="634" y="-1792.8" font-family="Times,serif" font-size="14.00">module = nn.ReLU</text>
<text text-anchor="middle" x="723" y="-1777.8" font-family="Times,serif" font-size="14.00">reverseMap = {}</text>
</a>
</g>
</g>
<!-- n23&#45;&gt;n20 -->
<g id="edge22" class="edge"><title>n23&#45;&gt;n20</title>
<path fill="none" stroke="black" d="M714.606,-1755.66C713.122,-1747.29 711.551,-1738.43 709.99,-1729.63"/>
<polygon fill="black" stroke="black" points="713.43,-1728.98 708.238,-1719.74 706.538,-1730.2 713.43,-1728.98"/>
</g>
<!-- n24 -->
<g id="node24" class="node"><title>n24</title>
<g id="a_node24"><a xlink:title="[[string &quot;input = nn.Identity()():annotate{...&quot;]]:30_">
<ellipse fill="none" stroke="red" cx="630" cy="-2959" rx="237.382" ry="58.8803"/>
<text text-anchor="middle" x="630" y="-2985.3" font-family="Times,serif" font-size="14.00">Conv Layer 3 (24)</text>
<text text-anchor="middle" x="630" y="-2970.3" font-family="Times,serif" font-size="14.00">desc = Image Features</text>
<text text-anchor="start" x="470" y="-2955.3" font-family="Times,serif" font-size="14.00">input = {Tensor[5x64x32x32]}</text>
<text text-anchor="start" x="470" y="-2940.3" font-family="Times,serif" font-size="14.00">module = nn.SpatialConvolution(64 &#45;&gt; 128, 3x3, 1,1, 1,1)</text>
<text text-anchor="middle" x="630" y="-2925.3" font-family="Times,serif" font-size="14.00">reverseMap = {}</text>
</a>
</g>
</g>
<!-- n24&#45;&gt;n22 -->
<g id="edge24" class="edge"><title>n24&#45;&gt;n22</title>
<path fill="none" stroke="black" d="M631.638,-2900.24C631.881,-2891.7 632.131,-2882.9 632.373,-2874.36"/>
<polygon fill="black" stroke="black" points="635.878,-2874.22 632.663,-2864.12 628.881,-2874.02 635.878,-2874.22"/>
</g>
<!-- n25 -->
<g id="node25" class="node"><title>n25</title>
<g id="a_node25"><a xlink:title="[[string &quot;input = nn.Identity()():annotate{...&quot;]]:42_">
<ellipse fill="none" stroke="red" cx="774" cy="-1947" rx="242.306" ry="58.8803"/>
<text text-anchor="middle" x="774" y="-1973.3" font-family="Times,serif" font-size="14.00">Conv Layer 3 (25)</text>
<text text-anchor="middle" x="774" y="-1958.3" font-family="Times,serif" font-size="14.00">desc = Image Features</text>
<text text-anchor="start" x="610.5" y="-1943.3" font-family="Times,serif" font-size="14.00">input = {Tensor[5x256x16x16]}</text>
<text text-anchor="start" x="610.5" y="-1928.3" font-family="Times,serif" font-size="14.00">module = nn.SpatialConvolution(256 &#45;&gt; 256, 3x3, 1,1, 1,1)</text>
<text text-anchor="middle" x="774" y="-1913.3" font-family="Times,serif" font-size="14.00">reverseMap = {}</text>
</a>
</g>
</g>
<!-- n25&#45;&gt;n23 -->
<g id="edge25" class="edge"><title>n25&#45;&gt;n23</title>
<path fill="none" stroke="black" d="M753.109,-1888.24C749.951,-1879.51 746.696,-1870.51 743.545,-1861.8"/>
<polygon fill="black" stroke="black" points="746.736,-1860.33 740.044,-1852.12 740.154,-1862.72 746.736,-1860.33"/>
</g>
<!-- n26 -->
<g id="node26" class="node"><title>n26</title>
<g id="a_node26"><a xlink:title="[[string &quot;input = nn.Identity()():annotate{...&quot;]]:30_">
<ellipse fill="none" stroke="black" cx="612" cy="-3102" rx="171.241" ry="48.1667"/>
<text text-anchor="middle" x="612" y="-3120.8" font-family="Times,serif" font-size="14.00">Node26</text>
<text text-anchor="start" x="498.5" y="-3105.8" font-family="Times,serif" font-size="14.00">input = {Tensor[5x64x64x64]}</text>
<text text-anchor="start" x="498.5" y="-3090.8" font-family="Times,serif" font-size="14.00">module = nn.SpatialMaxPooling(2,2,2,2)</text>
<text text-anchor="middle" x="612" y="-3075.8" font-family="Times,serif" font-size="14.00">reverseMap = {}</text>
</a>
</g>
</g>
<!-- n26&#45;&gt;n24 -->
<g id="edge26" class="edge"><title>n26&#45;&gt;n24</title>
<path fill="none" stroke="black" d="M618.044,-3053.66C619.101,-3045.38 620.219,-3036.62 621.331,-3027.91"/>
<polygon fill="black" stroke="black" points="624.834,-3028.11 622.628,-3017.74 617.89,-3027.22 624.834,-3028.11"/>
</g>
<!-- n27 -->
<g id="node27" class="node"><title>n27</title>
<g id="a_node27"><a xlink:title="[[string &quot;input = nn.Identity()():annotate{...&quot;]]:42_">
<ellipse fill="none" stroke="black" cx="875" cy="-2090" rx="137.268" ry="48.1667"/>
<text text-anchor="middle" x="875" y="-2108.8" font-family="Times,serif" font-size="14.00">Node27</text>
<text text-anchor="start" x="786" y="-2093.8" font-family="Times,serif" font-size="14.00">input = {Tensor[5x256x16x16]}</text>
<text text-anchor="start" x="786" y="-2078.8" font-family="Times,serif" font-size="14.00">module = nn.ReLU</text>
<text text-anchor="middle" x="875" y="-2063.8" font-family="Times,serif" font-size="14.00">reverseMap = {}</text>
</a>
</g>
</g>
<!-- n27&#45;&gt;n25 -->
<g id="edge27" class="edge"><title>n27&#45;&gt;n25</title>
<path fill="none" stroke="black" d="M842.208,-2043.22C835.368,-2033.67 828.032,-2023.43 820.797,-2013.33"/>
<polygon fill="black" stroke="black" points="823.426,-2010.99 814.758,-2004.9 817.736,-2015.07 823.426,-2010.99"/>
</g>
<!-- n28&#45;&gt;n26 -->
<g id="edge28" class="edge"><title>n28&#45;&gt;n26</title>
<path fill="none" stroke="black" d="M598.641,-3185.7C599.99,-3177.35 601.406,-3168.58 602.793,-3160"/>
<polygon fill="black" stroke="black" points="606.26,-3160.48 604.4,-3150.05 599.35,-3159.36 606.26,-3160.48"/>
</g>
<!-- n29 -->
<g id="node29" class="node"><title>n29</title>
<g id="a_node29"><a xlink:title="[[string &quot;input = nn.Identity()():annotate{...&quot;]]:38_">
<ellipse fill="none" stroke="red" cx="1077" cy="-2233" rx="242.306" ry="58.8803"/>
<text text-anchor="middle" x="1077" y="-2259.3" font-family="Times,serif" font-size="14.00">Conv Layer 3 (29)</text>
<text text-anchor="middle" x="1077" y="-2244.3" font-family="Times,serif" font-size="14.00">desc = Image Features</text>
<text text-anchor="start" x="913.5" y="-2229.3" font-family="Times,serif" font-size="14.00">input = {Tensor[5x128x16x16]}</text>
<text text-anchor="start" x="913.5" y="-2214.3" font-family="Times,serif" font-size="14.00">module = nn.SpatialConvolution(128 &#45;&gt; 256, 3x3, 1,1, 1,1)</text>
<text text-anchor="middle" x="1077" y="-2199.3" font-family="Times,serif" font-size="14.00">reverseMap = {}</text>
</a>
</g>
</g>
<!-- n29&#45;&gt;n27 -->
<g id="edge29" class="edge"><title>n29&#45;&gt;n27</title>
<path fill="none" stroke="black" d="M998.612,-2177.28C980.6,-2164.71 961.576,-2151.43 943.995,-2139.16"/>
<polygon fill="black" stroke="black" points="945.694,-2136.08 935.491,-2133.22 941.687,-2141.82 945.694,-2136.08"/>
</g>
<!-- n30 -->
<g id="node30" class="node"><title>n30</title>
<g id="a_node30"><a xlink:title="[[string &quot;input = nn.Identity()():annotate{...&quot;]]:38_">
<ellipse fill="none" stroke="black" cx="1081" cy="-2387" rx="171.241" ry="48.1667"/>
<text text-anchor="middle" x="1081" y="-2405.8" font-family="Times,serif" font-size="14.00">Node30</text>
<text text-anchor="start" x="967.5" y="-2390.8" font-family="Times,serif" font-size="14.00">input = {Tensor[5x128x32x32]}</text>
<text text-anchor="start" x="967.5" y="-2375.8" font-family="Times,serif" font-size="14.00">module = nn.SpatialMaxPooling(2,2,2,2)</text>
<text text-anchor="middle" x="1081" y="-2360.8" font-family="Times,serif" font-size="14.00">reverseMap = {}</text>
</a>
</g>
</g>
<!-- n30&#45;&gt;n29 -->
<g id="edge31" class="edge"><title>n30&#45;&gt;n29</title>
<path fill="none" stroke="black" d="M1079.76,-2338.74C1079.45,-2327.17 1079.12,-2314.55 1078.79,-2302.21"/>
<polygon fill="black" stroke="black" points="1082.29,-2301.84 1078.52,-2291.94 1075.29,-2302.02 1082.29,-2301.84"/>
</g>
<!-- n31&#45;&gt;n30 -->
<g id="edge32" class="edge"><title>n31&#45;&gt;n30</title>
<path fill="none" stroke="black" d="M985.98,-2484.39C999.527,-2470.65 1014.57,-2455.38 1028.63,-2441.13"/>
<polygon fill="black" stroke="black" points="1031.34,-2443.36 1035.87,-2433.78 1026.36,-2438.44 1031.34,-2443.36"/>
</g>
</g>
</svg>
