<?xml version="1.0" encoding="UTF-8" standalone="no"?>
<!DOCTYPE svg PUBLIC "-//W3C//DTD SVG 1.1//EN"
 "http://www.w3.org/Graphics/SVG/1.1/DTD/svg11.dtd">
<!-- Generated by graphviz version 2.36.0 (20140111.2315)
 -->
<!-- Title: G Pages: 1 -->
<svg width="1327pt" height="3999pt"
 viewBox="0.00 0.00 1327.00 3999.00" xmlns="http://www.w3.org/2000/svg" xmlns:xlink="http://www.w3.org/1999/xlink">
<g id="graph0" class="graph" transform="scale(1 1) rotate(0) translate(4 3995)">
<title>G</title>
<polygon fill="white" stroke="none" points="-4,4 -4,-3995 1323,-3995 1323,4 -4,4"/>
<text text-anchor="middle" x="659.5" y="-3975.8" font-family="Times,serif" font-size="14.00">nngraph_1in_1out</text>
<!-- n1 -->
<g id="node1" class="node"><title>n1</title>
<g id="a_node1"><a xlink:title="[[string &quot;&#45;&#45; Deconvoluting level 3 and level 6...&quot;]]:23_">
<ellipse fill="none" stroke="purple" cx="377" cy="-160" rx="149.36" ry="48.1667"/>
<text text-anchor="middle" x="377" y="-178.8" font-family="Times,serif" font-size="14.00">Final Layer (1)</text>
<text text-anchor="middle" x="377" y="-163.8" font-family="Times,serif" font-size="14.00">desc = Final output. Using Sigmoid</text>
<text text-anchor="start" x="279" y="-148.8" font-family="Times,serif" font-size="14.00">module = nn.Sigmoid</text>
<text text-anchor="middle" x="377" y="-133.8" font-family="Times,serif" font-size="14.00">reverseMap = {}</text>
</a>
</g>
</g>
<!-- n2 -->
<g id="node2" class="node"><title>n2</title>
<g id="a_node2"><a xlink:title="[[C]]:&#45;1_">
<ellipse fill="none" stroke="black" cx="377" cy="-38" rx="77.1743" ry="37.4533"/>
<text text-anchor="middle" x="377" y="-49.3" font-family="Times,serif" font-size="14.00">Node2</text>
<text text-anchor="start" x="330" y="-34.3" font-family="Times,serif" font-size="14.00">input = {}</text>
<text text-anchor="middle" x="377" y="-19.3" font-family="Times,serif" font-size="14.00">reverseMap = {}</text>
</a>
</g>
</g>
<!-- n1&#45;&gt;n2 -->
<g id="edge1" class="edge"><title>n1&#45;&gt;n2</title>
<path fill="none" stroke="black" d="M377,-111.573C377,-103.096 377,-94.269 377,-85.8099"/>
<polygon fill="black" stroke="black" points="380.5,-85.7224 377,-75.7224 373.5,-85.7224 380.5,-85.7224"/>
</g>
<!-- n3 -->
<g id="node3" class="node"><title>n3</title>
<g id="a_node3"><a xlink:title="[[string &quot;&#45;&#45; Deconvoluting level 3 and level 6...&quot;]]:23_">
<ellipse fill="none" stroke="black" cx="377" cy="-282" rx="228.093" ry="37.4533"/>
<text text-anchor="middle" x="377" y="-293.3" font-family="Times,serif" font-size="14.00">Node3</text>
<text text-anchor="start" x="223.5" y="-278.3" font-family="Times,serif" font-size="14.00">module = nn.SpatialConvolution(64 &#45;&gt; 2, 3x3, 1,1, 1,1)</text>
<text text-anchor="middle" x="377" y="-263.3" font-family="Times,serif" font-size="14.00">reverseMap = {}</text>
</a>
</g>
</g>
<!-- n3&#45;&gt;n1 -->
<g id="edge2" class="edge"><title>n3&#45;&gt;n1</title>
<path fill="none" stroke="black" d="M377,-244.344C377,-236.219 377,-227.418 377,-218.683"/>
<polygon fill="black" stroke="black" points="380.5,-218.503 377,-208.503 373.5,-218.503 380.5,-218.503"/>
</g>
<!-- n4 -->
<g id="node4" class="node"><title>n4</title>
<g id="a_node4"><a xlink:title="[[string &quot;&#45;&#45; Deconvoluting level 3 and level 6...&quot;]]:21_">
<ellipse fill="none" stroke="black" cx="377" cy="-394" rx="171.241" ry="37.4533"/>
<text text-anchor="middle" x="377" y="-405.3" font-family="Times,serif" font-size="14.00">Node4</text>
<text text-anchor="start" x="263.5" y="-390.3" font-family="Times,serif" font-size="14.00">module = nn.SpatialMaxPooling(2,2,2,2)</text>
<text text-anchor="middle" x="377" y="-375.3" font-family="Times,serif" font-size="14.00">reverseMap = {}</text>
</a>
</g>
</g>
<!-- n4&#45;&gt;n3 -->
<g id="edge3" class="edge"><title>n4&#45;&gt;n3</title>
<path fill="none" stroke="black" d="M377,-356.372C377,-347.927 377,-338.829 377,-330.011"/>
<polygon fill="black" stroke="black" points="380.5,-329.843 377,-319.844 373.5,-329.844 380.5,-329.843"/>
</g>
<!-- n5 -->
<g id="node5" class="node"><title>n5</title>
<g id="a_node5"><a xlink:title="[[string &quot;&#45;&#45; Deconvoluting level 3 and level 6...&quot;]]:21_">
<ellipse fill="none" stroke="black" cx="377" cy="-506" rx="87.5215" ry="37.4533"/>
<text text-anchor="middle" x="377" y="-517.3" font-family="Times,serif" font-size="14.00">Node5</text>
<text text-anchor="start" x="323" y="-502.3" font-family="Times,serif" font-size="14.00">module = nn.ReLU</text>
<text text-anchor="middle" x="377" y="-487.3" font-family="Times,serif" font-size="14.00">reverseMap = {}</text>
</a>
</g>
</g>
<!-- n5&#45;&gt;n4 -->
<g id="edge4" class="edge"><title>n5&#45;&gt;n4</title>
<path fill="none" stroke="black" d="M377,-468.372C377,-459.927 377,-450.829 377,-442.011"/>
<polygon fill="black" stroke="black" points="380.5,-441.843 377,-431.844 373.5,-441.844 380.5,-441.843"/>
</g>
<!-- n6 -->
<g id="node6" class="node"><title>n6</title>
<g id="a_node6"><a xlink:title="[[string &quot;&#45;&#45; Deconvoluting level 3 and level 6...&quot;]]:20_">
<ellipse fill="none" stroke="black" cx="377" cy="-618" rx="168.498" ry="37.4533"/>
<text text-anchor="middle" x="377" y="-629.3" font-family="Times,serif" font-size="14.00">Node6</text>
<text text-anchor="start" x="265.5" y="-614.3" font-family="Times,serif" font-size="14.00">module = nn.SpatialBatchNormalization</text>
<text text-anchor="middle" x="377" y="-599.3" font-family="Times,serif" font-size="14.00">reverseMap = {}</text>
</a>
</g>
</g>
<!-- n6&#45;&gt;n5 -->
<g id="edge5" class="edge"><title>n6&#45;&gt;n5</title>
<path fill="none" stroke="black" d="M377,-580.372C377,-571.927 377,-562.829 377,-554.011"/>
<polygon fill="black" stroke="black" points="380.5,-553.843 377,-543.844 373.5,-553.844 380.5,-553.843"/>
</g>
<!-- n7 -->
<g id="node7" class="node"><title>n7</title>
<g id="a_node7"><a xlink:title="[[string &quot;&#45;&#45; Deconvoluting level 3 and level 6...&quot;]]:20_">
<ellipse fill="none" stroke="black" cx="377" cy="-730" rx="232.457" ry="37.4533"/>
<text text-anchor="middle" x="377" y="-741.3" font-family="Times,serif" font-size="14.00">Node7</text>
<text text-anchor="start" x="220.5" y="-726.3" font-family="Times,serif" font-size="14.00">module = nn.SpatialConvolution(32 &#45;&gt; 64, 3x3, 1,1, 1,1)</text>
<text text-anchor="middle" x="377" y="-711.3" font-family="Times,serif" font-size="14.00">reverseMap = {}</text>
</a>
</g>
</g>
<!-- n7&#45;&gt;n6 -->
<g id="edge6" class="edge"><title>n7&#45;&gt;n6</title>
<path fill="none" stroke="black" d="M377,-692.372C377,-683.927 377,-674.829 377,-666.011"/>
<polygon fill="black" stroke="black" points="380.5,-665.843 377,-655.844 373.5,-665.844 380.5,-665.843"/>
</g>
<!-- n8 -->
<g id="node8" class="node"><title>n8</title>
<g id="a_node8"><a xlink:title="[[string &quot;&#45;&#45; Deconvoluting level 3 and level 6...&quot;]]:18_">
<ellipse fill="none" stroke="black" cx="377" cy="-842" rx="171.241" ry="37.4533"/>
<text text-anchor="middle" x="377" y="-853.3" font-family="Times,serif" font-size="14.00">Node8</text>
<text text-anchor="start" x="263.5" y="-838.3" font-family="Times,serif" font-size="14.00">module = nn.SpatialMaxPooling(2,2,2,2)</text>
<text text-anchor="middle" x="377" y="-823.3" font-family="Times,serif" font-size="14.00">reverseMap = {}</text>
</a>
</g>
</g>
<!-- n8&#45;&gt;n7 -->
<g id="edge7" class="edge"><title>n8&#45;&gt;n7</title>
<path fill="none" stroke="black" d="M377,-804.372C377,-795.927 377,-786.829 377,-778.011"/>
<polygon fill="black" stroke="black" points="380.5,-777.843 377,-767.844 373.5,-777.844 380.5,-777.843"/>
</g>
<!-- n9 -->
<g id="node9" class="node"><title>n9</title>
<g id="a_node9"><a xlink:title="[[string &quot;&#45;&#45; Deconvoluting level 3 and level 6...&quot;]]:18_">
<ellipse fill="none" stroke="black" cx="377" cy="-954" rx="87.5215" ry="37.4533"/>
<text text-anchor="middle" x="377" y="-965.3" font-family="Times,serif" font-size="14.00">Node9</text>
<text text-anchor="start" x="323" y="-950.3" font-family="Times,serif" font-size="14.00">module = nn.ReLU</text>
<text text-anchor="middle" x="377" y="-935.3" font-family="Times,serif" font-size="14.00">reverseMap = {}</text>
</a>
</g>
</g>
<!-- n9&#45;&gt;n8 -->
<g id="edge8" class="edge"><title>n9&#45;&gt;n8</title>
<path fill="none" stroke="black" d="M377,-916.372C377,-907.927 377,-898.829 377,-890.011"/>
<polygon fill="black" stroke="black" points="380.5,-889.843 377,-879.844 373.5,-889.844 380.5,-889.843"/>
</g>
<!-- n10 -->
<g id="node10" class="node"><title>n10</title>
<g id="a_node10"><a xlink:title="[[string &quot;&#45;&#45; Deconvoluting level 3 and level 6...&quot;]]:17_">
<ellipse fill="none" stroke="black" cx="377" cy="-1066" rx="168.498" ry="37.4533"/>
<text text-anchor="middle" x="377" y="-1077.3" font-family="Times,serif" font-size="14.00">Node10</text>
<text text-anchor="start" x="265.5" y="-1062.3" font-family="Times,serif" font-size="14.00">module = nn.SpatialBatchNormalization</text>
<text text-anchor="middle" x="377" y="-1047.3" font-family="Times,serif" font-size="14.00">reverseMap = {}</text>
</a>
</g>
</g>
<!-- n10&#45;&gt;n9 -->
<g id="edge9" class="edge"><title>n10&#45;&gt;n9</title>
<path fill="none" stroke="black" d="M377,-1028.37C377,-1019.93 377,-1010.83 377,-1002.01"/>
<polygon fill="black" stroke="black" points="380.5,-1001.84 377,-991.844 373.5,-1001.84 380.5,-1001.84"/>
</g>
<!-- n11 -->
<g id="node11" class="node"><title>n11</title>
<g id="a_node11"><a xlink:title="[[string &quot;&#45;&#45; Deconvoluting level 3 and level 6...&quot;]]:17_">
<ellipse fill="none" stroke="black" cx="377" cy="-1178" rx="232.457" ry="37.4533"/>
<text text-anchor="middle" x="377" y="-1189.3" font-family="Times,serif" font-size="14.00">Node11</text>
<text text-anchor="start" x="220.5" y="-1174.3" font-family="Times,serif" font-size="14.00">module = nn.SpatialConvolution(49 &#45;&gt; 32, 3x3, 1,1, 1,1)</text>
<text text-anchor="middle" x="377" y="-1159.3" font-family="Times,serif" font-size="14.00">reverseMap = {}</text>
</a>
</g>
</g>
<!-- n11&#45;&gt;n10 -->
<g id="edge10" class="edge"><title>n11&#45;&gt;n10</title>
<path fill="none" stroke="black" d="M377,-1140.37C377,-1131.93 377,-1122.83 377,-1114.01"/>
<polygon fill="black" stroke="black" points="380.5,-1113.84 377,-1103.84 373.5,-1113.84 380.5,-1113.84"/>
</g>
<!-- n12 -->
<g id="node12" class="node"><title>n12</title>
<g id="a_node12"><a xlink:title="[[string &quot;&#45;&#45; Deconvoluting level 3 and level 6...&quot;]]:10_">
<ellipse fill="red" stroke="grey" cx="377" cy="-1322" rx="377.392" ry="69.0935"/>
<text text-anchor="middle" x="377" y="-1355.8" font-family="Times,serif" font-size="14.00">Joining layer (12)</text>
<text text-anchor="middle" x="377" y="-1340.8" font-family="Times,serif" font-size="14.00">desc = Joining input, level1, deconved_level3, deconved_level6</text>
<text text-anchor="start" x="118" y="-1325.8" font-family="Times,serif" font-size="14.00">input = {Tensor[5x3x64x64],Tensor[5x64x64x64],Tensor[5x16x64x64],Tensor[5x16x64x64]}</text>
<text text-anchor="start" x="118" y="-1310.8" font-family="Times,serif" font-size="14.00">module = nn.JoinTable</text>
<text text-anchor="start" x="118" y="-1295.8" font-family="Times,serif" font-size="14.00">reverseMap = {}</text>
<text text-anchor="middle" x="377" y="-1280.8" font-family="Times,serif" font-size="14.00">mapindex = {Node13,Node14,Node15,Node16}</text>
</a>
</g>
</g>
<!-- n12&#45;&gt;n11 -->
<g id="edge11" class="edge"><title>n12&#45;&gt;n11</title>
<path fill="none" stroke="black" d="M377,-1252.5C377,-1243.42 377,-1234.29 377,-1225.7"/>
<polygon fill="black" stroke="black" points="380.5,-1225.53 377,-1215.53 373.5,-1225.53 380.5,-1225.53"/>
</g>
<!-- n13 -->
<g id="node13" class="node"><title>n13</title>
<g id="a_node13"><a xlink:title="[[string &quot;input = nn.Identity()():annotate{...&quot;]]:1_">
<ellipse fill="none" stroke="green" cx="447" cy="-3797" rx="127.48" ry="58.8803"/>
<text text-anchor="middle" x="447" y="-3823.3" font-family="Times,serif" font-size="14.00">Conv Layer 1 (13)</text>
<text text-anchor="middle" x="447" y="-3808.3" font-family="Times,serif" font-size="14.00">desc = Image Features</text>
<text text-anchor="start" x="364.5" y="-3793.3" font-family="Times,serif" font-size="14.00">input = {Tensor[5x3x64x64]}</text>
<text text-anchor="start" x="364.5" y="-3778.3" font-family="Times,serif" font-size="14.00">module = nn.Identity</text>
<text text-anchor="middle" x="447" y="-3763.3" font-family="Times,serif" font-size="14.00">reverseMap = {}</text>
</a>
</g>
</g>
<!-- n13&#45;&gt;n12 -->
<g id="edge12" class="edge"><title>n13&#45;&gt;n12</title>
<path fill="none" stroke="black" d="M376.867,-3747.96C362.42,-3734.75 348.912,-3719.24 340,-3702 298.759,-3622.21 319,-3590.82 319,-3501 319,-3501 319,-3501 319,-1640 319,-1557.55 338.22,-1464.98 354.531,-1401.26"/>
<polygon fill="black" stroke="black" points="357.995,-1401.85 357.121,-1391.29 351.22,-1400.09 357.995,-1401.85"/>
</g>
<!-- n21 -->
<g id="node21" class="node"><title>n21</title>
<g id="a_node21"><a xlink:title="[[string &quot;input = nn.Identity()():annotate{...&quot;]]:22_">
<ellipse fill="none" stroke="red" cx="577" cy="-3643" rx="228.093" ry="58.8803"/>
<text text-anchor="middle" x="577" y="-3669.3" font-family="Times,serif" font-size="14.00">Conv Layer 1 (21)</text>
<text text-anchor="middle" x="577" y="-3654.3" font-family="Times,serif" font-size="14.00">desc = Image Features</text>
<text text-anchor="start" x="423.5" y="-3639.3" font-family="Times,serif" font-size="14.00">input = {Tensor[5x3x64x64]}</text>
<text text-anchor="start" x="423.5" y="-3624.3" font-family="Times,serif" font-size="14.00">module = nn.SpatialConvolution(3 &#45;&gt; 64, 3x3, 1,1, 1,1)</text>
<text text-anchor="middle" x="577" y="-3609.3" font-family="Times,serif" font-size="14.00">reverseMap = {}</text>
</a>
</g>
</g>
<!-- n13&#45;&gt;n21 -->
<g id="edge23" class="edge"><title>n13&#45;&gt;n21</title>
<path fill="none" stroke="black" d="M493.199,-3741.98C502.568,-3731.03 512.507,-3719.41 522.141,-3708.14"/>
<polygon fill="black" stroke="black" points="524.912,-3710.29 528.752,-3700.41 519.592,-3705.74 524.912,-3710.29"/>
</g>
<!-- n14 -->
<g id="node14" class="node"><title>n14</title>
<g id="a_node14"><a xlink:title="[[string &quot;input = nn.Identity()():annotate{...&quot;]]:26_">
<ellipse fill="none" stroke="blue" cx="580" cy="-3357" rx="232.457" ry="58.8803"/>
<text text-anchor="middle" x="580" y="-3383.3" font-family="Times,serif" font-size="14.00">Conv Layer 2 (14)</text>
<text text-anchor="middle" x="580" y="-3368.3" font-family="Times,serif" font-size="14.00">desc = Image Features</text>
<text text-anchor="start" x="423.5" y="-3353.3" font-family="Times,serif" font-size="14.00">input = {Tensor[5x64x64x64]}</text>
<text text-anchor="start" x="423.5" y="-3338.3" font-family="Times,serif" font-size="14.00">module = nn.SpatialConvolution(64 &#45;&gt; 64, 3x3, 1,1, 1,1)</text>
<text text-anchor="middle" x="580" y="-3323.3" font-family="Times,serif" font-size="14.00">reverseMap = {}</text>
</a>
</g>
</g>
<!-- n14&#45;&gt;n12 -->
<g id="edge13" class="edge"><title>n14&#45;&gt;n12</title>
<path fill="none" stroke="black" d="M492.951,-3302.48C477.166,-3290.4 461.704,-3276.73 449,-3262 390.588,-3194.26 357,-3172.45 357,-3083 357,-3083 357,-3083 357,-1640 357,-1558.61 363.649,-1465.69 369.279,-1401.59"/>
<polygon fill="black" stroke="black" points="372.772,-1401.83 370.173,-1391.56 365.799,-1401.21 372.772,-1401.83"/>
</g>
<!-- n28 -->
<g id="node28" class="node"><title>n28</title>
<g id="a_node28"><a xlink:title="[[string &quot;input = nn.Identity()():annotate{...&quot;]]:30_">
<ellipse fill="none" stroke="black" cx="591" cy="-3214" rx="132.404" ry="48.1667"/>
<text text-anchor="middle" x="591" y="-3232.8" font-family="Times,serif" font-size="14.00">Node28</text>
<text text-anchor="start" x="505" y="-3217.8" font-family="Times,serif" font-size="14.00">input = {Tensor[5x64x64x64]}</text>
<text text-anchor="start" x="505" y="-3202.8" font-family="Times,serif" font-size="14.00">module = nn.ReLU</text>
<text text-anchor="middle" x="591" y="-3187.8" font-family="Times,serif" font-size="14.00">reverseMap = {}</text>
</a>
</g>
</g>
<!-- n14&#45;&gt;n28 -->
<g id="edge30" class="edge"><title>n14&#45;&gt;n28</title>
<path fill="none" stroke="black" d="M584.506,-3298.24C585.172,-3289.7 585.859,-3280.9 586.525,-3272.36"/>
<polygon fill="black" stroke="black" points="590.035,-3272.36 587.324,-3262.12 583.057,-3271.82 590.035,-3272.36"/>
</g>
<!-- n15 -->
<g id="node15" class="node"><title>n15</title>
<g id="a_node15"><a xlink:title="[[string &quot;&#45;&#45; Deconvoluting level 3 and level 6...&quot;]]:2_">
<ellipse fill="none" stroke="yellow" cx="638" cy="-2367" rx="253.216" ry="58.8803"/>
<text text-anchor="middle" x="638" y="-2393.3" font-family="Times,serif" font-size="14.00">Deconving level 3 (15)</text>
<text text-anchor="middle" x="638" y="-2378.3" font-family="Times,serif" font-size="14.00">desc = To increase the dimension</text>
<text text-anchor="start" x="467" y="-2363.3" font-family="Times,serif" font-size="14.00">input = {Tensor[5x128x32x32]}</text>
<text text-anchor="start" x="467" y="-2348.3" font-family="Times,serif" font-size="14.00">module = nn.SpatialFullConvolution(128 &#45;&gt; 16, 1x1, 2,2, 1,1)</text>
<text text-anchor="middle" x="638" y="-2333.3" font-family="Times,serif" font-size="14.00">reverseMap = {}</text>
</a>
</g>
</g>
<!-- n15&#45;&gt;n12 -->
<g id="edge14" class="edge"><title>n15&#45;&gt;n12</title>
<path fill="none" stroke="black" d="M554.397,-2311.5C485.133,-2259.06 398,-2172.84 398,-2071 398,-2071 398,-2071 398,-1640 398,-1558.59 391.019,-1465.67 385.107,-1401.58"/>
<polygon fill="black" stroke="black" points="388.585,-1401.18 384.168,-1391.55 381.615,-1401.83 388.585,-1401.18"/>
</g>
<!-- n16 -->
<g id="node16" class="node"><title>n16</title>
<g id="a_node16"><a xlink:title="[[string &quot;&#45;&#45; Deconvoluting level 3 and level 6...&quot;]]:6_">
<ellipse fill="none" stroke="yellow" cx="685" cy="-1487" rx="253.216" ry="58.8803"/>
<text text-anchor="middle" x="685" y="-1513.3" font-family="Times,serif" font-size="14.00">Deconving level 6 (16)</text>
<text text-anchor="middle" x="685" y="-1498.3" font-family="Times,serif" font-size="14.00">desc = To increase the dimension</text>
<text text-anchor="start" x="514" y="-1483.3" font-family="Times,serif" font-size="14.00">input = {Tensor[5x256x16x16]}</text>
<text text-anchor="start" x="514" y="-1468.3" font-family="Times,serif" font-size="14.00">module = nn.SpatialFullConvolution(256 &#45;&gt; 16, 2x2, 4,4, 2,2)</text>
<text text-anchor="middle" x="685" y="-1453.3" font-family="Times,serif" font-size="14.00">reverseMap = {}</text>
</a>
</g>
</g>
<!-- n16&#45;&gt;n12 -->
<g id="edge15" class="edge"><title>n16&#45;&gt;n12</title>
<path fill="none" stroke="black" d="M585.001,-1433.08C560.489,-1420.11 533.888,-1406.03 508.156,-1392.41"/>
<polygon fill="black" stroke="black" points="509.572,-1389.2 499.096,-1387.62 506.298,-1395.39 509.572,-1389.2"/>
</g>
<!-- n17 -->
<g id="node17" class="node"><title>n17</title>
<g id="a_node17"><a xlink:title="[[C]]:&#45;1_">
<ellipse fill="none" stroke="black" cx="447" cy="-3930" rx="127.48" ry="37.4533"/>
<text text-anchor="middle" x="447" y="-3941.3" font-family="Times,serif" font-size="14.00">Node17</text>
<text text-anchor="start" x="364.5" y="-3926.3" font-family="Times,serif" font-size="14.00">input = {Tensor[5x3x64x64]}</text>
<text text-anchor="middle" x="447" y="-3911.3" font-family="Times,serif" font-size="14.00">reverseMap = {}</text>
</a>
</g>
</g>
<!-- n17&#45;&gt;n13 -->
<g id="edge16" class="edge"><title>n17&#45;&gt;n13</title>
<path fill="none" stroke="black" d="M447,-3892.51C447,-3884.26 447,-3875.24 447,-3866.15"/>
<polygon fill="black" stroke="black" points="450.5,-3865.9 447,-3855.9 443.5,-3865.9 450.5,-3865.9"/>
</g>
<!-- n18 -->
<g id="node18" class="node"><title>n18</title>
<g id="a_node18"><a xlink:title="[[string &quot;input = nn.Identity()():annotate{...&quot;]]:26_">
<ellipse fill="none" stroke="black" cx="578" cy="-3500" rx="132.404" ry="48.1667"/>
<text text-anchor="middle" x="578" y="-3518.8" font-family="Times,serif" font-size="14.00">Node18</text>
<text text-anchor="start" x="492" y="-3503.8" font-family="Times,serif" font-size="14.00">input = {Tensor[5x64x64x64]}</text>
<text text-anchor="start" x="492" y="-3488.8" font-family="Times,serif" font-size="14.00">module = nn.ReLU</text>
<text text-anchor="middle" x="578" y="-3473.8" font-family="Times,serif" font-size="14.00">reverseMap = {}</text>
</a>
</g>
</g>
<!-- n18&#45;&gt;n14 -->
<g id="edge17" class="edge"><title>n18&#45;&gt;n14</title>
<path fill="none" stroke="black" d="M578.672,-3451.66C578.789,-3443.38 578.913,-3434.62 579.037,-3425.91"/>
<polygon fill="black" stroke="black" points="582.539,-3425.79 579.181,-3415.74 575.539,-3425.69 582.539,-3425.79"/>
</g>
<!-- n19 -->
<g id="node19" class="node"><title>n19</title>
<g id="a_node19"><a xlink:title="[[string &quot;input = nn.Identity()():annotate{...&quot;]]:34_">
<ellipse fill="none" stroke="blue" cx="638" cy="-2653" rx="242.306" ry="58.8803"/>
<text text-anchor="middle" x="638" y="-2679.3" font-family="Times,serif" font-size="14.00">Conv Layer 3 (19)</text>
<text text-anchor="middle" x="638" y="-2664.3" font-family="Times,serif" font-size="14.00">desc = Image Features</text>
<text text-anchor="start" x="474.5" y="-2649.3" font-family="Times,serif" font-size="14.00">input = {Tensor[5x128x32x32]}</text>
<text text-anchor="start" x="474.5" y="-2634.3" font-family="Times,serif" font-size="14.00">module = nn.SpatialConvolution(128 &#45;&gt; 128, 3x3, 1,1, 1,1)</text>
<text text-anchor="middle" x="638" y="-2619.3" font-family="Times,serif" font-size="14.00">reverseMap = {}</text>
</a>
</g>
</g>
<!-- n19&#45;&gt;n15 -->
<g id="edge18" class="edge"><title>n19&#45;&gt;n15</title>
<path fill="none" stroke="black" d="M638,-2594.19C638,-2548.31 638,-2484.08 638,-2435.78"/>
<polygon fill="black" stroke="black" points="641.5,-2435.73 638,-2425.73 634.5,-2435.73 641.5,-2435.73"/>
</g>
<!-- n31 -->
<g id="node31" class="node"><title>n31</title>
<g id="a_node31"><a xlink:title="[[string &quot;input = nn.Identity()():annotate{...&quot;]]:38_">
<ellipse fill="none" stroke="black" cx="942" cy="-2510" rx="137.268" ry="48.1667"/>
<text text-anchor="middle" x="942" y="-2528.8" font-family="Times,serif" font-size="14.00">Node31</text>
<text text-anchor="start" x="853" y="-2513.8" font-family="Times,serif" font-size="14.00">input = {Tensor[5x128x32x32]}</text>
<text text-anchor="start" x="853" y="-2498.8" font-family="Times,serif" font-size="14.00">module = nn.ReLU</text>
<text text-anchor="middle" x="942" y="-2483.8" font-family="Times,serif" font-size="14.00">reverseMap = {}</text>
</a>
</g>
</g>
<!-- n19&#45;&gt;n31 -->
<g id="edge33" class="edge"><title>n19&#45;&gt;n31</title>
<path fill="none" stroke="black" d="M748.611,-2600.7C782.295,-2585.07 818.915,-2568.09 851.137,-2553.14"/>
<polygon fill="black" stroke="black" points="852.944,-2556.16 860.543,-2548.78 849.999,-2549.81 852.944,-2556.16"/>
</g>
<!-- n20 -->
<g id="node20" class="node"><title>n20</title>
<g id="a_node20"><a xlink:title="[[string &quot;input = nn.Identity()():annotate{...&quot;]]:46_">
<ellipse fill="none" stroke="blue" cx="698" cy="-1641" rx="242.306" ry="58.8803"/>
<text text-anchor="middle" x="698" y="-1667.3" font-family="Times,serif" font-size="14.00">Conv Layer 3 (20)</text>
<text text-anchor="middle" x="698" y="-1652.3" font-family="Times,serif" font-size="14.00">desc = Image Features</text>
<text text-anchor="start" x="534.5" y="-1637.3" font-family="Times,serif" font-size="14.00">input = {Tensor[5x256x16x16]}</text>
<text text-anchor="start" x="534.5" y="-1622.3" font-family="Times,serif" font-size="14.00">module = nn.SpatialConvolution(256 &#45;&gt; 256, 3x3, 1,1, 1,1)</text>
<text text-anchor="middle" x="698" y="-1607.3" font-family="Times,serif" font-size="14.00">reverseMap = {}</text>
</a>
</g>
</g>
<!-- n20&#45;&gt;n16 -->
<g id="edge19" class="edge"><title>n20&#45;&gt;n16</title>
<path fill="none" stroke="black" d="M693.048,-1582.1C692.316,-1573.54 691.556,-1564.65 690.808,-1555.91"/>
<polygon fill="black" stroke="black" points="694.278,-1555.4 689.938,-1545.74 687.303,-1556 694.278,-1555.4"/>
</g>
<!-- n21&#45;&gt;n18 -->
<g id="edge20" class="edge"><title>n21&#45;&gt;n18</title>
<path fill="none" stroke="black" d="M577.41,-3584.24C577.47,-3575.7 577.533,-3566.9 577.593,-3558.36"/>
<polygon fill="black" stroke="black" points="581.095,-3558.15 577.666,-3548.12 574.095,-3558.1 581.095,-3558.15"/>
</g>
<!-- n22 -->
<g id="node22" class="node"><title>n22</title>
<g id="a_node22"><a xlink:title="[[string &quot;input = nn.Identity()():annotate{...&quot;]]:34_">
<ellipse fill="none" stroke="black" cx="634" cy="-2796" rx="137.268" ry="48.1667"/>
<text text-anchor="middle" x="634" y="-2814.8" font-family="Times,serif" font-size="14.00">Node22</text>
<text text-anchor="start" x="545" y="-2799.8" font-family="Times,serif" font-size="14.00">input = {Tensor[5x128x32x32]}</text>
<text text-anchor="start" x="545" y="-2784.8" font-family="Times,serif" font-size="14.00">module = nn.ReLU</text>
<text text-anchor="middle" x="634" y="-2769.8" font-family="Times,serif" font-size="14.00">reverseMap = {}</text>
</a>
</g>
</g>
<!-- n22&#45;&gt;n19 -->
<g id="edge21" class="edge"><title>n22&#45;&gt;n19</title>
<path fill="none" stroke="black" d="M635.343,-2747.66C635.578,-2739.38 635.826,-2730.62 636.073,-2721.91"/>
<polygon fill="black" stroke="black" points="639.577,-2721.84 636.362,-2711.74 632.58,-2721.64 639.577,-2721.84"/>
</g>
<!-- n23 -->
<g id="node23" class="node"><title>n23</title>
<g id="a_node23"><a xlink:title="[[string &quot;input = nn.Identity()():annotate{...&quot;]]:46_">
<ellipse fill="none" stroke="black" cx="723" cy="-1784" rx="137.268" ry="48.1667"/>
<text text-anchor="middle" x="723" y="-1802.8" font-family="Times,serif" font-size="14.00">Node23</text>
<text text-anchor="start" x="634" y="-1787.8" font-family="Times,serif" font-size="14.00">input = {Tensor[5x256x16x16]}</text>
<text text-anchor="start" x="634" y="-1772.8" font-family="Times,serif" font-size="14.00">module = nn.ReLU</text>
<text text-anchor="middle" x="723" y="-1757.8" font-family="Times,serif" font-size="14.00">reverseMap = {}</text>
</a>
</g>
</g>
<!-- n23&#45;&gt;n20 -->
<g id="edge22" class="edge"><title>n23&#45;&gt;n20</title>
<path fill="none" stroke="black" d="M714.606,-1735.66C713.122,-1727.29 711.551,-1718.43 709.99,-1709.63"/>
<polygon fill="black" stroke="black" points="713.43,-1708.98 708.238,-1699.74 706.538,-1710.2 713.43,-1708.98"/>
</g>
<!-- n24 -->
<g id="node24" class="node"><title>n24</title>
<g id="a_node24"><a xlink:title="[[string &quot;input = nn.Identity()():annotate{...&quot;]]:30_">
<ellipse fill="none" stroke="red" cx="630" cy="-2939" rx="237.382" ry="58.8803"/>
<text text-anchor="middle" x="630" y="-2965.3" font-family="Times,serif" font-size="14.00">Conv Layer 3 (24)</text>
<text text-anchor="middle" x="630" y="-2950.3" font-family="Times,serif" font-size="14.00">desc = Image Features</text>
<text text-anchor="start" x="470" y="-2935.3" font-family="Times,serif" font-size="14.00">input = {Tensor[5x64x32x32]}</text>
<text text-anchor="start" x="470" y="-2920.3" font-family="Times,serif" font-size="14.00">module = nn.SpatialConvolution(64 &#45;&gt; 128, 3x3, 1,1, 1,1)</text>
<text text-anchor="middle" x="630" y="-2905.3" font-family="Times,serif" font-size="14.00">reverseMap = {}</text>
</a>
</g>
</g>
<!-- n24&#45;&gt;n22 -->
<g id="edge24" class="edge"><title>n24&#45;&gt;n22</title>
<path fill="none" stroke="black" d="M631.638,-2880.24C631.881,-2871.7 632.131,-2862.9 632.373,-2854.36"/>
<polygon fill="black" stroke="black" points="635.878,-2854.22 632.663,-2844.12 628.881,-2854.02 635.878,-2854.22"/>
</g>
<!-- n25 -->
<g id="node25" class="node"><title>n25</title>
<g id="a_node25"><a xlink:title="[[string &quot;input = nn.Identity()():annotate{...&quot;]]:42_">
<ellipse fill="none" stroke="red" cx="774" cy="-1927" rx="242.306" ry="58.8803"/>
<text text-anchor="middle" x="774" y="-1953.3" font-family="Times,serif" font-size="14.00">Conv Layer 3 (25)</text>
<text text-anchor="middle" x="774" y="-1938.3" font-family="Times,serif" font-size="14.00">desc = Image Features</text>
<text text-anchor="start" x="610.5" y="-1923.3" font-family="Times,serif" font-size="14.00">input = {Tensor[5x256x16x16]}</text>
<text text-anchor="start" x="610.5" y="-1908.3" font-family="Times,serif" font-size="14.00">module = nn.SpatialConvolution(256 &#45;&gt; 256, 3x3, 1,1, 1,1)</text>
<text text-anchor="middle" x="774" y="-1893.3" font-family="Times,serif" font-size="14.00">reverseMap = {}</text>
</a>
</g>
</g>
<!-- n25&#45;&gt;n23 -->
<g id="edge25" class="edge"><title>n25&#45;&gt;n23</title>
<path fill="none" stroke="black" d="M753.109,-1868.24C749.951,-1859.51 746.696,-1850.51 743.545,-1841.8"/>
<polygon fill="black" stroke="black" points="746.736,-1840.33 740.044,-1832.12 740.154,-1842.72 746.736,-1840.33"/>
</g>
<!-- n26 -->
<g id="node26" class="node"><title>n26</title>
<g id="a_node26"><a xlink:title="[[string &quot;input = nn.Identity()():annotate{...&quot;]]:30_">
<ellipse fill="none" stroke="black" cx="612" cy="-3082" rx="171.241" ry="48.1667"/>
<text text-anchor="middle" x="612" y="-3100.8" font-family="Times,serif" font-size="14.00">Node26</text>
<text text-anchor="start" x="498.5" y="-3085.8" font-family="Times,serif" font-size="14.00">input = {Tensor[5x64x64x64]}</text>
<text text-anchor="start" x="498.5" y="-3070.8" font-family="Times,serif" font-size="14.00">module = nn.SpatialMaxPooling(2,2,2,2)</text>
<text text-anchor="middle" x="612" y="-3055.8" font-family="Times,serif" font-size="14.00">reverseMap = {}</text>
</a>
</g>
</g>
<!-- n26&#45;&gt;n24 -->
<g id="edge26" class="edge"><title>n26&#45;&gt;n24</title>
<path fill="none" stroke="black" d="M618.044,-3033.66C619.101,-3025.38 620.219,-3016.62 621.331,-3007.91"/>
<polygon fill="black" stroke="black" points="624.834,-3008.11 622.628,-2997.74 617.89,-3007.22 624.834,-3008.11"/>
</g>
<!-- n27 -->
<g id="node27" class="node"><title>n27</title>
<g id="a_node27"><a xlink:title="[[string &quot;input = nn.Identity()():annotate{...&quot;]]:42_">
<ellipse fill="none" stroke="black" cx="875" cy="-2070" rx="137.268" ry="48.1667"/>
<text text-anchor="middle" x="875" y="-2088.8" font-family="Times,serif" font-size="14.00">Node27</text>
<text text-anchor="start" x="786" y="-2073.8" font-family="Times,serif" font-size="14.00">input = {Tensor[5x256x16x16]}</text>
<text text-anchor="start" x="786" y="-2058.8" font-family="Times,serif" font-size="14.00">module = nn.ReLU</text>
<text text-anchor="middle" x="875" y="-2043.8" font-family="Times,serif" font-size="14.00">reverseMap = {}</text>
</a>
</g>
</g>
<!-- n27&#45;&gt;n25 -->
<g id="edge27" class="edge"><title>n27&#45;&gt;n25</title>
<path fill="none" stroke="black" d="M842.208,-2023.22C835.368,-2013.67 828.032,-2003.43 820.797,-1993.33"/>
<polygon fill="black" stroke="black" points="823.426,-1990.99 814.758,-1984.9 817.736,-1995.07 823.426,-1990.99"/>
</g>
<!-- n28&#45;&gt;n26 -->
<g id="edge28" class="edge"><title>n28&#45;&gt;n26</title>
<path fill="none" stroke="black" d="M598.641,-3165.7C599.99,-3157.35 601.406,-3148.58 602.793,-3140"/>
<polygon fill="black" stroke="black" points="606.26,-3140.48 604.4,-3130.05 599.35,-3139.36 606.26,-3140.48"/>
</g>
<!-- n29 -->
<g id="node29" class="node"><title>n29</title>
<g id="a_node29"><a xlink:title="[[string &quot;input = nn.Identity()():annotate{...&quot;]]:38_">
<ellipse fill="none" stroke="red" cx="1077" cy="-2213" rx="242.306" ry="58.8803"/>
<text text-anchor="middle" x="1077" y="-2239.3" font-family="Times,serif" font-size="14.00">Conv Layer 3 (29)</text>
<text text-anchor="middle" x="1077" y="-2224.3" font-family="Times,serif" font-size="14.00">desc = Image Features</text>
<text text-anchor="start" x="913.5" y="-2209.3" font-family="Times,serif" font-size="14.00">input = {Tensor[5x128x16x16]}</text>
<text text-anchor="start" x="913.5" y="-2194.3" font-family="Times,serif" font-size="14.00">module = nn.SpatialConvolution(128 &#45;&gt; 256, 3x3, 1,1, 1,1)</text>
<text text-anchor="middle" x="1077" y="-2179.3" font-family="Times,serif" font-size="14.00">reverseMap = {}</text>
</a>
</g>
</g>
<!-- n29&#45;&gt;n27 -->
<g id="edge29" class="edge"><title>n29&#45;&gt;n27</title>
<path fill="none" stroke="black" d="M998.612,-2157.28C980.6,-2144.71 961.576,-2131.43 943.995,-2119.16"/>
<polygon fill="black" stroke="black" points="945.694,-2116.08 935.491,-2113.22 941.687,-2121.82 945.694,-2116.08"/>
</g>
<!-- n30 -->
<g id="node30" class="node"><title>n30</title>
<g id="a_node30"><a xlink:title="[[string &quot;input = nn.Identity()():annotate{...&quot;]]:38_">
<ellipse fill="none" stroke="black" cx="1081" cy="-2367" rx="171.241" ry="48.1667"/>
<text text-anchor="middle" x="1081" y="-2385.8" font-family="Times,serif" font-size="14.00">Node30</text>
<text text-anchor="start" x="967.5" y="-2370.8" font-family="Times,serif" font-size="14.00">input = {Tensor[5x128x32x32]}</text>
<text text-anchor="start" x="967.5" y="-2355.8" font-family="Times,serif" font-size="14.00">module = nn.SpatialMaxPooling(2,2,2,2)</text>
<text text-anchor="middle" x="1081" y="-2340.8" font-family="Times,serif" font-size="14.00">reverseMap = {}</text>
</a>
</g>
</g>
<!-- n30&#45;&gt;n29 -->
<g id="edge31" class="edge"><title>n30&#45;&gt;n29</title>
<path fill="none" stroke="black" d="M1079.76,-2318.74C1079.45,-2307.17 1079.12,-2294.55 1078.79,-2282.21"/>
<polygon fill="black" stroke="black" points="1082.29,-2281.84 1078.52,-2271.94 1075.29,-2282.02 1082.29,-2281.84"/>
</g>
<!-- n31&#45;&gt;n30 -->
<g id="edge32" class="edge"><title>n31&#45;&gt;n30</title>
<path fill="none" stroke="black" d="M985.98,-2464.39C999.527,-2450.65 1014.57,-2435.38 1028.63,-2421.13"/>
<polygon fill="black" stroke="black" points="1031.34,-2423.36 1035.87,-2413.78 1026.36,-2418.44 1031.34,-2423.36"/>
</g>
</g>
</svg>
