<?xml version="1.0" encoding="UTF-8" standalone="no"?>
<!DOCTYPE svg PUBLIC "-//W3C//DTD SVG 1.1//EN"
 "http://www.w3.org/Graphics/SVG/1.1/DTD/svg11.dtd">
<!-- Generated by graphviz version 2.36.0 (20140111.2315)
 -->
<!-- Title: G Pages: 1 -->
<svg width="1327pt" height="4119pt"
 viewBox="0.00 0.00 1327.00 4119.00" xmlns="http://www.w3.org/2000/svg" xmlns:xlink="http://www.w3.org/1999/xlink">
<g id="graph0" class="graph" transform="scale(1 1) rotate(0) translate(4 4115)">
<title>G</title>
<polygon fill="white" stroke="none" points="-4,4 -4,-4115 1323,-4115 1323,4 -4,4"/>
<text text-anchor="middle" x="659.5" y="-4095.8" font-family="Times,serif" font-size="14.00">nngraph_1in_1out_lua_V0Ksuv</text>
<!-- n1 -->
<g id="node1" class="node"><title>n1</title>
<g id="a_node1"><a xlink:title="[[string &quot;dimension = 2...&quot;]]:24_">
<ellipse fill="none" stroke="purple" cx="377" cy="-160" rx="149.36" ry="48.1667"/>
<text text-anchor="middle" x="377" y="-178.8" font-family="Times,serif" font-size="14.00">Final Layer (1)</text>
<text text-anchor="middle" x="377" y="-163.8" font-family="Times,serif" font-size="14.00">desc = Final output. Using Sigmoid</text>
<text text-anchor="start" x="279" y="-148.8" font-family="Times,serif" font-size="14.00">module = nn.Sigmoid</text>
<text text-anchor="middle" x="377" y="-133.8" font-family="Times,serif" font-size="14.00">reverseMap = {}</text>
</a>
</g>
</g>
<!-- n2 -->
<g id="node2" class="node"><title>n2</title>
<g id="a_node2"><a xlink:title="[[C]]:&#45;1_">
<ellipse fill="none" stroke="black" cx="377" cy="-38" rx="77.1743" ry="37.4533"/>
<text text-anchor="middle" x="377" y="-49.3" font-family="Times,serif" font-size="14.00">Node2</text>
<text text-anchor="start" x="330" y="-34.3" font-family="Times,serif" font-size="14.00">input = {}</text>
<text text-anchor="middle" x="377" y="-19.3" font-family="Times,serif" font-size="14.00">reverseMap = {}</text>
</a>
</g>
</g>
<!-- n1&#45;&gt;n2 -->
<g id="edge1" class="edge"><title>n1&#45;&gt;n2</title>
<path fill="none" stroke="black" d="M377,-111.573C377,-103.096 377,-94.269 377,-85.8099"/>
<polygon fill="black" stroke="black" points="380.5,-85.7224 377,-75.7224 373.5,-85.7224 380.5,-85.7224"/>
</g>
<!-- n3 -->
<g id="node3" class="node"><title>n3</title>
<g id="a_node3"><a xlink:title="[[string &quot;dimension = 2...&quot;]]:24_">
<ellipse fill="none" stroke="black" cx="377" cy="-282" rx="228.093" ry="37.4533"/>
<text text-anchor="middle" x="377" y="-293.3" font-family="Times,serif" font-size="14.00">Node3</text>
<text text-anchor="start" x="223.5" y="-278.3" font-family="Times,serif" font-size="14.00">module = nn.SpatialConvolution(64 &#45;&gt; 2, 3x3, 1,1, 1,1)</text>
<text text-anchor="middle" x="377" y="-263.3" font-family="Times,serif" font-size="14.00">reverseMap = {}</text>
</a>
</g>
</g>
<!-- n3&#45;&gt;n1 -->
<g id="edge2" class="edge"><title>n3&#45;&gt;n1</title>
<path fill="none" stroke="black" d="M377,-244.344C377,-236.219 377,-227.418 377,-218.683"/>
<polygon fill="black" stroke="black" points="380.5,-218.503 377,-208.503 373.5,-218.503 380.5,-218.503"/>
</g>
<!-- n4 -->
<g id="node4" class="node"><title>n4</title>
<g id="a_node4"><a xlink:title="[[string &quot;dimension = 2...&quot;]]:22_">
<ellipse fill="none" stroke="black" cx="377" cy="-394" rx="171.241" ry="37.4533"/>
<text text-anchor="middle" x="377" y="-405.3" font-family="Times,serif" font-size="14.00">Node4</text>
<text text-anchor="start" x="263.5" y="-390.3" font-family="Times,serif" font-size="14.00">module = nn.SpatialMaxPooling(2,2,2,2)</text>
<text text-anchor="middle" x="377" y="-375.3" font-family="Times,serif" font-size="14.00">reverseMap = {}</text>
</a>
</g>
</g>
<!-- n4&#45;&gt;n3 -->
<g id="edge3" class="edge"><title>n4&#45;&gt;n3</title>
<path fill="none" stroke="black" d="M377,-356.372C377,-347.927 377,-338.829 377,-330.011"/>
<polygon fill="black" stroke="black" points="380.5,-329.843 377,-319.844 373.5,-329.844 380.5,-329.843"/>
</g>
<!-- n5 -->
<g id="node5" class="node"><title>n5</title>
<g id="a_node5"><a xlink:title="[[string &quot;dimension = 2...&quot;]]:22_">
<ellipse fill="none" stroke="black" cx="377" cy="-506" rx="87.5215" ry="37.4533"/>
<text text-anchor="middle" x="377" y="-517.3" font-family="Times,serif" font-size="14.00">Node5</text>
<text text-anchor="start" x="323" y="-502.3" font-family="Times,serif" font-size="14.00">module = nn.ReLU</text>
<text text-anchor="middle" x="377" y="-487.3" font-family="Times,serif" font-size="14.00">reverseMap = {}</text>
</a>
</g>
</g>
<!-- n5&#45;&gt;n4 -->
<g id="edge4" class="edge"><title>n5&#45;&gt;n4</title>
<path fill="none" stroke="black" d="M377,-468.372C377,-459.927 377,-450.829 377,-442.011"/>
<polygon fill="black" stroke="black" points="380.5,-441.843 377,-431.844 373.5,-441.844 380.5,-441.843"/>
</g>
<!-- n6 -->
<g id="node6" class="node"><title>n6</title>
<g id="a_node6"><a xlink:title="[[string &quot;dimension = 2...&quot;]]:21_">
<ellipse fill="red" stroke="black" cx="377" cy="-628" rx="168.498" ry="48.1667"/>
<text text-anchor="middle" x="377" y="-646.8" font-family="Times,serif" font-size="14.00">Node6</text>
<text text-anchor="start" x="265.5" y="-631.8" font-family="Times,serif" font-size="14.00">input = {Tensor[5x64x32x32]}</text>
<text text-anchor="start" x="265.5" y="-616.8" font-family="Times,serif" font-size="14.00">module = nn.SpatialBatchNormalization</text>
<text text-anchor="middle" x="377" y="-601.8" font-family="Times,serif" font-size="14.00">reverseMap = {}</text>
</a>
</g>
</g>
<!-- n6&#45;&gt;n5 -->
<g id="edge5" class="edge"><title>n6&#45;&gt;n5</title>
<path fill="none" stroke="black" d="M377,-579.573C377,-571.096 377,-562.269 377,-553.81"/>
<polygon fill="black" stroke="black" points="380.5,-553.722 377,-543.722 373.5,-553.722 380.5,-553.722"/>
</g>
<!-- n7 -->
<g id="node7" class="node"><title>n7</title>
<g id="a_node7"><a xlink:title="[[string &quot;dimension = 2...&quot;]]:21_">
<ellipse fill="none" stroke="black" cx="377" cy="-760" rx="232.457" ry="48.1667"/>
<text text-anchor="middle" x="377" y="-778.8" font-family="Times,serif" font-size="14.00">Node7</text>
<text text-anchor="start" x="220.5" y="-763.8" font-family="Times,serif" font-size="14.00">input = {Tensor[5x32x32x32]}</text>
<text text-anchor="start" x="220.5" y="-748.8" font-family="Times,serif" font-size="14.00">module = nn.SpatialConvolution(32 &#45;&gt; 64, 3x3, 1,1, 1,1)</text>
<text text-anchor="middle" x="377" y="-733.8" font-family="Times,serif" font-size="14.00">reverseMap = {}</text>
</a>
</g>
</g>
<!-- n7&#45;&gt;n6 -->
<g id="edge6" class="edge"><title>n7&#45;&gt;n6</title>
<path fill="none" stroke="black" d="M377,-711.699C377,-703.544 377,-694.987 377,-686.597"/>
<polygon fill="black" stroke="black" points="380.5,-686.483 377,-676.483 373.5,-686.483 380.5,-686.483"/>
</g>
<!-- n8 -->
<g id="node8" class="node"><title>n8</title>
<g id="a_node8"><a xlink:title="[[string &quot;dimension = 2...&quot;]]:19_">
<ellipse fill="none" stroke="black" cx="377" cy="-892" rx="171.241" ry="48.1667"/>
<text text-anchor="middle" x="377" y="-910.8" font-family="Times,serif" font-size="14.00">Node8</text>
<text text-anchor="start" x="263.5" y="-895.8" font-family="Times,serif" font-size="14.00">input = {Tensor[5x32x64x64]}</text>
<text text-anchor="start" x="263.5" y="-880.8" font-family="Times,serif" font-size="14.00">module = nn.SpatialMaxPooling(2,2,2,2)</text>
<text text-anchor="middle" x="377" y="-865.8" font-family="Times,serif" font-size="14.00">reverseMap = {}</text>
</a>
</g>
</g>
<!-- n8&#45;&gt;n7 -->
<g id="edge7" class="edge"><title>n8&#45;&gt;n7</title>
<path fill="none" stroke="black" d="M377,-843.699C377,-835.544 377,-826.987 377,-818.597"/>
<polygon fill="black" stroke="black" points="380.5,-818.483 377,-808.483 373.5,-818.483 380.5,-818.483"/>
</g>
<!-- n9 -->
<g id="node9" class="node"><title>n9</title>
<g id="a_node9"><a xlink:title="[[string &quot;dimension = 2...&quot;]]:19_">
<ellipse fill="none" stroke="black" cx="377" cy="-1024" rx="132.404" ry="48.1667"/>
<text text-anchor="middle" x="377" y="-1042.8" font-family="Times,serif" font-size="14.00">Node9</text>
<text text-anchor="start" x="291" y="-1027.8" font-family="Times,serif" font-size="14.00">input = {Tensor[5x32x64x64]}</text>
<text text-anchor="start" x="291" y="-1012.8" font-family="Times,serif" font-size="14.00">module = nn.ReLU</text>
<text text-anchor="middle" x="377" y="-997.8" font-family="Times,serif" font-size="14.00">reverseMap = {}</text>
</a>
</g>
</g>
<!-- n9&#45;&gt;n8 -->
<g id="edge8" class="edge"><title>n9&#45;&gt;n8</title>
<path fill="none" stroke="black" d="M377,-975.699C377,-967.544 377,-958.987 377,-950.597"/>
<polygon fill="black" stroke="black" points="380.5,-950.483 377,-940.483 373.5,-950.483 380.5,-950.483"/>
</g>
<!-- n10 -->
<g id="node10" class="node"><title>n10</title>
<g id="a_node10"><a xlink:title="[[string &quot;dimension = 2...&quot;]]:18_">
<ellipse fill="none" stroke="black" cx="377" cy="-1156" rx="168.498" ry="48.1667"/>
<text text-anchor="middle" x="377" y="-1174.8" font-family="Times,serif" font-size="14.00">Node10</text>
<text text-anchor="start" x="265.5" y="-1159.8" font-family="Times,serif" font-size="14.00">input = {Tensor[5x32x64x64]}</text>
<text text-anchor="start" x="265.5" y="-1144.8" font-family="Times,serif" font-size="14.00">module = nn.SpatialBatchNormalization</text>
<text text-anchor="middle" x="377" y="-1129.8" font-family="Times,serif" font-size="14.00">reverseMap = {}</text>
</a>
</g>
</g>
<!-- n10&#45;&gt;n9 -->
<g id="edge9" class="edge"><title>n10&#45;&gt;n9</title>
<path fill="none" stroke="black" d="M377,-1107.7C377,-1099.54 377,-1090.99 377,-1082.6"/>
<polygon fill="black" stroke="black" points="380.5,-1082.48 377,-1072.48 373.5,-1082.48 380.5,-1082.48"/>
</g>
<!-- n11 -->
<g id="node11" class="node"><title>n11</title>
<g id="a_node11"><a xlink:title="[[string &quot;dimension = 2...&quot;]]:18_">
<ellipse fill="none" stroke="black" cx="377" cy="-1288" rx="232.457" ry="48.1667"/>
<text text-anchor="middle" x="377" y="-1306.8" font-family="Times,serif" font-size="14.00">Node11</text>
<text text-anchor="start" x="220.5" y="-1291.8" font-family="Times,serif" font-size="14.00">input = {Tensor[5x99x64x64]}</text>
<text text-anchor="start" x="220.5" y="-1276.8" font-family="Times,serif" font-size="14.00">module = nn.SpatialConvolution(99 &#45;&gt; 32, 3x3, 1,1, 1,1)</text>
<text text-anchor="middle" x="377" y="-1261.8" font-family="Times,serif" font-size="14.00">reverseMap = {}</text>
</a>
</g>
</g>
<!-- n11&#45;&gt;n10 -->
<g id="edge10" class="edge"><title>n11&#45;&gt;n10</title>
<path fill="none" stroke="black" d="M377,-1239.7C377,-1231.54 377,-1222.99 377,-1214.6"/>
<polygon fill="black" stroke="black" points="380.5,-1214.48 377,-1204.48 373.5,-1214.48 380.5,-1214.48"/>
</g>
<!-- n12 -->
<g id="node12" class="node"><title>n12</title>
<g id="a_node12"><a xlink:title="[[string &quot;dimension = 2...&quot;]]:11_">
<ellipse fill="none" stroke="grey" cx="377" cy="-1442" rx="377.392" ry="69.0935"/>
<text text-anchor="middle" x="377" y="-1475.8" font-family="Times,serif" font-size="14.00">Joining layer (12)</text>
<text text-anchor="middle" x="377" y="-1460.8" font-family="Times,serif" font-size="14.00">desc = Joining input, level1, deconved_level3, deconved_level6</text>
<text text-anchor="start" x="118" y="-1445.8" font-family="Times,serif" font-size="14.00">input = {Tensor[5x3x64x64],Tensor[5x64x64x64],Tensor[5x16x64x64],Tensor[5x16x64x64]}</text>
<text text-anchor="start" x="118" y="-1430.8" font-family="Times,serif" font-size="14.00">module = nn.JoinTable</text>
<text text-anchor="start" x="118" y="-1415.8" font-family="Times,serif" font-size="14.00">reverseMap = {}</text>
<text text-anchor="middle" x="377" y="-1400.8" font-family="Times,serif" font-size="14.00">mapindex = {Node13,Node14,Node15,Node16}</text>
</a>
</g>
</g>
<!-- n12&#45;&gt;n11 -->
<g id="edge11" class="edge"><title>n12&#45;&gt;n11</title>
<path fill="none" stroke="black" d="M377,-1372.56C377,-1363.82 377,-1354.95 377,-1346.41"/>
<polygon fill="black" stroke="black" points="380.5,-1346.19 377,-1336.19 373.5,-1346.19 380.5,-1346.19"/>
</g>
<!-- n13 -->
<g id="node13" class="node"><title>n13</title>
<g id="a_node13"><a xlink:title="[[string &quot;input = nn.Identity()():annotate{...&quot;]]:1_">
<ellipse fill="none" stroke="green" cx="447" cy="-3917" rx="127.48" ry="58.8803"/>
<text text-anchor="middle" x="447" y="-3943.3" font-family="Times,serif" font-size="14.00">Conv Layer 1 (13)</text>
<text text-anchor="middle" x="447" y="-3928.3" font-family="Times,serif" font-size="14.00">desc = Image Features</text>
<text text-anchor="start" x="364.5" y="-3913.3" font-family="Times,serif" font-size="14.00">input = {Tensor[5x3x64x64]}</text>
<text text-anchor="start" x="364.5" y="-3898.3" font-family="Times,serif" font-size="14.00">module = nn.Identity</text>
<text text-anchor="middle" x="447" y="-3883.3" font-family="Times,serif" font-size="14.00">reverseMap = {}</text>
</a>
</g>
</g>
<!-- n13&#45;&gt;n12 -->
<g id="edge12" class="edge"><title>n13&#45;&gt;n12</title>
<path fill="none" stroke="black" d="M376.867,-3867.96C362.42,-3854.75 348.912,-3839.24 340,-3822 298.759,-3742.21 319,-3710.82 319,-3621 319,-3621 319,-3621 319,-1760 319,-1677.55 338.22,-1584.98 354.531,-1521.26"/>
<polygon fill="black" stroke="black" points="357.995,-1521.85 357.121,-1511.29 351.22,-1520.09 357.995,-1521.85"/>
</g>
<!-- n21 -->
<g id="node21" class="node"><title>n21</title>
<g id="a_node21"><a xlink:title="[[string &quot;input = nn.Identity()():annotate{...&quot;]]:22_">
<ellipse fill="none" stroke="red" cx="577" cy="-3763" rx="228.093" ry="58.8803"/>
<text text-anchor="middle" x="577" y="-3789.3" font-family="Times,serif" font-size="14.00">Conv Layer 1 (21)</text>
<text text-anchor="middle" x="577" y="-3774.3" font-family="Times,serif" font-size="14.00">desc = Image Features</text>
<text text-anchor="start" x="423.5" y="-3759.3" font-family="Times,serif" font-size="14.00">input = {Tensor[5x3x64x64]}</text>
<text text-anchor="start" x="423.5" y="-3744.3" font-family="Times,serif" font-size="14.00">module = nn.SpatialConvolution(3 &#45;&gt; 64, 3x3, 1,1, 1,1)</text>
<text text-anchor="middle" x="577" y="-3729.3" font-family="Times,serif" font-size="14.00">reverseMap = {}</text>
</a>
</g>
</g>
<!-- n13&#45;&gt;n21 -->
<g id="edge23" class="edge"><title>n13&#45;&gt;n21</title>
<path fill="none" stroke="black" d="M493.199,-3861.98C502.568,-3851.03 512.507,-3839.41 522.141,-3828.14"/>
<polygon fill="black" stroke="black" points="524.912,-3830.29 528.752,-3820.41 519.592,-3825.74 524.912,-3830.29"/>
</g>
<!-- n14 -->
<g id="node14" class="node"><title>n14</title>
<g id="a_node14"><a xlink:title="[[string &quot;input = nn.Identity()():annotate{...&quot;]]:26_">
<ellipse fill="none" stroke="blue" cx="580" cy="-3477" rx="232.457" ry="58.8803"/>
<text text-anchor="middle" x="580" y="-3503.3" font-family="Times,serif" font-size="14.00">Conv Layer 2 (14)</text>
<text text-anchor="middle" x="580" y="-3488.3" font-family="Times,serif" font-size="14.00">desc = Image Features</text>
<text text-anchor="start" x="423.5" y="-3473.3" font-family="Times,serif" font-size="14.00">input = {Tensor[5x64x64x64]}</text>
<text text-anchor="start" x="423.5" y="-3458.3" font-family="Times,serif" font-size="14.00">module = nn.SpatialConvolution(64 &#45;&gt; 64, 3x3, 1,1, 1,1)</text>
<text text-anchor="middle" x="580" y="-3443.3" font-family="Times,serif" font-size="14.00">reverseMap = {}</text>
</a>
</g>
</g>
<!-- n14&#45;&gt;n12 -->
<g id="edge13" class="edge"><title>n14&#45;&gt;n12</title>
<path fill="none" stroke="black" d="M492.951,-3422.48C477.166,-3410.4 461.704,-3396.73 449,-3382 390.588,-3314.26 357,-3292.45 357,-3203 357,-3203 357,-3203 357,-1760 357,-1678.61 363.649,-1585.69 369.279,-1521.59"/>
<polygon fill="black" stroke="black" points="372.772,-1521.83 370.173,-1511.56 365.799,-1521.21 372.772,-1521.83"/>
</g>
<!-- n28 -->
<g id="node28" class="node"><title>n28</title>
<g id="a_node28"><a xlink:title="[[string &quot;input = nn.Identity()():annotate{...&quot;]]:30_">
<ellipse fill="none" stroke="black" cx="591" cy="-3334" rx="132.404" ry="48.1667"/>
<text text-anchor="middle" x="591" y="-3352.8" font-family="Times,serif" font-size="14.00">Node28</text>
<text text-anchor="start" x="505" y="-3337.8" font-family="Times,serif" font-size="14.00">input = {Tensor[5x64x64x64]}</text>
<text text-anchor="start" x="505" y="-3322.8" font-family="Times,serif" font-size="14.00">module = nn.ReLU</text>
<text text-anchor="middle" x="591" y="-3307.8" font-family="Times,serif" font-size="14.00">reverseMap = {}</text>
</a>
</g>
</g>
<!-- n14&#45;&gt;n28 -->
<g id="edge30" class="edge"><title>n14&#45;&gt;n28</title>
<path fill="none" stroke="black" d="M584.506,-3418.24C585.172,-3409.7 585.859,-3400.9 586.525,-3392.36"/>
<polygon fill="black" stroke="black" points="590.035,-3392.36 587.324,-3382.12 583.057,-3391.82 590.035,-3392.36"/>
</g>
<!-- n15 -->
<g id="node15" class="node"><title>n15</title>
<g id="a_node15"><a xlink:title="[[string &quot;dimension = 2...&quot;]]:3_">
<ellipse fill="none" stroke="yellow" cx="638" cy="-2487" rx="253.216" ry="58.8803"/>
<text text-anchor="middle" x="638" y="-2513.3" font-family="Times,serif" font-size="14.00">Deconving level 3 (15)</text>
<text text-anchor="middle" x="638" y="-2498.3" font-family="Times,serif" font-size="14.00">desc = To increase the dimension</text>
<text text-anchor="start" x="467" y="-2483.3" font-family="Times,serif" font-size="14.00">input = {Tensor[5x128x32x32]}</text>
<text text-anchor="start" x="467" y="-2468.3" font-family="Times,serif" font-size="14.00">module = nn.SpatialFullConvolution(128 &#45;&gt; 16, 1x1, 2,2, 1,1)</text>
<text text-anchor="middle" x="638" y="-2453.3" font-family="Times,serif" font-size="14.00">reverseMap = {}</text>
</a>
</g>
</g>
<!-- n15&#45;&gt;n12 -->
<g id="edge14" class="edge"><title>n15&#45;&gt;n12</title>
<path fill="none" stroke="black" d="M554.397,-2431.5C485.133,-2379.06 398,-2292.84 398,-2191 398,-2191 398,-2191 398,-1760 398,-1678.59 391.019,-1585.67 385.107,-1521.58"/>
<polygon fill="black" stroke="black" points="388.585,-1521.18 384.168,-1511.55 381.615,-1521.83 388.585,-1521.18"/>
</g>
<!-- n16 -->
<g id="node16" class="node"><title>n16</title>
<g id="a_node16"><a xlink:title="[[string &quot;dimension = 2...&quot;]]:7_">
<ellipse fill="none" stroke="yellow" cx="685" cy="-1607" rx="253.216" ry="58.8803"/>
<text text-anchor="middle" x="685" y="-1633.3" font-family="Times,serif" font-size="14.00">Deconving level 6 (16)</text>
<text text-anchor="middle" x="685" y="-1618.3" font-family="Times,serif" font-size="14.00">desc = To increase the dimension</text>
<text text-anchor="start" x="514" y="-1603.3" font-family="Times,serif" font-size="14.00">input = {Tensor[5x256x16x16]}</text>
<text text-anchor="start" x="514" y="-1588.3" font-family="Times,serif" font-size="14.00">module = nn.SpatialFullConvolution(256 &#45;&gt; 16, 2x2, 4,4, 2,2)</text>
<text text-anchor="middle" x="685" y="-1573.3" font-family="Times,serif" font-size="14.00">reverseMap = {}</text>
</a>
</g>
</g>
<!-- n16&#45;&gt;n12 -->
<g id="edge15" class="edge"><title>n16&#45;&gt;n12</title>
<path fill="none" stroke="black" d="M585.001,-1553.08C560.489,-1540.11 533.888,-1526.03 508.156,-1512.41"/>
<polygon fill="black" stroke="black" points="509.572,-1509.2 499.096,-1507.62 506.298,-1515.39 509.572,-1509.2"/>
</g>
<!-- n17 -->
<g id="node17" class="node"><title>n17</title>
<g id="a_node17"><a xlink:title="[[C]]:&#45;1_">
<ellipse fill="none" stroke="black" cx="447" cy="-4050" rx="127.48" ry="37.4533"/>
<text text-anchor="middle" x="447" y="-4061.3" font-family="Times,serif" font-size="14.00">Node17</text>
<text text-anchor="start" x="364.5" y="-4046.3" font-family="Times,serif" font-size="14.00">input = {Tensor[5x3x64x64]}</text>
<text text-anchor="middle" x="447" y="-4031.3" font-family="Times,serif" font-size="14.00">reverseMap = {}</text>
</a>
</g>
</g>
<!-- n17&#45;&gt;n13 -->
<g id="edge16" class="edge"><title>n17&#45;&gt;n13</title>
<path fill="none" stroke="black" d="M447,-4012.51C447,-4004.26 447,-3995.24 447,-3986.15"/>
<polygon fill="black" stroke="black" points="450.5,-3985.9 447,-3975.9 443.5,-3985.9 450.5,-3985.9"/>
</g>
<!-- n18 -->
<g id="node18" class="node"><title>n18</title>
<g id="a_node18"><a xlink:title="[[string &quot;input = nn.Identity()():annotate{...&quot;]]:26_">
<ellipse fill="none" stroke="black" cx="578" cy="-3620" rx="132.404" ry="48.1667"/>
<text text-anchor="middle" x="578" y="-3638.8" font-family="Times,serif" font-size="14.00">Node18</text>
<text text-anchor="start" x="492" y="-3623.8" font-family="Times,serif" font-size="14.00">input = {Tensor[5x64x64x64]}</text>
<text text-anchor="start" x="492" y="-3608.8" font-family="Times,serif" font-size="14.00">module = nn.ReLU</text>
<text text-anchor="middle" x="578" y="-3593.8" font-family="Times,serif" font-size="14.00">reverseMap = {}</text>
</a>
</g>
</g>
<!-- n18&#45;&gt;n14 -->
<g id="edge17" class="edge"><title>n18&#45;&gt;n14</title>
<path fill="none" stroke="black" d="M578.672,-3571.66C578.789,-3563.38 578.913,-3554.62 579.037,-3545.91"/>
<polygon fill="black" stroke="black" points="582.539,-3545.79 579.181,-3535.74 575.539,-3545.69 582.539,-3545.79"/>
</g>
<!-- n19 -->
<g id="node19" class="node"><title>n19</title>
<g id="a_node19"><a xlink:title="[[string &quot;input = nn.Identity()():annotate{...&quot;]]:34_">
<ellipse fill="none" stroke="blue" cx="638" cy="-2773" rx="242.306" ry="58.8803"/>
<text text-anchor="middle" x="638" y="-2799.3" font-family="Times,serif" font-size="14.00">Conv Layer 3 (19)</text>
<text text-anchor="middle" x="638" y="-2784.3" font-family="Times,serif" font-size="14.00">desc = Image Features</text>
<text text-anchor="start" x="474.5" y="-2769.3" font-family="Times,serif" font-size="14.00">input = {Tensor[5x128x32x32]}</text>
<text text-anchor="start" x="474.5" y="-2754.3" font-family="Times,serif" font-size="14.00">module = nn.SpatialConvolution(128 &#45;&gt; 128, 3x3, 1,1, 1,1)</text>
<text text-anchor="middle" x="638" y="-2739.3" font-family="Times,serif" font-size="14.00">reverseMap = {}</text>
</a>
</g>
</g>
<!-- n19&#45;&gt;n15 -->
<g id="edge18" class="edge"><title>n19&#45;&gt;n15</title>
<path fill="none" stroke="black" d="M638,-2714.19C638,-2668.31 638,-2604.08 638,-2555.78"/>
<polygon fill="black" stroke="black" points="641.5,-2555.73 638,-2545.73 634.5,-2555.73 641.5,-2555.73"/>
</g>
<!-- n31 -->
<g id="node31" class="node"><title>n31</title>
<g id="a_node31"><a xlink:title="[[string &quot;input = nn.Identity()():annotate{...&quot;]]:38_">
<ellipse fill="none" stroke="black" cx="942" cy="-2630" rx="137.268" ry="48.1667"/>
<text text-anchor="middle" x="942" y="-2648.8" font-family="Times,serif" font-size="14.00">Node31</text>
<text text-anchor="start" x="853" y="-2633.8" font-family="Times,serif" font-size="14.00">input = {Tensor[5x128x32x32]}</text>
<text text-anchor="start" x="853" y="-2618.8" font-family="Times,serif" font-size="14.00">module = nn.ReLU</text>
<text text-anchor="middle" x="942" y="-2603.8" font-family="Times,serif" font-size="14.00">reverseMap = {}</text>
</a>
</g>
</g>
<!-- n19&#45;&gt;n31 -->
<g id="edge33" class="edge"><title>n19&#45;&gt;n31</title>
<path fill="none" stroke="black" d="M748.611,-2720.7C782.295,-2705.07 818.915,-2688.09 851.137,-2673.14"/>
<polygon fill="black" stroke="black" points="852.944,-2676.16 860.543,-2668.78 849.999,-2669.81 852.944,-2676.16"/>
</g>
<!-- n20 -->
<g id="node20" class="node"><title>n20</title>
<g id="a_node20"><a xlink:title="[[string &quot;input = nn.Identity()():annotate{...&quot;]]:46_">
<ellipse fill="none" stroke="blue" cx="698" cy="-1761" rx="242.306" ry="58.8803"/>
<text text-anchor="middle" x="698" y="-1787.3" font-family="Times,serif" font-size="14.00">Conv Layer 3 (20)</text>
<text text-anchor="middle" x="698" y="-1772.3" font-family="Times,serif" font-size="14.00">desc = Image Features</text>
<text text-anchor="start" x="534.5" y="-1757.3" font-family="Times,serif" font-size="14.00">input = {Tensor[5x256x16x16]}</text>
<text text-anchor="start" x="534.5" y="-1742.3" font-family="Times,serif" font-size="14.00">module = nn.SpatialConvolution(256 &#45;&gt; 256, 3x3, 1,1, 1,1)</text>
<text text-anchor="middle" x="698" y="-1727.3" font-family="Times,serif" font-size="14.00">reverseMap = {}</text>
</a>
</g>
</g>
<!-- n20&#45;&gt;n16 -->
<g id="edge19" class="edge"><title>n20&#45;&gt;n16</title>
<path fill="none" stroke="black" d="M693.048,-1702.1C692.316,-1693.54 691.556,-1684.65 690.808,-1675.91"/>
<polygon fill="black" stroke="black" points="694.278,-1675.4 689.938,-1665.74 687.303,-1676 694.278,-1675.4"/>
</g>
<!-- n21&#45;&gt;n18 -->
<g id="edge20" class="edge"><title>n21&#45;&gt;n18</title>
<path fill="none" stroke="black" d="M577.41,-3704.24C577.47,-3695.7 577.533,-3686.9 577.593,-3678.36"/>
<polygon fill="black" stroke="black" points="581.095,-3678.15 577.666,-3668.12 574.095,-3678.1 581.095,-3678.15"/>
</g>
<!-- n22 -->
<g id="node22" class="node"><title>n22</title>
<g id="a_node22"><a xlink:title="[[string &quot;input = nn.Identity()():annotate{...&quot;]]:34_">
<ellipse fill="none" stroke="black" cx="634" cy="-2916" rx="137.268" ry="48.1667"/>
<text text-anchor="middle" x="634" y="-2934.8" font-family="Times,serif" font-size="14.00">Node22</text>
<text text-anchor="start" x="545" y="-2919.8" font-family="Times,serif" font-size="14.00">input = {Tensor[5x128x32x32]}</text>
<text text-anchor="start" x="545" y="-2904.8" font-family="Times,serif" font-size="14.00">module = nn.ReLU</text>
<text text-anchor="middle" x="634" y="-2889.8" font-family="Times,serif" font-size="14.00">reverseMap = {}</text>
</a>
</g>
</g>
<!-- n22&#45;&gt;n19 -->
<g id="edge21" class="edge"><title>n22&#45;&gt;n19</title>
<path fill="none" stroke="black" d="M635.343,-2867.66C635.578,-2859.38 635.826,-2850.62 636.073,-2841.91"/>
<polygon fill="black" stroke="black" points="639.577,-2841.84 636.362,-2831.74 632.58,-2841.64 639.577,-2841.84"/>
</g>
<!-- n23 -->
<g id="node23" class="node"><title>n23</title>
<g id="a_node23"><a xlink:title="[[string &quot;input = nn.Identity()():annotate{...&quot;]]:46_">
<ellipse fill="none" stroke="black" cx="723" cy="-1904" rx="137.268" ry="48.1667"/>
<text text-anchor="middle" x="723" y="-1922.8" font-family="Times,serif" font-size="14.00">Node23</text>
<text text-anchor="start" x="634" y="-1907.8" font-family="Times,serif" font-size="14.00">input = {Tensor[5x256x16x16]}</text>
<text text-anchor="start" x="634" y="-1892.8" font-family="Times,serif" font-size="14.00">module = nn.ReLU</text>
<text text-anchor="middle" x="723" y="-1877.8" font-family="Times,serif" font-size="14.00">reverseMap = {}</text>
</a>
</g>
</g>
<!-- n23&#45;&gt;n20 -->
<g id="edge22" class="edge"><title>n23&#45;&gt;n20</title>
<path fill="none" stroke="black" d="M714.606,-1855.66C713.122,-1847.29 711.551,-1838.43 709.99,-1829.63"/>
<polygon fill="black" stroke="black" points="713.43,-1828.98 708.238,-1819.74 706.538,-1830.2 713.43,-1828.98"/>
</g>
<!-- n24 -->
<g id="node24" class="node"><title>n24</title>
<g id="a_node24"><a xlink:title="[[string &quot;input = nn.Identity()():annotate{...&quot;]]:30_">
<ellipse fill="none" stroke="red" cx="630" cy="-3059" rx="237.382" ry="58.8803"/>
<text text-anchor="middle" x="630" y="-3085.3" font-family="Times,serif" font-size="14.00">Conv Layer 3 (24)</text>
<text text-anchor="middle" x="630" y="-3070.3" font-family="Times,serif" font-size="14.00">desc = Image Features</text>
<text text-anchor="start" x="470" y="-3055.3" font-family="Times,serif" font-size="14.00">input = {Tensor[5x64x32x32]}</text>
<text text-anchor="start" x="470" y="-3040.3" font-family="Times,serif" font-size="14.00">module = nn.SpatialConvolution(64 &#45;&gt; 128, 3x3, 1,1, 1,1)</text>
<text text-anchor="middle" x="630" y="-3025.3" font-family="Times,serif" font-size="14.00">reverseMap = {}</text>
</a>
</g>
</g>
<!-- n24&#45;&gt;n22 -->
<g id="edge24" class="edge"><title>n24&#45;&gt;n22</title>
<path fill="none" stroke="black" d="M631.638,-3000.24C631.881,-2991.7 632.131,-2982.9 632.373,-2974.36"/>
<polygon fill="black" stroke="black" points="635.878,-2974.22 632.663,-2964.12 628.881,-2974.02 635.878,-2974.22"/>
</g>
<!-- n25 -->
<g id="node25" class="node"><title>n25</title>
<g id="a_node25"><a xlink:title="[[string &quot;input = nn.Identity()():annotate{...&quot;]]:42_">
<ellipse fill="none" stroke="red" cx="774" cy="-2047" rx="242.306" ry="58.8803"/>
<text text-anchor="middle" x="774" y="-2073.3" font-family="Times,serif" font-size="14.00">Conv Layer 3 (25)</text>
<text text-anchor="middle" x="774" y="-2058.3" font-family="Times,serif" font-size="14.00">desc = Image Features</text>
<text text-anchor="start" x="610.5" y="-2043.3" font-family="Times,serif" font-size="14.00">input = {Tensor[5x256x16x16]}</text>
<text text-anchor="start" x="610.5" y="-2028.3" font-family="Times,serif" font-size="14.00">module = nn.SpatialConvolution(256 &#45;&gt; 256, 3x3, 1,1, 1,1)</text>
<text text-anchor="middle" x="774" y="-2013.3" font-family="Times,serif" font-size="14.00">reverseMap = {}</text>
</a>
</g>
</g>
<!-- n25&#45;&gt;n23 -->
<g id="edge25" class="edge"><title>n25&#45;&gt;n23</title>
<path fill="none" stroke="black" d="M753.109,-1988.24C749.951,-1979.51 746.696,-1970.51 743.545,-1961.8"/>
<polygon fill="black" stroke="black" points="746.736,-1960.33 740.044,-1952.12 740.154,-1962.72 746.736,-1960.33"/>
</g>
<!-- n26 -->
<g id="node26" class="node"><title>n26</title>
<g id="a_node26"><a xlink:title="[[string &quot;input = nn.Identity()():annotate{...&quot;]]:30_">
<ellipse fill="none" stroke="black" cx="612" cy="-3202" rx="171.241" ry="48.1667"/>
<text text-anchor="middle" x="612" y="-3220.8" font-family="Times,serif" font-size="14.00">Node26</text>
<text text-anchor="start" x="498.5" y="-3205.8" font-family="Times,serif" font-size="14.00">input = {Tensor[5x64x64x64]}</text>
<text text-anchor="start" x="498.5" y="-3190.8" font-family="Times,serif" font-size="14.00">module = nn.SpatialMaxPooling(2,2,2,2)</text>
<text text-anchor="middle" x="612" y="-3175.8" font-family="Times,serif" font-size="14.00">reverseMap = {}</text>
</a>
</g>
</g>
<!-- n26&#45;&gt;n24 -->
<g id="edge26" class="edge"><title>n26&#45;&gt;n24</title>
<path fill="none" stroke="black" d="M618.044,-3153.66C619.101,-3145.38 620.219,-3136.62 621.331,-3127.91"/>
<polygon fill="black" stroke="black" points="624.834,-3128.11 622.628,-3117.74 617.89,-3127.22 624.834,-3128.11"/>
</g>
<!-- n27 -->
<g id="node27" class="node"><title>n27</title>
<g id="a_node27"><a xlink:title="[[string &quot;input = nn.Identity()():annotate{...&quot;]]:42_">
<ellipse fill="none" stroke="black" cx="875" cy="-2190" rx="137.268" ry="48.1667"/>
<text text-anchor="middle" x="875" y="-2208.8" font-family="Times,serif" font-size="14.00">Node27</text>
<text text-anchor="start" x="786" y="-2193.8" font-family="Times,serif" font-size="14.00">input = {Tensor[5x256x16x16]}</text>
<text text-anchor="start" x="786" y="-2178.8" font-family="Times,serif" font-size="14.00">module = nn.ReLU</text>
<text text-anchor="middle" x="875" y="-2163.8" font-family="Times,serif" font-size="14.00">reverseMap = {}</text>
</a>
</g>
</g>
<!-- n27&#45;&gt;n25 -->
<g id="edge27" class="edge"><title>n27&#45;&gt;n25</title>
<path fill="none" stroke="black" d="M842.208,-2143.22C835.368,-2133.67 828.032,-2123.43 820.797,-2113.33"/>
<polygon fill="black" stroke="black" points="823.426,-2110.99 814.758,-2104.9 817.736,-2115.07 823.426,-2110.99"/>
</g>
<!-- n28&#45;&gt;n26 -->
<g id="edge28" class="edge"><title>n28&#45;&gt;n26</title>
<path fill="none" stroke="black" d="M598.641,-3285.7C599.99,-3277.35 601.406,-3268.58 602.793,-3260"/>
<polygon fill="black" stroke="black" points="606.26,-3260.48 604.4,-3250.05 599.35,-3259.36 606.26,-3260.48"/>
</g>
<!-- n29 -->
<g id="node29" class="node"><title>n29</title>
<g id="a_node29"><a xlink:title="[[string &quot;input = nn.Identity()():annotate{...&quot;]]:38_">
<ellipse fill="none" stroke="red" cx="1077" cy="-2333" rx="242.306" ry="58.8803"/>
<text text-anchor="middle" x="1077" y="-2359.3" font-family="Times,serif" font-size="14.00">Conv Layer 3 (29)</text>
<text text-anchor="middle" x="1077" y="-2344.3" font-family="Times,serif" font-size="14.00">desc = Image Features</text>
<text text-anchor="start" x="913.5" y="-2329.3" font-family="Times,serif" font-size="14.00">input = {Tensor[5x128x16x16]}</text>
<text text-anchor="start" x="913.5" y="-2314.3" font-family="Times,serif" font-size="14.00">module = nn.SpatialConvolution(128 &#45;&gt; 256, 3x3, 1,1, 1,1)</text>
<text text-anchor="middle" x="1077" y="-2299.3" font-family="Times,serif" font-size="14.00">reverseMap = {}</text>
</a>
</g>
</g>
<!-- n29&#45;&gt;n27 -->
<g id="edge29" class="edge"><title>n29&#45;&gt;n27</title>
<path fill="none" stroke="black" d="M998.612,-2277.28C980.6,-2264.71 961.576,-2251.43 943.995,-2239.16"/>
<polygon fill="black" stroke="black" points="945.694,-2236.08 935.491,-2233.22 941.687,-2241.82 945.694,-2236.08"/>
</g>
<!-- n30 -->
<g id="node30" class="node"><title>n30</title>
<g id="a_node30"><a xlink:title="[[string &quot;input = nn.Identity()():annotate{...&quot;]]:38_">
<ellipse fill="none" stroke="black" cx="1081" cy="-2487" rx="171.241" ry="48.1667"/>
<text text-anchor="middle" x="1081" y="-2505.8" font-family="Times,serif" font-size="14.00">Node30</text>
<text text-anchor="start" x="967.5" y="-2490.8" font-family="Times,serif" font-size="14.00">input = {Tensor[5x128x32x32]}</text>
<text text-anchor="start" x="967.5" y="-2475.8" font-family="Times,serif" font-size="14.00">module = nn.SpatialMaxPooling(2,2,2,2)</text>
<text text-anchor="middle" x="1081" y="-2460.8" font-family="Times,serif" font-size="14.00">reverseMap = {}</text>
</a>
</g>
</g>
<!-- n30&#45;&gt;n29 -->
<g id="edge31" class="edge"><title>n30&#45;&gt;n29</title>
<path fill="none" stroke="black" d="M1079.76,-2438.74C1079.45,-2427.17 1079.12,-2414.55 1078.79,-2402.21"/>
<polygon fill="black" stroke="black" points="1082.29,-2401.84 1078.52,-2391.94 1075.29,-2402.02 1082.29,-2401.84"/>
</g>
<!-- n31&#45;&gt;n30 -->
<g id="edge32" class="edge"><title>n31&#45;&gt;n30</title>
<path fill="none" stroke="black" d="M985.98,-2584.39C999.527,-2570.65 1014.57,-2555.38 1028.63,-2541.13"/>
<polygon fill="black" stroke="black" points="1031.34,-2543.36 1035.87,-2533.78 1026.36,-2538.44 1031.34,-2543.36"/>
</g>
</g>
</svg>
