<?xml version="1.0" encoding="UTF-8" standalone="no"?>
<!DOCTYPE svg PUBLIC "-//W3C//DTD SVG 1.1//EN"
 "http://www.w3.org/Graphics/SVG/1.1/DTD/svg11.dtd">
<!-- Generated by graphviz version 2.36.0 (20140111.2315)
 -->
<!-- Title: G Pages: 1 -->
<svg width="1365pt" height="4915pt"
 viewBox="0.00 0.00 1365.00 4915.00" xmlns="http://www.w3.org/2000/svg" xmlns:xlink="http://www.w3.org/1999/xlink">
<g id="graph0" class="graph" transform="scale(1 1) rotate(0) translate(4 4911)">
<title>G</title>
<polygon fill="white" stroke="none" points="-4,4 -4,-4911 1361,-4911 1361,4 -4,4"/>
<text text-anchor="middle" x="678.5" y="-4891.8" font-family="Times,serif" font-size="14.00">nngraph_1in_1out_lua_n3tPAU</text>
<!-- n1 -->
<g id="node1" class="node"><title>n1</title>
<g id="a_node1"><a xlink:title="[./Net2.lua]:85_">
<ellipse fill="none" stroke="purple" cx="415" cy="-202" rx="152.042" ry="69.0935"/>
<text text-anchor="middle" x="415" y="-235.8" font-family="Times,serif" font-size="14.00">Final Layer (1)</text>
<text text-anchor="middle" x="415" y="-220.8" font-family="Times,serif" font-size="14.00">desc = Final output. Using Sigmoid</text>
<text text-anchor="start" x="315.5" y="-205.8" font-family="Times,serif" font-size="14.00">input = {Tensor[2x2x56x56]}</text>
<text text-anchor="start" x="315.5" y="-190.8" font-family="Times,serif" font-size="14.00">module = nn.Sigmoid</text>
<text text-anchor="start" x="315.5" y="-175.8" font-family="Times,serif" font-size="14.00">reverseMap = {}</text>
<text text-anchor="middle" x="415" y="-160.8" font-family="Times,serif" font-size="14.00">gradOutput = {Tensor[2x2x56x56]}</text>
</a>
</g>
</g>
<!-- n2 -->
<g id="node2" class="node"><title>n2</title>
<g id="a_node2"><a xlink:title="[[C]]:&#45;1_">
<ellipse fill="none" stroke="black" cx="415" cy="-48" rx="152.042" ry="48.1667"/>
<text text-anchor="middle" x="415" y="-66.8" font-family="Times,serif" font-size="14.00">Node2</text>
<text text-anchor="start" x="315.5" y="-51.8" font-family="Times,serif" font-size="14.00">input = {Tensor[2x2x56x56]}</text>
<text text-anchor="start" x="315.5" y="-36.8" font-family="Times,serif" font-size="14.00">reverseMap = {}</text>
<text text-anchor="middle" x="415" y="-21.8" font-family="Times,serif" font-size="14.00">gradOutput = {Tensor[2x2x56x56]}</text>
</a>
</g>
</g>
<!-- n1&#45;&gt;n2 -->
<g id="edge1" class="edge"><title>n1&#45;&gt;n2</title>
<path fill="none" stroke="black" d="M415,-132.559C415,-123.82 415,-114.946 415,-106.406"/>
<polygon fill="black" stroke="black" points="418.5,-106.186 415,-96.1859 411.5,-106.186 418.5,-106.186"/>
</g>
<!-- n3 -->
<g id="node3" class="node"><title>n3</title>
<g id="a_node3"><a xlink:title="[./Net2.lua]:85_">
<ellipse fill="none" stroke="black" cx="415" cy="-367" rx="228.093" ry="58.8803"/>
<text text-anchor="middle" x="415" y="-393.3" font-family="Times,serif" font-size="14.00">Node3</text>
<text text-anchor="start" x="261.5" y="-378.3" font-family="Times,serif" font-size="14.00">input = {Tensor[2x64x56x56]}</text>
<text text-anchor="start" x="261.5" y="-363.3" font-family="Times,serif" font-size="14.00">module = nn.SpatialConvolution(64 &#45;&gt; 2, 3x3, 1,1, 1,1)</text>
<text text-anchor="start" x="261.5" y="-348.3" font-family="Times,serif" font-size="14.00">reverseMap = {}</text>
<text text-anchor="middle" x="415" y="-333.3" font-family="Times,serif" font-size="14.00">gradOutput = {Tensor[2x2x56x56]}</text>
</a>
</g>
</g>
<!-- n3&#45;&gt;n1 -->
<g id="edge2" class="edge"><title>n3&#45;&gt;n1</title>
<path fill="none" stroke="black" d="M415,-308.073C415,-299.43 415,-290.4 415,-281.42"/>
<polygon fill="black" stroke="black" points="418.5,-281.326 415,-271.326 411.5,-281.326 418.5,-281.326"/>
</g>
<!-- n4 -->
<g id="node4" class="node"><title>n4</title>
<g id="a_node4"><a xlink:title="[./Net2.lua]:83_">
<ellipse fill="none" stroke="black" cx="415" cy="-521" rx="171.241" ry="58.8803"/>
<text text-anchor="middle" x="415" y="-547.3" font-family="Times,serif" font-size="14.00">Node4</text>
<text text-anchor="start" x="301.5" y="-532.3" font-family="Times,serif" font-size="14.00">input = {Tensor[2x64x112x112]}</text>
<text text-anchor="start" x="301.5" y="-517.3" font-family="Times,serif" font-size="14.00">module = nn.SpatialMaxPooling(2,2,2,2)</text>
<text text-anchor="start" x="301.5" y="-502.3" font-family="Times,serif" font-size="14.00">reverseMap = {}</text>
<text text-anchor="middle" x="415" y="-487.3" font-family="Times,serif" font-size="14.00">gradOutput = {Tensor[2x64x56x56]}</text>
</a>
</g>
</g>
<!-- n4&#45;&gt;n3 -->
<g id="edge3" class="edge"><title>n4&#45;&gt;n3</title>
<path fill="none" stroke="black" d="M415,-462.102C415,-453.539 415,-444.651 415,-435.907"/>
<polygon fill="black" stroke="black" points="418.5,-435.737 415,-425.737 411.5,-435.737 418.5,-435.737"/>
</g>
<!-- n5 -->
<g id="node5" class="node"><title>n5</title>
<g id="a_node5"><a xlink:title="[./Net2.lua]:83_">
<ellipse fill="none" stroke="black" cx="415" cy="-675" rx="166.255" ry="58.8803"/>
<text text-anchor="middle" x="415" y="-701.3" font-family="Times,serif" font-size="14.00">Node5</text>
<text text-anchor="start" x="305.5" y="-686.3" font-family="Times,serif" font-size="14.00">input = {Tensor[2x64x112x112]}</text>
<text text-anchor="start" x="305.5" y="-671.3" font-family="Times,serif" font-size="14.00">module = nn.ReLU</text>
<text text-anchor="start" x="305.5" y="-656.3" font-family="Times,serif" font-size="14.00">reverseMap = {}</text>
<text text-anchor="middle" x="415" y="-641.3" font-family="Times,serif" font-size="14.00">gradOutput = {Tensor[2x64x112x112]}</text>
</a>
</g>
</g>
<!-- n5&#45;&gt;n4 -->
<g id="edge4" class="edge"><title>n5&#45;&gt;n4</title>
<path fill="none" stroke="black" d="M415,-616.102C415,-607.539 415,-598.651 415,-589.907"/>
<polygon fill="black" stroke="black" points="418.5,-589.737 415,-579.737 411.5,-589.737 418.5,-589.737"/>
</g>
<!-- n6 -->
<g id="node6" class="node"><title>n6</title>
<g id="a_node6"><a xlink:title="[./Net2.lua]:82_">
<ellipse fill="none" stroke="black" cx="415" cy="-829" rx="168.498" ry="58.8803"/>
<text text-anchor="middle" x="415" y="-855.3" font-family="Times,serif" font-size="14.00">Node6</text>
<text text-anchor="start" x="303.5" y="-840.3" font-family="Times,serif" font-size="14.00">input = {Tensor[2x64x112x112]}</text>
<text text-anchor="start" x="303.5" y="-825.3" font-family="Times,serif" font-size="14.00">module = nn.SpatialBatchNormalization</text>
<text text-anchor="start" x="303.5" y="-810.3" font-family="Times,serif" font-size="14.00">reverseMap = {}</text>
<text text-anchor="middle" x="415" y="-795.3" font-family="Times,serif" font-size="14.00">gradOutput = {Tensor[2x64x112x112]}</text>
</a>
</g>
</g>
<!-- n6&#45;&gt;n5 -->
<g id="edge5" class="edge"><title>n6&#45;&gt;n5</title>
<path fill="none" stroke="black" d="M415,-770.102C415,-761.539 415,-752.651 415,-743.907"/>
<polygon fill="black" stroke="black" points="418.5,-743.737 415,-733.737 411.5,-743.737 418.5,-743.737"/>
</g>
<!-- n7 -->
<g id="node7" class="node"><title>n7</title>
<g id="a_node7"><a xlink:title="[./Net2.lua]:82_">
<ellipse fill="none" stroke="black" cx="415" cy="-983" rx="232.457" ry="58.8803"/>
<text text-anchor="middle" x="415" y="-1009.3" font-family="Times,serif" font-size="14.00">Node7</text>
<text text-anchor="start" x="258.5" y="-994.3" font-family="Times,serif" font-size="14.00">input = {Tensor[2x32x112x112]}</text>
<text text-anchor="start" x="258.5" y="-979.3" font-family="Times,serif" font-size="14.00">module = nn.SpatialConvolution(32 &#45;&gt; 64, 3x3, 1,1, 1,1)</text>
<text text-anchor="start" x="258.5" y="-964.3" font-family="Times,serif" font-size="14.00">reverseMap = {}</text>
<text text-anchor="middle" x="415" y="-949.3" font-family="Times,serif" font-size="14.00">gradOutput = {Tensor[2x64x112x112]}</text>
</a>
</g>
</g>
<!-- n7&#45;&gt;n6 -->
<g id="edge6" class="edge"><title>n7&#45;&gt;n6</title>
<path fill="none" stroke="black" d="M415,-924.102C415,-915.539 415,-906.651 415,-897.907"/>
<polygon fill="black" stroke="black" points="418.5,-897.737 415,-887.737 411.5,-897.737 418.5,-897.737"/>
</g>
<!-- n8 -->
<g id="node8" class="node"><title>n8</title>
<g id="a_node8"><a xlink:title="[./Net2.lua]:80_">
<ellipse fill="none" stroke="black" cx="415" cy="-1137" rx="171.241" ry="58.8803"/>
<text text-anchor="middle" x="415" y="-1163.3" font-family="Times,serif" font-size="14.00">Node8</text>
<text text-anchor="start" x="301.5" y="-1148.3" font-family="Times,serif" font-size="14.00">input = {Tensor[2x32x224x224]}</text>
<text text-anchor="start" x="301.5" y="-1133.3" font-family="Times,serif" font-size="14.00">module = nn.SpatialMaxPooling(2,2,2,2)</text>
<text text-anchor="start" x="301.5" y="-1118.3" font-family="Times,serif" font-size="14.00">reverseMap = {}</text>
<text text-anchor="middle" x="415" y="-1103.3" font-family="Times,serif" font-size="14.00">gradOutput = {Tensor[2x32x112x112]}</text>
</a>
</g>
</g>
<!-- n8&#45;&gt;n7 -->
<g id="edge7" class="edge"><title>n8&#45;&gt;n7</title>
<path fill="none" stroke="black" d="M415,-1078.1C415,-1069.54 415,-1060.65 415,-1051.91"/>
<polygon fill="black" stroke="black" points="418.5,-1051.74 415,-1041.74 411.5,-1051.74 418.5,-1051.74"/>
</g>
<!-- n9 -->
<g id="node9" class="node"><title>n9</title>
<g id="a_node9"><a xlink:title="[./Net2.lua]:80_">
<ellipse fill="none" stroke="black" cx="415" cy="-1291" rx="166.255" ry="58.8803"/>
<text text-anchor="middle" x="415" y="-1317.3" font-family="Times,serif" font-size="14.00">Node9</text>
<text text-anchor="start" x="305.5" y="-1302.3" font-family="Times,serif" font-size="14.00">input = {Tensor[2x32x224x224]}</text>
<text text-anchor="start" x="305.5" y="-1287.3" font-family="Times,serif" font-size="14.00">module = nn.ReLU</text>
<text text-anchor="start" x="305.5" y="-1272.3" font-family="Times,serif" font-size="14.00">reverseMap = {}</text>
<text text-anchor="middle" x="415" y="-1257.3" font-family="Times,serif" font-size="14.00">gradOutput = {Tensor[2x32x224x224]}</text>
</a>
</g>
</g>
<!-- n9&#45;&gt;n8 -->
<g id="edge8" class="edge"><title>n9&#45;&gt;n8</title>
<path fill="none" stroke="black" d="M415,-1232.1C415,-1223.54 415,-1214.65 415,-1205.91"/>
<polygon fill="black" stroke="black" points="418.5,-1205.74 415,-1195.74 411.5,-1205.74 418.5,-1205.74"/>
</g>
<!-- n10 -->
<g id="node10" class="node"><title>n10</title>
<g id="a_node10"><a xlink:title="[./Net2.lua]:79_">
<ellipse fill="none" stroke="black" cx="415" cy="-1445" rx="168.498" ry="58.8803"/>
<text text-anchor="middle" x="415" y="-1471.3" font-family="Times,serif" font-size="14.00">Node10</text>
<text text-anchor="start" x="303.5" y="-1456.3" font-family="Times,serif" font-size="14.00">input = {Tensor[2x32x224x224]}</text>
<text text-anchor="start" x="303.5" y="-1441.3" font-family="Times,serif" font-size="14.00">module = nn.SpatialBatchNormalization</text>
<text text-anchor="start" x="303.5" y="-1426.3" font-family="Times,serif" font-size="14.00">reverseMap = {}</text>
<text text-anchor="middle" x="415" y="-1411.3" font-family="Times,serif" font-size="14.00">gradOutput = {Tensor[2x32x224x224]}</text>
</a>
</g>
</g>
<!-- n10&#45;&gt;n9 -->
<g id="edge9" class="edge"><title>n10&#45;&gt;n9</title>
<path fill="none" stroke="black" d="M415,-1386.1C415,-1377.54 415,-1368.65 415,-1359.91"/>
<polygon fill="black" stroke="black" points="418.5,-1359.74 415,-1349.74 411.5,-1359.74 418.5,-1359.74"/>
</g>
<!-- n11 -->
<g id="node11" class="node"><title>n11</title>
<g id="a_node11"><a xlink:title="[./Net2.lua]:79_">
<ellipse fill="red" stroke="black" cx="415" cy="-1599" rx="232.457" ry="58.8803"/>
<text text-anchor="middle" x="415" y="-1625.3" font-family="Times,serif" font-size="14.00">Node11</text>
<text text-anchor="start" x="258.5" y="-1610.3" font-family="Times,serif" font-size="14.00">input = {Tensor[2x99x224x224]}</text>
<text text-anchor="start" x="258.5" y="-1595.3" font-family="Times,serif" font-size="14.00">module = nn.SpatialConvolution(99 &#45;&gt; 32, 3x3, 1,1, 1,1)</text>
<text text-anchor="start" x="258.5" y="-1580.3" font-family="Times,serif" font-size="14.00">reverseMap = {}</text>
<text text-anchor="middle" x="415" y="-1565.3" font-family="Times,serif" font-size="14.00">gradOutput = {Tensor[2x32x224x224]}</text>
</a>
</g>
</g>
<!-- n11&#45;&gt;n10 -->
<g id="edge10" class="edge"><title>n11&#45;&gt;n10</title>
<path fill="none" stroke="black" d="M415,-1540.1C415,-1531.54 415,-1522.65 415,-1513.91"/>
<polygon fill="black" stroke="black" points="418.5,-1513.74 415,-1503.74 411.5,-1513.74 418.5,-1513.74"/>
</g>
<!-- n12 -->
<g id="node12" class="node"><title>n12</title>
<g id="a_node12"><a xlink:title="[./Net2.lua]:72_">
<ellipse fill="none" stroke="grey" cx="415" cy="-1774" rx="415.169" ry="79.8063"/>
<text text-anchor="middle" x="415" y="-1815.3" font-family="Times,serif" font-size="14.00">Joining layer (12)</text>
<text text-anchor="middle" x="415" y="-1800.3" font-family="Times,serif" font-size="14.00">desc = Joining input, level1, deconved_level3, deconved_level6</text>
<text text-anchor="start" x="129" y="-1785.3" font-family="Times,serif" font-size="14.00">input = {Tensor[2x3x224x224],Tensor[2x64x224x224],Tensor[2x16x224x224],Tensor[2x16x224x224]}</text>
<text text-anchor="start" x="129" y="-1770.3" font-family="Times,serif" font-size="14.00">mapindex = {Node13,Node14,Node15,Node16}</text>
<text text-anchor="start" x="129" y="-1755.3" font-family="Times,serif" font-size="14.00">module = nn.JoinTable</text>
<text text-anchor="start" x="129" y="-1740.3" font-family="Times,serif" font-size="14.00">reverseMap = {}</text>
<text text-anchor="middle" x="415" y="-1725.3" font-family="Times,serif" font-size="14.00">gradOutput = {}</text>
</a>
</g>
</g>
<!-- n12&#45;&gt;n11 -->
<g id="edge11" class="edge"><title>n12&#45;&gt;n11</title>
<path fill="none" stroke="black" d="M415,-1694.09C415,-1685.41 415,-1676.63 415,-1668.1"/>
<polygon fill="black" stroke="black" points="418.5,-1667.84 415,-1657.84 411.5,-1667.84 418.5,-1667.84"/>
</g>
<!-- n13 -->
<g id="node13" class="node"><title>n13</title>
<g id="a_node13"><a xlink:title="[./Net2.lua]:11_">
<ellipse fill="none" stroke="green" cx="485" cy="-4672" rx="176.166" ry="79.8062"/>
<text text-anchor="middle" x="485" y="-4713.3" font-family="Times,serif" font-size="14.00">Conv Layer 1 (13)</text>
<text text-anchor="middle" x="485" y="-4698.3" font-family="Times,serif" font-size="14.00">desc = Image Features</text>
<text text-anchor="start" x="368" y="-4683.3" font-family="Times,serif" font-size="14.00">gradOutputBuffer = Tensor[2x3x224x224]</text>
<text text-anchor="start" x="368" y="-4668.3" font-family="Times,serif" font-size="14.00">input = {Tensor[2x3x224x224]}</text>
<text text-anchor="start" x="368" y="-4653.3" font-family="Times,serif" font-size="14.00">module = nn.Identity</text>
<text text-anchor="start" x="368" y="-4638.3" font-family="Times,serif" font-size="14.00">reverseMap = {}</text>
<text text-anchor="middle" x="485" y="-4623.3" font-family="Times,serif" font-size="14.00">gradOutput = {}</text>
</a>
</g>
</g>
<!-- n13&#45;&gt;n12 -->
<g id="edge12" class="edge"><title>n13&#45;&gt;n12</title>
<path fill="none" stroke="black" d="M406.181,-4600.22C395.03,-4586.62 384.997,-4571.69 378,-4556 335.476,-4460.63 357,-4426.42 357,-4322 357,-4322 357,-4322 357,-2135 357,-2041.74 376.208,-1936.59 392.516,-1864.13"/>
<polygon fill="black" stroke="black" points="395.986,-1864.65 394.796,-1854.13 389.161,-1863.1 395.986,-1864.65"/>
</g>
<!-- n21 -->
<g id="node21" class="node"><title>n21</title>
<g id="a_node21"><a xlink:title="[./Net2.lua]:32_">
<ellipse fill="none" stroke="red" cx="615" cy="-4486" rx="228.093" ry="69.0935"/>
<text text-anchor="middle" x="615" y="-4519.8" font-family="Times,serif" font-size="14.00">Conv Layer 1 (21)</text>
<text text-anchor="middle" x="615" y="-4504.8" font-family="Times,serif" font-size="14.00">desc = Image Features</text>
<text text-anchor="start" x="461.5" y="-4489.8" font-family="Times,serif" font-size="14.00">input = {Tensor[2x3x224x224]}</text>
<text text-anchor="start" x="461.5" y="-4474.8" font-family="Times,serif" font-size="14.00">module = nn.SpatialConvolution(3 &#45;&gt; 64, 3x3, 1,1, 1,1)</text>
<text text-anchor="start" x="461.5" y="-4459.8" font-family="Times,serif" font-size="14.00">reverseMap = {}</text>
<text text-anchor="middle" x="615" y="-4444.8" font-family="Times,serif" font-size="14.00">gradOutput = {}</text>
</a>
</g>
</g>
<!-- n13&#45;&gt;n21 -->
<g id="edge23" class="edge"><title>n13&#45;&gt;n21</title>
<path fill="none" stroke="black" d="M538.251,-4595.63C546.018,-4584.64 554.016,-4573.32 561.782,-4562.32"/>
<polygon fill="black" stroke="black" points="564.757,-4564.18 567.668,-4553.99 559.039,-4560.14 564.757,-4564.18"/>
</g>
<!-- n14 -->
<g id="node14" class="node"><title>n14</title>
<g id="a_node14"><a xlink:title="[./Net2.lua]:36_">
<ellipse fill="none" stroke="blue" cx="618" cy="-4146" rx="232.457" ry="79.8062"/>
<text text-anchor="middle" x="618" y="-4187.3" font-family="Times,serif" font-size="14.00">Conv Layer 2 (14)</text>
<text text-anchor="middle" x="618" y="-4172.3" font-family="Times,serif" font-size="14.00">desc = Image Features</text>
<text text-anchor="start" x="461.5" y="-4157.3" font-family="Times,serif" font-size="14.00">gradOutputBuffer = Tensor[2x64x224x224]</text>
<text text-anchor="start" x="461.5" y="-4142.3" font-family="Times,serif" font-size="14.00">input = {Tensor[2x64x224x224]}</text>
<text text-anchor="start" x="461.5" y="-4127.3" font-family="Times,serif" font-size="14.00">module = nn.SpatialConvolution(64 &#45;&gt; 64, 3x3, 1,1, 1,1)</text>
<text text-anchor="start" x="461.5" y="-4112.3" font-family="Times,serif" font-size="14.00">reverseMap = {}</text>
<text text-anchor="middle" x="618" y="-4097.3" font-family="Times,serif" font-size="14.00">gradOutput = {}</text>
</a>
</g>
</g>
<!-- n14&#45;&gt;n12 -->
<g id="edge13" class="edge"><title>n14&#45;&gt;n12</title>
<path fill="none" stroke="black" d="M518.043,-4073.83C503.353,-4060.42 489.368,-4045.65 478,-4030 418.539,-3948.13 395,-3919.19 395,-3818 395,-3818 395,-3818 395,-2135 395,-2042.48 401.666,-1936.8 407.302,-1863.99"/>
<polygon fill="black" stroke="black" points="410.797,-1864.18 408.089,-1853.94 403.819,-1863.63 410.797,-1864.18"/>
</g>
<!-- n28 -->
<g id="node28" class="node"><title>n28</title>
<g id="a_node28"><a xlink:title="[./Net2.lua]:40_">
<ellipse fill="none" stroke="black" cx="629" cy="-3971" rx="142.193" ry="58.8803"/>
<text text-anchor="middle" x="629" y="-3997.3" font-family="Times,serif" font-size="14.00">Node28</text>
<text text-anchor="start" x="536.5" y="-3982.3" font-family="Times,serif" font-size="14.00">input = {Tensor[2x64x224x224]}</text>
<text text-anchor="start" x="536.5" y="-3967.3" font-family="Times,serif" font-size="14.00">module = nn.ReLU</text>
<text text-anchor="start" x="536.5" y="-3952.3" font-family="Times,serif" font-size="14.00">reverseMap = {}</text>
<text text-anchor="middle" x="629" y="-3937.3" font-family="Times,serif" font-size="14.00">gradOutput = {}</text>
</a>
</g>
</g>
<!-- n14&#45;&gt;n28 -->
<g id="edge30" class="edge"><title>n14&#45;&gt;n28</title>
<path fill="none" stroke="black" d="M623.017,-4066.09C623.569,-4057.41 624.127,-4048.63 624.67,-4040.1"/>
<polygon fill="black" stroke="black" points="628.181,-4040.04 625.322,-4029.84 621.195,-4039.6 628.181,-4040.04"/>
</g>
<!-- n15 -->
<g id="node15" class="node"><title>n15</title>
<g id="a_node15"><a xlink:title="[./Net2.lua]:64_">
<ellipse fill="none" stroke="yellow" cx="676" cy="-2972" rx="253.216" ry="69.0935"/>
<text text-anchor="middle" x="676" y="-3005.8" font-family="Times,serif" font-size="14.00">Deconving level 3 (15)</text>
<text text-anchor="middle" x="676" y="-2990.8" font-family="Times,serif" font-size="14.00">desc = To increase the dimension</text>
<text text-anchor="start" x="505" y="-2975.8" font-family="Times,serif" font-size="14.00">input = {Tensor[2x128x112x112]}</text>
<text text-anchor="start" x="505" y="-2960.8" font-family="Times,serif" font-size="14.00">module = nn.SpatialFullConvolution(128 &#45;&gt; 16, 1x1, 2,2, 1,1)</text>
<text text-anchor="start" x="505" y="-2945.8" font-family="Times,serif" font-size="14.00">reverseMap = {}</text>
<text text-anchor="middle" x="676" y="-2930.8" font-family="Times,serif" font-size="14.00">gradOutput = {}</text>
</a>
</g>
</g>
<!-- n15&#45;&gt;n12 -->
<g id="edge14" class="edge"><title>n15&#45;&gt;n12</title>
<path fill="none" stroke="black" d="M593.07,-2906.23C523.699,-2844.14 436,-2743.59 436,-2632 436,-2632 436,-2632 436,-2135 436,-2042.47 429,-1936.79 423.083,-1863.98"/>
<polygon fill="black" stroke="black" points="426.565,-1863.61 422.256,-1853.93 419.588,-1864.18 426.565,-1863.61"/>
</g>
<!-- n16 -->
<g id="node16" class="node"><title>n16</title>
<g id="a_node16"><a xlink:title="[./Net2.lua]:68_">
<ellipse fill="none" stroke="yellow" cx="723" cy="-1960" rx="253.216" ry="69.0935"/>
<text text-anchor="middle" x="723" y="-1993.8" font-family="Times,serif" font-size="14.00">Deconving level 6 (16)</text>
<text text-anchor="middle" x="723" y="-1978.8" font-family="Times,serif" font-size="14.00">desc = To increase the dimension</text>
<text text-anchor="start" x="552" y="-1963.8" font-family="Times,serif" font-size="14.00">input = {Tensor[2x256x56x56]}</text>
<text text-anchor="start" x="552" y="-1948.8" font-family="Times,serif" font-size="14.00">module = nn.SpatialFullConvolution(256 &#45;&gt; 16, 2x2, 4,4, 2,2)</text>
<text text-anchor="start" x="552" y="-1933.8" font-family="Times,serif" font-size="14.00">reverseMap = {}</text>
<text text-anchor="middle" x="723" y="-1918.8" font-family="Times,serif" font-size="14.00">gradOutput = {}</text>
</a>
</g>
</g>
<!-- n16&#45;&gt;n12 -->
<g id="edge15" class="edge"><title>n16&#45;&gt;n12</title>
<path fill="none" stroke="black" d="M618.725,-1896.71C596.596,-1883.49 572.933,-1869.35 549.852,-1855.56"/>
<polygon fill="black" stroke="black" points="551.419,-1852.42 541.039,-1850.3 547.829,-1858.43 551.419,-1852.42"/>
</g>
<!-- n17 -->
<g id="node17" class="node"><title>n17</title>
<g id="a_node17"><a xlink:title="[[C]]:&#45;1_">
<ellipse fill="none" stroke="black" cx="485" cy="-4836" rx="137.268" ry="48.1667"/>
<text text-anchor="middle" x="485" y="-4854.8" font-family="Times,serif" font-size="14.00">Node17</text>
<text text-anchor="start" x="396" y="-4839.8" font-family="Times,serif" font-size="14.00">input = {Tensor[2x3x224x224]}</text>
<text text-anchor="start" x="396" y="-4824.8" font-family="Times,serif" font-size="14.00">reverseMap = {}</text>
<text text-anchor="middle" x="485" y="-4809.8" font-family="Times,serif" font-size="14.00">gradOutput = {}</text>
</a>
</g>
</g>
<!-- n17&#45;&gt;n13 -->
<g id="edge16" class="edge"><title>n17&#45;&gt;n13</title>
<path fill="none" stroke="black" d="M485,-4787.71C485,-4779.65 485,-4771.06 485,-4762.33"/>
<polygon fill="black" stroke="black" points="488.5,-4762.05 485,-4752.05 481.5,-4762.05 488.5,-4762.05"/>
</g>
<!-- n18 -->
<g id="node18" class="node"><title>n18</title>
<g id="a_node18"><a xlink:title="[./Net2.lua]:36_">
<ellipse fill="none" stroke="black" cx="616" cy="-4321" rx="142.193" ry="58.8803"/>
<text text-anchor="middle" x="616" y="-4347.3" font-family="Times,serif" font-size="14.00">Node18</text>
<text text-anchor="start" x="523.5" y="-4332.3" font-family="Times,serif" font-size="14.00">input = {Tensor[2x64x224x224]}</text>
<text text-anchor="start" x="523.5" y="-4317.3" font-family="Times,serif" font-size="14.00">module = nn.ReLU</text>
<text text-anchor="start" x="523.5" y="-4302.3" font-family="Times,serif" font-size="14.00">reverseMap = {}</text>
<text text-anchor="middle" x="616" y="-4287.3" font-family="Times,serif" font-size="14.00">gradOutput = {}</text>
</a>
</g>
</g>
<!-- n18&#45;&gt;n14 -->
<g id="edge17" class="edge"><title>n18&#45;&gt;n14</title>
<path fill="none" stroke="black" d="M616.672,-4261.91C616.767,-4253.66 616.867,-4245.01 616.967,-4236.33"/>
<polygon fill="black" stroke="black" points="620.469,-4236.19 617.085,-4226.15 613.47,-4236.1 620.469,-4236.19"/>
</g>
<!-- n19 -->
<g id="node19" class="node"><title>n19</title>
<g id="a_node19"><a xlink:title="[./Net2.lua]:44_">
<ellipse fill="none" stroke="blue" cx="676" cy="-3312" rx="242.306" ry="79.8063"/>
<text text-anchor="middle" x="676" y="-3353.3" font-family="Times,serif" font-size="14.00">Conv Layer 3 (19)</text>
<text text-anchor="middle" x="676" y="-3338.3" font-family="Times,serif" font-size="14.00">desc = Image Features</text>
<text text-anchor="start" x="512.5" y="-3323.3" font-family="Times,serif" font-size="14.00">gradOutputBuffer = Tensor[2x128x112x112]</text>
<text text-anchor="start" x="512.5" y="-3308.3" font-family="Times,serif" font-size="14.00">input = {Tensor[2x128x112x112]}</text>
<text text-anchor="start" x="512.5" y="-3293.3" font-family="Times,serif" font-size="14.00">module = nn.SpatialConvolution(128 &#45;&gt; 128, 3x3, 1,1, 1,1)</text>
<text text-anchor="start" x="512.5" y="-3278.3" font-family="Times,serif" font-size="14.00">reverseMap = {}</text>
<text text-anchor="middle" x="676" y="-3263.3" font-family="Times,serif" font-size="14.00">gradOutput = {}</text>
</a>
</g>
</g>
<!-- n19&#45;&gt;n15 -->
<g id="edge18" class="edge"><title>n19&#45;&gt;n15</title>
<path fill="none" stroke="black" d="M676,-3231.75C676,-3177.49 676,-3105.85 676,-3051.7"/>
<polygon fill="black" stroke="black" points="679.5,-3051.46 676,-3041.46 672.5,-3051.46 679.5,-3051.46"/>
</g>
<!-- n31 -->
<g id="node31" class="node"><title>n31</title>
<g id="a_node31"><a xlink:title="[./Net2.lua]:48_">
<ellipse fill="none" stroke="black" cx="985" cy="-3137" rx="147.117" ry="58.8803"/>
<text text-anchor="middle" x="985" y="-3163.3" font-family="Times,serif" font-size="14.00">Node31</text>
<text text-anchor="start" x="889" y="-3148.3" font-family="Times,serif" font-size="14.00">input = {Tensor[2x128x112x112]}</text>
<text text-anchor="start" x="889" y="-3133.3" font-family="Times,serif" font-size="14.00">module = nn.ReLU</text>
<text text-anchor="start" x="889" y="-3118.3" font-family="Times,serif" font-size="14.00">reverseMap = {}</text>
<text text-anchor="middle" x="985" y="-3103.3" font-family="Times,serif" font-size="14.00">gradOutput = {}</text>
</a>
</g>
</g>
<!-- n19&#45;&gt;n31 -->
<g id="edge33" class="edge"><title>n19&#45;&gt;n31</title>
<path fill="none" stroke="black" d="M797.681,-3242.87C828.904,-3225.39 862.002,-3206.86 891.55,-3190.32"/>
<polygon fill="black" stroke="black" points="893.584,-3193.19 900.599,-3185.25 890.164,-3187.08 893.584,-3193.19"/>
</g>
<!-- n20 -->
<g id="node20" class="node"><title>n20</title>
<g id="a_node20"><a xlink:title="[./Net2.lua]:56_">
<ellipse fill="none" stroke="blue" cx="736" cy="-2136" rx="242.306" ry="69.0935"/>
<text text-anchor="middle" x="736" y="-2169.8" font-family="Times,serif" font-size="14.00">Conv Layer 3 (20)</text>
<text text-anchor="middle" x="736" y="-2154.8" font-family="Times,serif" font-size="14.00">desc = Image Features</text>
<text text-anchor="start" x="572.5" y="-2139.8" font-family="Times,serif" font-size="14.00">input = {Tensor[2x256x56x56]}</text>
<text text-anchor="start" x="572.5" y="-2124.8" font-family="Times,serif" font-size="14.00">module = nn.SpatialConvolution(256 &#45;&gt; 256, 3x3, 1,1, 1,1)</text>
<text text-anchor="start" x="572.5" y="-2109.8" font-family="Times,serif" font-size="14.00">reverseMap = {}</text>
<text text-anchor="middle" x="736" y="-2094.8" font-family="Times,serif" font-size="14.00">gradOutput = {}</text>
</a>
</g>
</g>
<!-- n20&#45;&gt;n16 -->
<g id="edge19" class="edge"><title>n20&#45;&gt;n16</title>
<path fill="none" stroke="black" d="M730.862,-2066.23C730.207,-2057.47 729.533,-2048.44 728.868,-2039.54"/>
<polygon fill="black" stroke="black" points="732.357,-2039.27 728.122,-2029.55 725.377,-2039.79 732.357,-2039.27"/>
</g>
<!-- n21&#45;&gt;n18 -->
<g id="edge20" class="edge"><title>n21&#45;&gt;n18</title>
<path fill="none" stroke="black" d="M615.421,-4416.35C615.475,-4407.59 615.53,-4398.63 615.583,-4389.89"/>
<polygon fill="black" stroke="black" points="619.084,-4389.77 615.646,-4379.75 612.084,-4389.73 619.084,-4389.77"/>
</g>
<!-- n22 -->
<g id="node22" class="node"><title>n22</title>
<g id="a_node22"><a xlink:title="[./Net2.lua]:44_">
<ellipse fill="none" stroke="black" cx="672" cy="-3487" rx="147.117" ry="58.8803"/>
<text text-anchor="middle" x="672" y="-3513.3" font-family="Times,serif" font-size="14.00">Node22</text>
<text text-anchor="start" x="576" y="-3498.3" font-family="Times,serif" font-size="14.00">input = {Tensor[2x128x112x112]}</text>
<text text-anchor="start" x="576" y="-3483.3" font-family="Times,serif" font-size="14.00">module = nn.ReLU</text>
<text text-anchor="start" x="576" y="-3468.3" font-family="Times,serif" font-size="14.00">reverseMap = {}</text>
<text text-anchor="middle" x="672" y="-3453.3" font-family="Times,serif" font-size="14.00">gradOutput = {}</text>
</a>
</g>
</g>
<!-- n22&#45;&gt;n19 -->
<g id="edge21" class="edge"><title>n22&#45;&gt;n19</title>
<path fill="none" stroke="black" d="M673.343,-3427.91C673.534,-3419.66 673.734,-3411.01 673.934,-3402.33"/>
<polygon fill="black" stroke="black" points="677.438,-3402.22 674.17,-3392.15 670.44,-3402.06 677.438,-3402.22"/>
</g>
<!-- n23 -->
<g id="node23" class="node"><title>n23</title>
<g id="a_node23"><a xlink:title="[./Net2.lua]:56_">
<ellipse fill="none" stroke="black" cx="761" cy="-2301" rx="137.268" ry="58.8803"/>
<text text-anchor="middle" x="761" y="-2327.3" font-family="Times,serif" font-size="14.00">Node23</text>
<text text-anchor="start" x="672" y="-2312.3" font-family="Times,serif" font-size="14.00">input = {Tensor[2x256x56x56]}</text>
<text text-anchor="start" x="672" y="-2297.3" font-family="Times,serif" font-size="14.00">module = nn.ReLU</text>
<text text-anchor="start" x="672" y="-2282.3" font-family="Times,serif" font-size="14.00">reverseMap = {}</text>
<text text-anchor="middle" x="761" y="-2267.3" font-family="Times,serif" font-size="14.00">gradOutput = {}</text>
</a>
</g>
</g>
<!-- n23&#45;&gt;n20 -->
<g id="edge22" class="edge"><title>n23&#45;&gt;n20</title>
<path fill="none" stroke="black" d="M752.116,-2242.07C750.79,-2233.43 749.405,-2224.4 748.028,-2215.42"/>
<polygon fill="black" stroke="black" points="751.455,-2214.68 746.479,-2205.33 744.536,-2215.74 751.455,-2214.68"/>
</g>
<!-- n24 -->
<g id="node24" class="node"><title>n24</title>
<g id="a_node24"><a xlink:title="[./Net2.lua]:40_">
<ellipse fill="none" stroke="red" cx="668" cy="-3652" rx="237.382" ry="69.0935"/>
<text text-anchor="middle" x="668" y="-3685.8" font-family="Times,serif" font-size="14.00">Conv Layer 3 (24)</text>
<text text-anchor="middle" x="668" y="-3670.8" font-family="Times,serif" font-size="14.00">desc = Image Features</text>
<text text-anchor="start" x="508" y="-3655.8" font-family="Times,serif" font-size="14.00">input = {Tensor[2x64x112x112]}</text>
<text text-anchor="start" x="508" y="-3640.8" font-family="Times,serif" font-size="14.00">module = nn.SpatialConvolution(64 &#45;&gt; 128, 3x3, 1,1, 1,1)</text>
<text text-anchor="start" x="508" y="-3625.8" font-family="Times,serif" font-size="14.00">reverseMap = {}</text>
<text text-anchor="middle" x="668" y="-3610.8" font-family="Times,serif" font-size="14.00">gradOutput = {}</text>
</a>
</g>
</g>
<!-- n24&#45;&gt;n22 -->
<g id="edge24" class="edge"><title>n24&#45;&gt;n22</title>
<path fill="none" stroke="black" d="M669.685,-3582.35C669.9,-3573.59 670.119,-3564.63 670.334,-3555.89"/>
<polygon fill="black" stroke="black" points="673.836,-3555.83 670.583,-3545.75 666.838,-3555.66 673.836,-3555.83"/>
</g>
<!-- n25 -->
<g id="node25" class="node"><title>n25</title>
<g id="a_node25"><a xlink:title="[./Net2.lua]:52_">
<ellipse fill="none" stroke="red" cx="812" cy="-2466" rx="242.306" ry="69.0935"/>
<text text-anchor="middle" x="812" y="-2499.8" font-family="Times,serif" font-size="14.00">Conv Layer 3 (25)</text>
<text text-anchor="middle" x="812" y="-2484.8" font-family="Times,serif" font-size="14.00">desc = Image Features</text>
<text text-anchor="start" x="648.5" y="-2469.8" font-family="Times,serif" font-size="14.00">input = {Tensor[2x256x56x56]}</text>
<text text-anchor="start" x="648.5" y="-2454.8" font-family="Times,serif" font-size="14.00">module = nn.SpatialConvolution(256 &#45;&gt; 256, 3x3, 1,1, 1,1)</text>
<text text-anchor="start" x="648.5" y="-2439.8" font-family="Times,serif" font-size="14.00">reverseMap = {}</text>
<text text-anchor="middle" x="812" y="-2424.8" font-family="Times,serif" font-size="14.00">gradOutput = {}</text>
</a>
</g>
</g>
<!-- n25&#45;&gt;n23 -->
<g id="edge25" class="edge"><title>n25&#45;&gt;n23</title>
<path fill="none" stroke="black" d="M790.667,-2396.82C787.8,-2387.66 784.862,-2378.26 782.001,-2369.12"/>
<polygon fill="black" stroke="black" points="785.261,-2367.82 778.935,-2359.32 778.581,-2369.91 785.261,-2367.82"/>
</g>
<!-- n26 -->
<g id="node26" class="node"><title>n26</title>
<g id="a_node26"><a xlink:title="[./Net2.lua]:40_">
<ellipse fill="none" stroke="black" cx="650" cy="-3817" rx="171.241" ry="58.8803"/>
<text text-anchor="middle" x="650" y="-3843.3" font-family="Times,serif" font-size="14.00">Node26</text>
<text text-anchor="start" x="536.5" y="-3828.3" font-family="Times,serif" font-size="14.00">input = {Tensor[2x64x224x224]}</text>
<text text-anchor="start" x="536.5" y="-3813.3" font-family="Times,serif" font-size="14.00">module = nn.SpatialMaxPooling(2,2,2,2)</text>
<text text-anchor="start" x="536.5" y="-3798.3" font-family="Times,serif" font-size="14.00">reverseMap = {}</text>
<text text-anchor="middle" x="650" y="-3783.3" font-family="Times,serif" font-size="14.00">gradOutput = {}</text>
</a>
</g>
</g>
<!-- n26&#45;&gt;n24 -->
<g id="edge26" class="edge"><title>n26&#45;&gt;n24</title>
<path fill="none" stroke="black" d="M656.397,-3758.07C657.351,-3749.43 658.348,-3740.4 659.34,-3731.42"/>
<polygon fill="black" stroke="black" points="662.836,-3731.65 660.455,-3721.33 655.878,-3730.88 662.836,-3731.65"/>
</g>
<!-- n27 -->
<g id="node27" class="node"><title>n27</title>
<g id="a_node27"><a xlink:title="[./Net2.lua]:52_">
<ellipse fill="none" stroke="black" cx="913" cy="-2631" rx="137.268" ry="58.8803"/>
<text text-anchor="middle" x="913" y="-2657.3" font-family="Times,serif" font-size="14.00">Node27</text>
<text text-anchor="start" x="824" y="-2642.3" font-family="Times,serif" font-size="14.00">input = {Tensor[2x256x56x56]}</text>
<text text-anchor="start" x="824" y="-2627.3" font-family="Times,serif" font-size="14.00">module = nn.ReLU</text>
<text text-anchor="start" x="824" y="-2612.3" font-family="Times,serif" font-size="14.00">reverseMap = {}</text>
<text text-anchor="middle" x="913" y="-2597.3" font-family="Times,serif" font-size="14.00">gradOutput = {}</text>
</a>
</g>
</g>
<!-- n27&#45;&gt;n25 -->
<g id="edge27" class="edge"><title>n27&#45;&gt;n25</title>
<path fill="none" stroke="black" d="M878.242,-2573.9C872.09,-2563.98 865.591,-2553.49 859.165,-2543.12"/>
<polygon fill="black" stroke="black" points="862.036,-2541.11 853.794,-2534.45 856.086,-2544.79 862.036,-2541.11"/>
</g>
<!-- n28&#45;&gt;n26 -->
<g id="edge28" class="edge"><title>n28&#45;&gt;n26</title>
<path fill="none" stroke="black" d="M636.999,-3912.1C638.182,-3903.54 639.41,-3894.65 640.618,-3885.91"/>
<polygon fill="black" stroke="black" points="644.122,-3886.12 642.023,-3875.74 637.187,-3885.16 644.122,-3886.12"/>
</g>
<!-- n29 -->
<g id="node29" class="node"><title>n29</title>
<g id="a_node29"><a xlink:title="[./Net2.lua]:48_">
<ellipse fill="none" stroke="red" cx="1115" cy="-2796" rx="242.306" ry="69.0935"/>
<text text-anchor="middle" x="1115" y="-2829.8" font-family="Times,serif" font-size="14.00">Conv Layer 3 (29)</text>
<text text-anchor="middle" x="1115" y="-2814.8" font-family="Times,serif" font-size="14.00">desc = Image Features</text>
<text text-anchor="start" x="951.5" y="-2799.8" font-family="Times,serif" font-size="14.00">input = {Tensor[2x128x56x56]}</text>
<text text-anchor="start" x="951.5" y="-2784.8" font-family="Times,serif" font-size="14.00">module = nn.SpatialConvolution(128 &#45;&gt; 256, 3x3, 1,1, 1,1)</text>
<text text-anchor="start" x="951.5" y="-2769.8" font-family="Times,serif" font-size="14.00">reverseMap = {}</text>
<text text-anchor="middle" x="1115" y="-2754.8" font-family="Times,serif" font-size="14.00">gradOutput = {}</text>
</a>
</g>
</g>
<!-- n29&#45;&gt;n27 -->
<g id="edge29" class="edge"><title>n29&#45;&gt;n27</title>
<path fill="none" stroke="black" d="M1034.87,-2730.34C1018.21,-2716.9 1000.76,-2702.82 984.438,-2689.65"/>
<polygon fill="black" stroke="black" points="986.505,-2686.82 976.524,-2683.26 982.109,-2692.26 986.505,-2686.82"/>
</g>
<!-- n30 -->
<g id="node30" class="node"><title>n30</title>
<g id="a_node30"><a xlink:title="[./Net2.lua]:48_">
<ellipse fill="none" stroke="black" cx="1119" cy="-2972" rx="171.241" ry="58.8803"/>
<text text-anchor="middle" x="1119" y="-2998.3" font-family="Times,serif" font-size="14.00">Node30</text>
<text text-anchor="start" x="1005.5" y="-2983.3" font-family="Times,serif" font-size="14.00">input = {Tensor[2x128x112x112]}</text>
<text text-anchor="start" x="1005.5" y="-2968.3" font-family="Times,serif" font-size="14.00">module = nn.SpatialMaxPooling(2,2,2,2)</text>
<text text-anchor="start" x="1005.5" y="-2953.3" font-family="Times,serif" font-size="14.00">reverseMap = {}</text>
<text text-anchor="middle" x="1119" y="-2938.3" font-family="Times,serif" font-size="14.00">gradOutput = {}</text>
</a>
</g>
</g>
<!-- n30&#45;&gt;n29 -->
<g id="edge31" class="edge"><title>n30&#45;&gt;n29</title>
<path fill="none" stroke="black" d="M1117.67,-2913.06C1117.39,-2901.05 1117.1,-2888.2 1116.81,-2875.59"/>
<polygon fill="black" stroke="black" points="1120.3,-2875.46 1116.58,-2865.55 1113.31,-2875.62 1120.3,-2875.46"/>
</g>
<!-- n31&#45;&gt;n30 -->
<g id="edge32" class="edge"><title>n31&#45;&gt;n30</title>
<path fill="none" stroke="black" d="M1030.37,-3080.82C1042.03,-3066.63 1054.66,-3051.26 1066.65,-3036.68"/>
<polygon fill="black" stroke="black" points="1069.58,-3038.63 1073.22,-3028.68 1064.17,-3034.18 1069.58,-3038.63"/>
</g>
</g>
</svg>
