<?xml version="1.0" encoding="UTF-8" standalone="no"?>
<!DOCTYPE svg PUBLIC "-//W3C//DTD SVG 1.1//EN"
 "http://www.w3.org/Graphics/SVG/1.1/DTD/svg11.dtd">
<!-- Generated by graphviz version 2.36.0 (20140111.2315)
 -->
<!-- Title: G Pages: 1 -->
<svg width="1974pt" height="2090pt"
 viewBox="0.00 0.00 1974.00 2090.00" xmlns="http://www.w3.org/2000/svg" xmlns:xlink="http://www.w3.org/1999/xlink">
<g id="graph0" class="graph" transform="scale(1 1) rotate(0) translate(4 2086)">
<title>G</title>
<polygon fill="white" stroke="none" points="-4,4 -4,-2086 1970,-2086 1970,4 -4,4"/>
<!-- n1 -->
<g id="node1" class="node"><title>n1</title>
<g id="a_node1"><a xlink:title="[[C]]:&#45;1_">
<ellipse fill="none" stroke="black" cx="665" cy="-2044" rx="77.1743" ry="37.4533"/>
<text text-anchor="middle" x="665" y="-2055.3" font-family="Times,serif" font-size="14.00">Node1</text>
<text text-anchor="start" x="618" y="-2040.3" font-family="Times,serif" font-size="14.00">input = {}</text>
<text text-anchor="middle" x="665" y="-2025.3" font-family="Times,serif" font-size="14.00">reverseMap = {}</text>
</a>
</g>
</g>
<!-- n2 -->
<g id="node2" class="node"><title>n2</title>
<g id="a_node2"><a xlink:title="[./Net4.lua]:61_">
<ellipse fill="none" stroke="purple" cx="665" cy="-1922" rx="149.36" ry="48.1667"/>
<text text-anchor="middle" x="665" y="-1940.8" font-family="Times,serif" font-size="14.00">Final Layer (2)</text>
<text text-anchor="middle" x="665" y="-1925.8" font-family="Times,serif" font-size="14.00">desc = Final output. Using Sigmoid</text>
<text text-anchor="start" x="567" y="-1910.8" font-family="Times,serif" font-size="14.00">module = nn.Tanh</text>
<text text-anchor="middle" x="665" y="-1895.8" font-family="Times,serif" font-size="14.00">reverseMap = {}</text>
</a>
</g>
</g>
<!-- n1&#45;&gt;n2 -->
<g id="edge1" class="edge"><title>n1&#45;&gt;n2</title>
<path fill="none" stroke="black" d="M665,-2006.34C665,-1998.22 665,-1989.42 665,-1980.68"/>
<polygon fill="black" stroke="black" points="668.5,-1980.5 665,-1970.5 661.5,-1980.5 668.5,-1980.5"/>
</g>
<!-- n3 -->
<g id="node3" class="node"><title>n3</title>
<g id="a_node3"><a xlink:title="[./Net4.lua]:61_">
<ellipse fill="none" stroke="black" cx="665" cy="-1800" rx="232.457" ry="37.4533"/>
<text text-anchor="middle" x="665" y="-1811.3" font-family="Times,serif" font-size="14.00">Node3</text>
<text text-anchor="start" x="508.5" y="-1796.3" font-family="Times,serif" font-size="14.00">module = nn.SpatialConvolution(128 &#45;&gt; 2, 3x3, 1,1, 1,1)</text>
<text text-anchor="middle" x="665" y="-1781.3" font-family="Times,serif" font-size="14.00">reverseMap = {}</text>
</a>
</g>
</g>
<!-- n2&#45;&gt;n3 -->
<g id="edge2" class="edge"><title>n2&#45;&gt;n3</title>
<path fill="none" stroke="black" d="M665,-1873.57C665,-1865.1 665,-1856.27 665,-1847.81"/>
<polygon fill="black" stroke="black" points="668.5,-1847.72 665,-1837.72 661.5,-1847.72 668.5,-1847.72"/>
</g>
<!-- n4 -->
<g id="node4" class="node"><title>n4</title>
<g id="a_node4"><a xlink:title="[./Net4.lua]:59_">
<ellipse fill="none" stroke="black" cx="665" cy="-1688" rx="176.166" ry="37.4533"/>
<text text-anchor="middle" x="665" y="-1699.3" font-family="Times,serif" font-size="14.00">Node4</text>
<text text-anchor="start" x="548" y="-1684.3" font-family="Times,serif" font-size="14.00">module = nn.SpatialMaxPooling(2x2, 2,2)</text>
<text text-anchor="middle" x="665" y="-1669.3" font-family="Times,serif" font-size="14.00">reverseMap = {}</text>
</a>
</g>
</g>
<!-- n3&#45;&gt;n4 -->
<g id="edge3" class="edge"><title>n3&#45;&gt;n4</title>
<path fill="none" stroke="black" d="M665,-1762.37C665,-1753.93 665,-1744.83 665,-1736.01"/>
<polygon fill="black" stroke="black" points="668.5,-1735.84 665,-1725.84 661.5,-1735.84 668.5,-1735.84"/>
</g>
<!-- n5 -->
<g id="node5" class="node"><title>n5</title>
<g id="a_node5"><a xlink:title="[./Net4.lua]:59_">
<ellipse fill="none" stroke="black" cx="665" cy="-1576" rx="87.5215" ry="37.4533"/>
<text text-anchor="middle" x="665" y="-1587.3" font-family="Times,serif" font-size="14.00">Node5</text>
<text text-anchor="start" x="611" y="-1572.3" font-family="Times,serif" font-size="14.00">module = nn.ReLU</text>
<text text-anchor="middle" x="665" y="-1557.3" font-family="Times,serif" font-size="14.00">reverseMap = {}</text>
</a>
</g>
</g>
<!-- n4&#45;&gt;n5 -->
<g id="edge4" class="edge"><title>n4&#45;&gt;n5</title>
<path fill="none" stroke="black" d="M665,-1650.37C665,-1641.93 665,-1632.83 665,-1624.01"/>
<polygon fill="black" stroke="black" points="668.5,-1623.84 665,-1613.84 661.5,-1623.84 668.5,-1623.84"/>
</g>
<!-- n6 -->
<g id="node6" class="node"><title>n6</title>
<g id="a_node6"><a xlink:title="[./Net4.lua]:57_">
<ellipse fill="none" stroke="black" cx="665" cy="-1464" rx="168.498" ry="37.4533"/>
<text text-anchor="middle" x="665" y="-1475.3" font-family="Times,serif" font-size="14.00">Node6</text>
<text text-anchor="start" x="553.5" y="-1460.3" font-family="Times,serif" font-size="14.00">module = nn.SpatialBatchNormalization</text>
<text text-anchor="middle" x="665" y="-1445.3" font-family="Times,serif" font-size="14.00">reverseMap = {}</text>
</a>
</g>
</g>
<!-- n5&#45;&gt;n6 -->
<g id="edge5" class="edge"><title>n5&#45;&gt;n6</title>
<path fill="none" stroke="black" d="M665,-1538.37C665,-1529.93 665,-1520.83 665,-1512.01"/>
<polygon fill="black" stroke="black" points="668.5,-1511.84 665,-1501.84 661.5,-1511.84 668.5,-1511.84"/>
</g>
<!-- n7 -->
<g id="node7" class="node"><title>n7</title>
<g id="a_node7"><a xlink:title="[./Net4.lua]:57_">
<ellipse fill="none" stroke="black" cx="665" cy="-1352" rx="242.306" ry="37.4533"/>
<text text-anchor="middle" x="665" y="-1363.3" font-family="Times,serif" font-size="14.00">Node7</text>
<text text-anchor="start" x="501.5" y="-1348.3" font-family="Times,serif" font-size="14.00">module = nn.SpatialConvolution(128 &#45;&gt; 128, 3x3, 1,1, 1,1)</text>
<text text-anchor="middle" x="665" y="-1333.3" font-family="Times,serif" font-size="14.00">reverseMap = {}</text>
</a>
</g>
</g>
<!-- n6&#45;&gt;n7 -->
<g id="edge6" class="edge"><title>n6&#45;&gt;n7</title>
<path fill="none" stroke="black" d="M665,-1426.37C665,-1417.93 665,-1408.83 665,-1400.01"/>
<polygon fill="black" stroke="black" points="668.5,-1399.84 665,-1389.84 661.5,-1399.84 668.5,-1399.84"/>
</g>
<!-- n8 -->
<g id="node8" class="node"><title>n8</title>
<g id="a_node8"><a xlink:title="[./Net4.lua]:55_">
<ellipse fill="none" stroke="black" cx="665" cy="-1240" rx="168.498" ry="37.4533"/>
<text text-anchor="middle" x="665" y="-1251.3" font-family="Times,serif" font-size="14.00">Node8</text>
<text text-anchor="start" x="553.5" y="-1236.3" font-family="Times,serif" font-size="14.00">module = nn.SpatialBatchNormalization</text>
<text text-anchor="middle" x="665" y="-1221.3" font-family="Times,serif" font-size="14.00">reverseMap = {}</text>
</a>
</g>
</g>
<!-- n7&#45;&gt;n8 -->
<g id="edge7" class="edge"><title>n7&#45;&gt;n8</title>
<path fill="none" stroke="black" d="M665,-1314.37C665,-1305.93 665,-1296.83 665,-1288.01"/>
<polygon fill="black" stroke="black" points="668.5,-1287.84 665,-1277.84 661.5,-1287.84 668.5,-1287.84"/>
</g>
<!-- n9 -->
<g id="node9" class="node"><title>n9</title>
<g id="a_node9"><a xlink:title="[./Net4.lua]:55_">
<ellipse fill="none" stroke="black" cx="665" cy="-1128" rx="237.382" ry="37.4533"/>
<text text-anchor="middle" x="665" y="-1139.3" font-family="Times,serif" font-size="14.00">Node9</text>
<text text-anchor="start" x="505" y="-1124.3" font-family="Times,serif" font-size="14.00">module = nn.SpatialConvolution(64 &#45;&gt; 128, 3x3, 1,1, 1,1)</text>
<text text-anchor="middle" x="665" y="-1109.3" font-family="Times,serif" font-size="14.00">reverseMap = {}</text>
</a>
</g>
</g>
<!-- n8&#45;&gt;n9 -->
<g id="edge8" class="edge"><title>n8&#45;&gt;n9</title>
<path fill="none" stroke="black" d="M665,-1202.37C665,-1193.93 665,-1184.83 665,-1176.01"/>
<polygon fill="black" stroke="black" points="668.5,-1175.84 665,-1165.84 661.5,-1175.84 668.5,-1175.84"/>
</g>
<!-- n10 -->
<g id="node10" class="node"><title>n10</title>
<g id="a_node10"><a xlink:title="[./Net4.lua]:53_">
<ellipse fill="none" stroke="black" cx="665" cy="-1016" rx="176.166" ry="37.4533"/>
<text text-anchor="middle" x="665" y="-1027.3" font-family="Times,serif" font-size="14.00">Node10</text>
<text text-anchor="start" x="548" y="-1012.3" font-family="Times,serif" font-size="14.00">module = nn.SpatialMaxPooling(2x2, 2,2)</text>
<text text-anchor="middle" x="665" y="-997.3" font-family="Times,serif" font-size="14.00">reverseMap = {}</text>
</a>
</g>
</g>
<!-- n9&#45;&gt;n10 -->
<g id="edge9" class="edge"><title>n9&#45;&gt;n10</title>
<path fill="none" stroke="black" d="M665,-1090.37C665,-1081.93 665,-1072.83 665,-1064.01"/>
<polygon fill="black" stroke="black" points="668.5,-1063.84 665,-1053.84 661.5,-1063.84 668.5,-1063.84"/>
</g>
<!-- n11 -->
<g id="node11" class="node"><title>n11</title>
<g id="a_node11"><a xlink:title="[./Net4.lua]:53_">
<ellipse fill="none" stroke="black" cx="665" cy="-904" rx="87.5215" ry="37.4533"/>
<text text-anchor="middle" x="665" y="-915.3" font-family="Times,serif" font-size="14.00">Node11</text>
<text text-anchor="start" x="611" y="-900.3" font-family="Times,serif" font-size="14.00">module = nn.ReLU</text>
<text text-anchor="middle" x="665" y="-885.3" font-family="Times,serif" font-size="14.00">reverseMap = {}</text>
</a>
</g>
</g>
<!-- n10&#45;&gt;n11 -->
<g id="edge10" class="edge"><title>n10&#45;&gt;n11</title>
<path fill="none" stroke="black" d="M665,-978.372C665,-969.927 665,-960.829 665,-952.011"/>
<polygon fill="black" stroke="black" points="668.5,-951.843 665,-941.844 661.5,-951.844 668.5,-951.843"/>
</g>
<!-- n12 -->
<g id="node12" class="node"><title>n12</title>
<g id="a_node12"><a xlink:title="[./Net4.lua]:52_">
<ellipse fill="none" stroke="black" cx="665" cy="-792" rx="168.498" ry="37.4533"/>
<text text-anchor="middle" x="665" y="-803.3" font-family="Times,serif" font-size="14.00">Node12</text>
<text text-anchor="start" x="553.5" y="-788.3" font-family="Times,serif" font-size="14.00">module = nn.SpatialBatchNormalization</text>
<text text-anchor="middle" x="665" y="-773.3" font-family="Times,serif" font-size="14.00">reverseMap = {}</text>
</a>
</g>
</g>
<!-- n11&#45;&gt;n12 -->
<g id="edge11" class="edge"><title>n11&#45;&gt;n12</title>
<path fill="none" stroke="black" d="M665,-866.372C665,-857.927 665,-848.829 665,-840.011"/>
<polygon fill="black" stroke="black" points="668.5,-839.843 665,-829.844 661.5,-839.844 668.5,-839.843"/>
</g>
<!-- n13 -->
<g id="node13" class="node"><title>n13</title>
<g id="a_node13"><a xlink:title="[./Net4.lua]:52_">
<ellipse fill="none" stroke="black" cx="665" cy="-680" rx="237.382" ry="37.4533"/>
<text text-anchor="middle" x="665" y="-691.3" font-family="Times,serif" font-size="14.00">Node13</text>
<text text-anchor="start" x="505" y="-676.3" font-family="Times,serif" font-size="14.00">module = nn.SpatialConvolution(195 &#45;&gt; 64, 3x3, 1,1, 1,1)</text>
<text text-anchor="middle" x="665" y="-661.3" font-family="Times,serif" font-size="14.00">reverseMap = {}</text>
</a>
</g>
</g>
<!-- n12&#45;&gt;n13 -->
<g id="edge12" class="edge"><title>n12&#45;&gt;n13</title>
<path fill="none" stroke="black" d="M665,-754.372C665,-745.927 665,-736.829 665,-728.011"/>
<polygon fill="black" stroke="black" points="668.5,-727.843 665,-717.844 661.5,-727.844 668.5,-727.843"/>
</g>
<!-- n14 -->
<g id="node14" class="node"><title>n14</title>
<g id="a_node14"><a xlink:title="[./Net4.lua]:41_">
<ellipse fill="none" stroke="grey" cx="665" cy="-547" rx="258.202" ry="58.8803"/>
<text text-anchor="middle" x="665" y="-573.3" font-family="Times,serif" font-size="14.00">Joining layer. Fuck yeah! (14)</text>
<text text-anchor="middle" x="665" y="-558.3" font-family="Times,serif" font-size="14.00">desc = Joining input, level1, deconved_level3, deconved_level6</text>
<text text-anchor="start" x="490" y="-543.3" font-family="Times,serif" font-size="14.00">module = nn.JoinTable</text>
<text text-anchor="start" x="490" y="-528.3" font-family="Times,serif" font-size="14.00">reverseMap = {}</text>
<text text-anchor="middle" x="665" y="-513.3" font-family="Times,serif" font-size="14.00">mapindex = {Node15,Node16,Node17,Node18,Node19}</text>
</a>
</g>
</g>
<!-- n13&#45;&gt;n14 -->
<g id="edge13" class="edge"><title>n13&#45;&gt;n14</title>
<path fill="none" stroke="black" d="M665,-642.509C665,-634.258 665,-625.238 665,-616.149"/>
<polygon fill="black" stroke="black" points="668.5,-615.896 665,-605.896 661.5,-615.896 668.5,-615.896"/>
</g>
<!-- n15 -->
<g id="node15" class="node"><title>n15</title>
<g id="a_node15"><a xlink:title="[./Net4.lua]:12_">
<ellipse fill="none" stroke="green" cx="94" cy="-404" rx="94.0678" ry="48.1667"/>
<text text-anchor="middle" x="94" y="-422.8" font-family="Times,serif" font-size="14.00">Conv Layer 1 (15)</text>
<text text-anchor="middle" x="94" y="-407.8" font-family="Times,serif" font-size="14.00">desc = Input Layer</text>
<text text-anchor="start" x="35.5" y="-392.8" font-family="Times,serif" font-size="14.00">module = nn.Identity</text>
<text text-anchor="middle" x="94" y="-377.8" font-family="Times,serif" font-size="14.00">reverseMap = {}</text>
</a>
</g>
</g>
<!-- n14&#45;&gt;n15 -->
<g id="edge14" class="edge"><title>n14&#45;&gt;n15</title>
<path fill="none" stroke="black" d="M451.509,-513.801C370.718,-498.846 278.602,-478.423 197,-452 188.118,-449.124 178.985,-445.697 170.002,-442.023"/>
<polygon fill="black" stroke="black" points="171.285,-438.766 160.711,-438.117 168.573,-445.219 171.285,-438.766"/>
</g>
<!-- n16 -->
<g id="node16" class="node"><title>n16</title>
<g id="a_node16"><a xlink:title="[./Net4.lua]:17_">
<ellipse fill="none" stroke="green" cx="300" cy="-404" rx="94.0678" ry="48.1667"/>
<text text-anchor="middle" x="300" y="-422.8" font-family="Times,serif" font-size="14.00">Conv Layer 1 (16)</text>
<text text-anchor="middle" x="300" y="-407.8" font-family="Times,serif" font-size="14.00">desc = Input Layer</text>
<text text-anchor="start" x="241.5" y="-392.8" font-family="Times,serif" font-size="14.00">module = nn.Identity</text>
<text text-anchor="middle" x="300" y="-377.8" font-family="Times,serif" font-size="14.00">reverseMap = {}</text>
</a>
</g>
</g>
<!-- n14&#45;&gt;n16 -->
<g id="edge15" class="edge"><title>n14&#45;&gt;n16</title>
<path fill="none" stroke="black" d="M523.788,-497.777C484.433,-483.678 441.833,-467.794 403,-452 394.71,-448.628 386.111,-444.969 377.574,-441.232"/>
<polygon fill="black" stroke="black" points="378.915,-437.998 368.354,-437.155 376.084,-444.4 378.915,-437.998"/>
</g>
<!-- n17 -->
<g id="node17" class="node"><title>n17</title>
<g id="a_node17"><a xlink:title="[./Net4.lua]:27_">
<ellipse fill="none" stroke="yellow" cx="665" cy="-404" rx="253.216" ry="48.1667"/>
<text text-anchor="middle" x="665" y="-422.8" font-family="Times,serif" font-size="14.00">Deconving level 3 (17)</text>
<text text-anchor="middle" x="665" y="-407.8" font-family="Times,serif" font-size="14.00">desc = To increase the dimension</text>
<text text-anchor="start" x="494" y="-392.8" font-family="Times,serif" font-size="14.00">module = nn.SpatialFullConvolution(128 &#45;&gt; 32, 1x1, 2,2, 1,1)</text>
<text text-anchor="middle" x="665" y="-377.8" font-family="Times,serif" font-size="14.00">reverseMap = {}</text>
</a>
</g>
</g>
<!-- n14&#45;&gt;n17 -->
<g id="edge16" class="edge"><title>n14&#45;&gt;n17</title>
<path fill="none" stroke="black" d="M665,-488.243C665,-479.7 665,-470.899 665,-462.364"/>
<polygon fill="black" stroke="black" points="668.5,-462.121 665,-452.121 661.5,-462.121 668.5,-462.121"/>
</g>
<!-- n18 -->
<g id="node18" class="node"><title>n18</title>
<g id="a_node18"><a xlink:title="[./Net4.lua]:31_">
<ellipse fill="none" stroke="yellow" cx="1189" cy="-404" rx="253.216" ry="48.1667"/>
<text text-anchor="middle" x="1189" y="-422.8" font-family="Times,serif" font-size="14.00">Deconving level 6 (18)</text>
<text text-anchor="middle" x="1189" y="-407.8" font-family="Times,serif" font-size="14.00">desc = To increase the dimension</text>
<text text-anchor="start" x="1018" y="-392.8" font-family="Times,serif" font-size="14.00">module = nn.SpatialFullConvolution(256 &#45;&gt; 32, 2x2, 4,4, 2,2)</text>
<text text-anchor="middle" x="1189" y="-377.8" font-family="Times,serif" font-size="14.00">reverseMap = {}</text>
</a>
</g>
</g>
<!-- n14&#45;&gt;n18 -->
<g id="edge17" class="edge"><title>n14&#45;&gt;n18</title>
<path fill="none" stroke="black" d="M829.718,-501.677C895.506,-483.974 970.832,-463.706 1035.46,-446.314"/>
<polygon fill="black" stroke="black" points="1036.58,-449.638 1045.33,-443.659 1034.76,-442.878 1036.58,-449.638"/>
</g>
<!-- n19 -->
<g id="node19" class="node"><title>n19</title>
<g id="a_node19"><a xlink:title="[./Net4.lua]:36_">
<ellipse fill="none" stroke="yellow" cx="1713" cy="-404" rx="253.216" ry="48.1667"/>
<text text-anchor="middle" x="1713" y="-422.8" font-family="Times,serif" font-size="14.00">Deconving level 9 (19)</text>
<text text-anchor="middle" x="1713" y="-407.8" font-family="Times,serif" font-size="14.00">desc = To increase the dimension</text>
<text text-anchor="start" x="1542" y="-392.8" font-family="Times,serif" font-size="14.00">module = nn.SpatialFullConvolution(512 &#45;&gt; 64, 4x4, 8,8, 4,4)</text>
<text text-anchor="middle" x="1713" y="-377.8" font-family="Times,serif" font-size="14.00">reverseMap = {}</text>
</a>
</g>
</g>
<!-- n14&#45;&gt;n19 -->
<g id="edge18" class="edge"><title>n14&#45;&gt;n19</title>
<path fill="none" stroke="black" d="M898.489,-521.695C1055.09,-504.505 1265.8,-479.661 1451,-452 1475.11,-448.399 1500.41,-444.287 1525.38,-440.027"/>
<polygon fill="black" stroke="black" points="1526.04,-443.464 1535.3,-438.323 1524.85,-436.565 1526.04,-443.464"/>
</g>
<!-- n20 -->
<g id="node20" class="node"><title>n20</title>
<g id="a_node20"><a xlink:title="[[C]]:&#45;1_&#45;1">
<ellipse fill="none" stroke="black" cx="205" cy="-272" rx="77.1743" ry="48.1667"/>
<text text-anchor="middle" x="205" y="-290.8" font-family="Times,serif" font-size="14.00">Node20</text>
<text text-anchor="start" x="158" y="-275.8" font-family="Times,serif" font-size="14.00">input = {}</text>
<text text-anchor="start" x="158" y="-260.8" font-family="Times,serif" font-size="14.00">selectindex = 1</text>
<text text-anchor="middle" x="205" y="-245.8" font-family="Times,serif" font-size="14.00">reverseMap = {}</text>
</a>
</g>
</g>
<!-- n15&#45;&gt;n20 -->
<g id="edge19" class="edge"><title>n15&#45;&gt;n20</title>
<path fill="none" stroke="black" d="M130.961,-359.712C141.101,-347.836 152.174,-334.868 162.594,-322.665"/>
<polygon fill="black" stroke="black" points="165.498,-324.653 169.33,-314.776 160.175,-320.108 165.498,-324.653"/>
</g>
<!-- n21 -->
<g id="node21" class="node"><title>n21</title>
<g id="a_node21"><a xlink:title="[[C]]:&#45;1_&#45;2">
<ellipse fill="none" stroke="black" cx="395" cy="-272" rx="77.1743" ry="48.1667"/>
<text text-anchor="middle" x="395" y="-290.8" font-family="Times,serif" font-size="14.00">Node21</text>
<text text-anchor="start" x="348" y="-275.8" font-family="Times,serif" font-size="14.00">input = {}</text>
<text text-anchor="start" x="348" y="-260.8" font-family="Times,serif" font-size="14.00">selectindex = 2</text>
<text text-anchor="middle" x="395" y="-245.8" font-family="Times,serif" font-size="14.00">reverseMap = {}</text>
</a>
</g>
</g>
<!-- n16&#45;&gt;n21 -->
<g id="edge20" class="edge"><title>n16&#45;&gt;n21</title>
<path fill="none" stroke="black" d="M332.428,-358.625C340.473,-347.616 349.162,-335.726 357.43,-324.412"/>
<polygon fill="black" stroke="black" points="360.287,-326.434 363.361,-316.295 354.635,-322.304 360.287,-326.434"/>
</g>
<!-- n22 -->
<g id="node22" class="node"><title>n22</title>
<g id="a_node22"><a xlink:title="[[C]]:&#45;1_&#45;3">
<ellipse fill="none" stroke="black" cx="665" cy="-272" rx="77.1743" ry="48.1667"/>
<text text-anchor="middle" x="665" y="-290.8" font-family="Times,serif" font-size="14.00">Node22</text>
<text text-anchor="start" x="618" y="-275.8" font-family="Times,serif" font-size="14.00">input = {}</text>
<text text-anchor="start" x="618" y="-260.8" font-family="Times,serif" font-size="14.00">selectindex = 3</text>
<text text-anchor="middle" x="665" y="-245.8" font-family="Times,serif" font-size="14.00">reverseMap = {}</text>
</a>
</g>
</g>
<!-- n17&#45;&gt;n22 -->
<g id="edge21" class="edge"><title>n17&#45;&gt;n22</title>
<path fill="none" stroke="black" d="M665,-355.699C665,-347.544 665,-338.987 665,-330.597"/>
<polygon fill="black" stroke="black" points="668.5,-330.483 665,-320.483 661.5,-330.483 668.5,-330.483"/>
</g>
<!-- n23 -->
<g id="node23" class="node"><title>n23</title>
<g id="a_node23"><a xlink:title="[[C]]:&#45;1_&#45;4">
<ellipse fill="none" stroke="black" cx="1014" cy="-272" rx="77.1743" ry="48.1667"/>
<text text-anchor="middle" x="1014" y="-290.8" font-family="Times,serif" font-size="14.00">Node23</text>
<text text-anchor="start" x="967" y="-275.8" font-family="Times,serif" font-size="14.00">input = {}</text>
<text text-anchor="start" x="967" y="-260.8" font-family="Times,serif" font-size="14.00">selectindex = 4</text>
<text text-anchor="middle" x="1014" y="-245.8" font-family="Times,serif" font-size="14.00">reverseMap = {}</text>
</a>
</g>
</g>
<!-- n18&#45;&gt;n23 -->
<g id="edge22" class="edge"><title>n18&#45;&gt;n23</title>
<path fill="none" stroke="black" d="M1127.3,-357.167C1109.04,-343.601 1089.13,-328.812 1071.17,-315.468"/>
<polygon fill="black" stroke="black" points="1073.18,-312.602 1063.07,-309.449 1069.01,-318.222 1073.18,-312.602"/>
</g>
<!-- n24 -->
<g id="node24" class="node"><title>n24</title>
<g id="a_node24"><a xlink:title="[[C]]:&#45;1_&#45;5">
<ellipse fill="none" stroke="black" cx="1538" cy="-272" rx="77.1743" ry="48.1667"/>
<text text-anchor="middle" x="1538" y="-290.8" font-family="Times,serif" font-size="14.00">Node24</text>
<text text-anchor="start" x="1491" y="-275.8" font-family="Times,serif" font-size="14.00">input = {}</text>
<text text-anchor="start" x="1491" y="-260.8" font-family="Times,serif" font-size="14.00">selectindex = 5</text>
<text text-anchor="middle" x="1538" y="-245.8" font-family="Times,serif" font-size="14.00">reverseMap = {}</text>
</a>
</g>
</g>
<!-- n19&#45;&gt;n24 -->
<g id="edge23" class="edge"><title>n19&#45;&gt;n24</title>
<path fill="none" stroke="black" d="M1651.3,-357.167C1633.04,-343.601 1613.13,-328.812 1595.17,-315.468"/>
<polygon fill="black" stroke="black" points="1597.18,-312.602 1587.07,-309.449 1593.01,-318.222 1597.18,-312.602"/>
</g>
<!-- n25 -->
<g id="node25" class="node"><title>n25</title>
<g id="a_node25"><a xlink:title="[[C]]:&#45;1_ split at [...e/kedart/torch/install/share/lua/5.1/nngraph/gmodule.lua]:72&#45;mnode">
<ellipse fill="none" stroke="black" cx="665" cy="-150" rx="80.415" ry="37.4533"/>
<text text-anchor="middle" x="665" y="-161.3" font-family="Times,serif" font-size="14.00">Node25</text>
<text text-anchor="start" x="616" y="-146.3" font-family="Times,serif" font-size="14.00">reverseMap = {}</text>
<text text-anchor="middle" x="665" y="-131.3" font-family="Times,serif" font-size="14.00">nSplitOutputs = 5</text>
</a>
</g>
</g>
<!-- n20&#45;&gt;n25 -->
<g id="edge24" class="edge"><title>n20&#45;&gt;n25</title>
<path fill="none" stroke="black" d="M264.543,-241.074C278.557,-234.807 293.609,-228.688 308,-224 398.195,-194.621 505.21,-174.613 578.397,-163.078"/>
<polygon fill="black" stroke="black" points="579.151,-166.503 588.494,-161.507 578.074,-159.586 579.151,-166.503"/>
</g>
<!-- n21&#45;&gt;n25 -->
<g id="edge25" class="edge"><title>n21&#45;&gt;n25</title>
<path fill="none" stroke="black" d="M457.282,-243.319C499.504,-224.554 555.252,-199.777 598.363,-180.616"/>
<polygon fill="black" stroke="black" points="599.922,-183.754 607.639,-176.494 597.079,-177.357 599.922,-183.754"/>
</g>
<!-- n22&#45;&gt;n25 -->
<g id="edge26" class="edge"><title>n22&#45;&gt;n25</title>
<path fill="none" stroke="black" d="M665,-223.573C665,-215.096 665,-206.269 665,-197.81"/>
<polygon fill="black" stroke="black" points="668.5,-197.722 665,-187.722 661.5,-197.722 668.5,-197.722"/>
</g>
<!-- n23&#45;&gt;n25 -->
<g id="edge27" class="edge"><title>n23&#45;&gt;n25</title>
<path fill="none" stroke="black" d="M946.709,-247.863C887.013,-227.337 799.988,-197.414 738.49,-176.269"/>
<polygon fill="black" stroke="black" points="739.442,-172.895 728.847,-172.953 737.166,-179.515 739.442,-172.895"/>
</g>
<!-- n24&#45;&gt;n25 -->
<g id="edge28" class="edge"><title>n24&#45;&gt;n25</title>
<path fill="none" stroke="black" d="M1462.43,-260.613C1300.8,-238.395 922.326,-186.371 751.439,-162.882"/>
<polygon fill="black" stroke="black" points="751.86,-159.407 741.477,-161.512 750.907,-166.342 751.86,-159.407"/>
</g>
<!-- n26 -->
<g id="node26" class="node"><title>n26</title>
<g id="a_node26"><a xlink:title="[[C]]:&#45;1_">
<ellipse fill="none" stroke="black" cx="665" cy="-38" rx="77.1743" ry="37.4533"/>
<text text-anchor="middle" x="665" y="-49.3" font-family="Times,serif" font-size="14.00">Node26</text>
<text text-anchor="start" x="618" y="-34.3" font-family="Times,serif" font-size="14.00">input = {}</text>
<text text-anchor="middle" x="665" y="-19.3" font-family="Times,serif" font-size="14.00">reverseMap = {}</text>
</a>
</g>
</g>
<!-- n25&#45;&gt;n26 -->
<g id="edge29" class="edge"><title>n25&#45;&gt;n26</title>
<path fill="none" stroke="black" d="M665,-112.372C665,-103.927 665,-94.8286 665,-86.0106"/>
<polygon fill="black" stroke="black" points="668.5,-85.8435 665,-75.8435 661.5,-85.8435 668.5,-85.8435"/>
</g>
</g>
</svg>
