<?xml version="1.0" encoding="UTF-8" standalone="no"?>
<!DOCTYPE svg PUBLIC "-//W3C//DTD SVG 1.1//EN"
 "http://www.w3.org/Graphics/SVG/1.1/DTD/svg11.dtd">
<!-- Generated by graphviz version 2.36.0 (20140111.2315)
 -->
<!-- Title: G Pages: 1 -->
<svg width="1233pt" height="4682pt"
 viewBox="0.00 0.00 1233.00 4682.00" xmlns="http://www.w3.org/2000/svg" xmlns:xlink="http://www.w3.org/1999/xlink">
<g id="graph0" class="graph" transform="scale(1 1) rotate(0) translate(4 4678)">
<title>G</title>
<polygon fill="white" stroke="none" points="-4,4 -4,-4678 1229,-4678 1229,4 -4,4"/>
<!-- n1 -->
<g id="node1" class="node"><title>n1</title>
<g id="a_node1"><a xlink:title="[./Net3.lua]:113_">
<ellipse fill="none" stroke="purple" cx="258" cy="-160" rx="149.36" ry="48.1667"/>
<text text-anchor="middle" x="258" y="-178.8" font-family="Times,serif" font-size="14.00">Final Layer (1)</text>
<text text-anchor="middle" x="258" y="-163.8" font-family="Times,serif" font-size="14.00">desc = Final output. Using Sigmoid</text>
<text text-anchor="start" x="160" y="-148.8" font-family="Times,serif" font-size="14.00">module = nn.Tanh</text>
<text text-anchor="middle" x="258" y="-133.8" font-family="Times,serif" font-size="14.00">reverseMap = {}</text>
</a>
</g>
</g>
<!-- n2 -->
<g id="node2" class="node"><title>n2</title>
<g id="a_node2"><a xlink:title="[[C]]:&#45;1_">
<ellipse fill="none" stroke="black" cx="258" cy="-38" rx="77.1743" ry="37.4533"/>
<text text-anchor="middle" x="258" y="-49.3" font-family="Times,serif" font-size="14.00">Node2</text>
<text text-anchor="start" x="211" y="-34.3" font-family="Times,serif" font-size="14.00">input = {}</text>
<text text-anchor="middle" x="258" y="-19.3" font-family="Times,serif" font-size="14.00">reverseMap = {}</text>
</a>
</g>
</g>
<!-- n1&#45;&gt;n2 -->
<g id="edge1" class="edge"><title>n1&#45;&gt;n2</title>
<path fill="none" stroke="black" d="M258,-111.573C258,-103.096 258,-94.269 258,-85.8099"/>
<polygon fill="black" stroke="black" points="261.5,-85.7224 258,-75.7224 254.5,-85.7224 261.5,-85.7224"/>
</g>
<!-- n3 -->
<g id="node3" class="node"><title>n3</title>
<g id="a_node3"><a xlink:title="[./Net3.lua]:113_">
<ellipse fill="none" stroke="black" cx="258" cy="-282" rx="232.457" ry="37.4533"/>
<text text-anchor="middle" x="258" y="-293.3" font-family="Times,serif" font-size="14.00">Node3</text>
<text text-anchor="start" x="101.5" y="-278.3" font-family="Times,serif" font-size="14.00">module = nn.SpatialConvolution(128 &#45;&gt; 2, 3x3, 1,1, 1,1)</text>
<text text-anchor="middle" x="258" y="-263.3" font-family="Times,serif" font-size="14.00">reverseMap = {}</text>
</a>
</g>
</g>
<!-- n3&#45;&gt;n1 -->
<g id="edge2" class="edge"><title>n3&#45;&gt;n1</title>
<path fill="none" stroke="black" d="M258,-244.344C258,-236.219 258,-227.418 258,-218.683"/>
<polygon fill="black" stroke="black" points="261.5,-218.503 258,-208.503 254.5,-218.503 261.5,-218.503"/>
</g>
<!-- n4 -->
<g id="node4" class="node"><title>n4</title>
<g id="a_node4"><a xlink:title="[./Net3.lua]:111_">
<ellipse fill="none" stroke="black" cx="258" cy="-394" rx="176.166" ry="37.4533"/>
<text text-anchor="middle" x="258" y="-405.3" font-family="Times,serif" font-size="14.00">Node4</text>
<text text-anchor="start" x="141" y="-390.3" font-family="Times,serif" font-size="14.00">module = nn.SpatialMaxPooling(2x2, 2,2)</text>
<text text-anchor="middle" x="258" y="-375.3" font-family="Times,serif" font-size="14.00">reverseMap = {}</text>
</a>
</g>
</g>
<!-- n4&#45;&gt;n3 -->
<g id="edge3" class="edge"><title>n4&#45;&gt;n3</title>
<path fill="none" stroke="black" d="M258,-356.372C258,-347.927 258,-338.829 258,-330.011"/>
<polygon fill="black" stroke="black" points="261.5,-329.843 258,-319.844 254.5,-329.844 261.5,-329.843"/>
</g>
<!-- n5 -->
<g id="node5" class="node"><title>n5</title>
<g id="a_node5"><a xlink:title="[./Net3.lua]:111_">
<ellipse fill="none" stroke="black" cx="258" cy="-506" rx="87.5215" ry="37.4533"/>
<text text-anchor="middle" x="258" y="-517.3" font-family="Times,serif" font-size="14.00">Node5</text>
<text text-anchor="start" x="204" y="-502.3" font-family="Times,serif" font-size="14.00">module = nn.ReLU</text>
<text text-anchor="middle" x="258" y="-487.3" font-family="Times,serif" font-size="14.00">reverseMap = {}</text>
</a>
</g>
</g>
<!-- n5&#45;&gt;n4 -->
<g id="edge4" class="edge"><title>n5&#45;&gt;n4</title>
<path fill="none" stroke="black" d="M258,-468.372C258,-459.927 258,-450.829 258,-442.011"/>
<polygon fill="black" stroke="black" points="261.5,-441.843 258,-431.844 254.5,-441.844 261.5,-441.843"/>
</g>
<!-- n6 -->
<g id="node6" class="node"><title>n6</title>
<g id="a_node6"><a xlink:title="[./Net3.lua]:109_">
<ellipse fill="none" stroke="black" cx="258" cy="-618" rx="168.498" ry="37.4533"/>
<text text-anchor="middle" x="258" y="-629.3" font-family="Times,serif" font-size="14.00">Node6</text>
<text text-anchor="start" x="146.5" y="-614.3" font-family="Times,serif" font-size="14.00">module = nn.SpatialBatchNormalization</text>
<text text-anchor="middle" x="258" y="-599.3" font-family="Times,serif" font-size="14.00">reverseMap = {}</text>
</a>
</g>
</g>
<!-- n6&#45;&gt;n5 -->
<g id="edge5" class="edge"><title>n6&#45;&gt;n5</title>
<path fill="none" stroke="black" d="M258,-580.372C258,-571.927 258,-562.829 258,-554.011"/>
<polygon fill="black" stroke="black" points="261.5,-553.843 258,-543.844 254.5,-553.844 261.5,-553.843"/>
</g>
<!-- n7 -->
<g id="node7" class="node"><title>n7</title>
<g id="a_node7"><a xlink:title="[./Net3.lua]:109_">
<ellipse fill="none" stroke="black" cx="258" cy="-730" rx="242.306" ry="37.4533"/>
<text text-anchor="middle" x="258" y="-741.3" font-family="Times,serif" font-size="14.00">Node7</text>
<text text-anchor="start" x="94.5" y="-726.3" font-family="Times,serif" font-size="14.00">module = nn.SpatialConvolution(128 &#45;&gt; 128, 3x3, 1,1, 1,1)</text>
<text text-anchor="middle" x="258" y="-711.3" font-family="Times,serif" font-size="14.00">reverseMap = {}</text>
</a>
</g>
</g>
<!-- n7&#45;&gt;n6 -->
<g id="edge6" class="edge"><title>n7&#45;&gt;n6</title>
<path fill="none" stroke="black" d="M258,-692.372C258,-683.927 258,-674.829 258,-666.011"/>
<polygon fill="black" stroke="black" points="261.5,-665.843 258,-655.844 254.5,-665.844 261.5,-665.843"/>
</g>
<!-- n8 -->
<g id="node8" class="node"><title>n8</title>
<g id="a_node8"><a xlink:title="[./Net3.lua]:107_">
<ellipse fill="none" stroke="black" cx="258" cy="-842" rx="168.498" ry="37.4533"/>
<text text-anchor="middle" x="258" y="-853.3" font-family="Times,serif" font-size="14.00">Node8</text>
<text text-anchor="start" x="146.5" y="-838.3" font-family="Times,serif" font-size="14.00">module = nn.SpatialBatchNormalization</text>
<text text-anchor="middle" x="258" y="-823.3" font-family="Times,serif" font-size="14.00">reverseMap = {}</text>
</a>
</g>
</g>
<!-- n8&#45;&gt;n7 -->
<g id="edge7" class="edge"><title>n8&#45;&gt;n7</title>
<path fill="none" stroke="black" d="M258,-804.372C258,-795.927 258,-786.829 258,-778.011"/>
<polygon fill="black" stroke="black" points="261.5,-777.843 258,-767.844 254.5,-777.844 261.5,-777.843"/>
</g>
<!-- n9 -->
<g id="node9" class="node"><title>n9</title>
<g id="a_node9"><a xlink:title="[./Net3.lua]:107_">
<ellipse fill="none" stroke="black" cx="258" cy="-954" rx="237.382" ry="37.4533"/>
<text text-anchor="middle" x="258" y="-965.3" font-family="Times,serif" font-size="14.00">Node9</text>
<text text-anchor="start" x="98" y="-950.3" font-family="Times,serif" font-size="14.00">module = nn.SpatialConvolution(64 &#45;&gt; 128, 3x3, 1,1, 1,1)</text>
<text text-anchor="middle" x="258" y="-935.3" font-family="Times,serif" font-size="14.00">reverseMap = {}</text>
</a>
</g>
</g>
<!-- n9&#45;&gt;n8 -->
<g id="edge8" class="edge"><title>n9&#45;&gt;n8</title>
<path fill="none" stroke="black" d="M258,-916.372C258,-907.927 258,-898.829 258,-890.011"/>
<polygon fill="black" stroke="black" points="261.5,-889.843 258,-879.844 254.5,-889.844 261.5,-889.843"/>
</g>
<!-- n10 -->
<g id="node10" class="node"><title>n10</title>
<g id="a_node10"><a xlink:title="[./Net3.lua]:105_">
<ellipse fill="none" stroke="black" cx="258" cy="-1066" rx="176.166" ry="37.4533"/>
<text text-anchor="middle" x="258" y="-1077.3" font-family="Times,serif" font-size="14.00">Node10</text>
<text text-anchor="start" x="141" y="-1062.3" font-family="Times,serif" font-size="14.00">module = nn.SpatialMaxPooling(2x2, 2,2)</text>
<text text-anchor="middle" x="258" y="-1047.3" font-family="Times,serif" font-size="14.00">reverseMap = {}</text>
</a>
</g>
</g>
<!-- n10&#45;&gt;n9 -->
<g id="edge9" class="edge"><title>n10&#45;&gt;n9</title>
<path fill="none" stroke="black" d="M258,-1028.37C258,-1019.93 258,-1010.83 258,-1002.01"/>
<polygon fill="black" stroke="black" points="261.5,-1001.84 258,-991.844 254.5,-1001.84 261.5,-1001.84"/>
</g>
<!-- n11 -->
<g id="node11" class="node"><title>n11</title>
<g id="a_node11"><a xlink:title="[./Net3.lua]:105_">
<ellipse fill="none" stroke="black" cx="258" cy="-1178" rx="87.5215" ry="37.4533"/>
<text text-anchor="middle" x="258" y="-1189.3" font-family="Times,serif" font-size="14.00">Node11</text>
<text text-anchor="start" x="204" y="-1174.3" font-family="Times,serif" font-size="14.00">module = nn.ReLU</text>
<text text-anchor="middle" x="258" y="-1159.3" font-family="Times,serif" font-size="14.00">reverseMap = {}</text>
</a>
</g>
</g>
<!-- n11&#45;&gt;n10 -->
<g id="edge10" class="edge"><title>n11&#45;&gt;n10</title>
<path fill="none" stroke="black" d="M258,-1140.37C258,-1131.93 258,-1122.83 258,-1114.01"/>
<polygon fill="black" stroke="black" points="261.5,-1113.84 258,-1103.84 254.5,-1113.84 261.5,-1113.84"/>
</g>
<!-- n12 -->
<g id="node12" class="node"><title>n12</title>
<g id="a_node12"><a xlink:title="[./Net3.lua]:104_">
<ellipse fill="none" stroke="black" cx="258" cy="-1290" rx="168.498" ry="37.4533"/>
<text text-anchor="middle" x="258" y="-1301.3" font-family="Times,serif" font-size="14.00">Node12</text>
<text text-anchor="start" x="146.5" y="-1286.3" font-family="Times,serif" font-size="14.00">module = nn.SpatialBatchNormalization</text>
<text text-anchor="middle" x="258" y="-1271.3" font-family="Times,serif" font-size="14.00">reverseMap = {}</text>
</a>
</g>
</g>
<!-- n12&#45;&gt;n11 -->
<g id="edge11" class="edge"><title>n12&#45;&gt;n11</title>
<path fill="none" stroke="black" d="M258,-1252.37C258,-1243.93 258,-1234.83 258,-1226.01"/>
<polygon fill="black" stroke="black" points="261.5,-1225.84 258,-1215.84 254.5,-1225.84 261.5,-1225.84"/>
</g>
<!-- n13 -->
<g id="node13" class="node"><title>n13</title>
<g id="a_node13"><a xlink:title="[./Net3.lua]:104_">
<ellipse fill="none" stroke="black" cx="258" cy="-1402" rx="237.382" ry="37.4533"/>
<text text-anchor="middle" x="258" y="-1413.3" font-family="Times,serif" font-size="14.00">Node13</text>
<text text-anchor="start" x="98" y="-1398.3" font-family="Times,serif" font-size="14.00">module = nn.SpatialConvolution(195 &#45;&gt; 64, 3x3, 1,1, 1,1)</text>
<text text-anchor="middle" x="258" y="-1383.3" font-family="Times,serif" font-size="14.00">reverseMap = {}</text>
</a>
</g>
</g>
<!-- n13&#45;&gt;n12 -->
<g id="edge12" class="edge"><title>n13&#45;&gt;n12</title>
<path fill="none" stroke="black" d="M258,-1364.37C258,-1355.93 258,-1346.83 258,-1338.01"/>
<polygon fill="black" stroke="black" points="261.5,-1337.84 258,-1327.84 254.5,-1337.84 261.5,-1337.84"/>
</g>
<!-- n14 -->
<g id="node14" class="node"><title>n14</title>
<g id="a_node14"><a xlink:title="[./Net3.lua]:93_">
<ellipse fill="none" stroke="grey" cx="258" cy="-1535" rx="258.202" ry="58.8803"/>
<text text-anchor="middle" x="258" y="-1561.3" font-family="Times,serif" font-size="14.00">Joining layer. Fuck yeah! (14)</text>
<text text-anchor="middle" x="258" y="-1546.3" font-family="Times,serif" font-size="14.00">desc = Joining input, level1, deconved_level3, deconved_level6</text>
<text text-anchor="start" x="83" y="-1531.3" font-family="Times,serif" font-size="14.00">module = nn.JoinTable</text>
<text text-anchor="start" x="83" y="-1516.3" font-family="Times,serif" font-size="14.00">reverseMap = {}</text>
<text text-anchor="middle" x="258" y="-1501.3" font-family="Times,serif" font-size="14.00">mapindex = {Node15,Node16,Node17,Node18,Node19}</text>
</a>
</g>
</g>
<!-- n14&#45;&gt;n13 -->
<g id="edge13" class="edge"><title>n14&#45;&gt;n13</title>
<path fill="none" stroke="black" d="M258,-1476.16C258,-1467.39 258,-1458.43 258,-1449.93"/>
<polygon fill="black" stroke="black" points="261.5,-1449.83 258,-1439.83 254.5,-1449.83 261.5,-1449.83"/>
</g>
<!-- n15 -->
<g id="node15" class="node"><title>n15</title>
<g id="a_node15"><a xlink:title="[./Net3.lua]:11_">
<ellipse fill="none" stroke="green" cx="310" cy="-4514" rx="98.4924" ry="48.1667"/>
<text text-anchor="middle" x="310" y="-4532.8" font-family="Times,serif" font-size="14.00">Conv Layer 1 (15)</text>
<text text-anchor="middle" x="310" y="-4517.8" font-family="Times,serif" font-size="14.00">desc = Image Features</text>
<text text-anchor="start" x="248" y="-4502.8" font-family="Times,serif" font-size="14.00">module = nn.Identity</text>
<text text-anchor="middle" x="310" y="-4487.8" font-family="Times,serif" font-size="14.00">reverseMap = {}</text>
</a>
</g>
</g>
<!-- n15&#45;&gt;n14 -->
<g id="edge14" class="edge"><title>n15&#45;&gt;n14</title>
<path fill="none" stroke="black" d="M246.856,-4476.97C229.978,-4464.28 213.523,-4448.49 203,-4430 165.567,-4364.22 182,-4336.69 182,-4261 182,-4261 182,-4261 182,-1809 182,-1736.71 207.035,-1657.48 228.368,-1603.08"/>
<polygon fill="black" stroke="black" points="231.712,-1604.14 232.164,-1593.55 225.21,-1601.55 231.712,-1604.14"/>
</g>
<!-- n25 -->
<g id="node25" class="node"><title>n25</title>
<g id="a_node25"><a xlink:title="[./Net3.lua]:32_">
<ellipse fill="none" stroke="red" cx="440" cy="-4382" rx="228.093" ry="48.1667"/>
<text text-anchor="middle" x="440" y="-4400.8" font-family="Times,serif" font-size="14.00">Conv Layer 1 (25)</text>
<text text-anchor="middle" x="440" y="-4385.8" font-family="Times,serif" font-size="14.00">desc = Image Features</text>
<text text-anchor="start" x="286.5" y="-4370.8" font-family="Times,serif" font-size="14.00">module = nn.SpatialConvolution(3 &#45;&gt; 64, 3x3, 1,1, 1,1)</text>
<text text-anchor="middle" x="440" y="-4355.8" font-family="Times,serif" font-size="14.00">reverseMap = {}</text>
</a>
</g>
</g>
<!-- n15&#45;&gt;n25 -->
<g id="edge28" class="edge"><title>n15&#45;&gt;n25</title>
<path fill="none" stroke="black" d="M352.567,-4470.43C363.379,-4459.62 375.136,-4447.86 386.418,-4436.58"/>
<polygon fill="black" stroke="black" points="389.153,-4438.8 393.749,-4429.25 384.203,-4433.85 389.153,-4438.8"/>
</g>
<!-- n16 -->
<g id="node16" class="node"><title>n16</title>
<g id="a_node16"><a xlink:title="[./Net3.lua]:36_">
<ellipse fill="none" stroke="blue" cx="443" cy="-4138" rx="232.457" ry="48.1667"/>
<text text-anchor="middle" x="443" y="-4156.8" font-family="Times,serif" font-size="14.00">Conv Layer 2 (16)</text>
<text text-anchor="middle" x="443" y="-4141.8" font-family="Times,serif" font-size="14.00">desc = Image Features</text>
<text text-anchor="start" x="286.5" y="-4126.8" font-family="Times,serif" font-size="14.00">module = nn.SpatialConvolution(64 &#45;&gt; 64, 3x3, 1,1, 1,1)</text>
<text text-anchor="middle" x="443" y="-4111.8" font-family="Times,serif" font-size="14.00">reverseMap = {}</text>
</a>
</g>
</g>
<!-- n16&#45;&gt;n14 -->
<g id="edge15" class="edge"><title>n16&#45;&gt;n14</title>
<path fill="none" stroke="black" d="M359.011,-4093.12C295.797,-4053.4 220,-3988.38 220,-3905 220,-3905 220,-3905 220,-1809 220,-1738.5 232.586,-1658.73 243.271,-1603.7"/>
<polygon fill="black" stroke="black" points="246.738,-1604.21 245.241,-1593.72 239.87,-1602.86 246.738,-1604.21"/>
</g>
<!-- n35 -->
<g id="node35" class="node"><title>n35</title>
<g id="a_node35"><a xlink:title="[./Net3.lua]:40_">
<ellipse fill="none" stroke="black" cx="454" cy="-4016" rx="87.5215" ry="37.4533"/>
<text text-anchor="middle" x="454" y="-4027.3" font-family="Times,serif" font-size="14.00">Node35</text>
<text text-anchor="start" x="400" y="-4012.3" font-family="Times,serif" font-size="14.00">module = nn.ReLU</text>
<text text-anchor="middle" x="454" y="-3997.3" font-family="Times,serif" font-size="14.00">reverseMap = {}</text>
</a>
</g>
</g>
<!-- n16&#45;&gt;n35 -->
<g id="edge38" class="edge"><title>n16&#45;&gt;n35</title>
<path fill="none" stroke="black" d="M447.316,-4089.92C448.103,-4081.33 448.925,-4072.37 449.711,-4063.79"/>
<polygon fill="black" stroke="black" points="453.221,-4063.84 450.649,-4053.56 446.25,-4063.2 453.221,-4063.84"/>
</g>
<!-- n17 -->
<g id="node17" class="node"><title>n17</title>
<g id="a_node17"><a xlink:title="[./Net3.lua]:79_">
<ellipse fill="none" stroke="yellow" cx="501" cy="-3294" rx="253.216" ry="48.1667"/>
<text text-anchor="middle" x="501" y="-3312.8" font-family="Times,serif" font-size="14.00">Deconving level 3 (17)</text>
<text text-anchor="middle" x="501" y="-3297.8" font-family="Times,serif" font-size="14.00">desc = To increase the dimension</text>
<text text-anchor="start" x="330" y="-3282.8" font-family="Times,serif" font-size="14.00">module = nn.SpatialFullConvolution(128 &#45;&gt; 32, 1x1, 2,2, 1,1)</text>
<text text-anchor="middle" x="501" y="-3267.8" font-family="Times,serif" font-size="14.00">reverseMap = {}</text>
</a>
</g>
</g>
<!-- n17&#45;&gt;n14 -->
<g id="edge16" class="edge"><title>n17&#45;&gt;n14</title>
<path fill="none" stroke="black" d="M414.643,-3248.6C344.798,-3205.84 258,-3133.99 258,-3041 258,-3041 258,-3041 258,-1809 258,-1739.06 258,-1659.04 258,-1603.8"/>
<polygon fill="black" stroke="black" points="261.5,-1603.78 258,-1593.78 254.5,-1603.78 261.5,-1603.78"/>
</g>
<!-- n18 -->
<g id="node18" class="node"><title>n18</title>
<g id="a_node18"><a xlink:title="[./Net3.lua]:83_">
<ellipse fill="none" stroke="yellow" cx="539" cy="-2430" rx="253.216" ry="48.1667"/>
<text text-anchor="middle" x="539" y="-2448.8" font-family="Times,serif" font-size="14.00">Deconving level 6 (18)</text>
<text text-anchor="middle" x="539" y="-2433.8" font-family="Times,serif" font-size="14.00">desc = To increase the dimension</text>
<text text-anchor="start" x="368" y="-2418.8" font-family="Times,serif" font-size="14.00">module = nn.SpatialFullConvolution(256 &#45;&gt; 32, 2x2, 4,4, 2,2)</text>
<text text-anchor="middle" x="539" y="-2403.8" font-family="Times,serif" font-size="14.00">reverseMap = {}</text>
</a>
</g>
</g>
<!-- n18&#45;&gt;n14 -->
<g id="edge17" class="edge"><title>n18&#45;&gt;n14</title>
<path fill="none" stroke="black" d="M454.047,-2384.55C385.007,-2341.63 299,-2269.59 299,-2177 299,-2177 299,-2177 299,-1809 299,-1738.39 285.42,-1658.63 273.892,-1603.64"/>
<polygon fill="black" stroke="black" points="277.274,-1602.72 271.766,-1593.67 270.428,-1604.18 277.274,-1602.72"/>
</g>
<!-- n19 -->
<g id="node19" class="node"><title>n19</title>
<g id="a_node19"><a xlink:title="[./Net3.lua]:88_">
<ellipse fill="none" stroke="yellow" cx="586" cy="-1678" rx="253.216" ry="48.1667"/>
<text text-anchor="middle" x="586" y="-1696.8" font-family="Times,serif" font-size="14.00">Deconving level 6 (19)</text>
<text text-anchor="middle" x="586" y="-1681.8" font-family="Times,serif" font-size="14.00">desc = To increase the dimension</text>
<text text-anchor="start" x="415" y="-1666.8" font-family="Times,serif" font-size="14.00">module = nn.SpatialFullConvolution(512 &#45;&gt; 64, 4x4, 8,8, 4,4)</text>
<text text-anchor="middle" x="586" y="-1651.8" font-family="Times,serif" font-size="14.00">reverseMap = {}</text>
</a>
</g>
</g>
<!-- n19&#45;&gt;n14 -->
<g id="edge18" class="edge"><title>n19&#45;&gt;n14</title>
<path fill="none" stroke="black" d="M485.36,-1633.74C454.118,-1620.31 419.251,-1605.32 386.389,-1591.19"/>
<polygon fill="black" stroke="black" points="387.747,-1587.97 377.178,-1587.23 384.983,-1594.4 387.747,-1587.97"/>
</g>
<!-- n20 -->
<g id="node20" class="node"><title>n20</title>
<g id="a_node20"><a xlink:title="[[C]]:&#45;1_">
<ellipse fill="none" stroke="black" cx="310" cy="-4636" rx="77.1743" ry="37.4533"/>
<text text-anchor="middle" x="310" y="-4647.3" font-family="Times,serif" font-size="14.00">Node20</text>
<text text-anchor="start" x="263" y="-4632.3" font-family="Times,serif" font-size="14.00">input = {}</text>
<text text-anchor="middle" x="310" y="-4617.3" font-family="Times,serif" font-size="14.00">reverseMap = {}</text>
</a>
</g>
</g>
<!-- n20&#45;&gt;n15 -->
<g id="edge19" class="edge"><title>n20&#45;&gt;n15</title>
<path fill="none" stroke="black" d="M310,-4598.34C310,-4590.22 310,-4581.42 310,-4572.68"/>
<polygon fill="black" stroke="black" points="313.5,-4572.5 310,-4562.5 306.5,-4572.5 313.5,-4572.5"/>
</g>
<!-- n21 -->
<g id="node21" class="node"><title>n21</title>
<g id="a_node21"><a xlink:title="[./Net3.lua]:36_">
<ellipse fill="none" stroke="black" cx="441" cy="-4260" rx="87.5215" ry="37.4533"/>
<text text-anchor="middle" x="441" y="-4271.3" font-family="Times,serif" font-size="14.00">Node21</text>
<text text-anchor="start" x="387" y="-4256.3" font-family="Times,serif" font-size="14.00">module = nn.ReLU</text>
<text text-anchor="middle" x="441" y="-4241.3" font-family="Times,serif" font-size="14.00">reverseMap = {}</text>
</a>
</g>
</g>
<!-- n21&#45;&gt;n16 -->
<g id="edge20" class="edge"><title>n21&#45;&gt;n16</title>
<path fill="none" stroke="black" d="M441.611,-4222.34C441.746,-4214.22 441.893,-4205.42 442.039,-4196.68"/>
<polygon fill="black" stroke="black" points="445.541,-4196.56 442.208,-4186.5 438.542,-4196.44 445.541,-4196.56"/>
</g>
<!-- n22 -->
<g id="node22" class="node"><title>n22</title>
<g id="a_node22"><a xlink:title="[./Net3.lua]:44_">
<ellipse fill="none" stroke="blue" cx="501" cy="-3538" rx="242.306" ry="48.1667"/>
<text text-anchor="middle" x="501" y="-3556.8" font-family="Times,serif" font-size="14.00">Conv Layer 3 (22)</text>
<text text-anchor="middle" x="501" y="-3541.8" font-family="Times,serif" font-size="14.00">desc = Image Features</text>
<text text-anchor="start" x="337.5" y="-3526.8" font-family="Times,serif" font-size="14.00">module = nn.SpatialConvolution(128 &#45;&gt; 128, 3x3, 1,1, 1,1)</text>
<text text-anchor="middle" x="501" y="-3511.8" font-family="Times,serif" font-size="14.00">reverseMap = {}</text>
</a>
</g>
</g>
<!-- n22&#45;&gt;n17 -->
<g id="edge21" class="edge"><title>n22&#45;&gt;n17</title>
<path fill="none" stroke="black" d="M501,-3489.77C501,-3450.37 501,-3394.11 501,-3352.18"/>
<polygon fill="black" stroke="black" points="504.5,-3352.12 501,-3342.12 497.5,-3352.12 504.5,-3352.12"/>
</g>
<!-- n40 -->
<g id="node40" class="node"><title>n40</title>
<g id="a_node40"><a xlink:title="[./Net3.lua]:48_">
<ellipse fill="none" stroke="black" cx="783" cy="-3416" rx="87.5215" ry="37.4533"/>
<text text-anchor="middle" x="783" y="-3427.3" font-family="Times,serif" font-size="14.00">Node40</text>
<text text-anchor="start" x="729" y="-3412.3" font-family="Times,serif" font-size="14.00">module = nn.ReLU</text>
<text text-anchor="middle" x="783" y="-3397.3" font-family="Times,serif" font-size="14.00">reverseMap = {}</text>
</a>
</g>
</g>
<!-- n22&#45;&gt;n40 -->
<g id="edge43" class="edge"><title>n22&#45;&gt;n40</title>
<path fill="none" stroke="black" d="M601.614,-3494.19C638.338,-3478.56 679.054,-3461.23 712.59,-3446.96"/>
<polygon fill="black" stroke="black" points="714.018,-3450.16 721.85,-3443.02 711.278,-3443.72 714.018,-3450.16"/>
</g>
<!-- n23 -->
<g id="node23" class="node"><title>n23</title>
<g id="a_node23"><a xlink:title="[./Net3.lua]:56_">
<ellipse fill="none" stroke="blue" cx="949" cy="-2674" rx="242.306" ry="48.1667"/>
<text text-anchor="middle" x="949" y="-2692.8" font-family="Times,serif" font-size="14.00">Conv Layer 3 (23)</text>
<text text-anchor="middle" x="949" y="-2677.8" font-family="Times,serif" font-size="14.00">desc = Image Features</text>
<text text-anchor="start" x="785.5" y="-2662.8" font-family="Times,serif" font-size="14.00">module = nn.SpatialConvolution(256 &#45;&gt; 256, 3x3, 1,1, 1,1)</text>
<text text-anchor="middle" x="949" y="-2647.8" font-family="Times,serif" font-size="14.00">reverseMap = {}</text>
</a>
</g>
</g>
<!-- n23&#45;&gt;n18 -->
<g id="edge22" class="edge"><title>n23&#45;&gt;n18</title>
<path fill="none" stroke="black" d="M872.843,-2628.05C802.189,-2586.35 697.195,-2524.37 623.876,-2481.1"/>
<polygon fill="black" stroke="black" points="625.487,-2477.98 615.096,-2475.92 621.929,-2484.01 625.487,-2477.98"/>
</g>
<!-- n41 -->
<g id="node41" class="node"><title>n41</title>
<g id="a_node41"><a xlink:title="[./Net3.lua]:62_">
<ellipse fill="none" stroke="black" cx="968" cy="-2552" rx="87.5215" ry="37.4533"/>
<text text-anchor="middle" x="968" y="-2563.3" font-family="Times,serif" font-size="14.00">Node41</text>
<text text-anchor="start" x="914" y="-2548.3" font-family="Times,serif" font-size="14.00">module = nn.ReLU</text>
<text text-anchor="middle" x="968" y="-2533.3" font-family="Times,serif" font-size="14.00">reverseMap = {}</text>
</a>
</g>
</g>
<!-- n23&#45;&gt;n41 -->
<g id="edge44" class="edge"><title>n23&#45;&gt;n41</title>
<path fill="none" stroke="black" d="M956.455,-2625.92C957.83,-2617.23 959.265,-2608.17 960.637,-2599.5"/>
<polygon fill="black" stroke="black" points="964.104,-2599.98 962.211,-2589.56 957.191,-2598.89 964.104,-2599.98"/>
</g>
<!-- n24 -->
<g id="node24" class="node"><title>n24</title>
<g id="a_node24"><a xlink:title="[./Net3.lua]:70_">
<ellipse fill="none" stroke="blue" cx="599" cy="-1810" rx="242.306" ry="48.1667"/>
<text text-anchor="middle" x="599" y="-1828.8" font-family="Times,serif" font-size="14.00">Conv Layer 4 (24)</text>
<text text-anchor="middle" x="599" y="-1813.8" font-family="Times,serif" font-size="14.00">desc = Image Features</text>
<text text-anchor="start" x="435.5" y="-1798.8" font-family="Times,serif" font-size="14.00">module = nn.SpatialConvolution(512 &#45;&gt; 512, 3x3, 1,1, 1,1)</text>
<text text-anchor="middle" x="599" y="-1783.8" font-family="Times,serif" font-size="14.00">reverseMap = {}</text>
</a>
</g>
</g>
<!-- n24&#45;&gt;n19 -->
<g id="edge23" class="edge"><title>n24&#45;&gt;n19</title>
<path fill="none" stroke="black" d="M594.27,-1761.7C593.454,-1753.54 592.599,-1744.99 591.76,-1736.6"/>
<polygon fill="black" stroke="black" points="595.226,-1736.09 590.748,-1726.48 588.261,-1736.78 595.226,-1736.09"/>
</g>
<!-- n25&#45;&gt;n21 -->
<g id="edge24" class="edge"><title>n25&#45;&gt;n21</title>
<path fill="none" stroke="black" d="M440.395,-4333.57C440.466,-4325.1 440.539,-4316.27 440.61,-4307.81"/>
<polygon fill="black" stroke="black" points="444.11,-4307.75 440.694,-4297.72 437.111,-4307.69 444.11,-4307.75"/>
</g>
<!-- n26 -->
<g id="node26" class="node"><title>n26</title>
<g id="a_node26"><a xlink:title="[./Net3.lua]:44_">
<ellipse fill="none" stroke="black" cx="497" cy="-3660" rx="87.5215" ry="37.4533"/>
<text text-anchor="middle" x="497" y="-3671.3" font-family="Times,serif" font-size="14.00">Node26</text>
<text text-anchor="start" x="443" y="-3656.3" font-family="Times,serif" font-size="14.00">module = nn.ReLU</text>
<text text-anchor="middle" x="497" y="-3641.3" font-family="Times,serif" font-size="14.00">reverseMap = {}</text>
</a>
</g>
</g>
<!-- n26&#45;&gt;n22 -->
<g id="edge25" class="edge"><title>n26&#45;&gt;n22</title>
<path fill="none" stroke="black" d="M498.222,-3622.34C498.493,-3614.22 498.786,-3605.42 499.077,-3596.68"/>
<polygon fill="black" stroke="black" points="502.581,-3596.61 499.417,-3586.5 495.585,-3596.38 502.581,-3596.61"/>
</g>
<!-- n27 -->
<g id="node27" class="node"><title>n27</title>
<g id="a_node27"><a xlink:title="[./Net3.lua]:56_">
<ellipse fill="none" stroke="black" cx="949" cy="-2796" rx="87.5215" ry="37.4533"/>
<text text-anchor="middle" x="949" y="-2807.3" font-family="Times,serif" font-size="14.00">Node27</text>
<text text-anchor="start" x="895" y="-2792.3" font-family="Times,serif" font-size="14.00">module = nn.ReLU</text>
<text text-anchor="middle" x="949" y="-2777.3" font-family="Times,serif" font-size="14.00">reverseMap = {}</text>
</a>
</g>
</g>
<!-- n27&#45;&gt;n23 -->
<g id="edge26" class="edge"><title>n27&#45;&gt;n23</title>
<path fill="none" stroke="black" d="M949,-2758.34C949,-2750.22 949,-2741.42 949,-2732.68"/>
<polygon fill="black" stroke="black" points="952.5,-2732.5 949,-2722.5 945.5,-2732.5 952.5,-2732.5"/>
</g>
<!-- n28 -->
<g id="node28" class="node"><title>n28</title>
<g id="a_node28"><a xlink:title="[./Net3.lua]:70_">
<ellipse fill="none" stroke="black" cx="625" cy="-1932" rx="87.5215" ry="37.4533"/>
<text text-anchor="middle" x="625" y="-1943.3" font-family="Times,serif" font-size="14.00">Node28</text>
<text text-anchor="start" x="571" y="-1928.3" font-family="Times,serif" font-size="14.00">module = nn.ReLU</text>
<text text-anchor="middle" x="625" y="-1913.3" font-family="Times,serif" font-size="14.00">reverseMap = {}</text>
</a>
</g>
</g>
<!-- n28&#45;&gt;n24 -->
<g id="edge27" class="edge"><title>n28&#45;&gt;n24</title>
<path fill="none" stroke="black" d="M617.129,-1894.67C615.326,-1886.35 613.367,-1877.31 611.424,-1868.34"/>
<polygon fill="black" stroke="black" points="614.786,-1867.33 609.248,-1858.3 607.945,-1868.81 614.786,-1867.33"/>
</g>
<!-- n29 -->
<g id="node29" class="node"><title>n29</title>
<g id="a_node29"><a xlink:title="[./Net3.lua]:40_">
<ellipse fill="none" stroke="red" cx="493" cy="-3782" rx="237.382" ry="48.1667"/>
<text text-anchor="middle" x="493" y="-3800.8" font-family="Times,serif" font-size="14.00">Conv Layer 3 (29)</text>
<text text-anchor="middle" x="493" y="-3785.8" font-family="Times,serif" font-size="14.00">desc = Image Features</text>
<text text-anchor="start" x="333" y="-3770.8" font-family="Times,serif" font-size="14.00">module = nn.SpatialConvolution(64 &#45;&gt; 128, 3x3, 1,1, 1,1)</text>
<text text-anchor="middle" x="493" y="-3755.8" font-family="Times,serif" font-size="14.00">reverseMap = {}</text>
</a>
</g>
</g>
<!-- n29&#45;&gt;n26 -->
<g id="edge29" class="edge"><title>n29&#45;&gt;n26</title>
<path fill="none" stroke="black" d="M494.569,-3733.92C494.856,-3725.33 495.154,-3716.37 495.44,-3707.79"/>
<polygon fill="black" stroke="black" points="498.946,-3707.67 495.781,-3697.56 491.95,-3707.44 498.946,-3707.67"/>
</g>
<!-- n30 -->
<g id="node30" class="node"><title>n30</title>
<g id="a_node30"><a xlink:title="[./Net3.lua]:52_">
<ellipse fill="none" stroke="red" cx="949" cy="-2918" rx="242.306" ry="48.1667"/>
<text text-anchor="middle" x="949" y="-2936.8" font-family="Times,serif" font-size="14.00">Conv Layer 3 (30)</text>
<text text-anchor="middle" x="949" y="-2921.8" font-family="Times,serif" font-size="14.00">desc = Image Features</text>
<text text-anchor="start" x="785.5" y="-2906.8" font-family="Times,serif" font-size="14.00">module = nn.SpatialConvolution(256 &#45;&gt; 256, 3x3, 1,1, 1,1)</text>
<text text-anchor="middle" x="949" y="-2891.8" font-family="Times,serif" font-size="14.00">reverseMap = {}</text>
</a>
</g>
</g>
<!-- n30&#45;&gt;n27 -->
<g id="edge30" class="edge"><title>n30&#45;&gt;n27</title>
<path fill="none" stroke="black" d="M949,-2869.57C949,-2861.1 949,-2852.27 949,-2843.81"/>
<polygon fill="black" stroke="black" points="952.5,-2843.72 949,-2833.72 945.5,-2843.72 952.5,-2843.72"/>
</g>
<!-- n31 -->
<g id="node31" class="node"><title>n31</title>
<g id="a_node31"><a xlink:title="[./Net3.lua]:66_">
<ellipse fill="none" stroke="red" cx="676" cy="-2054" rx="242.306" ry="48.1667"/>
<text text-anchor="middle" x="676" y="-2072.8" font-family="Times,serif" font-size="14.00">Conv Layer 4 (31)</text>
<text text-anchor="middle" x="676" y="-2057.8" font-family="Times,serif" font-size="14.00">desc = Image Features</text>
<text text-anchor="start" x="512.5" y="-2042.8" font-family="Times,serif" font-size="14.00">module = nn.SpatialConvolution(512 &#45;&gt; 512, 3x3, 1,1, 1,1)</text>
<text text-anchor="middle" x="676" y="-2027.8" font-family="Times,serif" font-size="14.00">reverseMap = {}</text>
</a>
</g>
</g>
<!-- n31&#45;&gt;n28 -->
<g id="edge31" class="edge"><title>n31&#45;&gt;n28</title>
<path fill="none" stroke="black" d="M655.99,-2005.92C652.178,-1996.95 648.194,-1987.58 644.402,-1978.65"/>
<polygon fill="black" stroke="black" points="647.512,-1977.02 640.379,-1969.19 641.069,-1979.76 647.512,-1977.02"/>
</g>
<!-- n32 -->
<g id="node32" class="node"><title>n32</title>
<g id="a_node32"><a xlink:title="[./Net3.lua]:40_">
<ellipse fill="none" stroke="black" cx="475" cy="-3904" rx="176.166" ry="37.4533"/>
<text text-anchor="middle" x="475" y="-3915.3" font-family="Times,serif" font-size="14.00">Node32</text>
<text text-anchor="start" x="358" y="-3900.3" font-family="Times,serif" font-size="14.00">module = nn.SpatialMaxPooling(2x2, 2,2)</text>
<text text-anchor="middle" x="475" y="-3885.3" font-family="Times,serif" font-size="14.00">reverseMap = {}</text>
</a>
</g>
</g>
<!-- n32&#45;&gt;n29 -->
<g id="edge32" class="edge"><title>n32&#45;&gt;n29</title>
<path fill="none" stroke="black" d="M480.498,-3866.34C481.745,-3858.03 483.099,-3849.01 484.439,-3840.07"/>
<polygon fill="black" stroke="black" points="487.918,-3840.48 485.94,-3830.07 480.995,-3839.44 487.918,-3840.48"/>
</g>
<!-- n33 -->
<g id="node33" class="node"><title>n33</title>
<g id="a_node33"><a xlink:title="[./Net3.lua]:52_">
<ellipse fill="none" stroke="black" cx="949" cy="-3040" rx="87.5215" ry="37.4533"/>
<text text-anchor="middle" x="949" y="-3051.3" font-family="Times,serif" font-size="14.00">Node33</text>
<text text-anchor="start" x="895" y="-3036.3" font-family="Times,serif" font-size="14.00">module = nn.ReLU</text>
<text text-anchor="middle" x="949" y="-3021.3" font-family="Times,serif" font-size="14.00">reverseMap = {}</text>
</a>
</g>
</g>
<!-- n33&#45;&gt;n30 -->
<g id="edge33" class="edge"><title>n33&#45;&gt;n30</title>
<path fill="none" stroke="black" d="M949,-3002.34C949,-2994.22 949,-2985.42 949,-2976.68"/>
<polygon fill="black" stroke="black" points="952.5,-2976.5 949,-2966.5 945.5,-2976.5 952.5,-2976.5"/>
</g>
<!-- n34 -->
<g id="node34" class="node"><title>n34</title>
<g id="a_node34"><a xlink:title="[./Net3.lua]:66_">
<ellipse fill="none" stroke="black" cx="778" cy="-2176" rx="87.5215" ry="37.4533"/>
<text text-anchor="middle" x="778" y="-2187.3" font-family="Times,serif" font-size="14.00">Node34</text>
<text text-anchor="start" x="724" y="-2172.3" font-family="Times,serif" font-size="14.00">module = nn.ReLU</text>
<text text-anchor="middle" x="778" y="-2157.3" font-family="Times,serif" font-size="14.00">reverseMap = {}</text>
</a>
</g>
</g>
<!-- n34&#45;&gt;n31 -->
<g id="edge34" class="edge"><title>n34&#45;&gt;n31</title>
<path fill="none" stroke="black" d="M748.771,-2140.61C740.434,-2130.8 731.141,-2119.87 722.059,-2109.19"/>
<polygon fill="black" stroke="black" points="724.643,-2106.82 715.5,-2101.47 719.309,-2111.36 724.643,-2106.82"/>
</g>
<!-- n35&#45;&gt;n32 -->
<g id="edge35" class="edge"><title>n35&#45;&gt;n32</title>
<path fill="none" stroke="black" d="M460.993,-3978.37C462.64,-3969.74 464.417,-3960.43 466.134,-3951.44"/>
<polygon fill="black" stroke="black" points="469.6,-3951.95 468.038,-3941.47 462.725,-3950.63 469.6,-3951.95"/>
</g>
<!-- n36 -->
<g id="node36" class="node"><title>n36</title>
<g id="a_node36"><a xlink:title="[./Net3.lua]:48_">
<ellipse fill="none" stroke="red" cx="949" cy="-3162" rx="242.306" ry="48.1667"/>
<text text-anchor="middle" x="949" y="-3180.8" font-family="Times,serif" font-size="14.00">Conv Layer 3 (36)</text>
<text text-anchor="middle" x="949" y="-3165.8" font-family="Times,serif" font-size="14.00">desc = Image Features</text>
<text text-anchor="start" x="785.5" y="-3150.8" font-family="Times,serif" font-size="14.00">module = nn.SpatialConvolution(128 &#45;&gt; 256, 3x3, 1,1, 1,1)</text>
<text text-anchor="middle" x="949" y="-3135.8" font-family="Times,serif" font-size="14.00">reverseMap = {}</text>
</a>
</g>
</g>
<!-- n36&#45;&gt;n33 -->
<g id="edge36" class="edge"><title>n36&#45;&gt;n33</title>
<path fill="none" stroke="black" d="M949,-3113.57C949,-3105.1 949,-3096.27 949,-3087.81"/>
<polygon fill="black" stroke="black" points="952.5,-3087.72 949,-3077.72 945.5,-3087.72 952.5,-3087.72"/>
</g>
<!-- n37 -->
<g id="node37" class="node"><title>n37</title>
<g id="a_node37"><a xlink:title="[./Net3.lua]:62_">
<ellipse fill="none" stroke="red" cx="983" cy="-2298" rx="242.306" ry="48.1667"/>
<text text-anchor="middle" x="983" y="-2316.8" font-family="Times,serif" font-size="14.00">Conv Layer 3 (37)</text>
<text text-anchor="middle" x="983" y="-2301.8" font-family="Times,serif" font-size="14.00">desc = Image Features</text>
<text text-anchor="start" x="819.5" y="-2286.8" font-family="Times,serif" font-size="14.00">module = nn.SpatialConvolution(256 &#45;&gt; 512, 3x3, 1,1, 1,1)</text>
<text text-anchor="middle" x="983" y="-2271.8" font-family="Times,serif" font-size="14.00">reverseMap = {}</text>
</a>
</g>
</g>
<!-- n37&#45;&gt;n34 -->
<g id="edge37" class="edge"><title>n37&#45;&gt;n34</title>
<path fill="none" stroke="black" d="M906.666,-2252.32C883.754,-2238.9 858.973,-2224.4 837.332,-2211.73"/>
<polygon fill="black" stroke="black" points="838.978,-2208.64 828.58,-2206.61 835.442,-2214.68 838.978,-2208.64"/>
</g>
<!-- n38 -->
<g id="node38" class="node"><title>n38</title>
<g id="a_node38"><a xlink:title="[./Net3.lua]:48_">
<ellipse fill="none" stroke="black" cx="949" cy="-3294" rx="176.166" ry="37.4533"/>
<text text-anchor="middle" x="949" y="-3305.3" font-family="Times,serif" font-size="14.00">Node38</text>
<text text-anchor="start" x="832" y="-3290.3" font-family="Times,serif" font-size="14.00">module = nn.SpatialMaxPooling(2x2, 2,2)</text>
<text text-anchor="middle" x="949" y="-3275.3" font-family="Times,serif" font-size="14.00">reverseMap = {}</text>
</a>
</g>
</g>
<!-- n38&#45;&gt;n36 -->
<g id="edge39" class="edge"><title>n38&#45;&gt;n36</title>
<path fill="none" stroke="black" d="M949,-3256.44C949,-3245.29 949,-3232.76 949,-3220.57"/>
<polygon fill="black" stroke="black" points="952.5,-3220.46 949,-3210.46 945.5,-3220.46 952.5,-3220.46"/>
</g>
<!-- n39 -->
<g id="node39" class="node"><title>n39</title>
<g id="a_node39"><a xlink:title="[./Net3.lua]:62_">
<ellipse fill="none" stroke="black" cx="987" cy="-2430" rx="176.166" ry="37.4533"/>
<text text-anchor="middle" x="987" y="-2441.3" font-family="Times,serif" font-size="14.00">Node39</text>
<text text-anchor="start" x="870" y="-2426.3" font-family="Times,serif" font-size="14.00">module = nn.SpatialMaxPooling(2x2, 2,2)</text>
<text text-anchor="middle" x="987" y="-2411.3" font-family="Times,serif" font-size="14.00">reverseMap = {}</text>
</a>
</g>
</g>
<!-- n39&#45;&gt;n37 -->
<g id="edge40" class="edge"><title>n39&#45;&gt;n37</title>
<path fill="none" stroke="black" d="M985.875,-2392.44C985.532,-2381.29 985.146,-2368.76 984.771,-2356.57"/>
<polygon fill="black" stroke="black" points="988.266,-2356.35 984.46,-2346.46 981.27,-2356.56 988.266,-2356.35"/>
</g>
<!-- n40&#45;&gt;n38 -->
<g id="edge41" class="edge"><title>n40&#45;&gt;n38</title>
<path fill="none" stroke="black" d="M826.615,-3383.47C846.628,-3369 870.619,-3351.66 892.036,-3336.18"/>
<polygon fill="black" stroke="black" points="894.36,-3338.82 900.414,-3330.12 890.259,-3333.14 894.36,-3338.82"/>
</g>
<!-- n41&#45;&gt;n39 -->
<g id="edge42" class="edge"><title>n41&#45;&gt;n39</title>
<path fill="none" stroke="black" d="M973.804,-2514.34C975.628,-2502.82 977.668,-2489.94 979.589,-2477.81"/>
<polygon fill="black" stroke="black" points="983.059,-2478.27 981.166,-2467.85 976.145,-2477.17 983.059,-2478.27"/>
</g>
</g>
</svg>
