<?xml version="1.0" encoding="UTF-8" standalone="no"?>
<!DOCTYPE svg PUBLIC "-//W3C//DTD SVG 1.1//EN"
 "http://www.w3.org/Graphics/SVG/1.1/DTD/svg11.dtd">
<!-- Generated by graphviz version 2.36.0 (20140111.2315)
 -->
<!-- Title: G Pages: 1 -->
<svg width="492pt" height="4788pt"
 viewBox="0.00 0.00 492.00 4788.00" xmlns="http://www.w3.org/2000/svg" xmlns:xlink="http://www.w3.org/1999/xlink">
<g id="graph0" class="graph" transform="scale(1 1) rotate(0) translate(4 4784)">
<title>G</title>
<polygon fill="white" stroke="none" points="-4,4 -4,-4784 488,-4784 488,4 -4,4"/>
<!-- n1 -->
<g id="node1" class="node"><title>n1</title>
<g id="a_node1"><a xlink:title="[[string &quot;input = nn.Identity()()...&quot;]]:35_">
<ellipse fill="none" stroke="black" cx="242" cy="-150" rx="97.9325" ry="37.4533"/>
<text text-anchor="middle" x="242" y="-161.3" font-family="Times,serif" font-size="14.00">Node1</text>
<text text-anchor="start" x="180.5" y="-146.3" font-family="Times,serif" font-size="14.00">module = nn.SoftMax</text>
<text text-anchor="middle" x="242" y="-131.3" font-family="Times,serif" font-size="14.00">reverseMap = {}</text>
</a>
</g>
</g>
<!-- n2 -->
<g id="node2" class="node"><title>n2</title>
<g id="a_node2"><a xlink:title="[[C]]:&#45;1_">
<ellipse fill="none" stroke="black" cx="242" cy="-38" rx="77.1743" ry="37.4533"/>
<text text-anchor="middle" x="242" y="-49.3" font-family="Times,serif" font-size="14.00">Node2</text>
<text text-anchor="start" x="195" y="-34.3" font-family="Times,serif" font-size="14.00">input = {}</text>
<text text-anchor="middle" x="242" y="-19.3" font-family="Times,serif" font-size="14.00">reverseMap = {}</text>
</a>
</g>
</g>
<!-- n1&#45;&gt;n2 -->
<g id="edge1" class="edge"><title>n1&#45;&gt;n2</title>
<path fill="none" stroke="black" d="M242,-112.372C242,-103.927 242,-94.8286 242,-86.0106"/>
<polygon fill="black" stroke="black" points="245.5,-85.8435 242,-75.8435 238.5,-85.8435 245.5,-85.8435"/>
</g>
<!-- n3 -->
<g id="node3" class="node"><title>n3</title>
<g id="a_node3"><a xlink:title="[[string &quot;input = nn.Identity()()...&quot;]]:34_">
<ellipse fill="none" stroke="black" cx="242" cy="-262" rx="147.179" ry="37.4533"/>
<text text-anchor="middle" x="242" y="-273.3" font-family="Times,serif" font-size="14.00">Node3</text>
<text text-anchor="start" x="145.5" y="-258.3" font-family="Times,serif" font-size="14.00">module = nn.Linear(4096 &#45;&gt; 1000)</text>
<text text-anchor="middle" x="242" y="-243.3" font-family="Times,serif" font-size="14.00">reverseMap = {}</text>
</a>
</g>
</g>
<!-- n3&#45;&gt;n1 -->
<g id="edge2" class="edge"><title>n3&#45;&gt;n1</title>
<path fill="none" stroke="black" d="M242,-224.372C242,-215.927 242,-206.829 242,-198.011"/>
<polygon fill="black" stroke="black" points="245.5,-197.843 242,-187.844 238.5,-197.844 245.5,-197.843"/>
</g>
<!-- n4 -->
<g id="node4" class="node"><title>n4</title>
<g id="a_node4"><a xlink:title="[[string &quot;input = nn.Identity()()...&quot;]]:34_">
<ellipse fill="none" stroke="black" cx="242" cy="-374" rx="138.389" ry="37.4533"/>
<text text-anchor="middle" x="242" y="-385.3" font-family="Times,serif" font-size="14.00">Node4</text>
<text text-anchor="start" x="152" y="-370.3" font-family="Times,serif" font-size="14.00">module = nn.Dropout(0.500000)</text>
<text text-anchor="middle" x="242" y="-355.3" font-family="Times,serif" font-size="14.00">reverseMap = {}</text>
</a>
</g>
</g>
<!-- n4&#45;&gt;n3 -->
<g id="edge3" class="edge"><title>n4&#45;&gt;n3</title>
<path fill="none" stroke="black" d="M242,-336.372C242,-327.927 242,-318.829 242,-310.011"/>
<polygon fill="black" stroke="black" points="245.5,-309.843 242,-299.844 238.5,-309.844 245.5,-309.843"/>
</g>
<!-- n5 -->
<g id="node5" class="node"><title>n5</title>
<g id="a_node5"><a xlink:title="[[string &quot;input = nn.Identity()()...&quot;]]:34_">
<ellipse fill="none" stroke="black" cx="242" cy="-486" rx="87.5215" ry="37.4533"/>
<text text-anchor="middle" x="242" y="-497.3" font-family="Times,serif" font-size="14.00">Node5</text>
<text text-anchor="start" x="188" y="-482.3" font-family="Times,serif" font-size="14.00">module = nn.ReLU</text>
<text text-anchor="middle" x="242" y="-467.3" font-family="Times,serif" font-size="14.00">reverseMap = {}</text>
</a>
</g>
</g>
<!-- n5&#45;&gt;n4 -->
<g id="edge4" class="edge"><title>n5&#45;&gt;n4</title>
<path fill="none" stroke="black" d="M242,-448.372C242,-439.927 242,-430.829 242,-422.011"/>
<polygon fill="black" stroke="black" points="245.5,-421.843 242,-411.844 238.5,-421.844 245.5,-421.843"/>
</g>
<!-- n6 -->
<g id="node6" class="node"><title>n6</title>
<g id="a_node6"><a xlink:title="[[string &quot;input = nn.Identity()()...&quot;]]:33_">
<ellipse fill="none" stroke="black" cx="242" cy="-598" rx="147.179" ry="37.4533"/>
<text text-anchor="middle" x="242" y="-609.3" font-family="Times,serif" font-size="14.00">Node6</text>
<text text-anchor="start" x="145.5" y="-594.3" font-family="Times,serif" font-size="14.00">module = nn.Linear(4096 &#45;&gt; 4096)</text>
<text text-anchor="middle" x="242" y="-579.3" font-family="Times,serif" font-size="14.00">reverseMap = {}</text>
</a>
</g>
</g>
<!-- n6&#45;&gt;n5 -->
<g id="edge5" class="edge"><title>n6&#45;&gt;n5</title>
<path fill="none" stroke="black" d="M242,-560.372C242,-551.927 242,-542.829 242,-534.011"/>
<polygon fill="black" stroke="black" points="245.5,-533.843 242,-523.844 238.5,-533.844 245.5,-533.843"/>
</g>
<!-- n7 -->
<g id="node7" class="node"><title>n7</title>
<g id="a_node7"><a xlink:title="[[string &quot;input = nn.Identity()()...&quot;]]:33_">
<ellipse fill="none" stroke="black" cx="242" cy="-710" rx="138.389" ry="37.4533"/>
<text text-anchor="middle" x="242" y="-721.3" font-family="Times,serif" font-size="14.00">Node7</text>
<text text-anchor="start" x="152" y="-706.3" font-family="Times,serif" font-size="14.00">module = nn.Dropout(0.500000)</text>
<text text-anchor="middle" x="242" y="-691.3" font-family="Times,serif" font-size="14.00">reverseMap = {}</text>
</a>
</g>
</g>
<!-- n7&#45;&gt;n6 -->
<g id="edge6" class="edge"><title>n7&#45;&gt;n6</title>
<path fill="none" stroke="black" d="M242,-672.372C242,-663.927 242,-654.829 242,-646.011"/>
<polygon fill="black" stroke="black" points="245.5,-645.843 242,-635.844 238.5,-645.844 245.5,-645.843"/>
</g>
<!-- n8 -->
<g id="node8" class="node"><title>n8</title>
<g id="a_node8"><a xlink:title="[[string &quot;input = nn.Identity()()...&quot;]]:33_">
<ellipse fill="none" stroke="black" cx="242" cy="-822" rx="87.5215" ry="37.4533"/>
<text text-anchor="middle" x="242" y="-833.3" font-family="Times,serif" font-size="14.00">Node8</text>
<text text-anchor="start" x="188" y="-818.3" font-family="Times,serif" font-size="14.00">module = nn.ReLU</text>
<text text-anchor="middle" x="242" y="-803.3" font-family="Times,serif" font-size="14.00">reverseMap = {}</text>
</a>
</g>
</g>
<!-- n8&#45;&gt;n7 -->
<g id="edge7" class="edge"><title>n8&#45;&gt;n7</title>
<path fill="none" stroke="black" d="M242,-784.372C242,-775.927 242,-766.829 242,-758.011"/>
<polygon fill="black" stroke="black" points="245.5,-757.843 242,-747.844 238.5,-757.844 245.5,-757.843"/>
</g>
<!-- n9 -->
<g id="node9" class="node"><title>n9</title>
<g id="a_node9"><a xlink:title="[[string &quot;input = nn.Identity()()...&quot;]]:32_">
<ellipse fill="none" stroke="black" cx="242" cy="-934" rx="152.602" ry="37.4533"/>
<text text-anchor="middle" x="242" y="-945.3" font-family="Times,serif" font-size="14.00">Node9</text>
<text text-anchor="start" x="142" y="-930.3" font-family="Times,serif" font-size="14.00">module = nn.Linear(25088 &#45;&gt; 4096)</text>
<text text-anchor="middle" x="242" y="-915.3" font-family="Times,serif" font-size="14.00">reverseMap = {}</text>
</a>
</g>
</g>
<!-- n9&#45;&gt;n8 -->
<g id="edge8" class="edge"><title>n9&#45;&gt;n8</title>
<path fill="none" stroke="black" d="M242,-896.372C242,-887.927 242,-878.829 242,-870.011"/>
<polygon fill="black" stroke="black" points="245.5,-869.843 242,-859.844 238.5,-869.844 245.5,-869.843"/>
</g>
<!-- n10 -->
<g id="node10" class="node"><title>n10</title>
<g id="a_node10"><a xlink:title="[[string &quot;input = nn.Identity()()...&quot;]]:32_">
<ellipse fill="none" stroke="black" cx="242" cy="-1046" rx="98.4924" ry="37.4533"/>
<text text-anchor="middle" x="242" y="-1057.3" font-family="Times,serif" font-size="14.00">Node10</text>
<text text-anchor="start" x="180" y="-1042.3" font-family="Times,serif" font-size="14.00">module = nn.View(&#45;1)</text>
<text text-anchor="middle" x="242" y="-1027.3" font-family="Times,serif" font-size="14.00">reverseMap = {}</text>
</a>
</g>
</g>
<!-- n10&#45;&gt;n9 -->
<g id="edge9" class="edge"><title>n10&#45;&gt;n9</title>
<path fill="none" stroke="black" d="M242,-1008.37C242,-999.927 242,-990.829 242,-982.011"/>
<polygon fill="black" stroke="black" points="245.5,-981.843 242,-971.844 238.5,-981.844 245.5,-981.843"/>
</g>
<!-- n11 -->
<g id="node11" class="node"><title>n11</title>
<g id="a_node11"><a xlink:title="[[string &quot;input = nn.Identity()()...&quot;]]:32_">
<ellipse fill="none" stroke="black" cx="242" cy="-1158" rx="171.241" ry="37.4533"/>
<text text-anchor="middle" x="242" y="-1169.3" font-family="Times,serif" font-size="14.00">Node11</text>
<text text-anchor="start" x="128.5" y="-1154.3" font-family="Times,serif" font-size="14.00">module = nn.SpatialMaxPooling(2,2,2,2)</text>
<text text-anchor="middle" x="242" y="-1139.3" font-family="Times,serif" font-size="14.00">reverseMap = {}</text>
</a>
</g>
</g>
<!-- n11&#45;&gt;n10 -->
<g id="edge10" class="edge"><title>n11&#45;&gt;n10</title>
<path fill="none" stroke="black" d="M242,-1120.37C242,-1111.93 242,-1102.83 242,-1094.01"/>
<polygon fill="black" stroke="black" points="245.5,-1093.84 242,-1083.84 238.5,-1093.84 245.5,-1093.84"/>
</g>
<!-- n12 -->
<g id="node12" class="node"><title>n12</title>
<g id="a_node12"><a xlink:title="[[string &quot;input = nn.Identity()()...&quot;]]:32_">
<ellipse fill="none" stroke="black" cx="242" cy="-1270" rx="87.5215" ry="37.4533"/>
<text text-anchor="middle" x="242" y="-1281.3" font-family="Times,serif" font-size="14.00">Node12</text>
<text text-anchor="start" x="188" y="-1266.3" font-family="Times,serif" font-size="14.00">module = nn.ReLU</text>
<text text-anchor="middle" x="242" y="-1251.3" font-family="Times,serif" font-size="14.00">reverseMap = {}</text>
</a>
</g>
</g>
<!-- n12&#45;&gt;n11 -->
<g id="edge11" class="edge"><title>n12&#45;&gt;n11</title>
<path fill="none" stroke="black" d="M242,-1232.37C242,-1223.93 242,-1214.83 242,-1206.01"/>
<polygon fill="black" stroke="black" points="245.5,-1205.84 242,-1195.84 238.5,-1205.84 245.5,-1205.84"/>
</g>
<!-- n13 -->
<g id="node13" class="node"><title>n13</title>
<g id="a_node13"><a xlink:title="[[string &quot;input = nn.Identity()()...&quot;]]:31_">
<ellipse fill="none" stroke="black" cx="242" cy="-1382" rx="242.306" ry="37.4533"/>
<text text-anchor="middle" x="242" y="-1393.3" font-family="Times,serif" font-size="14.00">Node13</text>
<text text-anchor="start" x="78.5" y="-1378.3" font-family="Times,serif" font-size="14.00">module = nn.SpatialConvolution(512 &#45;&gt; 512, 3x3, 1,1, 1,1)</text>
<text text-anchor="middle" x="242" y="-1363.3" font-family="Times,serif" font-size="14.00">reverseMap = {}</text>
</a>
</g>
</g>
<!-- n13&#45;&gt;n12 -->
<g id="edge12" class="edge"><title>n13&#45;&gt;n12</title>
<path fill="none" stroke="black" d="M242,-1344.37C242,-1335.93 242,-1326.83 242,-1318.01"/>
<polygon fill="black" stroke="black" points="245.5,-1317.84 242,-1307.84 238.5,-1317.84 245.5,-1317.84"/>
</g>
<!-- n14 -->
<g id="node14" class="node"><title>n14</title>
<g id="a_node14"><a xlink:title="[[string &quot;input = nn.Identity()()...&quot;]]:31_">
<ellipse fill="none" stroke="black" cx="242" cy="-1494" rx="87.5215" ry="37.4533"/>
<text text-anchor="middle" x="242" y="-1505.3" font-family="Times,serif" font-size="14.00">Node14</text>
<text text-anchor="start" x="188" y="-1490.3" font-family="Times,serif" font-size="14.00">module = nn.ReLU</text>
<text text-anchor="middle" x="242" y="-1475.3" font-family="Times,serif" font-size="14.00">reverseMap = {}</text>
</a>
</g>
</g>
<!-- n14&#45;&gt;n13 -->
<g id="edge13" class="edge"><title>n14&#45;&gt;n13</title>
<path fill="none" stroke="black" d="M242,-1456.37C242,-1447.93 242,-1438.83 242,-1430.01"/>
<polygon fill="black" stroke="black" points="245.5,-1429.84 242,-1419.84 238.5,-1429.84 245.5,-1429.84"/>
</g>
<!-- n15 -->
<g id="node15" class="node"><title>n15</title>
<g id="a_node15"><a xlink:title="[[string &quot;input = nn.Identity()()...&quot;]]:30_">
<ellipse fill="none" stroke="black" cx="242" cy="-1606" rx="242.306" ry="37.4533"/>
<text text-anchor="middle" x="242" y="-1617.3" font-family="Times,serif" font-size="14.00">Node15</text>
<text text-anchor="start" x="78.5" y="-1602.3" font-family="Times,serif" font-size="14.00">module = nn.SpatialConvolution(512 &#45;&gt; 512, 3x3, 1,1, 1,1)</text>
<text text-anchor="middle" x="242" y="-1587.3" font-family="Times,serif" font-size="14.00">reverseMap = {}</text>
</a>
</g>
</g>
<!-- n15&#45;&gt;n14 -->
<g id="edge14" class="edge"><title>n15&#45;&gt;n14</title>
<path fill="none" stroke="black" d="M242,-1568.37C242,-1559.93 242,-1550.83 242,-1542.01"/>
<polygon fill="black" stroke="black" points="245.5,-1541.84 242,-1531.84 238.5,-1541.84 245.5,-1541.84"/>
</g>
<!-- n16 -->
<g id="node16" class="node"><title>n16</title>
<g id="a_node16"><a xlink:title="[[string &quot;input = nn.Identity()()...&quot;]]:30_">
<ellipse fill="none" stroke="black" cx="242" cy="-1718" rx="87.5215" ry="37.4533"/>
<text text-anchor="middle" x="242" y="-1729.3" font-family="Times,serif" font-size="14.00">Node16</text>
<text text-anchor="start" x="188" y="-1714.3" font-family="Times,serif" font-size="14.00">module = nn.ReLU</text>
<text text-anchor="middle" x="242" y="-1699.3" font-family="Times,serif" font-size="14.00">reverseMap = {}</text>
</a>
</g>
</g>
<!-- n16&#45;&gt;n15 -->
<g id="edge15" class="edge"><title>n16&#45;&gt;n15</title>
<path fill="none" stroke="black" d="M242,-1680.37C242,-1671.93 242,-1662.83 242,-1654.01"/>
<polygon fill="black" stroke="black" points="245.5,-1653.84 242,-1643.84 238.5,-1653.84 245.5,-1653.84"/>
</g>
<!-- n17 -->
<g id="node17" class="node"><title>n17</title>
<g id="a_node17"><a xlink:title="[[string &quot;input = nn.Identity()()...&quot;]]:29_">
<ellipse fill="none" stroke="black" cx="242" cy="-1830" rx="242.306" ry="37.4533"/>
<text text-anchor="middle" x="242" y="-1841.3" font-family="Times,serif" font-size="14.00">Node17</text>
<text text-anchor="start" x="78.5" y="-1826.3" font-family="Times,serif" font-size="14.00">module = nn.SpatialConvolution(512 &#45;&gt; 512, 3x3, 1,1, 1,1)</text>
<text text-anchor="middle" x="242" y="-1811.3" font-family="Times,serif" font-size="14.00">reverseMap = {}</text>
</a>
</g>
</g>
<!-- n17&#45;&gt;n16 -->
<g id="edge16" class="edge"><title>n17&#45;&gt;n16</title>
<path fill="none" stroke="black" d="M242,-1792.37C242,-1783.93 242,-1774.83 242,-1766.01"/>
<polygon fill="black" stroke="black" points="245.5,-1765.84 242,-1755.84 238.5,-1765.84 245.5,-1765.84"/>
</g>
<!-- n18 -->
<g id="node18" class="node"><title>n18</title>
<g id="a_node18"><a xlink:title="[[string &quot;input = nn.Identity()()...&quot;]]:29_">
<ellipse fill="none" stroke="black" cx="242" cy="-1942" rx="171.241" ry="37.4533"/>
<text text-anchor="middle" x="242" y="-1953.3" font-family="Times,serif" font-size="14.00">Node18</text>
<text text-anchor="start" x="128.5" y="-1938.3" font-family="Times,serif" font-size="14.00">module = nn.SpatialMaxPooling(2,2,2,2)</text>
<text text-anchor="middle" x="242" y="-1923.3" font-family="Times,serif" font-size="14.00">reverseMap = {}</text>
</a>
</g>
</g>
<!-- n18&#45;&gt;n17 -->
<g id="edge17" class="edge"><title>n18&#45;&gt;n17</title>
<path fill="none" stroke="black" d="M242,-1904.37C242,-1895.93 242,-1886.83 242,-1878.01"/>
<polygon fill="black" stroke="black" points="245.5,-1877.84 242,-1867.84 238.5,-1877.84 245.5,-1877.84"/>
</g>
<!-- n19 -->
<g id="node19" class="node"><title>n19</title>
<g id="a_node19"><a xlink:title="[[string &quot;input = nn.Identity()()...&quot;]]:29_">
<ellipse fill="none" stroke="black" cx="242" cy="-2054" rx="87.5215" ry="37.4533"/>
<text text-anchor="middle" x="242" y="-2065.3" font-family="Times,serif" font-size="14.00">Node19</text>
<text text-anchor="start" x="188" y="-2050.3" font-family="Times,serif" font-size="14.00">module = nn.ReLU</text>
<text text-anchor="middle" x="242" y="-2035.3" font-family="Times,serif" font-size="14.00">reverseMap = {}</text>
</a>
</g>
</g>
<!-- n19&#45;&gt;n18 -->
<g id="edge18" class="edge"><title>n19&#45;&gt;n18</title>
<path fill="none" stroke="black" d="M242,-2016.37C242,-2007.93 242,-1998.83 242,-1990.01"/>
<polygon fill="black" stroke="black" points="245.5,-1989.84 242,-1979.84 238.5,-1989.84 245.5,-1989.84"/>
</g>
<!-- n20 -->
<g id="node20" class="node"><title>n20</title>
<g id="a_node20"><a xlink:title="[[string &quot;input = nn.Identity()()...&quot;]]:28_">
<ellipse fill="none" stroke="black" cx="242" cy="-2166" rx="242.306" ry="37.4533"/>
<text text-anchor="middle" x="242" y="-2177.3" font-family="Times,serif" font-size="14.00">Node20</text>
<text text-anchor="start" x="78.5" y="-2162.3" font-family="Times,serif" font-size="14.00">module = nn.SpatialConvolution(512 &#45;&gt; 512, 3x3, 1,1, 1,1)</text>
<text text-anchor="middle" x="242" y="-2147.3" font-family="Times,serif" font-size="14.00">reverseMap = {}</text>
</a>
</g>
</g>
<!-- n20&#45;&gt;n19 -->
<g id="edge19" class="edge"><title>n20&#45;&gt;n19</title>
<path fill="none" stroke="black" d="M242,-2128.37C242,-2119.93 242,-2110.83 242,-2102.01"/>
<polygon fill="black" stroke="black" points="245.5,-2101.84 242,-2091.84 238.5,-2101.84 245.5,-2101.84"/>
</g>
<!-- n21 -->
<g id="node21" class="node"><title>n21</title>
<g id="a_node21"><a xlink:title="[[string &quot;input = nn.Identity()()...&quot;]]:28_">
<ellipse fill="none" stroke="black" cx="242" cy="-2278" rx="87.5215" ry="37.4533"/>
<text text-anchor="middle" x="242" y="-2289.3" font-family="Times,serif" font-size="14.00">Node21</text>
<text text-anchor="start" x="188" y="-2274.3" font-family="Times,serif" font-size="14.00">module = nn.ReLU</text>
<text text-anchor="middle" x="242" y="-2259.3" font-family="Times,serif" font-size="14.00">reverseMap = {}</text>
</a>
</g>
</g>
<!-- n21&#45;&gt;n20 -->
<g id="edge20" class="edge"><title>n21&#45;&gt;n20</title>
<path fill="none" stroke="black" d="M242,-2240.37C242,-2231.93 242,-2222.83 242,-2214.01"/>
<polygon fill="black" stroke="black" points="245.5,-2213.84 242,-2203.84 238.5,-2213.84 245.5,-2213.84"/>
</g>
<!-- n22 -->
<g id="node22" class="node"><title>n22</title>
<g id="a_node22"><a xlink:title="[[string &quot;input = nn.Identity()()...&quot;]]:27_">
<ellipse fill="none" stroke="black" cx="242" cy="-2390" rx="242.306" ry="37.4533"/>
<text text-anchor="middle" x="242" y="-2401.3" font-family="Times,serif" font-size="14.00">Node22</text>
<text text-anchor="start" x="78.5" y="-2386.3" font-family="Times,serif" font-size="14.00">module = nn.SpatialConvolution(512 &#45;&gt; 512, 3x3, 1,1, 1,1)</text>
<text text-anchor="middle" x="242" y="-2371.3" font-family="Times,serif" font-size="14.00">reverseMap = {}</text>
</a>
</g>
</g>
<!-- n22&#45;&gt;n21 -->
<g id="edge21" class="edge"><title>n22&#45;&gt;n21</title>
<path fill="none" stroke="black" d="M242,-2352.37C242,-2343.93 242,-2334.83 242,-2326.01"/>
<polygon fill="black" stroke="black" points="245.5,-2325.84 242,-2315.84 238.5,-2325.84 245.5,-2325.84"/>
</g>
<!-- n23 -->
<g id="node23" class="node"><title>n23</title>
<g id="a_node23"><a xlink:title="[[string &quot;input = nn.Identity()()...&quot;]]:27_">
<ellipse fill="none" stroke="black" cx="242" cy="-2502" rx="87.5215" ry="37.4533"/>
<text text-anchor="middle" x="242" y="-2513.3" font-family="Times,serif" font-size="14.00">Node23</text>
<text text-anchor="start" x="188" y="-2498.3" font-family="Times,serif" font-size="14.00">module = nn.ReLU</text>
<text text-anchor="middle" x="242" y="-2483.3" font-family="Times,serif" font-size="14.00">reverseMap = {}</text>
</a>
</g>
</g>
<!-- n23&#45;&gt;n22 -->
<g id="edge22" class="edge"><title>n23&#45;&gt;n22</title>
<path fill="none" stroke="black" d="M242,-2464.37C242,-2455.93 242,-2446.83 242,-2438.01"/>
<polygon fill="black" stroke="black" points="245.5,-2437.84 242,-2427.84 238.5,-2437.84 245.5,-2437.84"/>
</g>
<!-- n24 -->
<g id="node24" class="node"><title>n24</title>
<g id="a_node24"><a xlink:title="[[string &quot;input = nn.Identity()()...&quot;]]:26_">
<ellipse fill="none" stroke="black" cx="242" cy="-2614" rx="242.306" ry="37.4533"/>
<text text-anchor="middle" x="242" y="-2625.3" font-family="Times,serif" font-size="14.00">Node24</text>
<text text-anchor="start" x="78.5" y="-2610.3" font-family="Times,serif" font-size="14.00">module = nn.SpatialConvolution(256 &#45;&gt; 512, 3x3, 1,1, 1,1)</text>
<text text-anchor="middle" x="242" y="-2595.3" font-family="Times,serif" font-size="14.00">reverseMap = {}</text>
</a>
</g>
</g>
<!-- n24&#45;&gt;n23 -->
<g id="edge23" class="edge"><title>n24&#45;&gt;n23</title>
<path fill="none" stroke="black" d="M242,-2576.37C242,-2567.93 242,-2558.83 242,-2550.01"/>
<polygon fill="black" stroke="black" points="245.5,-2549.84 242,-2539.84 238.5,-2549.84 245.5,-2549.84"/>
</g>
<!-- n25 -->
<g id="node25" class="node"><title>n25</title>
<g id="a_node25"><a xlink:title="[[string &quot;input = nn.Identity()()...&quot;]]:26_">
<ellipse fill="none" stroke="black" cx="242" cy="-2726" rx="171.241" ry="37.4533"/>
<text text-anchor="middle" x="242" y="-2737.3" font-family="Times,serif" font-size="14.00">Node25</text>
<text text-anchor="start" x="128.5" y="-2722.3" font-family="Times,serif" font-size="14.00">module = nn.SpatialMaxPooling(2,2,2,2)</text>
<text text-anchor="middle" x="242" y="-2707.3" font-family="Times,serif" font-size="14.00">reverseMap = {}</text>
</a>
</g>
</g>
<!-- n25&#45;&gt;n24 -->
<g id="edge24" class="edge"><title>n25&#45;&gt;n24</title>
<path fill="none" stroke="black" d="M242,-2688.37C242,-2679.93 242,-2670.83 242,-2662.01"/>
<polygon fill="black" stroke="black" points="245.5,-2661.84 242,-2651.84 238.5,-2661.84 245.5,-2661.84"/>
</g>
<!-- n26 -->
<g id="node26" class="node"><title>n26</title>
<g id="a_node26"><a xlink:title="[[string &quot;input = nn.Identity()()...&quot;]]:26_">
<ellipse fill="none" stroke="black" cx="242" cy="-2838" rx="87.5215" ry="37.4533"/>
<text text-anchor="middle" x="242" y="-2849.3" font-family="Times,serif" font-size="14.00">Node26</text>
<text text-anchor="start" x="188" y="-2834.3" font-family="Times,serif" font-size="14.00">module = nn.ReLU</text>
<text text-anchor="middle" x="242" y="-2819.3" font-family="Times,serif" font-size="14.00">reverseMap = {}</text>
</a>
</g>
</g>
<!-- n26&#45;&gt;n25 -->
<g id="edge25" class="edge"><title>n26&#45;&gt;n25</title>
<path fill="none" stroke="black" d="M242,-2800.37C242,-2791.93 242,-2782.83 242,-2774.01"/>
<polygon fill="black" stroke="black" points="245.5,-2773.84 242,-2763.84 238.5,-2773.84 245.5,-2773.84"/>
</g>
<!-- n27 -->
<g id="node27" class="node"><title>n27</title>
<g id="a_node27"><a xlink:title="[[string &quot;input = nn.Identity()()...&quot;]]:25_">
<ellipse fill="none" stroke="black" cx="242" cy="-2950" rx="242.306" ry="37.4533"/>
<text text-anchor="middle" x="242" y="-2961.3" font-family="Times,serif" font-size="14.00">Node27</text>
<text text-anchor="start" x="78.5" y="-2946.3" font-family="Times,serif" font-size="14.00">module = nn.SpatialConvolution(256 &#45;&gt; 256, 3x3, 1,1, 1,1)</text>
<text text-anchor="middle" x="242" y="-2931.3" font-family="Times,serif" font-size="14.00">reverseMap = {}</text>
</a>
</g>
</g>
<!-- n27&#45;&gt;n26 -->
<g id="edge26" class="edge"><title>n27&#45;&gt;n26</title>
<path fill="none" stroke="black" d="M242,-2912.37C242,-2903.93 242,-2894.83 242,-2886.01"/>
<polygon fill="black" stroke="black" points="245.5,-2885.84 242,-2875.84 238.5,-2885.84 245.5,-2885.84"/>
</g>
<!-- n28 -->
<g id="node28" class="node"><title>n28</title>
<g id="a_node28"><a xlink:title="[[string &quot;input = nn.Identity()()...&quot;]]:25_">
<ellipse fill="none" stroke="black" cx="242" cy="-3062" rx="87.5215" ry="37.4533"/>
<text text-anchor="middle" x="242" y="-3073.3" font-family="Times,serif" font-size="14.00">Node28</text>
<text text-anchor="start" x="188" y="-3058.3" font-family="Times,serif" font-size="14.00">module = nn.ReLU</text>
<text text-anchor="middle" x="242" y="-3043.3" font-family="Times,serif" font-size="14.00">reverseMap = {}</text>
</a>
</g>
</g>
<!-- n28&#45;&gt;n27 -->
<g id="edge27" class="edge"><title>n28&#45;&gt;n27</title>
<path fill="none" stroke="black" d="M242,-3024.37C242,-3015.93 242,-3006.83 242,-2998.01"/>
<polygon fill="black" stroke="black" points="245.5,-2997.84 242,-2987.84 238.5,-2997.84 245.5,-2997.84"/>
</g>
<!-- n29 -->
<g id="node29" class="node"><title>n29</title>
<g id="a_node29"><a xlink:title="[[string &quot;input = nn.Identity()()...&quot;]]:24_">
<ellipse fill="none" stroke="black" cx="242" cy="-3174" rx="242.306" ry="37.4533"/>
<text text-anchor="middle" x="242" y="-3185.3" font-family="Times,serif" font-size="14.00">Node29</text>
<text text-anchor="start" x="78.5" y="-3170.3" font-family="Times,serif" font-size="14.00">module = nn.SpatialConvolution(256 &#45;&gt; 256, 3x3, 1,1, 1,1)</text>
<text text-anchor="middle" x="242" y="-3155.3" font-family="Times,serif" font-size="14.00">reverseMap = {}</text>
</a>
</g>
</g>
<!-- n29&#45;&gt;n28 -->
<g id="edge28" class="edge"><title>n29&#45;&gt;n28</title>
<path fill="none" stroke="black" d="M242,-3136.37C242,-3127.93 242,-3118.83 242,-3110.01"/>
<polygon fill="black" stroke="black" points="245.5,-3109.84 242,-3099.84 238.5,-3109.84 245.5,-3109.84"/>
</g>
<!-- n30 -->
<g id="node30" class="node"><title>n30</title>
<g id="a_node30"><a xlink:title="[[string &quot;input = nn.Identity()()...&quot;]]:24_">
<ellipse fill="none" stroke="black" cx="242" cy="-3286" rx="87.5215" ry="37.4533"/>
<text text-anchor="middle" x="242" y="-3297.3" font-family="Times,serif" font-size="14.00">Node30</text>
<text text-anchor="start" x="188" y="-3282.3" font-family="Times,serif" font-size="14.00">module = nn.ReLU</text>
<text text-anchor="middle" x="242" y="-3267.3" font-family="Times,serif" font-size="14.00">reverseMap = {}</text>
</a>
</g>
</g>
<!-- n30&#45;&gt;n29 -->
<g id="edge29" class="edge"><title>n30&#45;&gt;n29</title>
<path fill="none" stroke="black" d="M242,-3248.37C242,-3239.93 242,-3230.83 242,-3222.01"/>
<polygon fill="black" stroke="black" points="245.5,-3221.84 242,-3211.84 238.5,-3221.84 245.5,-3221.84"/>
</g>
<!-- n31 -->
<g id="node31" class="node"><title>n31</title>
<g id="a_node31"><a xlink:title="[[string &quot;input = nn.Identity()()...&quot;]]:23_">
<ellipse fill="none" stroke="black" cx="242" cy="-3398" rx="242.306" ry="37.4533"/>
<text text-anchor="middle" x="242" y="-3409.3" font-family="Times,serif" font-size="14.00">Node31</text>
<text text-anchor="start" x="78.5" y="-3394.3" font-family="Times,serif" font-size="14.00">module = nn.SpatialConvolution(128 &#45;&gt; 256, 3x3, 1,1, 1,1)</text>
<text text-anchor="middle" x="242" y="-3379.3" font-family="Times,serif" font-size="14.00">reverseMap = {}</text>
</a>
</g>
</g>
<!-- n31&#45;&gt;n30 -->
<g id="edge30" class="edge"><title>n31&#45;&gt;n30</title>
<path fill="none" stroke="black" d="M242,-3360.37C242,-3351.93 242,-3342.83 242,-3334.01"/>
<polygon fill="black" stroke="black" points="245.5,-3333.84 242,-3323.84 238.5,-3333.84 245.5,-3333.84"/>
</g>
<!-- n32 -->
<g id="node32" class="node"><title>n32</title>
<g id="a_node32"><a xlink:title="[[string &quot;input = nn.Identity()()...&quot;]]:23_">
<ellipse fill="none" stroke="black" cx="242" cy="-3510" rx="171.241" ry="37.4533"/>
<text text-anchor="middle" x="242" y="-3521.3" font-family="Times,serif" font-size="14.00">Node32</text>
<text text-anchor="start" x="128.5" y="-3506.3" font-family="Times,serif" font-size="14.00">module = nn.SpatialMaxPooling(2,2,2,2)</text>
<text text-anchor="middle" x="242" y="-3491.3" font-family="Times,serif" font-size="14.00">reverseMap = {}</text>
</a>
</g>
</g>
<!-- n32&#45;&gt;n31 -->
<g id="edge31" class="edge"><title>n32&#45;&gt;n31</title>
<path fill="none" stroke="black" d="M242,-3472.37C242,-3463.93 242,-3454.83 242,-3446.01"/>
<polygon fill="black" stroke="black" points="245.5,-3445.84 242,-3435.84 238.5,-3445.84 245.5,-3445.84"/>
</g>
<!-- n33 -->
<g id="node33" class="node"><title>n33</title>
<g id="a_node33"><a xlink:title="[[string &quot;input = nn.Identity()()...&quot;]]:23_">
<ellipse fill="none" stroke="black" cx="242" cy="-3622" rx="87.5215" ry="37.4533"/>
<text text-anchor="middle" x="242" y="-3633.3" font-family="Times,serif" font-size="14.00">Node33</text>
<text text-anchor="start" x="188" y="-3618.3" font-family="Times,serif" font-size="14.00">module = nn.ReLU</text>
<text text-anchor="middle" x="242" y="-3603.3" font-family="Times,serif" font-size="14.00">reverseMap = {}</text>
</a>
</g>
</g>
<!-- n33&#45;&gt;n32 -->
<g id="edge32" class="edge"><title>n33&#45;&gt;n32</title>
<path fill="none" stroke="black" d="M242,-3584.37C242,-3575.93 242,-3566.83 242,-3558.01"/>
<polygon fill="black" stroke="black" points="245.5,-3557.84 242,-3547.84 238.5,-3557.84 245.5,-3557.84"/>
</g>
<!-- n34 -->
<g id="node34" class="node"><title>n34</title>
<g id="a_node34"><a xlink:title="[[string &quot;input = nn.Identity()()...&quot;]]:22_">
<ellipse fill="none" stroke="black" cx="242" cy="-3734" rx="242.306" ry="37.4533"/>
<text text-anchor="middle" x="242" y="-3745.3" font-family="Times,serif" font-size="14.00">Node34</text>
<text text-anchor="start" x="78.5" y="-3730.3" font-family="Times,serif" font-size="14.00">module = nn.SpatialConvolution(128 &#45;&gt; 128, 3x3, 1,1, 1,1)</text>
<text text-anchor="middle" x="242" y="-3715.3" font-family="Times,serif" font-size="14.00">reverseMap = {}</text>
</a>
</g>
</g>
<!-- n34&#45;&gt;n33 -->
<g id="edge33" class="edge"><title>n34&#45;&gt;n33</title>
<path fill="none" stroke="black" d="M242,-3696.37C242,-3687.93 242,-3678.83 242,-3670.01"/>
<polygon fill="black" stroke="black" points="245.5,-3669.84 242,-3659.84 238.5,-3669.84 245.5,-3669.84"/>
</g>
<!-- n35 -->
<g id="node35" class="node"><title>n35</title>
<g id="a_node35"><a xlink:title="[[string &quot;input = nn.Identity()()...&quot;]]:22_">
<ellipse fill="none" stroke="black" cx="242" cy="-3846" rx="87.5215" ry="37.4533"/>
<text text-anchor="middle" x="242" y="-3857.3" font-family="Times,serif" font-size="14.00">Node35</text>
<text text-anchor="start" x="188" y="-3842.3" font-family="Times,serif" font-size="14.00">module = nn.ReLU</text>
<text text-anchor="middle" x="242" y="-3827.3" font-family="Times,serif" font-size="14.00">reverseMap = {}</text>
</a>
</g>
</g>
<!-- n35&#45;&gt;n34 -->
<g id="edge34" class="edge"><title>n35&#45;&gt;n34</title>
<path fill="none" stroke="black" d="M242,-3808.37C242,-3799.93 242,-3790.83 242,-3782.01"/>
<polygon fill="black" stroke="black" points="245.5,-3781.84 242,-3771.84 238.5,-3781.84 245.5,-3781.84"/>
</g>
<!-- n36 -->
<g id="node36" class="node"><title>n36</title>
<g id="a_node36"><a xlink:title="[[string &quot;input = nn.Identity()()...&quot;]]:21_">
<ellipse fill="none" stroke="black" cx="242" cy="-3958" rx="237.382" ry="37.4533"/>
<text text-anchor="middle" x="242" y="-3969.3" font-family="Times,serif" font-size="14.00">Node36</text>
<text text-anchor="start" x="82" y="-3954.3" font-family="Times,serif" font-size="14.00">module = nn.SpatialConvolution(64 &#45;&gt; 128, 3x3, 1,1, 1,1)</text>
<text text-anchor="middle" x="242" y="-3939.3" font-family="Times,serif" font-size="14.00">reverseMap = {}</text>
</a>
</g>
</g>
<!-- n36&#45;&gt;n35 -->
<g id="edge35" class="edge"><title>n36&#45;&gt;n35</title>
<path fill="none" stroke="black" d="M242,-3920.37C242,-3911.93 242,-3902.83 242,-3894.01"/>
<polygon fill="black" stroke="black" points="245.5,-3893.84 242,-3883.84 238.5,-3893.84 245.5,-3893.84"/>
</g>
<!-- n37 -->
<g id="node37" class="node"><title>n37</title>
<g id="a_node37"><a xlink:title="[[string &quot;input = nn.Identity()()...&quot;]]:21_">
<ellipse fill="none" stroke="black" cx="242" cy="-4070" rx="171.241" ry="37.4533"/>
<text text-anchor="middle" x="242" y="-4081.3" font-family="Times,serif" font-size="14.00">Node37</text>
<text text-anchor="start" x="128.5" y="-4066.3" font-family="Times,serif" font-size="14.00">module = nn.SpatialMaxPooling(2,2,2,2)</text>
<text text-anchor="middle" x="242" y="-4051.3" font-family="Times,serif" font-size="14.00">reverseMap = {}</text>
</a>
</g>
</g>
<!-- n37&#45;&gt;n36 -->
<g id="edge36" class="edge"><title>n37&#45;&gt;n36</title>
<path fill="none" stroke="black" d="M242,-4032.37C242,-4023.93 242,-4014.83 242,-4006.01"/>
<polygon fill="black" stroke="black" points="245.5,-4005.84 242,-3995.84 238.5,-4005.84 245.5,-4005.84"/>
</g>
<!-- n38 -->
<g id="node38" class="node"><title>n38</title>
<g id="a_node38"><a xlink:title="[[string &quot;input = nn.Identity()()...&quot;]]:21_">
<ellipse fill="none" stroke="black" cx="242" cy="-4182" rx="87.5215" ry="37.4533"/>
<text text-anchor="middle" x="242" y="-4193.3" font-family="Times,serif" font-size="14.00">Node38</text>
<text text-anchor="start" x="188" y="-4178.3" font-family="Times,serif" font-size="14.00">module = nn.ReLU</text>
<text text-anchor="middle" x="242" y="-4163.3" font-family="Times,serif" font-size="14.00">reverseMap = {}</text>
</a>
</g>
</g>
<!-- n38&#45;&gt;n37 -->
<g id="edge37" class="edge"><title>n38&#45;&gt;n37</title>
<path fill="none" stroke="black" d="M242,-4144.37C242,-4135.93 242,-4126.83 242,-4118.01"/>
<polygon fill="black" stroke="black" points="245.5,-4117.84 242,-4107.84 238.5,-4117.84 245.5,-4117.84"/>
</g>
<!-- n39 -->
<g id="node39" class="node"><title>n39</title>
<g id="a_node39"><a xlink:title="[[string &quot;input = nn.Identity()()...&quot;]]:20_">
<ellipse fill="none" stroke="black" cx="242" cy="-4294" rx="232.457" ry="37.4533"/>
<text text-anchor="middle" x="242" y="-4305.3" font-family="Times,serif" font-size="14.00">Node39</text>
<text text-anchor="start" x="85.5" y="-4290.3" font-family="Times,serif" font-size="14.00">module = nn.SpatialConvolution(64 &#45;&gt; 64, 3x3, 1,1, 1,1)</text>
<text text-anchor="middle" x="242" y="-4275.3" font-family="Times,serif" font-size="14.00">reverseMap = {}</text>
</a>
</g>
</g>
<!-- n39&#45;&gt;n38 -->
<g id="edge38" class="edge"><title>n39&#45;&gt;n38</title>
<path fill="none" stroke="black" d="M242,-4256.37C242,-4247.93 242,-4238.83 242,-4230.01"/>
<polygon fill="black" stroke="black" points="245.5,-4229.84 242,-4219.84 238.5,-4229.84 245.5,-4229.84"/>
</g>
<!-- n40 -->
<g id="node40" class="node"><title>n40</title>
<g id="a_node40"><a xlink:title="[[string &quot;input = nn.Identity()()...&quot;]]:20_">
<ellipse fill="none" stroke="black" cx="242" cy="-4406" rx="87.5215" ry="37.4533"/>
<text text-anchor="middle" x="242" y="-4417.3" font-family="Times,serif" font-size="14.00">Node40</text>
<text text-anchor="start" x="188" y="-4402.3" font-family="Times,serif" font-size="14.00">module = nn.ReLU</text>
<text text-anchor="middle" x="242" y="-4387.3" font-family="Times,serif" font-size="14.00">reverseMap = {}</text>
</a>
</g>
</g>
<!-- n40&#45;&gt;n39 -->
<g id="edge39" class="edge"><title>n40&#45;&gt;n39</title>
<path fill="none" stroke="black" d="M242,-4368.37C242,-4359.93 242,-4350.83 242,-4342.01"/>
<polygon fill="black" stroke="black" points="245.5,-4341.84 242,-4331.84 238.5,-4341.84 245.5,-4341.84"/>
</g>
<!-- n41 -->
<g id="node41" class="node"><title>n41</title>
<g id="a_node41"><a xlink:title="[[string &quot;input = nn.Identity()()...&quot;]]:19_">
<ellipse fill="none" stroke="black" cx="242" cy="-4518" rx="228.093" ry="37.4533"/>
<text text-anchor="middle" x="242" y="-4529.3" font-family="Times,serif" font-size="14.00">Node41</text>
<text text-anchor="start" x="88.5" y="-4514.3" font-family="Times,serif" font-size="14.00">module = nn.SpatialConvolution(3 &#45;&gt; 64, 3x3, 1,1, 1,1)</text>
<text text-anchor="middle" x="242" y="-4499.3" font-family="Times,serif" font-size="14.00">reverseMap = {}</text>
</a>
</g>
</g>
<!-- n41&#45;&gt;n40 -->
<g id="edge40" class="edge"><title>n41&#45;&gt;n40</title>
<path fill="none" stroke="black" d="M242,-4480.37C242,-4471.93 242,-4462.83 242,-4454.01"/>
<polygon fill="black" stroke="black" points="245.5,-4453.84 242,-4443.84 238.5,-4453.84 245.5,-4453.84"/>
</g>
<!-- n42 -->
<g id="node42" class="node"><title>n42</title>
<g id="a_node42"><a xlink:title="[[string &quot;input = nn.Identity()()...&quot;]]:1_">
<ellipse fill="none" stroke="black" cx="242" cy="-4630" rx="94.0678" ry="37.4533"/>
<text text-anchor="middle" x="242" y="-4641.3" font-family="Times,serif" font-size="14.00">Node42</text>
<text text-anchor="start" x="183.5" y="-4626.3" font-family="Times,serif" font-size="14.00">module = nn.Identity</text>
<text text-anchor="middle" x="242" y="-4611.3" font-family="Times,serif" font-size="14.00">reverseMap = {}</text>
</a>
</g>
</g>
<!-- n42&#45;&gt;n41 -->
<g id="edge41" class="edge"><title>n42&#45;&gt;n41</title>
<path fill="none" stroke="black" d="M242,-4592.37C242,-4583.93 242,-4574.83 242,-4566.01"/>
<polygon fill="black" stroke="black" points="245.5,-4565.84 242,-4555.84 238.5,-4565.84 245.5,-4565.84"/>
</g>
<!-- n43 -->
<g id="node43" class="node"><title>n43</title>
<g id="a_node43"><a xlink:title="[[C]]:&#45;1_">
<ellipse fill="none" stroke="black" cx="242" cy="-4742" rx="77.1743" ry="37.4533"/>
<text text-anchor="middle" x="242" y="-4753.3" font-family="Times,serif" font-size="14.00">Node43</text>
<text text-anchor="start" x="195" y="-4738.3" font-family="Times,serif" font-size="14.00">input = {}</text>
<text text-anchor="middle" x="242" y="-4723.3" font-family="Times,serif" font-size="14.00">reverseMap = {}</text>
</a>
</g>
</g>
<!-- n43&#45;&gt;n42 -->
<g id="edge42" class="edge"><title>n43&#45;&gt;n42</title>
<path fill="none" stroke="black" d="M242,-4704.37C242,-4695.93 242,-4686.83 242,-4678.01"/>
<polygon fill="black" stroke="black" points="245.5,-4677.84 242,-4667.84 238.5,-4677.84 245.5,-4677.84"/>
</g>
</g>
</svg>
