<?xml version="1.0" encoding="UTF-8" standalone="no"?>
<!DOCTYPE svg PUBLIC "-//W3C//DTD SVG 1.1//EN"
 "http://www.w3.org/Graphics/SVG/1.1/DTD/svg11.dtd">
<!-- Generated by graphviz version 2.36.0 (20140111.2315)
 -->
<!-- Title: G Pages: 1 -->
<svg width="1187pt" height="4438pt"
 viewBox="0.00 0.00 1187.34 4438.00" xmlns="http://www.w3.org/2000/svg" xmlns:xlink="http://www.w3.org/1999/xlink">
<g id="graph0" class="graph" transform="scale(1 1) rotate(0) translate(4 4434)">
<title>G</title>
<polygon fill="white" stroke="none" points="-4,4 -4,-4434 1183.34,-4434 1183.34,4 -4,4"/>
<!-- n1 -->
<g id="node1" class="node"><title>n1</title>
<g id="a_node1"><a xlink:title="[[C]]:&#45;1_">
<ellipse fill="none" stroke="black" cx="323.341" cy="-4392" rx="77.1743" ry="37.4533"/>
<text text-anchor="middle" x="323.341" y="-4403.3" font-family="Times,serif" font-size="14.00">Node1</text>
<text text-anchor="start" x="276.341" y="-4388.3" font-family="Times,serif" font-size="14.00">input = {}</text>
<text text-anchor="middle" x="323.341" y="-4373.3" font-family="Times,serif" font-size="14.00">reverseMap = {}</text>
</a>
</g>
</g>
<!-- n2 -->
<g id="node2" class="node"><title>n2</title>
<g id="a_node2"><a xlink:title="[./Net4.lua]:111_">
<ellipse fill="none" stroke="purple" cx="323.341" cy="-4270" rx="149.36" ry="48.1667"/>
<text text-anchor="middle" x="323.341" y="-4288.8" font-family="Times,serif" font-size="14.00">Final Layer (2)</text>
<text text-anchor="middle" x="323.341" y="-4273.8" font-family="Times,serif" font-size="14.00">desc = Final output. Using Sigmoid</text>
<text text-anchor="start" x="225.341" y="-4258.8" font-family="Times,serif" font-size="14.00">module = nn.Tanh</text>
<text text-anchor="middle" x="323.341" y="-4243.8" font-family="Times,serif" font-size="14.00">reverseMap = {}</text>
</a>
</g>
</g>
<!-- n1&#45;&gt;n2 -->
<g id="edge1" class="edge"><title>n1&#45;&gt;n2</title>
<path fill="none" stroke="black" d="M323.341,-4354.34C323.341,-4346.22 323.341,-4337.42 323.341,-4328.68"/>
<polygon fill="black" stroke="black" points="326.841,-4328.5 323.341,-4318.5 319.841,-4328.5 326.841,-4328.5"/>
</g>
<!-- n3 -->
<g id="node3" class="node"><title>n3</title>
<g id="a_node3"><a xlink:title="[./Net4.lua]:111_">
<ellipse fill="none" stroke="black" cx="323.341" cy="-4148" rx="232.457" ry="37.4533"/>
<text text-anchor="middle" x="323.341" y="-4159.3" font-family="Times,serif" font-size="14.00">Node3</text>
<text text-anchor="start" x="166.841" y="-4144.3" font-family="Times,serif" font-size="14.00">module = nn.SpatialConvolution(128 &#45;&gt; 2, 3x3, 1,1, 1,1)</text>
<text text-anchor="middle" x="323.341" y="-4129.3" font-family="Times,serif" font-size="14.00">reverseMap = {}</text>
</a>
</g>
</g>
<!-- n2&#45;&gt;n3 -->
<g id="edge2" class="edge"><title>n2&#45;&gt;n3</title>
<path fill="none" stroke="black" d="M323.341,-4221.57C323.341,-4213.1 323.341,-4204.27 323.341,-4195.81"/>
<polygon fill="black" stroke="black" points="326.841,-4195.72 323.341,-4185.72 319.841,-4195.72 326.841,-4195.72"/>
</g>
<!-- n4 -->
<g id="node4" class="node"><title>n4</title>
<g id="a_node4"><a xlink:title="[./Net4.lua]:109_">
<ellipse fill="none" stroke="black" cx="323.341" cy="-4036" rx="171.241" ry="37.4533"/>
<text text-anchor="middle" x="323.341" y="-4047.3" font-family="Times,serif" font-size="14.00">Node4</text>
<text text-anchor="start" x="209.841" y="-4032.3" font-family="Times,serif" font-size="14.00">module = nn.SpatialMaxPooling(2,2,2,2)</text>
<text text-anchor="middle" x="323.341" y="-4017.3" font-family="Times,serif" font-size="14.00">reverseMap = {}</text>
</a>
</g>
</g>
<!-- n3&#45;&gt;n4 -->
<g id="edge3" class="edge"><title>n3&#45;&gt;n4</title>
<path fill="none" stroke="black" d="M323.341,-4110.37C323.341,-4101.93 323.341,-4092.83 323.341,-4084.01"/>
<polygon fill="black" stroke="black" points="326.841,-4083.84 323.341,-4073.84 319.841,-4083.84 326.841,-4083.84"/>
</g>
<!-- n5 -->
<g id="node5" class="node"><title>n5</title>
<g id="a_node5"><a xlink:title="[./Net4.lua]:109_">
<ellipse fill="none" stroke="black" cx="323.341" cy="-3924" rx="87.5215" ry="37.4533"/>
<text text-anchor="middle" x="323.341" y="-3935.3" font-family="Times,serif" font-size="14.00">Node5</text>
<text text-anchor="start" x="269.341" y="-3920.3" font-family="Times,serif" font-size="14.00">module = nn.ReLU</text>
<text text-anchor="middle" x="323.341" y="-3905.3" font-family="Times,serif" font-size="14.00">reverseMap = {}</text>
</a>
</g>
</g>
<!-- n4&#45;&gt;n5 -->
<g id="edge4" class="edge"><title>n4&#45;&gt;n5</title>
<path fill="none" stroke="black" d="M323.341,-3998.37C323.341,-3989.93 323.341,-3980.83 323.341,-3972.01"/>
<polygon fill="black" stroke="black" points="326.841,-3971.84 323.341,-3961.84 319.841,-3971.84 326.841,-3971.84"/>
</g>
<!-- n6 -->
<g id="node6" class="node"><title>n6</title>
<g id="a_node6"><a xlink:title="[./Net4.lua]:107_">
<ellipse fill="none" stroke="black" cx="323.341" cy="-3812" rx="168.498" ry="37.4533"/>
<text text-anchor="middle" x="323.341" y="-3823.3" font-family="Times,serif" font-size="14.00">Node6</text>
<text text-anchor="start" x="211.841" y="-3808.3" font-family="Times,serif" font-size="14.00">module = nn.SpatialBatchNormalization</text>
<text text-anchor="middle" x="323.341" y="-3793.3" font-family="Times,serif" font-size="14.00">reverseMap = {}</text>
</a>
</g>
</g>
<!-- n5&#45;&gt;n6 -->
<g id="edge5" class="edge"><title>n5&#45;&gt;n6</title>
<path fill="none" stroke="black" d="M323.341,-3886.37C323.341,-3877.93 323.341,-3868.83 323.341,-3860.01"/>
<polygon fill="black" stroke="black" points="326.841,-3859.84 323.341,-3849.84 319.841,-3859.84 326.841,-3859.84"/>
</g>
<!-- n7 -->
<g id="node7" class="node"><title>n7</title>
<g id="a_node7"><a xlink:title="[./Net4.lua]:107_">
<ellipse fill="none" stroke="black" cx="323.341" cy="-3700" rx="237.382" ry="37.4533"/>
<text text-anchor="middle" x="323.341" y="-3711.3" font-family="Times,serif" font-size="14.00">Node7</text>
<text text-anchor="start" x="163.341" y="-3696.3" font-family="Times,serif" font-size="14.00">module = nn.SpatialConvolution(64 &#45;&gt; 128, 3x3, 1,1, 1,1)</text>
<text text-anchor="middle" x="323.341" y="-3681.3" font-family="Times,serif" font-size="14.00">reverseMap = {}</text>
</a>
</g>
</g>
<!-- n6&#45;&gt;n7 -->
<g id="edge6" class="edge"><title>n6&#45;&gt;n7</title>
<path fill="none" stroke="black" d="M323.341,-3774.37C323.341,-3765.93 323.341,-3756.83 323.341,-3748.01"/>
<polygon fill="black" stroke="black" points="326.841,-3747.84 323.341,-3737.84 319.841,-3747.84 326.841,-3747.84"/>
</g>
<!-- n8 -->
<g id="node8" class="node"><title>n8</title>
<g id="a_node8"><a xlink:title="[./Net4.lua]:105_">
<ellipse fill="none" stroke="black" cx="323.341" cy="-3588" rx="171.241" ry="37.4533"/>
<text text-anchor="middle" x="323.341" y="-3599.3" font-family="Times,serif" font-size="14.00">Node8</text>
<text text-anchor="start" x="209.841" y="-3584.3" font-family="Times,serif" font-size="14.00">module = nn.SpatialMaxPooling(2,2,2,2)</text>
<text text-anchor="middle" x="323.341" y="-3569.3" font-family="Times,serif" font-size="14.00">reverseMap = {}</text>
</a>
</g>
</g>
<!-- n7&#45;&gt;n8 -->
<g id="edge7" class="edge"><title>n7&#45;&gt;n8</title>
<path fill="none" stroke="black" d="M323.341,-3662.37C323.341,-3653.93 323.341,-3644.83 323.341,-3636.01"/>
<polygon fill="black" stroke="black" points="326.841,-3635.84 323.341,-3625.84 319.841,-3635.84 326.841,-3635.84"/>
</g>
<!-- n9 -->
<g id="node9" class="node"><title>n9</title>
<g id="a_node9"><a xlink:title="[./Net4.lua]:105_">
<ellipse fill="none" stroke="black" cx="323.341" cy="-3476" rx="87.5215" ry="37.4533"/>
<text text-anchor="middle" x="323.341" y="-3487.3" font-family="Times,serif" font-size="14.00">Node9</text>
<text text-anchor="start" x="269.341" y="-3472.3" font-family="Times,serif" font-size="14.00">module = nn.ReLU</text>
<text text-anchor="middle" x="323.341" y="-3457.3" font-family="Times,serif" font-size="14.00">reverseMap = {}</text>
</a>
</g>
</g>
<!-- n8&#45;&gt;n9 -->
<g id="edge8" class="edge"><title>n8&#45;&gt;n9</title>
<path fill="none" stroke="black" d="M323.341,-3550.37C323.341,-3541.93 323.341,-3532.83 323.341,-3524.01"/>
<polygon fill="black" stroke="black" points="326.841,-3523.84 323.341,-3513.84 319.841,-3523.84 326.841,-3523.84"/>
</g>
<!-- n10 -->
<g id="node10" class="node"><title>n10</title>
<g id="a_node10"><a xlink:title="[./Net4.lua]:104_">
<ellipse fill="none" stroke="black" cx="323.341" cy="-3364" rx="168.498" ry="37.4533"/>
<text text-anchor="middle" x="323.341" y="-3375.3" font-family="Times,serif" font-size="14.00">Node10</text>
<text text-anchor="start" x="211.841" y="-3360.3" font-family="Times,serif" font-size="14.00">module = nn.SpatialBatchNormalization</text>
<text text-anchor="middle" x="323.341" y="-3345.3" font-family="Times,serif" font-size="14.00">reverseMap = {}</text>
</a>
</g>
</g>
<!-- n9&#45;&gt;n10 -->
<g id="edge9" class="edge"><title>n9&#45;&gt;n10</title>
<path fill="none" stroke="black" d="M323.341,-3438.37C323.341,-3429.93 323.341,-3420.83 323.341,-3412.01"/>
<polygon fill="black" stroke="black" points="326.841,-3411.84 323.341,-3401.84 319.841,-3411.84 326.841,-3411.84"/>
</g>
<!-- n11 -->
<g id="node11" class="node"><title>n11</title>
<g id="a_node11"><a xlink:title="[./Net4.lua]:104_">
<ellipse fill="none" stroke="black" cx="323.341" cy="-3252" rx="237.382" ry="37.4533"/>
<text text-anchor="middle" x="323.341" y="-3263.3" font-family="Times,serif" font-size="14.00">Node11</text>
<text text-anchor="start" x="163.341" y="-3248.3" font-family="Times,serif" font-size="14.00">module = nn.SpatialConvolution(195 &#45;&gt; 64, 3x3, 1,1, 1,1)</text>
<text text-anchor="middle" x="323.341" y="-3233.3" font-family="Times,serif" font-size="14.00">reverseMap = {}</text>
</a>
</g>
</g>
<!-- n10&#45;&gt;n11 -->
<g id="edge10" class="edge"><title>n10&#45;&gt;n11</title>
<path fill="none" stroke="black" d="M323.341,-3326.37C323.341,-3317.93 323.341,-3308.83 323.341,-3300.01"/>
<polygon fill="black" stroke="black" points="326.841,-3299.84 323.341,-3289.84 319.841,-3299.84 326.841,-3299.84"/>
</g>
<!-- n12 -->
<g id="node12" class="node"><title>n12</title>
<g id="a_node12"><a xlink:title="[./Net4.lua]:93_">
<ellipse fill="none" stroke="grey" cx="323.341" cy="-3119" rx="258.202" ry="58.8803"/>
<text text-anchor="middle" x="323.341" y="-3145.3" font-family="Times,serif" font-size="14.00">Joining layer. Fuck yeah! (12)</text>
<text text-anchor="middle" x="323.341" y="-3130.3" font-family="Times,serif" font-size="14.00">desc = Joining input, level1, deconved_level3, deconved_level6</text>
<text text-anchor="start" x="148.341" y="-3115.3" font-family="Times,serif" font-size="14.00">module = nn.JoinTable</text>
<text text-anchor="start" x="148.341" y="-3100.3" font-family="Times,serif" font-size="14.00">reverseMap = {}</text>
<text text-anchor="middle" x="323.341" y="-3085.3" font-family="Times,serif" font-size="14.00">mapindex = {Node13,Node14,Node15,Node16,Node17}</text>
</a>
</g>
</g>
<!-- n11&#45;&gt;n12 -->
<g id="edge11" class="edge"><title>n11&#45;&gt;n12</title>
<path fill="none" stroke="black" d="M323.341,-3214.51C323.341,-3206.26 323.341,-3197.24 323.341,-3188.15"/>
<polygon fill="black" stroke="black" points="326.841,-3187.9 323.341,-3177.9 319.841,-3187.9 326.841,-3187.9"/>
</g>
<!-- n13 -->
<g id="node13" class="node"><title>n13</title>
<g id="a_node13"><a xlink:title="[./Net4.lua]:11_">
<ellipse fill="none" stroke="green" cx="132.341" cy="-160" rx="98.4924" ry="48.1667"/>
<text text-anchor="middle" x="132.341" y="-178.8" font-family="Times,serif" font-size="14.00">Conv Layer 1 (13)</text>
<text text-anchor="middle" x="132.341" y="-163.8" font-family="Times,serif" font-size="14.00">desc = Image Features</text>
<text text-anchor="start" x="70.3407" y="-148.8" font-family="Times,serif" font-size="14.00">module = nn.Identity</text>
<text text-anchor="middle" x="132.341" y="-133.8" font-family="Times,serif" font-size="14.00">reverseMap = {}</text>
</a>
</g>
</g>
<!-- n12&#45;&gt;n13 -->
<g id="edge12" class="edge"><title>n12&#45;&gt;n13</title>
<path fill="none" stroke="black" d="M142.426,-3076.91C113.183,-3063.84 85.3358,-3046.63 63.3407,-3024 4.96015,-2963.93 4.34075,-2928.77 4.34075,-2845 4.34075,-2845 4.34075,-2845 4.34075,-413 4.34075,-337.365 -13.0222,-309.762 24.3407,-244 33.2607,-228.3 46.4682,-214.581 60.6119,-203.059"/>
<polygon fill="black" stroke="black" points="62.8027,-205.789 68.5445,-196.885 58.5032,-200.265 62.8027,-205.789"/>
</g>
<!-- n14 -->
<g id="node14" class="node"><title>n14</title>
<g id="a_node14"><a xlink:title="[./Net4.lua]:36_">
<ellipse fill="none" stroke="blue" cx="265.341" cy="-536" rx="232.457" ry="48.1667"/>
<text text-anchor="middle" x="265.341" y="-554.8" font-family="Times,serif" font-size="14.00">Conv Layer 2 (14)</text>
<text text-anchor="middle" x="265.341" y="-539.8" font-family="Times,serif" font-size="14.00">desc = Image Features</text>
<text text-anchor="start" x="108.841" y="-524.8" font-family="Times,serif" font-size="14.00">module = nn.SpatialConvolution(64 &#45;&gt; 64, 3x3, 1,1, 1,1)</text>
<text text-anchor="middle" x="265.341" y="-509.8" font-family="Times,serif" font-size="14.00">reverseMap = {}</text>
</a>
</g>
</g>
<!-- n12&#45;&gt;n14 -->
<g id="edge13" class="edge"><title>n12&#45;&gt;n14</title>
<path fill="none" stroke="black" d="M213.492,-3065.81C134.679,-3019.9 42.3407,-2944.81 42.3407,-2845 42.3407,-2845 42.3407,-2845 42.3407,-769 42.3407,-689.364 111.481,-626.482 172.765,-586.388"/>
<polygon fill="black" stroke="black" points="174.822,-589.226 181.352,-580.883 171.044,-583.334 174.822,-589.226"/>
</g>
<!-- n15 -->
<g id="node15" class="node"><title>n15</title>
<g id="a_node15"><a xlink:title="[./Net4.lua]:79_">
<ellipse fill="none" stroke="yellow" cx="323.341" cy="-2844" rx="253.216" ry="48.1667"/>
<text text-anchor="middle" x="323.341" y="-2862.8" font-family="Times,serif" font-size="14.00">Deconving level 3 (15)</text>
<text text-anchor="middle" x="323.341" y="-2847.8" font-family="Times,serif" font-size="14.00">desc = To increase the dimension</text>
<text text-anchor="start" x="152.341" y="-2832.8" font-family="Times,serif" font-size="14.00">module = nn.SpatialFullConvolution(128 &#45;&gt; 32, 1x1, 2,2, 1,1)</text>
<text text-anchor="middle" x="323.341" y="-2817.8" font-family="Times,serif" font-size="14.00">reverseMap = {}</text>
</a>
</g>
</g>
<!-- n12&#45;&gt;n15 -->
<g id="edge14" class="edge"><title>n12&#45;&gt;n15</title>
<path fill="none" stroke="black" d="M323.341,-3060.1C323.341,-3013.69 323.341,-2948.87 323.341,-2902.55"/>
<polygon fill="black" stroke="black" points="326.841,-2902.37 323.341,-2892.37 319.841,-2902.37 326.841,-2902.37"/>
</g>
<!-- n16 -->
<g id="node16" class="node"><title>n16</title>
<g id="a_node16"><a xlink:title="[./Net4.lua]:83_">
<ellipse fill="none" stroke="yellow" cx="599.341" cy="-2712" rx="253.216" ry="48.1667"/>
<text text-anchor="middle" x="599.341" y="-2730.8" font-family="Times,serif" font-size="14.00">Deconving level 6 (16)</text>
<text text-anchor="middle" x="599.341" y="-2715.8" font-family="Times,serif" font-size="14.00">desc = To increase the dimension</text>
<text text-anchor="start" x="428.341" y="-2700.8" font-family="Times,serif" font-size="14.00">module = nn.SpatialFullConvolution(256 &#45;&gt; 32, 2x2, 4,4, 2,2)</text>
<text text-anchor="middle" x="599.341" y="-2685.8" font-family="Times,serif" font-size="14.00">reverseMap = {}</text>
</a>
</g>
</g>
<!-- n12&#45;&gt;n16 -->
<g id="edge15" class="edge"><title>n12&#45;&gt;n16</title>
<path fill="none" stroke="black" d="M416.781,-3064.28C476.019,-3024.77 548.244,-2965.29 585.341,-2892 604.319,-2854.5 607.191,-2806.85 605.657,-2770.15"/>
<polygon fill="black" stroke="black" points="609.149,-2769.9 605.117,-2760.1 602.159,-2770.27 609.149,-2769.9"/>
</g>
<!-- n17 -->
<g id="node17" class="node"><title>n17</title>
<g id="a_node17"><a xlink:title="[./Net4.lua]:88_">
<ellipse fill="none" stroke="yellow" cx="919.341" cy="-2976" rx="253.216" ry="48.1667"/>
<text text-anchor="middle" x="919.341" y="-2994.8" font-family="Times,serif" font-size="14.00">Deconving level 6 (17)</text>
<text text-anchor="middle" x="919.341" y="-2979.8" font-family="Times,serif" font-size="14.00">desc = To increase the dimension</text>
<text text-anchor="start" x="748.341" y="-2964.8" font-family="Times,serif" font-size="14.00">module = nn.SpatialFullConvolution(512 &#45;&gt; 64, 4x4, 8,8, 4,4)</text>
<text text-anchor="middle" x="919.341" y="-2949.8" font-family="Times,serif" font-size="14.00">reverseMap = {}</text>
</a>
</g>
</g>
<!-- n12&#45;&gt;n17 -->
<g id="edge16" class="edge"><title>n12&#45;&gt;n17</title>
<path fill="none" stroke="black" d="M500.144,-3076.17C580.284,-3057.21 674.52,-3034.92 753.325,-3016.28"/>
<polygon fill="black" stroke="black" points="754.423,-3019.61 763.349,-3013.9 752.812,-3012.8 754.423,-3019.61"/>
</g>
<!-- n18 -->
<g id="node18" class="node"><title>n18</title>
<g id="a_node18"><a xlink:title="[[C]]:&#45;1_">
<ellipse fill="none" stroke="black" cx="132.341" cy="-38" rx="77.1743" ry="37.4533"/>
<text text-anchor="middle" x="132.341" y="-49.3" font-family="Times,serif" font-size="14.00">Node18</text>
<text text-anchor="start" x="85.3407" y="-34.3" font-family="Times,serif" font-size="14.00">input = {}</text>
<text text-anchor="middle" x="132.341" y="-19.3" font-family="Times,serif" font-size="14.00">reverseMap = {}</text>
</a>
</g>
</g>
<!-- n13&#45;&gt;n18 -->
<g id="edge17" class="edge"><title>n13&#45;&gt;n18</title>
<path fill="none" stroke="black" d="M132.341,-111.573C132.341,-103.096 132.341,-94.269 132.341,-85.8099"/>
<polygon fill="black" stroke="black" points="135.841,-85.7224 132.341,-75.7224 128.841,-85.7224 135.841,-85.7224"/>
</g>
<!-- n19 -->
<g id="node19" class="node"><title>n19</title>
<g id="a_node19"><a xlink:title="[./Net4.lua]:36_">
<ellipse fill="none" stroke="black" cx="263.341" cy="-414" rx="87.5215" ry="37.4533"/>
<text text-anchor="middle" x="263.341" y="-425.3" font-family="Times,serif" font-size="14.00">Node19</text>
<text text-anchor="start" x="209.341" y="-410.3" font-family="Times,serif" font-size="14.00">module = nn.ReLU</text>
<text text-anchor="middle" x="263.341" y="-395.3" font-family="Times,serif" font-size="14.00">reverseMap = {}</text>
</a>
</g>
</g>
<!-- n14&#45;&gt;n19 -->
<g id="edge18" class="edge"><title>n14&#45;&gt;n19</title>
<path fill="none" stroke="black" d="M264.55,-487.573C264.409,-479.096 264.262,-470.269 264.121,-461.81"/>
<polygon fill="black" stroke="black" points="267.619,-461.663 263.953,-451.722 260.62,-461.779 267.619,-461.663"/>
</g>
<!-- n20 -->
<g id="node20" class="node"><title>n20</title>
<g id="a_node20"><a xlink:title="[./Net4.lua]:44_">
<ellipse fill="none" stroke="blue" cx="318.341" cy="-1136" rx="242.306" ry="48.1667"/>
<text text-anchor="middle" x="318.341" y="-1154.8" font-family="Times,serif" font-size="14.00">Conv Layer 3 (20)</text>
<text text-anchor="middle" x="318.341" y="-1139.8" font-family="Times,serif" font-size="14.00">desc = Image Features</text>
<text text-anchor="start" x="154.841" y="-1124.8" font-family="Times,serif" font-size="14.00">module = nn.SpatialConvolution(128 &#45;&gt; 128, 3x3, 1,1, 1,1)</text>
<text text-anchor="middle" x="318.341" y="-1109.8" font-family="Times,serif" font-size="14.00">reverseMap = {}</text>
</a>
</g>
</g>
<!-- n15&#45;&gt;n20 -->
<g id="edge19" class="edge"><title>n15&#45;&gt;n20</title>
<path fill="none" stroke="black" d="M321.895,-2795.67C320.418,-2743.21 318.341,-2656.07 318.341,-2581 318.341,-2581 318.341,-2581 318.341,-1369 318.341,-1309.46 318.341,-1241.33 318.341,-1194.38"/>
<polygon fill="black" stroke="black" points="321.841,-1194.1 318.341,-1184.1 314.841,-1194.1 321.841,-1194.1"/>
</g>
<!-- n21 -->
<g id="node21" class="node"><title>n21</title>
<g id="a_node21"><a xlink:title="[./Net4.lua]:56_">
<ellipse fill="none" stroke="blue" cx="599.341" cy="-1980" rx="242.306" ry="48.1667"/>
<text text-anchor="middle" x="599.341" y="-1998.8" font-family="Times,serif" font-size="14.00">Conv Layer 3 (21)</text>
<text text-anchor="middle" x="599.341" y="-1983.8" font-family="Times,serif" font-size="14.00">desc = Image Features</text>
<text text-anchor="start" x="435.841" y="-1968.8" font-family="Times,serif" font-size="14.00">module = nn.SpatialConvolution(256 &#45;&gt; 256, 3x3, 1,1, 1,1)</text>
<text text-anchor="middle" x="599.341" y="-1953.8" font-family="Times,serif" font-size="14.00">reverseMap = {}</text>
</a>
</g>
</g>
<!-- n16&#45;&gt;n21 -->
<g id="edge20" class="edge"><title>n16&#45;&gt;n21</title>
<path fill="none" stroke="black" d="M599.341,-2663.63C599.341,-2612.98 599.341,-2530.31 599.341,-2459 599.341,-2459 599.341,-2459 599.341,-2213 599.341,-2153.46 599.341,-2085.33 599.341,-2038.38"/>
<polygon fill="black" stroke="black" points="602.841,-2038.1 599.341,-2028.1 595.841,-2038.1 602.841,-2038.1"/>
</g>
<!-- n22 -->
<g id="node22" class="node"><title>n22</title>
<g id="a_node22"><a xlink:title="[./Net4.lua]:70_">
<ellipse fill="none" stroke="blue" cx="936.341" cy="-2844" rx="242.306" ry="48.1667"/>
<text text-anchor="middle" x="936.341" y="-2862.8" font-family="Times,serif" font-size="14.00">Conv Layer 4 (22)</text>
<text text-anchor="middle" x="936.341" y="-2847.8" font-family="Times,serif" font-size="14.00">desc = Image Features</text>
<text text-anchor="start" x="772.841" y="-2832.8" font-family="Times,serif" font-size="14.00">module = nn.SpatialConvolution(512 &#45;&gt; 512, 3x3, 1,1, 1,1)</text>
<text text-anchor="middle" x="936.341" y="-2817.8" font-family="Times,serif" font-size="14.00">reverseMap = {}</text>
</a>
</g>
</g>
<!-- n17&#45;&gt;n22 -->
<g id="edge21" class="edge"><title>n17&#45;&gt;n22</title>
<path fill="none" stroke="black" d="M925.526,-2927.7C926.593,-2919.54 927.712,-2910.99 928.809,-2902.6"/>
<polygon fill="black" stroke="black" points="932.305,-2902.85 930.131,-2892.48 925.364,-2901.95 932.305,-2902.85"/>
</g>
<!-- n23 -->
<g id="node23" class="node"><title>n23</title>
<g id="a_node23"><a xlink:title="[./Net4.lua]:32_">
<ellipse fill="none" stroke="red" cx="261.341" cy="-292" rx="228.093" ry="48.1667"/>
<text text-anchor="middle" x="261.341" y="-310.8" font-family="Times,serif" font-size="14.00">Conv Layer 1 (23)</text>
<text text-anchor="middle" x="261.341" y="-295.8" font-family="Times,serif" font-size="14.00">desc = Image Features</text>
<text text-anchor="start" x="107.841" y="-280.8" font-family="Times,serif" font-size="14.00">module = nn.SpatialConvolution(3 &#45;&gt; 64, 3x3, 1,1, 1,1)</text>
<text text-anchor="middle" x="261.341" y="-265.8" font-family="Times,serif" font-size="14.00">reverseMap = {}</text>
</a>
</g>
</g>
<!-- n19&#45;&gt;n23 -->
<g id="edge22" class="edge"><title>n19&#45;&gt;n23</title>
<path fill="none" stroke="black" d="M262.73,-376.344C262.594,-368.219 262.448,-359.418 262.302,-350.683"/>
<polygon fill="black" stroke="black" points="265.799,-350.443 262.132,-340.503 258.8,-350.56 265.799,-350.443"/>
</g>
<!-- n24 -->
<g id="node24" class="node"><title>n24</title>
<g id="a_node24"><a xlink:title="[./Net4.lua]:44_">
<ellipse fill="none" stroke="black" cx="315.341" cy="-1014" rx="87.5215" ry="37.4533"/>
<text text-anchor="middle" x="315.341" y="-1025.3" font-family="Times,serif" font-size="14.00">Node24</text>
<text text-anchor="start" x="261.341" y="-1010.3" font-family="Times,serif" font-size="14.00">module = nn.ReLU</text>
<text text-anchor="middle" x="315.341" y="-995.3" font-family="Times,serif" font-size="14.00">reverseMap = {}</text>
</a>
</g>
</g>
<!-- n20&#45;&gt;n24 -->
<g id="edge23" class="edge"><title>n20&#45;&gt;n24</title>
<path fill="none" stroke="black" d="M317.164,-1087.92C316.949,-1079.33 316.725,-1070.37 316.51,-1061.79"/>
<polygon fill="black" stroke="black" points="320.004,-1061.47 316.255,-1051.56 313.006,-1061.64 320.004,-1061.47"/>
</g>
<!-- n25 -->
<g id="node25" class="node"><title>n25</title>
<g id="a_node25"><a xlink:title="[./Net4.lua]:56_">
<ellipse fill="none" stroke="black" cx="596.341" cy="-1858" rx="87.5215" ry="37.4533"/>
<text text-anchor="middle" x="596.341" y="-1869.3" font-family="Times,serif" font-size="14.00">Node25</text>
<text text-anchor="start" x="542.341" y="-1854.3" font-family="Times,serif" font-size="14.00">module = nn.ReLU</text>
<text text-anchor="middle" x="596.341" y="-1839.3" font-family="Times,serif" font-size="14.00">reverseMap = {}</text>
</a>
</g>
</g>
<!-- n21&#45;&gt;n25 -->
<g id="edge24" class="edge"><title>n21&#45;&gt;n25</title>
<path fill="none" stroke="black" d="M598.164,-1931.92C597.949,-1923.33 597.725,-1914.37 597.51,-1905.79"/>
<polygon fill="black" stroke="black" points="601.004,-1905.47 597.255,-1895.56 594.006,-1905.64 601.004,-1905.47"/>
</g>
<!-- n26 -->
<g id="node26" class="node"><title>n26</title>
<g id="a_node26"><a xlink:title="[./Net4.lua]:70_">
<ellipse fill="none" stroke="black" cx="958.341" cy="-2712" rx="87.5215" ry="37.4533"/>
<text text-anchor="middle" x="958.341" y="-2723.3" font-family="Times,serif" font-size="14.00">Node26</text>
<text text-anchor="start" x="904.341" y="-2708.3" font-family="Times,serif" font-size="14.00">module = nn.ReLU</text>
<text text-anchor="middle" x="958.341" y="-2693.3" font-family="Times,serif" font-size="14.00">reverseMap = {}</text>
</a>
</g>
</g>
<!-- n22&#45;&gt;n26 -->
<g id="edge25" class="edge"><title>n22&#45;&gt;n26</title>
<path fill="none" stroke="black" d="M944.345,-2795.7C946.341,-2783.91 948.479,-2771.28 950.468,-2759.52"/>
<polygon fill="black" stroke="black" points="953.952,-2759.91 952.17,-2749.46 947.051,-2758.74 953.952,-2759.91"/>
</g>
<!-- n23&#45;&gt;n13 -->
<g id="edge26" class="edge"><title>n23&#45;&gt;n13</title>
<path fill="none" stroke="black" d="M215.497,-244.801C204.566,-233.785 192.853,-221.982 181.77,-210.812"/>
<polygon fill="black" stroke="black" points="184.119,-208.211 174.591,-203.578 179.151,-213.142 184.119,-208.211"/>
</g>
<!-- n27 -->
<g id="node27" class="node"><title>n27</title>
<g id="a_node27"><a xlink:title="[./Net4.lua]:40_">
<ellipse fill="none" stroke="red" cx="310.341" cy="-892" rx="237.382" ry="48.1667"/>
<text text-anchor="middle" x="310.341" y="-910.8" font-family="Times,serif" font-size="14.00">Conv Layer 3 (27)</text>
<text text-anchor="middle" x="310.341" y="-895.8" font-family="Times,serif" font-size="14.00">desc = Image Features</text>
<text text-anchor="start" x="150.341" y="-880.8" font-family="Times,serif" font-size="14.00">module = nn.SpatialConvolution(64 &#45;&gt; 128, 3x3, 1,1, 1,1)</text>
<text text-anchor="middle" x="310.341" y="-865.8" font-family="Times,serif" font-size="14.00">reverseMap = {}</text>
</a>
</g>
</g>
<!-- n24&#45;&gt;n27 -->
<g id="edge27" class="edge"><title>n24&#45;&gt;n27</title>
<path fill="none" stroke="black" d="M313.813,-976.344C313.475,-968.219 313.108,-959.418 312.744,-950.683"/>
<polygon fill="black" stroke="black" points="316.233,-950.348 312.32,-940.503 309.239,-950.64 316.233,-950.348"/>
</g>
<!-- n28 -->
<g id="node28" class="node"><title>n28</title>
<g id="a_node28"><a xlink:title="[./Net4.lua]:52_">
<ellipse fill="none" stroke="red" cx="591.341" cy="-1736" rx="242.306" ry="48.1667"/>
<text text-anchor="middle" x="591.341" y="-1754.8" font-family="Times,serif" font-size="14.00">Conv Layer 3 (28)</text>
<text text-anchor="middle" x="591.341" y="-1739.8" font-family="Times,serif" font-size="14.00">desc = Image Features</text>
<text text-anchor="start" x="427.841" y="-1724.8" font-family="Times,serif" font-size="14.00">module = nn.SpatialConvolution(256 &#45;&gt; 256, 3x3, 1,1, 1,1)</text>
<text text-anchor="middle" x="591.341" y="-1709.8" font-family="Times,serif" font-size="14.00">reverseMap = {}</text>
</a>
</g>
</g>
<!-- n25&#45;&gt;n28 -->
<g id="edge28" class="edge"><title>n25&#45;&gt;n28</title>
<path fill="none" stroke="black" d="M594.813,-1820.34C594.475,-1812.22 594.108,-1803.42 593.744,-1794.68"/>
<polygon fill="black" stroke="black" points="597.233,-1794.35 593.32,-1784.5 590.239,-1794.64 597.233,-1794.35"/>
</g>
<!-- n29 -->
<g id="node29" class="node"><title>n29</title>
<g id="a_node29"><a xlink:title="[./Net4.lua]:66_">
<ellipse fill="none" stroke="red" cx="914.341" cy="-2580" rx="242.306" ry="48.1667"/>
<text text-anchor="middle" x="914.341" y="-2598.8" font-family="Times,serif" font-size="14.00">Conv Layer 4 (29)</text>
<text text-anchor="middle" x="914.341" y="-2583.8" font-family="Times,serif" font-size="14.00">desc = Image Features</text>
<text text-anchor="start" x="750.841" y="-2568.8" font-family="Times,serif" font-size="14.00">module = nn.SpatialConvolution(512 &#45;&gt; 512, 3x3, 1,1, 1,1)</text>
<text text-anchor="middle" x="914.341" y="-2553.8" font-family="Times,serif" font-size="14.00">reverseMap = {}</text>
</a>
</g>
</g>
<!-- n26&#45;&gt;n29 -->
<g id="edge29" class="edge"><title>n26&#45;&gt;n29</title>
<path fill="none" stroke="black" d="M946.084,-2674.79C942.194,-2663.29 937.794,-2650.29 933.536,-2637.71"/>
<polygon fill="black" stroke="black" points="936.84,-2636.56 930.319,-2628.21 930.21,-2638.8 936.84,-2636.56"/>
</g>
<!-- n30 -->
<g id="node30" class="node"><title>n30</title>
<g id="a_node30"><a xlink:title="[./Net4.lua]:40_">
<ellipse fill="none" stroke="black" cx="298.341" cy="-770" rx="171.241" ry="37.4533"/>
<text text-anchor="middle" x="298.341" y="-781.3" font-family="Times,serif" font-size="14.00">Node30</text>
<text text-anchor="start" x="184.841" y="-766.3" font-family="Times,serif" font-size="14.00">module = nn.SpatialMaxPooling(2,2,2,2)</text>
<text text-anchor="middle" x="298.341" y="-751.3" font-family="Times,serif" font-size="14.00">reverseMap = {}</text>
</a>
</g>
</g>
<!-- n27&#45;&gt;n30 -->
<g id="edge30" class="edge"><title>n27&#45;&gt;n30</title>
<path fill="none" stroke="black" d="M305.632,-843.917C304.774,-835.328 303.878,-826.368 303.019,-817.787"/>
<polygon fill="black" stroke="black" points="306.474,-817.161 301.997,-807.559 299.509,-817.858 306.474,-817.161"/>
</g>
<!-- n31 -->
<g id="node31" class="node"><title>n31</title>
<g id="a_node31"><a xlink:title="[./Net4.lua]:52_">
<ellipse fill="none" stroke="black" cx="590.341" cy="-1614" rx="87.5215" ry="37.4533"/>
<text text-anchor="middle" x="590.341" y="-1625.3" font-family="Times,serif" font-size="14.00">Node31</text>
<text text-anchor="start" x="536.341" y="-1610.3" font-family="Times,serif" font-size="14.00">module = nn.ReLU</text>
<text text-anchor="middle" x="590.341" y="-1595.3" font-family="Times,serif" font-size="14.00">reverseMap = {}</text>
</a>
</g>
</g>
<!-- n28&#45;&gt;n31 -->
<g id="edge31" class="edge"><title>n28&#45;&gt;n31</title>
<path fill="none" stroke="black" d="M590.946,-1687.57C590.875,-1679.1 590.801,-1670.27 590.731,-1661.81"/>
<polygon fill="black" stroke="black" points="594.23,-1661.69 590.647,-1651.72 587.23,-1661.75 594.23,-1661.69"/>
</g>
<!-- n32 -->
<g id="node32" class="node"><title>n32</title>
<g id="a_node32"><a xlink:title="[./Net4.lua]:66_">
<ellipse fill="none" stroke="black" cx="903.341" cy="-2458" rx="87.5215" ry="37.4533"/>
<text text-anchor="middle" x="903.341" y="-2469.3" font-family="Times,serif" font-size="14.00">Node32</text>
<text text-anchor="start" x="849.341" y="-2454.3" font-family="Times,serif" font-size="14.00">module = nn.ReLU</text>
<text text-anchor="middle" x="903.341" y="-2439.3" font-family="Times,serif" font-size="14.00">reverseMap = {}</text>
</a>
</g>
</g>
<!-- n29&#45;&gt;n32 -->
<g id="edge32" class="edge"><title>n29&#45;&gt;n32</title>
<path fill="none" stroke="black" d="M910.025,-2531.92C909.237,-2523.33 908.416,-2514.37 907.63,-2505.79"/>
<polygon fill="black" stroke="black" points="911.09,-2505.2 906.692,-2495.56 904.12,-2505.84 911.09,-2505.2"/>
</g>
<!-- n33 -->
<g id="node33" class="node"><title>n33</title>
<g id="a_node33"><a xlink:title="[./Net4.lua]:40_">
<ellipse fill="none" stroke="black" cx="276.341" cy="-658" rx="87.5215" ry="37.4533"/>
<text text-anchor="middle" x="276.341" y="-669.3" font-family="Times,serif" font-size="14.00">Node33</text>
<text text-anchor="start" x="222.341" y="-654.3" font-family="Times,serif" font-size="14.00">module = nn.ReLU</text>
<text text-anchor="middle" x="276.341" y="-639.3" font-family="Times,serif" font-size="14.00">reverseMap = {}</text>
</a>
</g>
</g>
<!-- n30&#45;&gt;n33 -->
<g id="edge33" class="edge"><title>n30&#45;&gt;n33</title>
<path fill="none" stroke="black" d="M291.015,-732.372C289.29,-723.744 287.428,-714.435 285.629,-705.439"/>
<polygon fill="black" stroke="black" points="289.028,-704.588 283.634,-695.468 282.164,-705.961 289.028,-704.588"/>
</g>
<!-- n34 -->
<g id="node34" class="node"><title>n34</title>
<g id="a_node34"><a xlink:title="[./Net4.lua]:48_">
<ellipse fill="none" stroke="red" cx="589.341" cy="-1492" rx="242.306" ry="48.1667"/>
<text text-anchor="middle" x="589.341" y="-1510.8" font-family="Times,serif" font-size="14.00">Conv Layer 3 (34)</text>
<text text-anchor="middle" x="589.341" y="-1495.8" font-family="Times,serif" font-size="14.00">desc = Image Features</text>
<text text-anchor="start" x="425.841" y="-1480.8" font-family="Times,serif" font-size="14.00">module = nn.SpatialConvolution(128 &#45;&gt; 256, 3x3, 1,1, 1,1)</text>
<text text-anchor="middle" x="589.341" y="-1465.8" font-family="Times,serif" font-size="14.00">reverseMap = {}</text>
</a>
</g>
</g>
<!-- n31&#45;&gt;n34 -->
<g id="edge34" class="edge"><title>n31&#45;&gt;n34</title>
<path fill="none" stroke="black" d="M590.035,-1576.34C589.968,-1568.22 589.894,-1559.42 589.821,-1550.68"/>
<polygon fill="black" stroke="black" points="593.32,-1550.47 589.737,-1540.5 586.32,-1550.53 593.32,-1550.47"/>
</g>
<!-- n35 -->
<g id="node35" class="node"><title>n35</title>
<g id="a_node35"><a xlink:title="[./Net4.lua]:62_">
<ellipse fill="none" stroke="red" cx="881.341" cy="-2336" rx="242.306" ry="48.1667"/>
<text text-anchor="middle" x="881.341" y="-2354.8" font-family="Times,serif" font-size="14.00">Conv Layer 3 (35)</text>
<text text-anchor="middle" x="881.341" y="-2339.8" font-family="Times,serif" font-size="14.00">desc = Image Features</text>
<text text-anchor="start" x="717.841" y="-2324.8" font-family="Times,serif" font-size="14.00">module = nn.SpatialConvolution(256 &#45;&gt; 512, 3x3, 1,1, 1,1)</text>
<text text-anchor="middle" x="881.341" y="-2309.8" font-family="Times,serif" font-size="14.00">reverseMap = {}</text>
</a>
</g>
</g>
<!-- n32&#45;&gt;n35 -->
<g id="edge35" class="edge"><title>n32&#45;&gt;n35</title>
<path fill="none" stroke="black" d="M896.62,-2420.34C895.096,-2412.03 893.443,-2403.01 891.804,-2394.07"/>
<polygon fill="black" stroke="black" points="895.216,-2393.27 889.97,-2384.07 888.33,-2394.53 895.216,-2393.27"/>
</g>
<!-- n33&#45;&gt;n14 -->
<g id="edge36" class="edge"><title>n33&#45;&gt;n14</title>
<path fill="none" stroke="black" d="M272.981,-620.344C272.236,-612.219 271.429,-603.418 270.628,-594.683"/>
<polygon fill="black" stroke="black" points="274.093,-594.141 269.695,-584.503 267.123,-594.78 274.093,-594.141"/>
</g>
<!-- n36 -->
<g id="node36" class="node"><title>n36</title>
<g id="a_node36"><a xlink:title="[./Net4.lua]:48_">
<ellipse fill="none" stroke="black" cx="553.341" cy="-1370" rx="171.241" ry="37.4533"/>
<text text-anchor="middle" x="553.341" y="-1381.3" font-family="Times,serif" font-size="14.00">Node36</text>
<text text-anchor="start" x="439.841" y="-1366.3" font-family="Times,serif" font-size="14.00">module = nn.SpatialMaxPooling(2,2,2,2)</text>
<text text-anchor="middle" x="553.341" y="-1351.3" font-family="Times,serif" font-size="14.00">reverseMap = {}</text>
</a>
</g>
</g>
<!-- n34&#45;&gt;n36 -->
<g id="edge37" class="edge"><title>n34&#45;&gt;n36</title>
<path fill="none" stroke="black" d="M575.216,-1443.92C572.582,-1435.14 569.833,-1425.97 567.207,-1417.22"/>
<polygon fill="black" stroke="black" points="570.534,-1416.13 564.308,-1407.56 563.83,-1418.14 570.534,-1416.13"/>
</g>
<!-- n37 -->
<g id="node37" class="node"><title>n37</title>
<g id="a_node37"><a xlink:title="[./Net4.lua]:62_">
<ellipse fill="none" stroke="black" cx="840.341" cy="-2214" rx="171.241" ry="37.4533"/>
<text text-anchor="middle" x="840.341" y="-2225.3" font-family="Times,serif" font-size="14.00">Node37</text>
<text text-anchor="start" x="726.841" y="-2210.3" font-family="Times,serif" font-size="14.00">module = nn.SpatialMaxPooling(2,2,2,2)</text>
<text text-anchor="middle" x="840.341" y="-2195.3" font-family="Times,serif" font-size="14.00">reverseMap = {}</text>
</a>
</g>
</g>
<!-- n35&#45;&gt;n37 -->
<g id="edge38" class="edge"><title>n35&#45;&gt;n37</title>
<path fill="none" stroke="black" d="M865.254,-2287.92C862.255,-2279.14 859.123,-2269.97 856.133,-2261.22"/>
<polygon fill="black" stroke="black" points="859.377,-2259.89 852.832,-2251.56 852.753,-2262.15 859.377,-2259.89"/>
</g>
<!-- n38 -->
<g id="node38" class="node"><title>n38</title>
<g id="a_node38"><a xlink:title="[./Net4.lua]:48_">
<ellipse fill="none" stroke="black" cx="493.341" cy="-1258" rx="87.5215" ry="37.4533"/>
<text text-anchor="middle" x="493.341" y="-1269.3" font-family="Times,serif" font-size="14.00">Node38</text>
<text text-anchor="start" x="439.341" y="-1254.3" font-family="Times,serif" font-size="14.00">module = nn.ReLU</text>
<text text-anchor="middle" x="493.341" y="-1239.3" font-family="Times,serif" font-size="14.00">reverseMap = {}</text>
</a>
</g>
</g>
<!-- n36&#45;&gt;n38 -->
<g id="edge39" class="edge"><title>n36&#45;&gt;n38</title>
<path fill="none" stroke="black" d="M533.528,-1332.68C528.51,-1323.48 523.06,-1313.49 517.84,-1303.92"/>
<polygon fill="black" stroke="black" points="520.789,-1302.01 512.928,-1294.91 514.644,-1305.36 520.789,-1302.01"/>
</g>
<!-- n39 -->
<g id="node39" class="node"><title>n39</title>
<g id="a_node39"><a xlink:title="[./Net4.lua]:62_">
<ellipse fill="none" stroke="black" cx="777.341" cy="-2102" rx="87.5215" ry="37.4533"/>
<text text-anchor="middle" x="777.341" y="-2113.3" font-family="Times,serif" font-size="14.00">Node39</text>
<text text-anchor="start" x="723.341" y="-2098.3" font-family="Times,serif" font-size="14.00">module = nn.ReLU</text>
<text text-anchor="middle" x="777.341" y="-2083.3" font-family="Times,serif" font-size="14.00">reverseMap = {}</text>
</a>
</g>
</g>
<!-- n37&#45;&gt;n39 -->
<g id="edge40" class="edge"><title>n37&#45;&gt;n39</title>
<path fill="none" stroke="black" d="M819.538,-2176.68C814.159,-2167.29 808.309,-2157.07 802.725,-2147.32"/>
<polygon fill="black" stroke="black" points="805.7,-2145.47 797.693,-2138.54 799.626,-2148.95 805.7,-2145.47"/>
</g>
<!-- n38&#45;&gt;n20 -->
<g id="edge41" class="edge"><title>n38&#45;&gt;n20</title>
<path fill="none" stroke="black" d="M447.818,-1225.78C430.969,-1214.23 411.397,-1200.81 392.652,-1187.96"/>
<polygon fill="black" stroke="black" points="394.623,-1185.06 384.396,-1182.3 390.664,-1190.84 394.623,-1185.06"/>
</g>
<!-- n39&#45;&gt;n21 -->
<g id="edge42" class="edge"><title>n39&#45;&gt;n21</title>
<path fill="none" stroke="black" d="M731.501,-2070.1C714.273,-2058.48 694.198,-2044.95 674.974,-2031.99"/>
<polygon fill="black" stroke="black" points="676.756,-2028.97 666.508,-2026.28 672.843,-2034.77 676.756,-2028.97"/>
</g>
</g>
</svg>
