<?xml version="1.0" encoding="UTF-8" standalone="no"?>
<!DOCTYPE svg PUBLIC "-//W3C//DTD SVG 1.1//EN"
 "http://www.w3.org/Graphics/SVG/1.1/DTD/svg11.dtd">
<!-- Generated by graphviz version 2.36.0 (20140111.2315)
 -->
<!-- Title: G Pages: 1 -->
<svg width="1208pt" height="3594pt"
 viewBox="0.00 0.00 1208.00 3594.00" xmlns="http://www.w3.org/2000/svg" xmlns:xlink="http://www.w3.org/1999/xlink">
<g id="graph0" class="graph" transform="scale(1 1) rotate(0) translate(4 3590)">
<title>G</title>
<polygon fill="white" stroke="none" points="-4,4 -4,-3590 1204,-3590 1204,4 -4,4"/>
<!-- n1 -->
<g id="node1" class="node"><title>n1</title>
<g id="a_node1"><a xlink:title="[[string &quot;dimension = 2...&quot;]]:24_">
<ellipse fill="none" stroke="purple" cx="258" cy="-160" rx="149.36" ry="48.1667"/>
<text text-anchor="middle" x="258" y="-178.8" font-family="Times,serif" font-size="14.00">Final Layer (1)</text>
<text text-anchor="middle" x="258" y="-163.8" font-family="Times,serif" font-size="14.00">desc = Final output. Using Sigmoid</text>
<text text-anchor="start" x="160" y="-148.8" font-family="Times,serif" font-size="14.00">module = nn.Sigmoid</text>
<text text-anchor="middle" x="258" y="-133.8" font-family="Times,serif" font-size="14.00">reverseMap = {}</text>
</a>
</g>
</g>
<!-- n2 -->
<g id="node2" class="node"><title>n2</title>
<g id="a_node2"><a xlink:title="[[C]]:&#45;1_">
<ellipse fill="none" stroke="black" cx="258" cy="-38" rx="77.1743" ry="37.4533"/>
<text text-anchor="middle" x="258" y="-49.3" font-family="Times,serif" font-size="14.00">Node2</text>
<text text-anchor="start" x="211" y="-34.3" font-family="Times,serif" font-size="14.00">input = {}</text>
<text text-anchor="middle" x="258" y="-19.3" font-family="Times,serif" font-size="14.00">reverseMap = {}</text>
</a>
</g>
</g>
<!-- n1&#45;&gt;n2 -->
<g id="edge1" class="edge"><title>n1&#45;&gt;n2</title>
<path fill="none" stroke="black" d="M258,-111.573C258,-103.096 258,-94.269 258,-85.8099"/>
<polygon fill="black" stroke="black" points="261.5,-85.7224 258,-75.7224 254.5,-85.7224 261.5,-85.7224"/>
</g>
<!-- n3 -->
<g id="node3" class="node"><title>n3</title>
<g id="a_node3"><a xlink:title="[[string &quot;dimension = 2...&quot;]]:24_">
<ellipse fill="none" stroke="black" cx="258" cy="-282" rx="228.093" ry="37.4533"/>
<text text-anchor="middle" x="258" y="-293.3" font-family="Times,serif" font-size="14.00">Node3</text>
<text text-anchor="start" x="104.5" y="-278.3" font-family="Times,serif" font-size="14.00">module = nn.SpatialConvolution(64 &#45;&gt; 2, 3x3, 1,1, 1,1)</text>
<text text-anchor="middle" x="258" y="-263.3" font-family="Times,serif" font-size="14.00">reverseMap = {}</text>
</a>
</g>
</g>
<!-- n3&#45;&gt;n1 -->
<g id="edge2" class="edge"><title>n3&#45;&gt;n1</title>
<path fill="none" stroke="black" d="M258,-244.344C258,-236.219 258,-227.418 258,-218.683"/>
<polygon fill="black" stroke="black" points="261.5,-218.503 258,-208.503 254.5,-218.503 261.5,-218.503"/>
</g>
<!-- n4 -->
<g id="node4" class="node"><title>n4</title>
<g id="a_node4"><a xlink:title="[[string &quot;dimension = 2...&quot;]]:22_">
<ellipse fill="none" stroke="black" cx="258" cy="-394" rx="171.241" ry="37.4533"/>
<text text-anchor="middle" x="258" y="-405.3" font-family="Times,serif" font-size="14.00">Node4</text>
<text text-anchor="start" x="144.5" y="-390.3" font-family="Times,serif" font-size="14.00">module = nn.SpatialMaxPooling(2,2,2,2)</text>
<text text-anchor="middle" x="258" y="-375.3" font-family="Times,serif" font-size="14.00">reverseMap = {}</text>
</a>
</g>
</g>
<!-- n4&#45;&gt;n3 -->
<g id="edge3" class="edge"><title>n4&#45;&gt;n3</title>
<path fill="none" stroke="black" d="M258,-356.372C258,-347.927 258,-338.829 258,-330.011"/>
<polygon fill="black" stroke="black" points="261.5,-329.843 258,-319.844 254.5,-329.844 261.5,-329.843"/>
</g>
<!-- n5 -->
<g id="node5" class="node"><title>n5</title>
<g id="a_node5"><a xlink:title="[[string &quot;dimension = 2...&quot;]]:22_">
<ellipse fill="none" stroke="black" cx="258" cy="-506" rx="87.5215" ry="37.4533"/>
<text text-anchor="middle" x="258" y="-517.3" font-family="Times,serif" font-size="14.00">Node5</text>
<text text-anchor="start" x="204" y="-502.3" font-family="Times,serif" font-size="14.00">module = nn.ReLU</text>
<text text-anchor="middle" x="258" y="-487.3" font-family="Times,serif" font-size="14.00">reverseMap = {}</text>
</a>
</g>
</g>
<!-- n5&#45;&gt;n4 -->
<g id="edge4" class="edge"><title>n5&#45;&gt;n4</title>
<path fill="none" stroke="black" d="M258,-468.372C258,-459.927 258,-450.829 258,-442.011"/>
<polygon fill="black" stroke="black" points="261.5,-441.843 258,-431.844 254.5,-441.844 261.5,-441.843"/>
</g>
<!-- n6 -->
<g id="node6" class="node"><title>n6</title>
<g id="a_node6"><a xlink:title="[[string &quot;dimension = 2...&quot;]]:21_">
<ellipse fill="none" stroke="black" cx="258" cy="-618" rx="168.498" ry="37.4533"/>
<text text-anchor="middle" x="258" y="-629.3" font-family="Times,serif" font-size="14.00">Node6</text>
<text text-anchor="start" x="146.5" y="-614.3" font-family="Times,serif" font-size="14.00">module = nn.SpatialBatchNormalization</text>
<text text-anchor="middle" x="258" y="-599.3" font-family="Times,serif" font-size="14.00">reverseMap = {}</text>
</a>
</g>
</g>
<!-- n6&#45;&gt;n5 -->
<g id="edge5" class="edge"><title>n6&#45;&gt;n5</title>
<path fill="none" stroke="black" d="M258,-580.372C258,-571.927 258,-562.829 258,-554.011"/>
<polygon fill="black" stroke="black" points="261.5,-553.843 258,-543.844 254.5,-553.844 261.5,-553.843"/>
</g>
<!-- n7 -->
<g id="node7" class="node"><title>n7</title>
<g id="a_node7"><a xlink:title="[[string &quot;dimension = 2...&quot;]]:21_">
<ellipse fill="none" stroke="black" cx="258" cy="-730" rx="232.457" ry="37.4533"/>
<text text-anchor="middle" x="258" y="-741.3" font-family="Times,serif" font-size="14.00">Node7</text>
<text text-anchor="start" x="101.5" y="-726.3" font-family="Times,serif" font-size="14.00">module = nn.SpatialConvolution(32 &#45;&gt; 64, 3x3, 1,1, 1,1)</text>
<text text-anchor="middle" x="258" y="-711.3" font-family="Times,serif" font-size="14.00">reverseMap = {}</text>
</a>
</g>
</g>
<!-- n7&#45;&gt;n6 -->
<g id="edge6" class="edge"><title>n7&#45;&gt;n6</title>
<path fill="none" stroke="black" d="M258,-692.372C258,-683.927 258,-674.829 258,-666.011"/>
<polygon fill="black" stroke="black" points="261.5,-665.843 258,-655.844 254.5,-665.844 261.5,-665.843"/>
</g>
<!-- n8 -->
<g id="node8" class="node"><title>n8</title>
<g id="a_node8"><a xlink:title="[[string &quot;dimension = 2...&quot;]]:19_">
<ellipse fill="none" stroke="black" cx="258" cy="-842" rx="171.241" ry="37.4533"/>
<text text-anchor="middle" x="258" y="-853.3" font-family="Times,serif" font-size="14.00">Node8</text>
<text text-anchor="start" x="144.5" y="-838.3" font-family="Times,serif" font-size="14.00">module = nn.SpatialMaxPooling(2,2,2,2)</text>
<text text-anchor="middle" x="258" y="-823.3" font-family="Times,serif" font-size="14.00">reverseMap = {}</text>
</a>
</g>
</g>
<!-- n8&#45;&gt;n7 -->
<g id="edge7" class="edge"><title>n8&#45;&gt;n7</title>
<path fill="none" stroke="black" d="M258,-804.372C258,-795.927 258,-786.829 258,-778.011"/>
<polygon fill="black" stroke="black" points="261.5,-777.843 258,-767.844 254.5,-777.844 261.5,-777.843"/>
</g>
<!-- n9 -->
<g id="node9" class="node"><title>n9</title>
<g id="a_node9"><a xlink:title="[[string &quot;dimension = 2...&quot;]]:19_">
<ellipse fill="none" stroke="black" cx="258" cy="-954" rx="87.5215" ry="37.4533"/>
<text text-anchor="middle" x="258" y="-965.3" font-family="Times,serif" font-size="14.00">Node9</text>
<text text-anchor="start" x="204" y="-950.3" font-family="Times,serif" font-size="14.00">module = nn.ReLU</text>
<text text-anchor="middle" x="258" y="-935.3" font-family="Times,serif" font-size="14.00">reverseMap = {}</text>
</a>
</g>
</g>
<!-- n9&#45;&gt;n8 -->
<g id="edge8" class="edge"><title>n9&#45;&gt;n8</title>
<path fill="none" stroke="black" d="M258,-916.372C258,-907.927 258,-898.829 258,-890.011"/>
<polygon fill="black" stroke="black" points="261.5,-889.843 258,-879.844 254.5,-889.844 261.5,-889.843"/>
</g>
<!-- n10 -->
<g id="node10" class="node"><title>n10</title>
<g id="a_node10"><a xlink:title="[[string &quot;dimension = 2...&quot;]]:18_">
<ellipse fill="none" stroke="black" cx="258" cy="-1066" rx="168.498" ry="37.4533"/>
<text text-anchor="middle" x="258" y="-1077.3" font-family="Times,serif" font-size="14.00">Node10</text>
<text text-anchor="start" x="146.5" y="-1062.3" font-family="Times,serif" font-size="14.00">module = nn.SpatialBatchNormalization</text>
<text text-anchor="middle" x="258" y="-1047.3" font-family="Times,serif" font-size="14.00">reverseMap = {}</text>
</a>
</g>
</g>
<!-- n10&#45;&gt;n9 -->
<g id="edge9" class="edge"><title>n10&#45;&gt;n9</title>
<path fill="none" stroke="black" d="M258,-1028.37C258,-1019.93 258,-1010.83 258,-1002.01"/>
<polygon fill="black" stroke="black" points="261.5,-1001.84 258,-991.844 254.5,-1001.84 261.5,-1001.84"/>
</g>
<!-- n11 -->
<g id="node11" class="node"><title>n11</title>
<g id="a_node11"><a xlink:title="[[string &quot;dimension = 2...&quot;]]:18_">
<ellipse fill="none" stroke="black" cx="258" cy="-1178" rx="232.457" ry="37.4533"/>
<text text-anchor="middle" x="258" y="-1189.3" font-family="Times,serif" font-size="14.00">Node11</text>
<text text-anchor="start" x="101.5" y="-1174.3" font-family="Times,serif" font-size="14.00">module = nn.SpatialConvolution(99 &#45;&gt; 32, 3x3, 1,1, 1,1)</text>
<text text-anchor="middle" x="258" y="-1159.3" font-family="Times,serif" font-size="14.00">reverseMap = {}</text>
</a>
</g>
</g>
<!-- n11&#45;&gt;n10 -->
<g id="edge10" class="edge"><title>n11&#45;&gt;n10</title>
<path fill="none" stroke="black" d="M258,-1140.37C258,-1131.93 258,-1122.83 258,-1114.01"/>
<polygon fill="black" stroke="black" points="261.5,-1113.84 258,-1103.84 254.5,-1113.84 261.5,-1113.84"/>
</g>
<!-- n12 -->
<g id="node12" class="node"><title>n12</title>
<g id="a_node12"><a xlink:title="[[string &quot;dimension = 2...&quot;]]:11_">
<ellipse fill="none" stroke="grey" cx="258" cy="-1311" rx="258.202" ry="58.8803"/>
<text text-anchor="middle" x="258" y="-1337.3" font-family="Times,serif" font-size="14.00">Joining layer (12)</text>
<text text-anchor="middle" x="258" y="-1322.3" font-family="Times,serif" font-size="14.00">desc = Joining input, level1, deconved_level3, deconved_level6</text>
<text text-anchor="start" x="83" y="-1307.3" font-family="Times,serif" font-size="14.00">module = nn.JoinTable</text>
<text text-anchor="start" x="83" y="-1292.3" font-family="Times,serif" font-size="14.00">reverseMap = {}</text>
<text text-anchor="middle" x="258" y="-1277.3" font-family="Times,serif" font-size="14.00">mapindex = {Node13,Node14,Node15,Node16}</text>
</a>
</g>
</g>
<!-- n12&#45;&gt;n11 -->
<g id="edge11" class="edge"><title>n12&#45;&gt;n11</title>
<path fill="none" stroke="black" d="M258,-1252.16C258,-1243.39 258,-1234.43 258,-1225.93"/>
<polygon fill="black" stroke="black" points="261.5,-1225.83 258,-1215.83 254.5,-1225.83 261.5,-1225.83"/>
</g>
<!-- n13 -->
<g id="node13" class="node"><title>n13</title>
<g id="a_node13"><a xlink:title="[[string &quot;input = nn.Identity()():annotate{...&quot;]]:1_">
<ellipse fill="none" stroke="green" cx="328" cy="-3426" rx="98.4924" ry="48.1667"/>
<text text-anchor="middle" x="328" y="-3444.8" font-family="Times,serif" font-size="14.00">Conv Layer 1 (13)</text>
<text text-anchor="middle" x="328" y="-3429.8" font-family="Times,serif" font-size="14.00">desc = Image Features</text>
<text text-anchor="start" x="266" y="-3414.8" font-family="Times,serif" font-size="14.00">module = nn.Identity</text>
<text text-anchor="middle" x="328" y="-3399.8" font-family="Times,serif" font-size="14.00">reverseMap = {}</text>
</a>
</g>
</g>
<!-- n13&#45;&gt;n12 -->
<g id="edge12" class="edge"><title>n13&#45;&gt;n12</title>
<path fill="none" stroke="black" d="M264.856,-3388.97C247.978,-3376.28 231.523,-3360.49 221,-3342 183.567,-3276.22 200,-3248.69 200,-3173 200,-3173 200,-3173 200,-1585 200,-1513.58 219.228,-1433.9 235.542,-1379.15"/>
<polygon fill="black" stroke="black" points="238.897,-1380.15 238.445,-1369.56 232.197,-1378.12 238.897,-1380.15"/>
</g>
<!-- n21 -->
<g id="node21" class="node"><title>n21</title>
<g id="a_node21"><a xlink:title="[[string &quot;input = nn.Identity()():annotate{...&quot;]]:22_">
<ellipse fill="none" stroke="red" cx="458" cy="-3294" rx="228.093" ry="48.1667"/>
<text text-anchor="middle" x="458" y="-3312.8" font-family="Times,serif" font-size="14.00">Conv Layer 1 (21)</text>
<text text-anchor="middle" x="458" y="-3297.8" font-family="Times,serif" font-size="14.00">desc = Image Features</text>
<text text-anchor="start" x="304.5" y="-3282.8" font-family="Times,serif" font-size="14.00">module = nn.SpatialConvolution(3 &#45;&gt; 64, 3x3, 1,1, 1,1)</text>
<text text-anchor="middle" x="458" y="-3267.8" font-family="Times,serif" font-size="14.00">reverseMap = {}</text>
</a>
</g>
</g>
<!-- n13&#45;&gt;n21 -->
<g id="edge23" class="edge"><title>n13&#45;&gt;n21</title>
<path fill="none" stroke="black" d="M370.567,-3382.43C381.379,-3371.62 393.136,-3359.86 404.418,-3348.58"/>
<polygon fill="black" stroke="black" points="407.153,-3350.8 411.749,-3341.25 402.203,-3345.85 407.153,-3350.8"/>
</g>
<!-- n14 -->
<g id="node14" class="node"><title>n14</title>
<g id="a_node14"><a xlink:title="[[string &quot;input = nn.Identity()():annotate{...&quot;]]:26_">
<ellipse fill="none" stroke="blue" cx="461" cy="-3050" rx="232.457" ry="48.1667"/>
<text text-anchor="middle" x="461" y="-3068.8" font-family="Times,serif" font-size="14.00">Conv Layer 2 (14)</text>
<text text-anchor="middle" x="461" y="-3053.8" font-family="Times,serif" font-size="14.00">desc = Image Features</text>
<text text-anchor="start" x="304.5" y="-3038.8" font-family="Times,serif" font-size="14.00">module = nn.SpatialConvolution(64 &#45;&gt; 64, 3x3, 1,1, 1,1)</text>
<text text-anchor="middle" x="461" y="-3023.8" font-family="Times,serif" font-size="14.00">reverseMap = {}</text>
</a>
</g>
</g>
<!-- n14&#45;&gt;n12 -->
<g id="edge13" class="edge"><title>n14&#45;&gt;n12</title>
<path fill="none" stroke="black" d="M377.011,-3005.12C313.797,-2965.4 238,-2900.38 238,-2817 238,-2817 238,-2817 238,-1585 238,-1514.87 244.645,-1434.88 250.275,-1379.7"/>
<polygon fill="black" stroke="black" points="253.762,-1380 251.312,-1369.69 246.8,-1379.28 253.762,-1380"/>
</g>
<!-- n28 -->
<g id="node28" class="node"><title>n28</title>
<g id="a_node28"><a xlink:title="[[string &quot;input = nn.Identity()():annotate{...&quot;]]:30_">
<ellipse fill="none" stroke="black" cx="472" cy="-2928" rx="87.5215" ry="37.4533"/>
<text text-anchor="middle" x="472" y="-2939.3" font-family="Times,serif" font-size="14.00">Node28</text>
<text text-anchor="start" x="418" y="-2924.3" font-family="Times,serif" font-size="14.00">module = nn.ReLU</text>
<text text-anchor="middle" x="472" y="-2909.3" font-family="Times,serif" font-size="14.00">reverseMap = {}</text>
</a>
</g>
</g>
<!-- n14&#45;&gt;n28 -->
<g id="edge30" class="edge"><title>n14&#45;&gt;n28</title>
<path fill="none" stroke="black" d="M465.316,-3001.92C466.103,-2993.33 466.925,-2984.37 467.711,-2975.79"/>
<polygon fill="black" stroke="black" points="471.221,-2975.84 468.649,-2965.56 464.25,-2975.2 471.221,-2975.84"/>
</g>
<!-- n15 -->
<g id="node15" class="node"><title>n15</title>
<g id="a_node15"><a xlink:title="[[string &quot;dimension = 2...&quot;]]:3_">
<ellipse fill="none" stroke="yellow" cx="519" cy="-2206" rx="253.216" ry="48.1667"/>
<text text-anchor="middle" x="519" y="-2224.8" font-family="Times,serif" font-size="14.00">Deconving level 3 (15)</text>
<text text-anchor="middle" x="519" y="-2209.8" font-family="Times,serif" font-size="14.00">desc = To increase the dimension</text>
<text text-anchor="start" x="348" y="-2194.8" font-family="Times,serif" font-size="14.00">module = nn.SpatialFullConvolution(128 &#45;&gt; 16, 1x1, 2,2, 1,1)</text>
<text text-anchor="middle" x="519" y="-2179.8" font-family="Times,serif" font-size="14.00">reverseMap = {}</text>
</a>
</g>
</g>
<!-- n15&#45;&gt;n12 -->
<g id="edge14" class="edge"><title>n15&#45;&gt;n12</title>
<path fill="none" stroke="black" d="M434.047,-2160.55C365.007,-2117.63 279,-2045.59 279,-1953 279,-1953 279,-1953 279,-1585 279,-1514.85 272.022,-1434.87 266.111,-1379.69"/>
<polygon fill="black" stroke="black" points="269.584,-1379.25 265.022,-1369.69 262.625,-1380.01 269.584,-1379.25"/>
</g>
<!-- n16 -->
<g id="node16" class="node"><title>n16</title>
<g id="a_node16"><a xlink:title="[[string &quot;dimension = 2...&quot;]]:7_">
<ellipse fill="none" stroke="yellow" cx="566" cy="-1454" rx="253.216" ry="48.1667"/>
<text text-anchor="middle" x="566" y="-1472.8" font-family="Times,serif" font-size="14.00">Deconving level 6 (16)</text>
<text text-anchor="middle" x="566" y="-1457.8" font-family="Times,serif" font-size="14.00">desc = To increase the dimension</text>
<text text-anchor="start" x="395" y="-1442.8" font-family="Times,serif" font-size="14.00">module = nn.SpatialFullConvolution(256 &#45;&gt; 16, 2x2, 4,4, 2,2)</text>
<text text-anchor="middle" x="566" y="-1427.8" font-family="Times,serif" font-size="14.00">reverseMap = {}</text>
</a>
</g>
</g>
<!-- n16&#45;&gt;n12 -->
<g id="edge15" class="edge"><title>n16&#45;&gt;n12</title>
<path fill="none" stroke="black" d="M470.656,-1409.35C442.157,-1396.31 410.506,-1381.82 380.519,-1368.09"/>
<polygon fill="black" stroke="black" points="381.821,-1364.84 371.272,-1363.85 378.907,-1371.2 381.821,-1364.84"/>
</g>
<!-- n17 -->
<g id="node17" class="node"><title>n17</title>
<g id="a_node17"><a xlink:title="[[C]]:&#45;1_">
<ellipse fill="none" stroke="black" cx="328" cy="-3548" rx="77.1743" ry="37.4533"/>
<text text-anchor="middle" x="328" y="-3559.3" font-family="Times,serif" font-size="14.00">Node17</text>
<text text-anchor="start" x="281" y="-3544.3" font-family="Times,serif" font-size="14.00">input = {}</text>
<text text-anchor="middle" x="328" y="-3529.3" font-family="Times,serif" font-size="14.00">reverseMap = {}</text>
</a>
</g>
</g>
<!-- n17&#45;&gt;n13 -->
<g id="edge16" class="edge"><title>n17&#45;&gt;n13</title>
<path fill="none" stroke="black" d="M328,-3510.34C328,-3502.22 328,-3493.42 328,-3484.68"/>
<polygon fill="black" stroke="black" points="331.5,-3484.5 328,-3474.5 324.5,-3484.5 331.5,-3484.5"/>
</g>
<!-- n18 -->
<g id="node18" class="node"><title>n18</title>
<g id="a_node18"><a xlink:title="[[string &quot;input = nn.Identity()():annotate{...&quot;]]:26_">
<ellipse fill="none" stroke="black" cx="459" cy="-3172" rx="87.5215" ry="37.4533"/>
<text text-anchor="middle" x="459" y="-3183.3" font-family="Times,serif" font-size="14.00">Node18</text>
<text text-anchor="start" x="405" y="-3168.3" font-family="Times,serif" font-size="14.00">module = nn.ReLU</text>
<text text-anchor="middle" x="459" y="-3153.3" font-family="Times,serif" font-size="14.00">reverseMap = {}</text>
</a>
</g>
</g>
<!-- n18&#45;&gt;n14 -->
<g id="edge17" class="edge"><title>n18&#45;&gt;n14</title>
<path fill="none" stroke="black" d="M459.611,-3134.34C459.746,-3126.22 459.893,-3117.42 460.039,-3108.68"/>
<polygon fill="black" stroke="black" points="463.541,-3108.56 460.208,-3098.5 456.542,-3108.44 463.541,-3108.56"/>
</g>
<!-- n19 -->
<g id="node19" class="node"><title>n19</title>
<g id="a_node19"><a xlink:title="[[string &quot;input = nn.Identity()():annotate{...&quot;]]:34_">
<ellipse fill="none" stroke="blue" cx="519" cy="-2450" rx="242.306" ry="48.1667"/>
<text text-anchor="middle" x="519" y="-2468.8" font-family="Times,serif" font-size="14.00">Conv Layer 3 (19)</text>
<text text-anchor="middle" x="519" y="-2453.8" font-family="Times,serif" font-size="14.00">desc = Image Features</text>
<text text-anchor="start" x="355.5" y="-2438.8" font-family="Times,serif" font-size="14.00">module = nn.SpatialConvolution(128 &#45;&gt; 128, 3x3, 1,1, 1,1)</text>
<text text-anchor="middle" x="519" y="-2423.8" font-family="Times,serif" font-size="14.00">reverseMap = {}</text>
</a>
</g>
</g>
<!-- n19&#45;&gt;n15 -->
<g id="edge18" class="edge"><title>n19&#45;&gt;n15</title>
<path fill="none" stroke="black" d="M519,-2401.77C519,-2362.37 519,-2306.11 519,-2264.18"/>
<polygon fill="black" stroke="black" points="522.5,-2264.12 519,-2254.12 515.5,-2264.12 522.5,-2264.12"/>
</g>
<!-- n31 -->
<g id="node31" class="node"><title>n31</title>
<g id="a_node31"><a xlink:title="[[string &quot;input = nn.Identity()():annotate{...&quot;]]:38_">
<ellipse fill="none" stroke="black" cx="798" cy="-2328" rx="87.5215" ry="37.4533"/>
<text text-anchor="middle" x="798" y="-2339.3" font-family="Times,serif" font-size="14.00">Node31</text>
<text text-anchor="start" x="744" y="-2324.3" font-family="Times,serif" font-size="14.00">module = nn.ReLU</text>
<text text-anchor="middle" x="798" y="-2309.3" font-family="Times,serif" font-size="14.00">reverseMap = {}</text>
</a>
</g>
</g>
<!-- n19&#45;&gt;n31 -->
<g id="edge33" class="edge"><title>n19&#45;&gt;n31</title>
<path fill="none" stroke="black" d="M618.937,-2406.02C654.942,-2390.53 694.78,-2373.4 727.721,-2359.23"/>
<polygon fill="black" stroke="black" points="729.46,-2362.29 737.264,-2355.12 726.694,-2355.86 729.46,-2362.29"/>
</g>
<!-- n20 -->
<g id="node20" class="node"><title>n20</title>
<g id="a_node20"><a xlink:title="[[string &quot;input = nn.Identity()():annotate{...&quot;]]:46_">
<ellipse fill="none" stroke="blue" cx="579" cy="-1586" rx="242.306" ry="48.1667"/>
<text text-anchor="middle" x="579" y="-1604.8" font-family="Times,serif" font-size="14.00">Conv Layer 3 (20)</text>
<text text-anchor="middle" x="579" y="-1589.8" font-family="Times,serif" font-size="14.00">desc = Image Features</text>
<text text-anchor="start" x="415.5" y="-1574.8" font-family="Times,serif" font-size="14.00">module = nn.SpatialConvolution(256 &#45;&gt; 256, 3x3, 1,1, 1,1)</text>
<text text-anchor="middle" x="579" y="-1559.8" font-family="Times,serif" font-size="14.00">reverseMap = {}</text>
</a>
</g>
</g>
<!-- n20&#45;&gt;n16 -->
<g id="edge19" class="edge"><title>n20&#45;&gt;n16</title>
<path fill="none" stroke="black" d="M574.27,-1537.7C573.454,-1529.54 572.599,-1520.99 571.76,-1512.6"/>
<polygon fill="black" stroke="black" points="575.226,-1512.09 570.748,-1502.48 568.261,-1512.78 575.226,-1512.09"/>
</g>
<!-- n21&#45;&gt;n18 -->
<g id="edge20" class="edge"><title>n21&#45;&gt;n18</title>
<path fill="none" stroke="black" d="M458.395,-3245.57C458.466,-3237.1 458.539,-3228.27 458.61,-3219.81"/>
<polygon fill="black" stroke="black" points="462.11,-3219.75 458.694,-3209.72 455.111,-3219.69 462.11,-3219.75"/>
</g>
<!-- n22 -->
<g id="node22" class="node"><title>n22</title>
<g id="a_node22"><a xlink:title="[[string &quot;input = nn.Identity()():annotate{...&quot;]]:34_">
<ellipse fill="none" stroke="black" cx="515" cy="-2572" rx="87.5215" ry="37.4533"/>
<text text-anchor="middle" x="515" y="-2583.3" font-family="Times,serif" font-size="14.00">Node22</text>
<text text-anchor="start" x="461" y="-2568.3" font-family="Times,serif" font-size="14.00">module = nn.ReLU</text>
<text text-anchor="middle" x="515" y="-2553.3" font-family="Times,serif" font-size="14.00">reverseMap = {}</text>
</a>
</g>
</g>
<!-- n22&#45;&gt;n19 -->
<g id="edge21" class="edge"><title>n22&#45;&gt;n19</title>
<path fill="none" stroke="black" d="M516.222,-2534.34C516.493,-2526.22 516.786,-2517.42 517.077,-2508.68"/>
<polygon fill="black" stroke="black" points="520.581,-2508.61 517.417,-2498.5 513.585,-2508.38 520.581,-2508.61"/>
</g>
<!-- n23 -->
<g id="node23" class="node"><title>n23</title>
<g id="a_node23"><a xlink:title="[[string &quot;input = nn.Identity()():annotate{...&quot;]]:46_">
<ellipse fill="none" stroke="black" cx="604" cy="-1708" rx="87.5215" ry="37.4533"/>
<text text-anchor="middle" x="604" y="-1719.3" font-family="Times,serif" font-size="14.00">Node23</text>
<text text-anchor="start" x="550" y="-1704.3" font-family="Times,serif" font-size="14.00">module = nn.ReLU</text>
<text text-anchor="middle" x="604" y="-1689.3" font-family="Times,serif" font-size="14.00">reverseMap = {}</text>
</a>
</g>
</g>
<!-- n23&#45;&gt;n20 -->
<g id="edge22" class="edge"><title>n23&#45;&gt;n20</title>
<path fill="none" stroke="black" d="M596.363,-1670.34C594.631,-1662.03 592.752,-1653.01 590.891,-1644.07"/>
<polygon fill="black" stroke="black" points="594.272,-1643.14 588.806,-1634.07 587.419,-1644.57 594.272,-1643.14"/>
</g>
<!-- n24 -->
<g id="node24" class="node"><title>n24</title>
<g id="a_node24"><a xlink:title="[[string &quot;input = nn.Identity()():annotate{...&quot;]]:30_">
<ellipse fill="none" stroke="red" cx="511" cy="-2694" rx="237.382" ry="48.1667"/>
<text text-anchor="middle" x="511" y="-2712.8" font-family="Times,serif" font-size="14.00">Conv Layer 3 (24)</text>
<text text-anchor="middle" x="511" y="-2697.8" font-family="Times,serif" font-size="14.00">desc = Image Features</text>
<text text-anchor="start" x="351" y="-2682.8" font-family="Times,serif" font-size="14.00">module = nn.SpatialConvolution(64 &#45;&gt; 128, 3x3, 1,1, 1,1)</text>
<text text-anchor="middle" x="511" y="-2667.8" font-family="Times,serif" font-size="14.00">reverseMap = {}</text>
</a>
</g>
</g>
<!-- n24&#45;&gt;n22 -->
<g id="edge24" class="edge"><title>n24&#45;&gt;n22</title>
<path fill="none" stroke="black" d="M512.569,-2645.92C512.856,-2637.33 513.154,-2628.37 513.44,-2619.79"/>
<polygon fill="black" stroke="black" points="516.946,-2619.67 513.781,-2609.56 509.95,-2619.44 516.946,-2619.67"/>
</g>
<!-- n25 -->
<g id="node25" class="node"><title>n25</title>
<g id="a_node25"><a xlink:title="[[string &quot;input = nn.Identity()():annotate{...&quot;]]:42_">
<ellipse fill="none" stroke="red" cx="655" cy="-1830" rx="242.306" ry="48.1667"/>
<text text-anchor="middle" x="655" y="-1848.8" font-family="Times,serif" font-size="14.00">Conv Layer 3 (25)</text>
<text text-anchor="middle" x="655" y="-1833.8" font-family="Times,serif" font-size="14.00">desc = Image Features</text>
<text text-anchor="start" x="491.5" y="-1818.8" font-family="Times,serif" font-size="14.00">module = nn.SpatialConvolution(256 &#45;&gt; 256, 3x3, 1,1, 1,1)</text>
<text text-anchor="middle" x="655" y="-1803.8" font-family="Times,serif" font-size="14.00">reverseMap = {}</text>
</a>
</g>
</g>
<!-- n25&#45;&gt;n23 -->
<g id="edge25" class="edge"><title>n25&#45;&gt;n23</title>
<path fill="none" stroke="black" d="M634.99,-1781.92C631.178,-1772.95 627.194,-1763.58 623.402,-1754.65"/>
<polygon fill="black" stroke="black" points="626.512,-1753.02 619.379,-1745.19 620.069,-1755.76 626.512,-1753.02"/>
</g>
<!-- n26 -->
<g id="node26" class="node"><title>n26</title>
<g id="a_node26"><a xlink:title="[[string &quot;input = nn.Identity()():annotate{...&quot;]]:30_">
<ellipse fill="none" stroke="black" cx="493" cy="-2816" rx="171.241" ry="37.4533"/>
<text text-anchor="middle" x="493" y="-2827.3" font-family="Times,serif" font-size="14.00">Node26</text>
<text text-anchor="start" x="379.5" y="-2812.3" font-family="Times,serif" font-size="14.00">module = nn.SpatialMaxPooling(2,2,2,2)</text>
<text text-anchor="middle" x="493" y="-2797.3" font-family="Times,serif" font-size="14.00">reverseMap = {}</text>
</a>
</g>
</g>
<!-- n26&#45;&gt;n24 -->
<g id="edge26" class="edge"><title>n26&#45;&gt;n24</title>
<path fill="none" stroke="black" d="M498.498,-2778.34C499.745,-2770.03 501.099,-2761.01 502.439,-2752.07"/>
<polygon fill="black" stroke="black" points="505.918,-2752.48 503.94,-2742.07 498.995,-2751.44 505.918,-2752.48"/>
</g>
<!-- n27 -->
<g id="node27" class="node"><title>n27</title>
<g id="a_node27"><a xlink:title="[[string &quot;input = nn.Identity()():annotate{...&quot;]]:42_">
<ellipse fill="none" stroke="black" cx="756" cy="-1952" rx="87.5215" ry="37.4533"/>
<text text-anchor="middle" x="756" y="-1963.3" font-family="Times,serif" font-size="14.00">Node27</text>
<text text-anchor="start" x="702" y="-1948.3" font-family="Times,serif" font-size="14.00">module = nn.ReLU</text>
<text text-anchor="middle" x="756" y="-1933.3" font-family="Times,serif" font-size="14.00">reverseMap = {}</text>
</a>
</g>
</g>
<!-- n27&#45;&gt;n25 -->
<g id="edge27" class="edge"><title>n27&#45;&gt;n25</title>
<path fill="none" stroke="black" d="M727.057,-1916.61C718.802,-1906.8 709.6,-1895.87 700.607,-1885.19"/>
<polygon fill="black" stroke="black" points="703.23,-1882.87 694.112,-1877.47 697.874,-1887.37 703.23,-1882.87"/>
</g>
<!-- n28&#45;&gt;n26 -->
<g id="edge28" class="edge"><title>n28&#45;&gt;n26</title>
<path fill="none" stroke="black" d="M478.993,-2890.37C480.64,-2881.74 482.417,-2872.43 484.134,-2863.44"/>
<polygon fill="black" stroke="black" points="487.6,-2863.95 486.038,-2853.47 480.725,-2862.63 487.6,-2863.95"/>
</g>
<!-- n29 -->
<g id="node29" class="node"><title>n29</title>
<g id="a_node29"><a xlink:title="[[string &quot;input = nn.Identity()():annotate{...&quot;]]:38_">
<ellipse fill="none" stroke="red" cx="958" cy="-2074" rx="242.306" ry="48.1667"/>
<text text-anchor="middle" x="958" y="-2092.8" font-family="Times,serif" font-size="14.00">Conv Layer 3 (29)</text>
<text text-anchor="middle" x="958" y="-2077.8" font-family="Times,serif" font-size="14.00">desc = Image Features</text>
<text text-anchor="start" x="794.5" y="-2062.8" font-family="Times,serif" font-size="14.00">module = nn.SpatialConvolution(128 &#45;&gt; 256, 3x3, 1,1, 1,1)</text>
<text text-anchor="middle" x="958" y="-2047.8" font-family="Times,serif" font-size="14.00">reverseMap = {}</text>
</a>
</g>
</g>
<!-- n29&#45;&gt;n27 -->
<g id="edge29" class="edge"><title>n29&#45;&gt;n27</title>
<path fill="none" stroke="black" d="M882.495,-2028.15C860.237,-2014.92 836.212,-2000.65 815.14,-1988.13"/>
<polygon fill="black" stroke="black" points="816.688,-1984.98 806.303,-1982.88 813.113,-1991 816.688,-1984.98"/>
</g>
<!-- n30 -->
<g id="node30" class="node"><title>n30</title>
<g id="a_node30"><a xlink:title="[[string &quot;input = nn.Identity()():annotate{...&quot;]]:38_">
<ellipse fill="none" stroke="black" cx="962" cy="-2206" rx="171.241" ry="37.4533"/>
<text text-anchor="middle" x="962" y="-2217.3" font-family="Times,serif" font-size="14.00">Node30</text>
<text text-anchor="start" x="848.5" y="-2202.3" font-family="Times,serif" font-size="14.00">module = nn.SpatialMaxPooling(2,2,2,2)</text>
<text text-anchor="middle" x="962" y="-2187.3" font-family="Times,serif" font-size="14.00">reverseMap = {}</text>
</a>
</g>
</g>
<!-- n30&#45;&gt;n29 -->
<g id="edge31" class="edge"><title>n30&#45;&gt;n29</title>
<path fill="none" stroke="black" d="M960.875,-2168.44C960.532,-2157.29 960.146,-2144.76 959.771,-2132.57"/>
<polygon fill="black" stroke="black" points="963.266,-2132.35 959.46,-2122.46 956.27,-2132.56 963.266,-2132.35"/>
</g>
<!-- n31&#45;&gt;n30 -->
<g id="edge32" class="edge"><title>n31&#45;&gt;n30</title>
<path fill="none" stroke="black" d="M841.518,-2295.16C861.205,-2280.75 884.719,-2263.55 905.727,-2248.18"/>
<polygon fill="black" stroke="black" points="907.941,-2250.89 913.945,-2242.16 903.808,-2245.24 907.941,-2250.89"/>
</g>
</g>
</svg>
