<?xml version="1.0" encoding="UTF-8" standalone="no"?>
<!DOCTYPE svg PUBLIC "-//W3C//DTD SVG 1.1//EN"
 "http://www.w3.org/Graphics/SVG/1.1/DTD/svg11.dtd">
<!-- Generated by graphviz version 2.36.0 (20140111.2315)
 -->
<!-- Title: G Pages: 1 -->
<svg width="1768pt" height="2222pt"
 viewBox="0.00 0.00 1768.00 2222.00" xmlns="http://www.w3.org/2000/svg" xmlns:xlink="http://www.w3.org/1999/xlink">
<g id="graph0" class="graph" transform="scale(1 1) rotate(0) translate(4 2218)">
<title>G</title>
<polygon fill="white" stroke="none" points="-4,4 -4,-2218 1764,-2218 1764,4 -4,4"/>
<!-- n1 -->
<g id="node1" class="node"><title>n1</title>
<g id="a_node1"><a xlink:title="[./Net4.lua]:73_">
<ellipse fill="none" stroke="purple" cx="721" cy="-160" rx="149.36" ry="48.1667"/>
<text text-anchor="middle" x="721" y="-178.8" font-family="Times,serif" font-size="14.00">Final Layer (1)</text>
<text text-anchor="middle" x="721" y="-163.8" font-family="Times,serif" font-size="14.00">desc = Final output. Using Sigmoid</text>
<text text-anchor="start" x="623" y="-148.8" font-family="Times,serif" font-size="14.00">module = nn.Tanh</text>
<text text-anchor="middle" x="721" y="-133.8" font-family="Times,serif" font-size="14.00">reverseMap = {}</text>
</a>
</g>
</g>
<!-- n2 -->
<g id="node2" class="node"><title>n2</title>
<g id="a_node2"><a xlink:title="[[C]]:&#45;1_">
<ellipse fill="none" stroke="black" cx="721" cy="-38" rx="77.1743" ry="37.4533"/>
<text text-anchor="middle" x="721" y="-49.3" font-family="Times,serif" font-size="14.00">Node2</text>
<text text-anchor="start" x="674" y="-34.3" font-family="Times,serif" font-size="14.00">input = {}</text>
<text text-anchor="middle" x="721" y="-19.3" font-family="Times,serif" font-size="14.00">reverseMap = {}</text>
</a>
</g>
</g>
<!-- n1&#45;&gt;n2 -->
<g id="edge1" class="edge"><title>n1&#45;&gt;n2</title>
<path fill="none" stroke="black" d="M721,-111.573C721,-103.096 721,-94.269 721,-85.8099"/>
<polygon fill="black" stroke="black" points="724.5,-85.7224 721,-75.7224 717.5,-85.7224 724.5,-85.7224"/>
</g>
<!-- n3 -->
<g id="node3" class="node"><title>n3</title>
<g id="a_node3"><a xlink:title="[./Net4.lua]:73_">
<ellipse fill="none" stroke="black" cx="721" cy="-282" rx="232.457" ry="37.4533"/>
<text text-anchor="middle" x="721" y="-293.3" font-family="Times,serif" font-size="14.00">Node3</text>
<text text-anchor="start" x="564.5" y="-278.3" font-family="Times,serif" font-size="14.00">module = nn.SpatialConvolution(128 &#45;&gt; 2, 3x3, 1,1, 1,1)</text>
<text text-anchor="middle" x="721" y="-263.3" font-family="Times,serif" font-size="14.00">reverseMap = {}</text>
</a>
</g>
</g>
<!-- n3&#45;&gt;n1 -->
<g id="edge2" class="edge"><title>n3&#45;&gt;n1</title>
<path fill="none" stroke="black" d="M721,-244.344C721,-236.219 721,-227.418 721,-218.683"/>
<polygon fill="black" stroke="black" points="724.5,-218.503 721,-208.503 717.5,-218.503 724.5,-218.503"/>
</g>
<!-- n4 -->
<g id="node4" class="node"><title>n4</title>
<g id="a_node4"><a xlink:title="[./Net4.lua]:71_">
<ellipse fill="none" stroke="black" cx="721" cy="-394" rx="176.166" ry="37.4533"/>
<text text-anchor="middle" x="721" y="-405.3" font-family="Times,serif" font-size="14.00">Node4</text>
<text text-anchor="start" x="604" y="-390.3" font-family="Times,serif" font-size="14.00">module = nn.SpatialMaxPooling(2x2, 2,2)</text>
<text text-anchor="middle" x="721" y="-375.3" font-family="Times,serif" font-size="14.00">reverseMap = {}</text>
</a>
</g>
</g>
<!-- n4&#45;&gt;n3 -->
<g id="edge3" class="edge"><title>n4&#45;&gt;n3</title>
<path fill="none" stroke="black" d="M721,-356.372C721,-347.927 721,-338.829 721,-330.011"/>
<polygon fill="black" stroke="black" points="724.5,-329.843 721,-319.844 717.5,-329.844 724.5,-329.843"/>
</g>
<!-- n5 -->
<g id="node5" class="node"><title>n5</title>
<g id="a_node5"><a xlink:title="[./Net4.lua]:71_">
<ellipse fill="none" stroke="black" cx="721" cy="-506" rx="87.5215" ry="37.4533"/>
<text text-anchor="middle" x="721" y="-517.3" font-family="Times,serif" font-size="14.00">Node5</text>
<text text-anchor="start" x="667" y="-502.3" font-family="Times,serif" font-size="14.00">module = nn.ReLU</text>
<text text-anchor="middle" x="721" y="-487.3" font-family="Times,serif" font-size="14.00">reverseMap = {}</text>
</a>
</g>
</g>
<!-- n5&#45;&gt;n4 -->
<g id="edge4" class="edge"><title>n5&#45;&gt;n4</title>
<path fill="none" stroke="black" d="M721,-468.372C721,-459.927 721,-450.829 721,-442.011"/>
<polygon fill="black" stroke="black" points="724.5,-441.843 721,-431.844 717.5,-441.844 724.5,-441.843"/>
</g>
<!-- n6 -->
<g id="node6" class="node"><title>n6</title>
<g id="a_node6"><a xlink:title="[./Net4.lua]:69_">
<ellipse fill="none" stroke="black" cx="721" cy="-618" rx="168.498" ry="37.4533"/>
<text text-anchor="middle" x="721" y="-629.3" font-family="Times,serif" font-size="14.00">Node6</text>
<text text-anchor="start" x="609.5" y="-614.3" font-family="Times,serif" font-size="14.00">module = nn.SpatialBatchNormalization</text>
<text text-anchor="middle" x="721" y="-599.3" font-family="Times,serif" font-size="14.00">reverseMap = {}</text>
</a>
</g>
</g>
<!-- n6&#45;&gt;n5 -->
<g id="edge5" class="edge"><title>n6&#45;&gt;n5</title>
<path fill="none" stroke="black" d="M721,-580.372C721,-571.927 721,-562.829 721,-554.011"/>
<polygon fill="black" stroke="black" points="724.5,-553.843 721,-543.844 717.5,-553.844 724.5,-553.843"/>
</g>
<!-- n7 -->
<g id="node7" class="node"><title>n7</title>
<g id="a_node7"><a xlink:title="[./Net4.lua]:69_">
<ellipse fill="none" stroke="black" cx="721" cy="-730" rx="242.306" ry="37.4533"/>
<text text-anchor="middle" x="721" y="-741.3" font-family="Times,serif" font-size="14.00">Node7</text>
<text text-anchor="start" x="557.5" y="-726.3" font-family="Times,serif" font-size="14.00">module = nn.SpatialConvolution(128 &#45;&gt; 128, 3x3, 1,1, 1,1)</text>
<text text-anchor="middle" x="721" y="-711.3" font-family="Times,serif" font-size="14.00">reverseMap = {}</text>
</a>
</g>
</g>
<!-- n7&#45;&gt;n6 -->
<g id="edge6" class="edge"><title>n7&#45;&gt;n6</title>
<path fill="none" stroke="black" d="M721,-692.372C721,-683.927 721,-674.829 721,-666.011"/>
<polygon fill="black" stroke="black" points="724.5,-665.843 721,-655.844 717.5,-665.844 724.5,-665.843"/>
</g>
<!-- n8 -->
<g id="node8" class="node"><title>n8</title>
<g id="a_node8"><a xlink:title="[./Net4.lua]:67_">
<ellipse fill="none" stroke="black" cx="721" cy="-842" rx="168.498" ry="37.4533"/>
<text text-anchor="middle" x="721" y="-853.3" font-family="Times,serif" font-size="14.00">Node8</text>
<text text-anchor="start" x="609.5" y="-838.3" font-family="Times,serif" font-size="14.00">module = nn.SpatialBatchNormalization</text>
<text text-anchor="middle" x="721" y="-823.3" font-family="Times,serif" font-size="14.00">reverseMap = {}</text>
</a>
</g>
</g>
<!-- n8&#45;&gt;n7 -->
<g id="edge7" class="edge"><title>n8&#45;&gt;n7</title>
<path fill="none" stroke="black" d="M721,-804.372C721,-795.927 721,-786.829 721,-778.011"/>
<polygon fill="black" stroke="black" points="724.5,-777.843 721,-767.844 717.5,-777.844 724.5,-777.843"/>
</g>
<!-- n9 -->
<g id="node9" class="node"><title>n9</title>
<g id="a_node9"><a xlink:title="[./Net4.lua]:67_">
<ellipse fill="none" stroke="black" cx="721" cy="-954" rx="237.382" ry="37.4533"/>
<text text-anchor="middle" x="721" y="-965.3" font-family="Times,serif" font-size="14.00">Node9</text>
<text text-anchor="start" x="561" y="-950.3" font-family="Times,serif" font-size="14.00">module = nn.SpatialConvolution(64 &#45;&gt; 128, 3x3, 1,1, 1,1)</text>
<text text-anchor="middle" x="721" y="-935.3" font-family="Times,serif" font-size="14.00">reverseMap = {}</text>
</a>
</g>
</g>
<!-- n9&#45;&gt;n8 -->
<g id="edge8" class="edge"><title>n9&#45;&gt;n8</title>
<path fill="none" stroke="black" d="M721,-916.372C721,-907.927 721,-898.829 721,-890.011"/>
<polygon fill="black" stroke="black" points="724.5,-889.843 721,-879.844 717.5,-889.844 724.5,-889.843"/>
</g>
<!-- n10 -->
<g id="node10" class="node"><title>n10</title>
<g id="a_node10"><a xlink:title="[./Net4.lua]:65_">
<ellipse fill="none" stroke="black" cx="721" cy="-1066" rx="176.166" ry="37.4533"/>
<text text-anchor="middle" x="721" y="-1077.3" font-family="Times,serif" font-size="14.00">Node10</text>
<text text-anchor="start" x="604" y="-1062.3" font-family="Times,serif" font-size="14.00">module = nn.SpatialMaxPooling(2x2, 2,2)</text>
<text text-anchor="middle" x="721" y="-1047.3" font-family="Times,serif" font-size="14.00">reverseMap = {}</text>
</a>
</g>
</g>
<!-- n10&#45;&gt;n9 -->
<g id="edge9" class="edge"><title>n10&#45;&gt;n9</title>
<path fill="none" stroke="black" d="M721,-1028.37C721,-1019.93 721,-1010.83 721,-1002.01"/>
<polygon fill="black" stroke="black" points="724.5,-1001.84 721,-991.844 717.5,-1001.84 724.5,-1001.84"/>
</g>
<!-- n11 -->
<g id="node11" class="node"><title>n11</title>
<g id="a_node11"><a xlink:title="[./Net4.lua]:65_">
<ellipse fill="none" stroke="black" cx="721" cy="-1178" rx="87.5215" ry="37.4533"/>
<text text-anchor="middle" x="721" y="-1189.3" font-family="Times,serif" font-size="14.00">Node11</text>
<text text-anchor="start" x="667" y="-1174.3" font-family="Times,serif" font-size="14.00">module = nn.ReLU</text>
<text text-anchor="middle" x="721" y="-1159.3" font-family="Times,serif" font-size="14.00">reverseMap = {}</text>
</a>
</g>
</g>
<!-- n11&#45;&gt;n10 -->
<g id="edge10" class="edge"><title>n11&#45;&gt;n10</title>
<path fill="none" stroke="black" d="M721,-1140.37C721,-1131.93 721,-1122.83 721,-1114.01"/>
<polygon fill="black" stroke="black" points="724.5,-1113.84 721,-1103.84 717.5,-1113.84 724.5,-1113.84"/>
</g>
<!-- n12 -->
<g id="node12" class="node"><title>n12</title>
<g id="a_node12"><a xlink:title="[./Net4.lua]:64_">
<ellipse fill="none" stroke="black" cx="721" cy="-1290" rx="168.498" ry="37.4533"/>
<text text-anchor="middle" x="721" y="-1301.3" font-family="Times,serif" font-size="14.00">Node12</text>
<text text-anchor="start" x="609.5" y="-1286.3" font-family="Times,serif" font-size="14.00">module = nn.SpatialBatchNormalization</text>
<text text-anchor="middle" x="721" y="-1271.3" font-family="Times,serif" font-size="14.00">reverseMap = {}</text>
</a>
</g>
</g>
<!-- n12&#45;&gt;n11 -->
<g id="edge11" class="edge"><title>n12&#45;&gt;n11</title>
<path fill="none" stroke="black" d="M721,-1252.37C721,-1243.93 721,-1234.83 721,-1226.01"/>
<polygon fill="black" stroke="black" points="724.5,-1225.84 721,-1215.84 717.5,-1225.84 724.5,-1225.84"/>
</g>
<!-- n13 -->
<g id="node13" class="node"><title>n13</title>
<g id="a_node13"><a xlink:title="[./Net4.lua]:64_">
<ellipse fill="none" stroke="black" cx="721" cy="-1402" rx="237.382" ry="37.4533"/>
<text text-anchor="middle" x="721" y="-1413.3" font-family="Times,serif" font-size="14.00">Node13</text>
<text text-anchor="start" x="561" y="-1398.3" font-family="Times,serif" font-size="14.00">module = nn.SpatialConvolution(195 &#45;&gt; 64, 3x3, 1,1, 1,1)</text>
<text text-anchor="middle" x="721" y="-1383.3" font-family="Times,serif" font-size="14.00">reverseMap = {}</text>
</a>
</g>
</g>
<!-- n13&#45;&gt;n12 -->
<g id="edge12" class="edge"><title>n13&#45;&gt;n12</title>
<path fill="none" stroke="black" d="M721,-1364.37C721,-1355.93 721,-1346.83 721,-1338.01"/>
<polygon fill="black" stroke="black" points="724.5,-1337.84 721,-1327.84 717.5,-1337.84 724.5,-1337.84"/>
</g>
<!-- n14 -->
<g id="node14" class="node"><title>n14</title>
<g id="a_node14"><a xlink:title="[./Net4.lua]:54_">
<ellipse fill="none" stroke="grey" cx="721" cy="-1535" rx="258.202" ry="58.8803"/>
<text text-anchor="middle" x="721" y="-1561.3" font-family="Times,serif" font-size="14.00">Joining layer. Fuck yeah! (14)</text>
<text text-anchor="middle" x="721" y="-1546.3" font-family="Times,serif" font-size="14.00">desc = Joining input, level1, deconved_level3, deconved_level6</text>
<text text-anchor="start" x="546" y="-1531.3" font-family="Times,serif" font-size="14.00">module = nn.JoinTable</text>
<text text-anchor="start" x="546" y="-1516.3" font-family="Times,serif" font-size="14.00">reverseMap = {}</text>
<text text-anchor="middle" x="721" y="-1501.3" font-family="Times,serif" font-size="14.00">mapindex = {Node15,Node16,Node17,Node18}</text>
</a>
</g>
</g>
<!-- n14&#45;&gt;n13 -->
<g id="edge13" class="edge"><title>n14&#45;&gt;n13</title>
<path fill="none" stroke="black" d="M721,-1476.16C721,-1467.39 721,-1458.43 721,-1449.93"/>
<polygon fill="black" stroke="black" points="724.5,-1449.83 721,-1439.83 717.5,-1449.83 724.5,-1449.83"/>
</g>
<!-- n15 -->
<g id="node15" class="node"><title>n15</title>
<g id="a_node15"><a xlink:title="[./Net4.lua]:12_">
<ellipse fill="none" stroke="green" cx="94" cy="-1678" rx="94.0678" ry="48.1667"/>
<text text-anchor="middle" x="94" y="-1696.8" font-family="Times,serif" font-size="14.00">Conv Layer 1 (15)</text>
<text text-anchor="middle" x="94" y="-1681.8" font-family="Times,serif" font-size="14.00">desc = Input Layer</text>
<text text-anchor="start" x="35.5" y="-1666.8" font-family="Times,serif" font-size="14.00">module = nn.Identity</text>
<text text-anchor="middle" x="94" y="-1651.8" font-family="Times,serif" font-size="14.00">reverseMap = {}</text>
</a>
</g>
</g>
<!-- n15&#45;&gt;n14 -->
<g id="edge14" class="edge"><title>n15&#45;&gt;n14</title>
<path fill="none" stroke="black" d="M160.365,-1643.79C172.357,-1638.64 184.899,-1633.78 197,-1630 289.566,-1601.08 394.281,-1580.08 485.635,-1565.36"/>
<polygon fill="black" stroke="black" points="486.242,-1568.81 495.566,-1563.77 485.14,-1561.89 486.242,-1568.81"/>
</g>
<!-- n16 -->
<g id="node16" class="node"><title>n16</title>
<g id="a_node16"><a xlink:title="[./Net4.lua]:40_">
<ellipse fill="none" stroke="yellow" cx="459" cy="-1678" rx="253.216" ry="48.1667"/>
<text text-anchor="middle" x="459" y="-1696.8" font-family="Times,serif" font-size="14.00">Deconving level 3 (16)</text>
<text text-anchor="middle" x="459" y="-1681.8" font-family="Times,serif" font-size="14.00">desc = To increase the dimension</text>
<text text-anchor="start" x="288" y="-1666.8" font-family="Times,serif" font-size="14.00">module = nn.SpatialFullConvolution(128 &#45;&gt; 32, 1x1, 2,2, 1,1)</text>
<text text-anchor="middle" x="459" y="-1651.8" font-family="Times,serif" font-size="14.00">reverseMap = {}</text>
</a>
</g>
</g>
<!-- n16&#45;&gt;n14 -->
<g id="edge15" class="edge"><title>n16&#45;&gt;n14</title>
<path fill="none" stroke="black" d="M541.898,-1632.39C564.364,-1620.3 589.022,-1607.03 612.664,-1594.3"/>
<polygon fill="black" stroke="black" points="614.522,-1597.28 621.669,-1589.46 611.204,-1591.11 614.522,-1597.28"/>
</g>
<!-- n17 -->
<g id="node17" class="node"><title>n17</title>
<g id="a_node17"><a xlink:title="[./Net4.lua]:44_">
<ellipse fill="none" stroke="yellow" cx="983" cy="-1678" rx="253.216" ry="48.1667"/>
<text text-anchor="middle" x="983" y="-1696.8" font-family="Times,serif" font-size="14.00">Deconving level 6 (17)</text>
<text text-anchor="middle" x="983" y="-1681.8" font-family="Times,serif" font-size="14.00">desc = To increase the dimension</text>
<text text-anchor="start" x="812" y="-1666.8" font-family="Times,serif" font-size="14.00">module = nn.SpatialFullConvolution(256 &#45;&gt; 32, 2x2, 4,4, 2,2)</text>
<text text-anchor="middle" x="983" y="-1651.8" font-family="Times,serif" font-size="14.00">reverseMap = {}</text>
</a>
</g>
</g>
<!-- n17&#45;&gt;n14 -->
<g id="edge16" class="edge"><title>n17&#45;&gt;n14</title>
<path fill="none" stroke="black" d="M900.102,-1632.39C877.636,-1620.3 852.978,-1607.03 829.336,-1594.3"/>
<polygon fill="black" stroke="black" points="830.796,-1591.11 820.331,-1589.46 827.478,-1597.28 830.796,-1591.11"/>
</g>
<!-- n18 -->
<g id="node18" class="node"><title>n18</title>
<g id="a_node18"><a xlink:title="[./Net4.lua]:49_">
<ellipse fill="none" stroke="yellow" cx="1507" cy="-1678" rx="253.216" ry="48.1667"/>
<text text-anchor="middle" x="1507" y="-1696.8" font-family="Times,serif" font-size="14.00">Deconving level 6 (18)</text>
<text text-anchor="middle" x="1507" y="-1681.8" font-family="Times,serif" font-size="14.00">desc = To increase the dimension</text>
<text text-anchor="start" x="1336" y="-1666.8" font-family="Times,serif" font-size="14.00">module = nn.SpatialFullConvolution(512 &#45;&gt; 64, 4x4, 8,8, 4,4)</text>
<text text-anchor="middle" x="1507" y="-1651.8" font-family="Times,serif" font-size="14.00">reverseMap = {}</text>
</a>
</g>
</g>
<!-- n18&#45;&gt;n14 -->
<g id="edge17" class="edge"><title>n18&#45;&gt;n14</title>
<path fill="none" stroke="black" d="M1325.19,-1644.39C1207.76,-1623.32 1054.54,-1595.83 931.779,-1573.81"/>
<polygon fill="black" stroke="black" points="932.335,-1570.36 921.874,-1572.03 931.099,-1577.25 932.335,-1570.36"/>
</g>
<!-- n19 -->
<g id="node19" class="node"><title>n19</title>
<g id="a_node19"><a xlink:title="[[C]]:&#45;1_&#45;1">
<ellipse fill="none" stroke="black" cx="200" cy="-1810" rx="77.1743" ry="48.1667"/>
<text text-anchor="middle" x="200" y="-1828.8" font-family="Times,serif" font-size="14.00">Node19</text>
<text text-anchor="start" x="153" y="-1813.8" font-family="Times,serif" font-size="14.00">input = {}</text>
<text text-anchor="start" x="153" y="-1798.8" font-family="Times,serif" font-size="14.00">selectindex = 1</text>
<text text-anchor="middle" x="200" y="-1783.8" font-family="Times,serif" font-size="14.00">reverseMap = {}</text>
</a>
</g>
</g>
<!-- n19&#45;&gt;n15 -->
<g id="edge18" class="edge"><title>n19&#45;&gt;n15</title>
<path fill="none" stroke="black" d="M165.585,-1766.79C156.163,-1755.24 145.844,-1742.58 136.047,-1730.57"/>
<polygon fill="black" stroke="black" points="138.731,-1728.32 129.699,-1722.78 133.305,-1732.74 138.731,-1728.32"/>
</g>
<!-- n20 -->
<g id="node20" class="node"><title>n20</title>
<g id="a_node20"><a xlink:title="[./Net4.lua]:17_">
<ellipse fill="none" stroke="green" cx="536" cy="-1810" rx="98.4924" ry="48.1667"/>
<text text-anchor="middle" x="536" y="-1828.8" font-family="Times,serif" font-size="14.00">Conv Layer 2 (20)</text>
<text text-anchor="middle" x="536" y="-1813.8" font-family="Times,serif" font-size="14.00">desc = Image Features</text>
<text text-anchor="start" x="474" y="-1798.8" font-family="Times,serif" font-size="14.00">module = nn.Identity</text>
<text text-anchor="middle" x="536" y="-1783.8" font-family="Times,serif" font-size="14.00">reverseMap = {}</text>
</a>
</g>
</g>
<!-- n20&#45;&gt;n16 -->
<g id="edge19" class="edge"><title>n20&#45;&gt;n16</title>
<path fill="none" stroke="black" d="M509.069,-1763.53C503.557,-1754.23 497.697,-1744.33 492,-1734.71"/>
<polygon fill="black" stroke="black" points="494.937,-1732.8 486.829,-1725.98 488.914,-1736.37 494.937,-1732.8"/>
</g>
<!-- n21 -->
<g id="node21" class="node"><title>n21</title>
<g id="a_node21"><a xlink:title="[./Net4.lua]:23_">
<ellipse fill="none" stroke="green" cx="906" cy="-1810" rx="98.4924" ry="48.1667"/>
<text text-anchor="middle" x="906" y="-1828.8" font-family="Times,serif" font-size="14.00">Conv Layer 3 (21)</text>
<text text-anchor="middle" x="906" y="-1813.8" font-family="Times,serif" font-size="14.00">desc = Image Features</text>
<text text-anchor="start" x="844" y="-1798.8" font-family="Times,serif" font-size="14.00">module = nn.Identity</text>
<text text-anchor="middle" x="906" y="-1783.8" font-family="Times,serif" font-size="14.00">reverseMap = {}</text>
</a>
</g>
</g>
<!-- n21&#45;&gt;n17 -->
<g id="edge20" class="edge"><title>n21&#45;&gt;n17</title>
<path fill="none" stroke="black" d="M932.931,-1763.53C938.443,-1754.23 944.303,-1744.33 950,-1734.71"/>
<polygon fill="black" stroke="black" points="953.086,-1736.37 955.171,-1725.98 947.063,-1732.8 953.086,-1736.37"/>
</g>
<!-- n22 -->
<g id="node22" class="node"><title>n22</title>
<g id="a_node22"><a xlink:title="[./Net4.lua]:29_">
<ellipse fill="none" stroke="green" cx="1353" cy="-1810" rx="98.4924" ry="48.1667"/>
<text text-anchor="middle" x="1353" y="-1828.8" font-family="Times,serif" font-size="14.00">Conv Layer 4 (22)</text>
<text text-anchor="middle" x="1353" y="-1813.8" font-family="Times,serif" font-size="14.00">desc = Image Features</text>
<text text-anchor="start" x="1291" y="-1798.8" font-family="Times,serif" font-size="14.00">module = nn.Identity</text>
<text text-anchor="middle" x="1353" y="-1783.8" font-family="Times,serif" font-size="14.00">reverseMap = {}</text>
</a>
</g>
</g>
<!-- n22&#45;&gt;n18 -->
<g id="edge21" class="edge"><title>n22&#45;&gt;n18</title>
<path fill="none" stroke="black" d="M1401.73,-1767.87C1415.33,-1756.38 1430.31,-1743.74 1444.59,-1731.69"/>
<polygon fill="black" stroke="black" points="1447.05,-1734.19 1452.43,-1725.06 1442.54,-1728.84 1447.05,-1734.19"/>
</g>
<!-- n23 -->
<g id="node23" class="node"><title>n23</title>
<g id="a_node23"><a xlink:title="[[C]]:&#45;1_ split at [...e/kedart/torch/install/share/lua/5.1/nngraph/gmodule.lua]:72&#45;mnode">
<ellipse fill="none" stroke="black" cx="643" cy="-2064" rx="80.415" ry="37.4533"/>
<text text-anchor="middle" x="643" y="-2075.3" font-family="Times,serif" font-size="14.00">Node23</text>
<text text-anchor="start" x="594" y="-2060.3" font-family="Times,serif" font-size="14.00">reverseMap = {}</text>
<text text-anchor="middle" x="643" y="-2045.3" font-family="Times,serif" font-size="14.00">nSplitOutputs = 4</text>
</a>
</g>
</g>
<!-- n23&#45;&gt;n19 -->
<g id="edge22" class="edge"><title>n23&#45;&gt;n19</title>
<path fill="none" stroke="black" d="M578.382,-2041.45C542.352,-2028.43 497.182,-2010.43 459,-1990 384.811,-1950.31 306.199,-1893.63 255.306,-1854.75"/>
<polygon fill="black" stroke="black" points="257.133,-1851.74 247.069,-1848.43 252.87,-1857.29 257.133,-1851.74"/>
</g>
<!-- n24 -->
<g id="node24" class="node"><title>n24</title>
<g id="a_node24"><a xlink:title="[[C]]:&#45;1_&#45;2">
<ellipse fill="none" stroke="black" cx="546" cy="-1942" rx="77.1743" ry="48.1667"/>
<text text-anchor="middle" x="546" y="-1960.8" font-family="Times,serif" font-size="14.00">Node24</text>
<text text-anchor="start" x="499" y="-1945.8" font-family="Times,serif" font-size="14.00">input = {}</text>
<text text-anchor="start" x="499" y="-1930.8" font-family="Times,serif" font-size="14.00">selectindex = 2</text>
<text text-anchor="middle" x="546" y="-1915.8" font-family="Times,serif" font-size="14.00">reverseMap = {}</text>
</a>
</g>
</g>
<!-- n23&#45;&gt;n24 -->
<g id="edge27" class="edge"><title>n23&#45;&gt;n24</title>
<path fill="none" stroke="black" d="M615.204,-2028.61C606.379,-2017.7 596.429,-2005.39 586.883,-1993.58"/>
<polygon fill="black" stroke="black" points="589.366,-1991.08 580.357,-1985.5 583.922,-1995.48 589.366,-1991.08"/>
</g>
<!-- n25 -->
<g id="node25" class="node"><title>n25</title>
<g id="a_node25"><a xlink:title="[[C]]:&#45;1_&#45;3">
<ellipse fill="none" stroke="black" cx="741" cy="-1942" rx="77.1743" ry="48.1667"/>
<text text-anchor="middle" x="741" y="-1960.8" font-family="Times,serif" font-size="14.00">Node25</text>
<text text-anchor="start" x="694" y="-1945.8" font-family="Times,serif" font-size="14.00">input = {}</text>
<text text-anchor="start" x="694" y="-1930.8" font-family="Times,serif" font-size="14.00">selectindex = 3</text>
<text text-anchor="middle" x="741" y="-1915.8" font-family="Times,serif" font-size="14.00">reverseMap = {}</text>
</a>
</g>
</g>
<!-- n23&#45;&gt;n25 -->
<g id="edge28" class="edge"><title>n23&#45;&gt;n25</title>
<path fill="none" stroke="black" d="M671.083,-2028.61C679.998,-2017.7 690.051,-2005.39 699.695,-1993.58"/>
<polygon fill="black" stroke="black" points="702.674,-1995.46 706.288,-1985.5 697.252,-1991.04 702.674,-1995.46"/>
</g>
<!-- n26 -->
<g id="node26" class="node"><title>n26</title>
<g id="a_node26"><a xlink:title="[[C]]:&#45;1_&#45;4">
<ellipse fill="none" stroke="black" cx="946" cy="-1942" rx="77.1743" ry="48.1667"/>
<text text-anchor="middle" x="946" y="-1960.8" font-family="Times,serif" font-size="14.00">Node26</text>
<text text-anchor="start" x="899" y="-1945.8" font-family="Times,serif" font-size="14.00">input = {}</text>
<text text-anchor="start" x="899" y="-1930.8" font-family="Times,serif" font-size="14.00">selectindex = 4</text>
<text text-anchor="middle" x="946" y="-1915.8" font-family="Times,serif" font-size="14.00">reverseMap = {}</text>
</a>
</g>
</g>
<!-- n23&#45;&gt;n26 -->
<g id="edge29" class="edge"><title>n23&#45;&gt;n26</title>
<path fill="none" stroke="black" d="M703.225,-2039.15C751.724,-2019.94 820.117,-1992.85 871.958,-1972.32"/>
<polygon fill="black" stroke="black" points="873.428,-1975.51 881.437,-1968.57 870.851,-1969 873.428,-1975.51"/>
</g>
<!-- n24&#45;&gt;n20 -->
<g id="edge23" class="edge"><title>n24&#45;&gt;n20</title>
<path fill="none" stroke="black" d="M542.361,-1893.7C541.734,-1885.54 541.076,-1876.99 540.431,-1868.6"/>
<polygon fill="black" stroke="black" points="543.909,-1868.19 539.653,-1858.48 536.93,-1868.72 543.909,-1868.19"/>
</g>
<!-- n25&#45;&gt;n21 -->
<g id="edge24" class="edge"><title>n25&#45;&gt;n21</title>
<path fill="none" stroke="black" d="M788.282,-1903.75C806.612,-1889.31 827.797,-1872.61 847.1,-1857.41"/>
<polygon fill="black" stroke="black" points="849.27,-1860.15 854.959,-1851.21 844.938,-1854.65 849.27,-1860.15"/>
</g>
<!-- n26&#45;&gt;n22 -->
<g id="edge25" class="edge"><title>n26&#45;&gt;n22</title>
<path fill="none" stroke="black" d="M1014.58,-1919.09C1082.44,-1897.42 1186.74,-1864.11 1261.61,-1840.19"/>
<polygon fill="black" stroke="black" points="1263.05,-1843.41 1271.51,-1837.03 1260.92,-1836.74 1263.05,-1843.41"/>
</g>
<!-- n27 -->
<g id="node27" class="node"><title>n27</title>
<g id="a_node27"><a xlink:title="[[C]]:&#45;1_">
<ellipse fill="none" stroke="black" cx="643" cy="-2176" rx="77.1743" ry="37.4533"/>
<text text-anchor="middle" x="643" y="-2187.3" font-family="Times,serif" font-size="14.00">Node27</text>
<text text-anchor="start" x="596" y="-2172.3" font-family="Times,serif" font-size="14.00">input = {}</text>
<text text-anchor="middle" x="643" y="-2157.3" font-family="Times,serif" font-size="14.00">reverseMap = {}</text>
</a>
</g>
</g>
<!-- n27&#45;&gt;n23 -->
<g id="edge26" class="edge"><title>n27&#45;&gt;n23</title>
<path fill="none" stroke="black" d="M643,-2138.37C643,-2129.93 643,-2120.83 643,-2112.01"/>
<polygon fill="black" stroke="black" points="646.5,-2111.84 643,-2101.84 639.5,-2111.84 646.5,-2111.84"/>
</g>
</g>
</svg>
